G04 #@! TF.GenerationSoftware,KiCad,Pcbnew,5.1.6*
G04 #@! TF.CreationDate,2020-08-19T08:50:55-04:00*
G04 #@! TF.ProjectId,southpawplate,736f7574-6870-4617-9770-6c6174652e6b,rev?*
G04 #@! TF.SameCoordinates,Original*
G04 #@! TF.FileFunction,Soldermask,Bot*
G04 #@! TF.FilePolarity,Negative*
%FSLAX46Y46*%
G04 Gerber Fmt 4.6, Leading zero omitted, Abs format (unit mm)*
G04 Created by KiCad (PCBNEW 5.1.6) date 2020-08-19 08:50:55*
%MOMM*%
%LPD*%
G01*
G04 APERTURE LIST*
%ADD10C,0.010000*%
G04 APERTURE END LIST*
D10*
G04 #@! TO.C,G\u002A\u002A\u002A*
G36*
X337814874Y-103599162D02*
G01*
X337747140Y-103755304D01*
X337769680Y-103922843D01*
X337776542Y-103943207D01*
X337832054Y-104070003D01*
X337936900Y-104280735D01*
X338080779Y-104556823D01*
X338253390Y-104879687D01*
X338444431Y-105230745D01*
X338643603Y-105591417D01*
X338840603Y-105943122D01*
X339025131Y-106267280D01*
X339186886Y-106545309D01*
X339315568Y-106758628D01*
X339400874Y-106888658D01*
X339425804Y-106918125D01*
X339615442Y-106992171D01*
X339829947Y-106956046D01*
X339933121Y-106898649D01*
X340052073Y-106744850D01*
X340073729Y-106628774D01*
X340044094Y-106521108D01*
X339961759Y-106322585D01*
X339836071Y-106053162D01*
X339676374Y-105732793D01*
X339492015Y-105381435D01*
X339473196Y-105346500D01*
X338873184Y-104235250D01*
X339542551Y-104203500D01*
X339851730Y-104185625D01*
X340058997Y-104163543D01*
X340189436Y-104132135D01*
X340268131Y-104086278D01*
X340301834Y-104048488D01*
X340384639Y-103862998D01*
X340348887Y-103676287D01*
X340292900Y-103582629D01*
X340252741Y-103532316D01*
X340200721Y-103495644D01*
X340117964Y-103470458D01*
X339985596Y-103454605D01*
X339784740Y-103445930D01*
X339496521Y-103442281D01*
X339102064Y-103441502D01*
X339056114Y-103441500D01*
X337918178Y-103441500D01*
X337814874Y-103599162D01*
G37*
X337814874Y-103599162D02*
X337747140Y-103755304D01*
X337769680Y-103922843D01*
X337776542Y-103943207D01*
X337832054Y-104070003D01*
X337936900Y-104280735D01*
X338080779Y-104556823D01*
X338253390Y-104879687D01*
X338444431Y-105230745D01*
X338643603Y-105591417D01*
X338840603Y-105943122D01*
X339025131Y-106267280D01*
X339186886Y-106545309D01*
X339315568Y-106758628D01*
X339400874Y-106888658D01*
X339425804Y-106918125D01*
X339615442Y-106992171D01*
X339829947Y-106956046D01*
X339933121Y-106898649D01*
X340052073Y-106744850D01*
X340073729Y-106628774D01*
X340044094Y-106521108D01*
X339961759Y-106322585D01*
X339836071Y-106053162D01*
X339676374Y-105732793D01*
X339492015Y-105381435D01*
X339473196Y-105346500D01*
X338873184Y-104235250D01*
X339542551Y-104203500D01*
X339851730Y-104185625D01*
X340058997Y-104163543D01*
X340189436Y-104132135D01*
X340268131Y-104086278D01*
X340301834Y-104048488D01*
X340384639Y-103862998D01*
X340348887Y-103676287D01*
X340292900Y-103582629D01*
X340252741Y-103532316D01*
X340200721Y-103495644D01*
X340117964Y-103470458D01*
X339985596Y-103454605D01*
X339784740Y-103445930D01*
X339496521Y-103442281D01*
X339102064Y-103441502D01*
X339056114Y-103441500D01*
X337918178Y-103441500D01*
X337814874Y-103599162D01*
G36*
X348092740Y-103472758D02*
G01*
X347916107Y-103510219D01*
X347773358Y-103580407D01*
X347651286Y-103670643D01*
X347334878Y-103987187D01*
X347142906Y-104327217D01*
X347090751Y-104522478D01*
X347082329Y-104932582D01*
X347188967Y-105322229D01*
X347399828Y-105665675D01*
X347679299Y-105920593D01*
X347807850Y-105998025D01*
X347940466Y-106044912D01*
X348114186Y-106068592D01*
X348366050Y-106076403D01*
X348467473Y-106076750D01*
X349027750Y-106076750D01*
X349027750Y-106382549D01*
X349045289Y-106655572D01*
X349106931Y-106825216D01*
X349226220Y-106911370D01*
X349403209Y-106934000D01*
X349581346Y-106911784D01*
X349708391Y-106856992D01*
X349722295Y-106843516D01*
X349750529Y-106762927D01*
X349769679Y-106593910D01*
X349780157Y-106326617D01*
X349782372Y-105951197D01*
X349777695Y-105516047D01*
X349765897Y-104775000D01*
X348993114Y-104775000D01*
X348971969Y-104978726D01*
X348890949Y-105122566D01*
X348816391Y-105194489D01*
X348584486Y-105324367D01*
X348341813Y-105342177D01*
X348118799Y-105248546D01*
X348040468Y-105178477D01*
X347926615Y-104982903D01*
X347884677Y-104750727D01*
X347920046Y-104534638D01*
X347966145Y-104451997D01*
X348169035Y-104278869D01*
X348410118Y-104212347D01*
X348656717Y-104256139D01*
X348816391Y-104355510D01*
X348938976Y-104492957D01*
X348987966Y-104657726D01*
X348993114Y-104775000D01*
X349765897Y-104775000D01*
X349758000Y-104279062D01*
X349558076Y-104003292D01*
X349295705Y-103716230D01*
X348993752Y-103537511D01*
X348630713Y-103457353D01*
X348349786Y-103453563D01*
X348092740Y-103472758D01*
G37*
X348092740Y-103472758D02*
X347916107Y-103510219D01*
X347773358Y-103580407D01*
X347651286Y-103670643D01*
X347334878Y-103987187D01*
X347142906Y-104327217D01*
X347090751Y-104522478D01*
X347082329Y-104932582D01*
X347188967Y-105322229D01*
X347399828Y-105665675D01*
X347679299Y-105920593D01*
X347807850Y-105998025D01*
X347940466Y-106044912D01*
X348114186Y-106068592D01*
X348366050Y-106076403D01*
X348467473Y-106076750D01*
X349027750Y-106076750D01*
X349027750Y-106382549D01*
X349045289Y-106655572D01*
X349106931Y-106825216D01*
X349226220Y-106911370D01*
X349403209Y-106934000D01*
X349581346Y-106911784D01*
X349708391Y-106856992D01*
X349722295Y-106843516D01*
X349750529Y-106762927D01*
X349769679Y-106593910D01*
X349780157Y-106326617D01*
X349782372Y-105951197D01*
X349777695Y-105516047D01*
X349765897Y-104775000D01*
X348993114Y-104775000D01*
X348971969Y-104978726D01*
X348890949Y-105122566D01*
X348816391Y-105194489D01*
X348584486Y-105324367D01*
X348341813Y-105342177D01*
X348118799Y-105248546D01*
X348040468Y-105178477D01*
X347926615Y-104982903D01*
X347884677Y-104750727D01*
X347920046Y-104534638D01*
X347966145Y-104451997D01*
X348169035Y-104278869D01*
X348410118Y-104212347D01*
X348656717Y-104256139D01*
X348816391Y-104355510D01*
X348938976Y-104492957D01*
X348987966Y-104657726D01*
X348993114Y-104775000D01*
X349765897Y-104775000D01*
X349758000Y-104279062D01*
X349558076Y-104003292D01*
X349295705Y-103716230D01*
X348993752Y-103537511D01*
X348630713Y-103457353D01*
X348349786Y-103453563D01*
X348092740Y-103472758D01*
G36*
X336380217Y-103378000D02*
G01*
X336027253Y-103379910D01*
X335779048Y-103387425D01*
X335613396Y-103403223D01*
X335508088Y-103429979D01*
X335440919Y-103470371D01*
X335416842Y-103494125D01*
X335325565Y-103674883D01*
X335330686Y-103873456D01*
X335427876Y-104034908D01*
X335518283Y-104088449D01*
X335662759Y-104121121D01*
X335887645Y-104136886D01*
X336126376Y-104139999D01*
X336399997Y-104141205D01*
X336570829Y-104149221D01*
X336663082Y-104170647D01*
X336700967Y-104212084D01*
X336708693Y-104280129D01*
X336708750Y-104298750D01*
X336701205Y-104385090D01*
X336659156Y-104432623D01*
X336553483Y-104452896D01*
X336355066Y-104457456D01*
X336308433Y-104457500D01*
X336049875Y-104469347D01*
X335855388Y-104515810D01*
X335663359Y-104613272D01*
X335619084Y-104640798D01*
X335340645Y-104885763D01*
X335156255Y-105191410D01*
X335065915Y-105533078D01*
X335069624Y-105886105D01*
X335167382Y-106225828D01*
X335359190Y-106527585D01*
X335619084Y-106750701D01*
X335823022Y-106862684D01*
X336015882Y-106917086D01*
X336262595Y-106931309D01*
X336292558Y-106931193D01*
X336665488Y-106892237D01*
X336907439Y-106806619D01*
X337126942Y-106657379D01*
X337312587Y-106471612D01*
X337435966Y-106282458D01*
X337470750Y-106149507D01*
X337423327Y-105928071D01*
X337297382Y-105786846D01*
X337117401Y-105731756D01*
X336907869Y-105768727D01*
X336693274Y-105903685D01*
X336645250Y-105949750D01*
X336464041Y-106108841D01*
X336312625Y-106162316D01*
X336158359Y-106115152D01*
X336050564Y-106040391D01*
X335916815Y-105880362D01*
X335883250Y-105695749D01*
X335918455Y-105493516D01*
X336032258Y-105352062D01*
X336236938Y-105264555D01*
X336544776Y-105224163D01*
X336739222Y-105219499D01*
X337022731Y-105214538D01*
X337221563Y-105186913D01*
X337350723Y-105117511D01*
X337425216Y-104987221D01*
X337460046Y-104776929D01*
X337470219Y-104467524D01*
X337470750Y-104287716D01*
X337469386Y-103957917D01*
X337453512Y-103719297D01*
X337405458Y-103557114D01*
X337307553Y-103456628D01*
X337142125Y-103403099D01*
X336891505Y-103381784D01*
X336538020Y-103377943D01*
X336380217Y-103378000D01*
G37*
X336380217Y-103378000D02*
X336027253Y-103379910D01*
X335779048Y-103387425D01*
X335613396Y-103403223D01*
X335508088Y-103429979D01*
X335440919Y-103470371D01*
X335416842Y-103494125D01*
X335325565Y-103674883D01*
X335330686Y-103873456D01*
X335427876Y-104034908D01*
X335518283Y-104088449D01*
X335662759Y-104121121D01*
X335887645Y-104136886D01*
X336126376Y-104139999D01*
X336399997Y-104141205D01*
X336570829Y-104149221D01*
X336663082Y-104170647D01*
X336700967Y-104212084D01*
X336708693Y-104280129D01*
X336708750Y-104298750D01*
X336701205Y-104385090D01*
X336659156Y-104432623D01*
X336553483Y-104452896D01*
X336355066Y-104457456D01*
X336308433Y-104457500D01*
X336049875Y-104469347D01*
X335855388Y-104515810D01*
X335663359Y-104613272D01*
X335619084Y-104640798D01*
X335340645Y-104885763D01*
X335156255Y-105191410D01*
X335065915Y-105533078D01*
X335069624Y-105886105D01*
X335167382Y-106225828D01*
X335359190Y-106527585D01*
X335619084Y-106750701D01*
X335823022Y-106862684D01*
X336015882Y-106917086D01*
X336262595Y-106931309D01*
X336292558Y-106931193D01*
X336665488Y-106892237D01*
X336907439Y-106806619D01*
X337126942Y-106657379D01*
X337312587Y-106471612D01*
X337435966Y-106282458D01*
X337470750Y-106149507D01*
X337423327Y-105928071D01*
X337297382Y-105786846D01*
X337117401Y-105731756D01*
X336907869Y-105768727D01*
X336693274Y-105903685D01*
X336645250Y-105949750D01*
X336464041Y-106108841D01*
X336312625Y-106162316D01*
X336158359Y-106115152D01*
X336050564Y-106040391D01*
X335916815Y-105880362D01*
X335883250Y-105695749D01*
X335918455Y-105493516D01*
X336032258Y-105352062D01*
X336236938Y-105264555D01*
X336544776Y-105224163D01*
X336739222Y-105219499D01*
X337022731Y-105214538D01*
X337221563Y-105186913D01*
X337350723Y-105117511D01*
X337425216Y-104987221D01*
X337460046Y-104776929D01*
X337470219Y-104467524D01*
X337470750Y-104287716D01*
X337469386Y-103957917D01*
X337453512Y-103719297D01*
X337405458Y-103557114D01*
X337307553Y-103456628D01*
X337142125Y-103403099D01*
X336891505Y-103381784D01*
X336538020Y-103377943D01*
X336380217Y-103378000D01*
G36*
X362698105Y-103466474D02*
G01*
X362422495Y-103540769D01*
X362376096Y-103562320D01*
X362051066Y-103792123D01*
X361818970Y-104086142D01*
X361679860Y-104422804D01*
X361633790Y-104780537D01*
X361680814Y-105137770D01*
X361820985Y-105472930D01*
X362054357Y-105764445D01*
X362370084Y-105985241D01*
X362675282Y-106083775D01*
X363029333Y-106111417D01*
X363379519Y-106069048D01*
X363662602Y-105963625D01*
X363842024Y-105836085D01*
X363982995Y-105691521D01*
X364010548Y-105650079D01*
X364068096Y-105523606D01*
X364055018Y-105424518D01*
X363974326Y-105301785D01*
X363798590Y-105143382D01*
X363602158Y-105110173D01*
X363388361Y-105202643D01*
X363372676Y-105213950D01*
X363124276Y-105332213D01*
X362878055Y-105325407D01*
X362647569Y-105194478D01*
X362611866Y-105160884D01*
X362457523Y-104938592D01*
X362429639Y-104711397D01*
X362528214Y-104486104D01*
X362611866Y-104389115D01*
X362765086Y-104258456D01*
X362910326Y-104196409D01*
X363065103Y-104208722D01*
X363246936Y-104301141D01*
X363473344Y-104479413D01*
X363761843Y-104749285D01*
X363788125Y-104775000D01*
X364042641Y-105019632D01*
X364229812Y-105185137D01*
X364368693Y-105285466D01*
X364478343Y-105334571D01*
X364568786Y-105346500D01*
X364787472Y-105296901D01*
X364925134Y-105158294D01*
X364966250Y-104975585D01*
X364943766Y-104877869D01*
X364868028Y-104752023D01*
X364726611Y-104582161D01*
X364507089Y-104352395D01*
X364378875Y-104224596D01*
X364138655Y-103995094D01*
X363911270Y-103791315D01*
X363721432Y-103634555D01*
X363593852Y-103546114D01*
X363588279Y-103543225D01*
X363335192Y-103466848D01*
X363020402Y-103441548D01*
X362698105Y-103466474D01*
G37*
X362698105Y-103466474D02*
X362422495Y-103540769D01*
X362376096Y-103562320D01*
X362051066Y-103792123D01*
X361818970Y-104086142D01*
X361679860Y-104422804D01*
X361633790Y-104780537D01*
X361680814Y-105137770D01*
X361820985Y-105472930D01*
X362054357Y-105764445D01*
X362370084Y-105985241D01*
X362675282Y-106083775D01*
X363029333Y-106111417D01*
X363379519Y-106069048D01*
X363662602Y-105963625D01*
X363842024Y-105836085D01*
X363982995Y-105691521D01*
X364010548Y-105650079D01*
X364068096Y-105523606D01*
X364055018Y-105424518D01*
X363974326Y-105301785D01*
X363798590Y-105143382D01*
X363602158Y-105110173D01*
X363388361Y-105202643D01*
X363372676Y-105213950D01*
X363124276Y-105332213D01*
X362878055Y-105325407D01*
X362647569Y-105194478D01*
X362611866Y-105160884D01*
X362457523Y-104938592D01*
X362429639Y-104711397D01*
X362528214Y-104486104D01*
X362611866Y-104389115D01*
X362765086Y-104258456D01*
X362910326Y-104196409D01*
X363065103Y-104208722D01*
X363246936Y-104301141D01*
X363473344Y-104479413D01*
X363761843Y-104749285D01*
X363788125Y-104775000D01*
X364042641Y-105019632D01*
X364229812Y-105185137D01*
X364368693Y-105285466D01*
X364478343Y-105334571D01*
X364568786Y-105346500D01*
X364787472Y-105296901D01*
X364925134Y-105158294D01*
X364966250Y-104975585D01*
X364943766Y-104877869D01*
X364868028Y-104752023D01*
X364726611Y-104582161D01*
X364507089Y-104352395D01*
X364378875Y-104224596D01*
X364138655Y-103995094D01*
X363911270Y-103791315D01*
X363721432Y-103634555D01*
X363593852Y-103546114D01*
X363588279Y-103543225D01*
X363335192Y-103466848D01*
X363020402Y-103441548D01*
X362698105Y-103466474D01*
G36*
X359623969Y-103497425D02*
G01*
X359320418Y-103617076D01*
X359242987Y-103665671D01*
X358948997Y-103937073D01*
X358766805Y-104262505D01*
X358692162Y-104651121D01*
X358692664Y-104851638D01*
X358768477Y-105273614D01*
X358941645Y-105617652D01*
X359203987Y-105875988D01*
X359547318Y-106040853D01*
X359963458Y-106104484D01*
X360013250Y-106104969D01*
X360263183Y-106091150D01*
X360489713Y-106056788D01*
X360616500Y-106019569D01*
X360791470Y-105915728D01*
X360968166Y-105772465D01*
X360987522Y-105753500D01*
X361231383Y-105426577D01*
X361364016Y-105066326D01*
X361383837Y-104771985D01*
X360584750Y-104771985D01*
X360531721Y-105024758D01*
X360391439Y-105211845D01*
X360192110Y-105320453D01*
X359961942Y-105337790D01*
X359729144Y-105251065D01*
X359653110Y-105194489D01*
X359530525Y-105057042D01*
X359481535Y-104892273D01*
X359476387Y-104775000D01*
X359527968Y-104517357D01*
X359665195Y-104331452D01*
X359861789Y-104229002D01*
X360091476Y-104221724D01*
X360327978Y-104321334D01*
X360389378Y-104367894D01*
X360528331Y-104517101D01*
X360580883Y-104683877D01*
X360584750Y-104771985D01*
X361383837Y-104771985D01*
X361389126Y-104693452D01*
X361310417Y-104328661D01*
X361131594Y-103992656D01*
X360856361Y-103706142D01*
X360590976Y-103537238D01*
X360306564Y-103452997D01*
X359968456Y-103441229D01*
X359623969Y-103497425D01*
G37*
X359623969Y-103497425D02*
X359320418Y-103617076D01*
X359242987Y-103665671D01*
X358948997Y-103937073D01*
X358766805Y-104262505D01*
X358692162Y-104651121D01*
X358692664Y-104851638D01*
X358768477Y-105273614D01*
X358941645Y-105617652D01*
X359203987Y-105875988D01*
X359547318Y-106040853D01*
X359963458Y-106104484D01*
X360013250Y-106104969D01*
X360263183Y-106091150D01*
X360489713Y-106056788D01*
X360616500Y-106019569D01*
X360791470Y-105915728D01*
X360968166Y-105772465D01*
X360987522Y-105753500D01*
X361231383Y-105426577D01*
X361364016Y-105066326D01*
X361383837Y-104771985D01*
X360584750Y-104771985D01*
X360531721Y-105024758D01*
X360391439Y-105211845D01*
X360192110Y-105320453D01*
X359961942Y-105337790D01*
X359729144Y-105251065D01*
X359653110Y-105194489D01*
X359530525Y-105057042D01*
X359481535Y-104892273D01*
X359476387Y-104775000D01*
X359527968Y-104517357D01*
X359665195Y-104331452D01*
X359861789Y-104229002D01*
X360091476Y-104221724D01*
X360327978Y-104321334D01*
X360389378Y-104367894D01*
X360528331Y-104517101D01*
X360580883Y-104683877D01*
X360584750Y-104771985D01*
X361383837Y-104771985D01*
X361389126Y-104693452D01*
X361310417Y-104328661D01*
X361131594Y-103992656D01*
X360856361Y-103706142D01*
X360590976Y-103537238D01*
X360306564Y-103452997D01*
X359968456Y-103441229D01*
X359623969Y-103497425D01*
G36*
X357809515Y-103473472D02*
G01*
X357741926Y-103520875D01*
X357712841Y-103614525D01*
X357685226Y-103804599D01*
X357662767Y-104060539D01*
X357651914Y-104267000D01*
X357629738Y-104633868D01*
X357590831Y-104896321D01*
X357527423Y-105076624D01*
X357431748Y-105197045D01*
X357299060Y-105278481D01*
X357036242Y-105342625D01*
X356795713Y-105282335D01*
X356667289Y-105193353D01*
X356589898Y-105120690D01*
X356537527Y-105043253D01*
X356503762Y-104934373D01*
X356482193Y-104767378D01*
X356466406Y-104515596D01*
X356457373Y-104320228D01*
X356440269Y-104024993D01*
X356418186Y-103773404D01*
X356394155Y-103594537D01*
X356374128Y-103520874D01*
X356269791Y-103459970D01*
X356102132Y-103444326D01*
X355925737Y-103472020D01*
X355795195Y-103541127D01*
X355795036Y-103541285D01*
X355750146Y-103612370D01*
X355720405Y-103733694D01*
X355703212Y-103927353D01*
X355695963Y-104215447D01*
X355695250Y-104388548D01*
X355698029Y-104722257D01*
X355709341Y-104960069D01*
X355733650Y-105133022D01*
X355775420Y-105272153D01*
X355839115Y-105408500D01*
X355843001Y-105415887D01*
X355990270Y-105627307D01*
X356185089Y-105826622D01*
X356259752Y-105885218D01*
X356430977Y-105991551D01*
X356598870Y-106053130D01*
X356813507Y-106084410D01*
X356985127Y-106094631D01*
X357295235Y-106094574D01*
X357514840Y-106059615D01*
X357632000Y-106012272D01*
X357968500Y-105769835D01*
X358228407Y-105456552D01*
X358305363Y-105314750D01*
X358366796Y-105116061D01*
X358408806Y-104848075D01*
X358431318Y-104542084D01*
X358434256Y-104229379D01*
X358417545Y-103941252D01*
X358381110Y-103708996D01*
X358324875Y-103563901D01*
X358309625Y-103546591D01*
X358159840Y-103469380D01*
X357974316Y-103444155D01*
X357809515Y-103473472D01*
G37*
X357809515Y-103473472D02*
X357741926Y-103520875D01*
X357712841Y-103614525D01*
X357685226Y-103804599D01*
X357662767Y-104060539D01*
X357651914Y-104267000D01*
X357629738Y-104633868D01*
X357590831Y-104896321D01*
X357527423Y-105076624D01*
X357431748Y-105197045D01*
X357299060Y-105278481D01*
X357036242Y-105342625D01*
X356795713Y-105282335D01*
X356667289Y-105193353D01*
X356589898Y-105120690D01*
X356537527Y-105043253D01*
X356503762Y-104934373D01*
X356482193Y-104767378D01*
X356466406Y-104515596D01*
X356457373Y-104320228D01*
X356440269Y-104024993D01*
X356418186Y-103773404D01*
X356394155Y-103594537D01*
X356374128Y-103520874D01*
X356269791Y-103459970D01*
X356102132Y-103444326D01*
X355925737Y-103472020D01*
X355795195Y-103541127D01*
X355795036Y-103541285D01*
X355750146Y-103612370D01*
X355720405Y-103733694D01*
X355703212Y-103927353D01*
X355695963Y-104215447D01*
X355695250Y-104388548D01*
X355698029Y-104722257D01*
X355709341Y-104960069D01*
X355733650Y-105133022D01*
X355775420Y-105272153D01*
X355839115Y-105408500D01*
X355843001Y-105415887D01*
X355990270Y-105627307D01*
X356185089Y-105826622D01*
X356259752Y-105885218D01*
X356430977Y-105991551D01*
X356598870Y-106053130D01*
X356813507Y-106084410D01*
X356985127Y-106094631D01*
X357295235Y-106094574D01*
X357514840Y-106059615D01*
X357632000Y-106012272D01*
X357968500Y-105769835D01*
X358228407Y-105456552D01*
X358305363Y-105314750D01*
X358366796Y-105116061D01*
X358408806Y-104848075D01*
X358431318Y-104542084D01*
X358434256Y-104229379D01*
X358417545Y-103941252D01*
X358381110Y-103708996D01*
X358324875Y-103563901D01*
X358309625Y-103546591D01*
X358159840Y-103469380D01*
X357974316Y-103444155D01*
X357809515Y-103473472D01*
G36*
X354824981Y-102633445D02*
G01*
X354695019Y-102689246D01*
X354691951Y-102692199D01*
X354646657Y-102797584D01*
X354619363Y-102977040D01*
X354615750Y-103073199D01*
X354615750Y-103378000D01*
X354054092Y-103378000D01*
X353720617Y-103390028D01*
X353494619Y-103432130D01*
X353358335Y-103513328D01*
X353293997Y-103642646D01*
X353282250Y-103770033D01*
X353309090Y-103929564D01*
X353400668Y-104038429D01*
X353573568Y-104104379D01*
X353844379Y-104135167D01*
X354073819Y-104140000D01*
X354633138Y-104140000D01*
X354598894Y-104566603D01*
X354572862Y-104807592D01*
X354531549Y-104964319D01*
X354458526Y-105079517D01*
X354366949Y-105169853D01*
X354156808Y-105307473D01*
X353940724Y-105334984D01*
X353691888Y-105253630D01*
X353601880Y-105205334D01*
X353359099Y-105114473D01*
X353150554Y-105130683D01*
X352995522Y-105249503D01*
X352939479Y-105358585D01*
X352925144Y-105560833D01*
X353016474Y-105741910D01*
X353192919Y-105894728D01*
X353433926Y-106012197D01*
X353718944Y-106087228D01*
X354027422Y-106112731D01*
X354338808Y-106081618D01*
X354632551Y-105986798D01*
X354685138Y-105960749D01*
X354896136Y-105813753D01*
X355095639Y-105618904D01*
X355155500Y-105542756D01*
X355346000Y-105272512D01*
X355365695Y-104034739D01*
X355370517Y-103554187D01*
X355367451Y-103190564D01*
X355356087Y-102934022D01*
X355336013Y-102774711D01*
X355310295Y-102706483D01*
X355191516Y-102643424D01*
X355010112Y-102618624D01*
X354824981Y-102633445D01*
G37*
X354824981Y-102633445D02*
X354695019Y-102689246D01*
X354691951Y-102692199D01*
X354646657Y-102797584D01*
X354619363Y-102977040D01*
X354615750Y-103073199D01*
X354615750Y-103378000D01*
X354054092Y-103378000D01*
X353720617Y-103390028D01*
X353494619Y-103432130D01*
X353358335Y-103513328D01*
X353293997Y-103642646D01*
X353282250Y-103770033D01*
X353309090Y-103929564D01*
X353400668Y-104038429D01*
X353573568Y-104104379D01*
X353844379Y-104135167D01*
X354073819Y-104140000D01*
X354633138Y-104140000D01*
X354598894Y-104566603D01*
X354572862Y-104807592D01*
X354531549Y-104964319D01*
X354458526Y-105079517D01*
X354366949Y-105169853D01*
X354156808Y-105307473D01*
X353940724Y-105334984D01*
X353691888Y-105253630D01*
X353601880Y-105205334D01*
X353359099Y-105114473D01*
X353150554Y-105130683D01*
X352995522Y-105249503D01*
X352939479Y-105358585D01*
X352925144Y-105560833D01*
X353016474Y-105741910D01*
X353192919Y-105894728D01*
X353433926Y-106012197D01*
X353718944Y-106087228D01*
X354027422Y-106112731D01*
X354338808Y-106081618D01*
X354632551Y-105986798D01*
X354685138Y-105960749D01*
X354896136Y-105813753D01*
X355095639Y-105618904D01*
X355155500Y-105542756D01*
X355346000Y-105272512D01*
X355365695Y-104034739D01*
X355370517Y-103554187D01*
X355367451Y-103190564D01*
X355356087Y-102934022D01*
X355336013Y-102774711D01*
X355310295Y-102706483D01*
X355191516Y-102643424D01*
X355010112Y-102618624D01*
X354824981Y-102633445D01*
G36*
X352125826Y-102677707D02*
G01*
X352053842Y-102732125D01*
X351975188Y-102901794D01*
X351948750Y-103162825D01*
X351948750Y-103477401D01*
X351510049Y-103452612D01*
X351133323Y-103453893D01*
X350839504Y-103514486D01*
X350593536Y-103646650D01*
X350371170Y-103850843D01*
X350207170Y-104054339D01*
X350094583Y-104266893D01*
X350024941Y-104518211D01*
X349989780Y-104837996D01*
X349980605Y-105221245D01*
X349990556Y-105581787D01*
X350026197Y-105833660D01*
X350095468Y-105993952D01*
X350206312Y-106079748D01*
X350366671Y-106108134D01*
X350393000Y-106108500D01*
X350557446Y-106088211D01*
X350673194Y-106015918D01*
X350747912Y-105874477D01*
X350789264Y-105646747D01*
X350804917Y-105315583D01*
X350805750Y-105185501D01*
X350807478Y-104892792D01*
X350816991Y-104697479D01*
X350840788Y-104569963D01*
X350885364Y-104480646D01*
X350957217Y-104399930D01*
X350983850Y-104374130D01*
X351209857Y-104231973D01*
X351450861Y-104212805D01*
X351688595Y-104317050D01*
X351738712Y-104356646D01*
X351815246Y-104428280D01*
X351867308Y-104504393D01*
X351901064Y-104611178D01*
X351922684Y-104774828D01*
X351938334Y-105021539D01*
X351948628Y-105248101D01*
X351966875Y-105592862D01*
X351993230Y-105830512D01*
X352037558Y-105980928D01*
X352109723Y-106063986D01*
X352219589Y-106099563D01*
X352375141Y-106107527D01*
X352564569Y-106067978D01*
X352645016Y-105985674D01*
X352667719Y-105880815D01*
X352685806Y-105674007D01*
X352699344Y-105386574D01*
X352708402Y-105039840D01*
X352713047Y-104655129D01*
X352713346Y-104253766D01*
X352709368Y-103857074D01*
X352701180Y-103486378D01*
X352688851Y-103163003D01*
X352672447Y-102908272D01*
X352652037Y-102743509D01*
X352634550Y-102692199D01*
X352492988Y-102627087D01*
X352303264Y-102623641D01*
X352125826Y-102677707D01*
G37*
X352125826Y-102677707D02*
X352053842Y-102732125D01*
X351975188Y-102901794D01*
X351948750Y-103162825D01*
X351948750Y-103477401D01*
X351510049Y-103452612D01*
X351133323Y-103453893D01*
X350839504Y-103514486D01*
X350593536Y-103646650D01*
X350371170Y-103850843D01*
X350207170Y-104054339D01*
X350094583Y-104266893D01*
X350024941Y-104518211D01*
X349989780Y-104837996D01*
X349980605Y-105221245D01*
X349990556Y-105581787D01*
X350026197Y-105833660D01*
X350095468Y-105993952D01*
X350206312Y-106079748D01*
X350366671Y-106108134D01*
X350393000Y-106108500D01*
X350557446Y-106088211D01*
X350673194Y-106015918D01*
X350747912Y-105874477D01*
X350789264Y-105646747D01*
X350804917Y-105315583D01*
X350805750Y-105185501D01*
X350807478Y-104892792D01*
X350816991Y-104697479D01*
X350840788Y-104569963D01*
X350885364Y-104480646D01*
X350957217Y-104399930D01*
X350983850Y-104374130D01*
X351209857Y-104231973D01*
X351450861Y-104212805D01*
X351688595Y-104317050D01*
X351738712Y-104356646D01*
X351815246Y-104428280D01*
X351867308Y-104504393D01*
X351901064Y-104611178D01*
X351922684Y-104774828D01*
X351938334Y-105021539D01*
X351948628Y-105248101D01*
X351966875Y-105592862D01*
X351993230Y-105830512D01*
X352037558Y-105980928D01*
X352109723Y-106063986D01*
X352219589Y-106099563D01*
X352375141Y-106107527D01*
X352564569Y-106067978D01*
X352645016Y-105985674D01*
X352667719Y-105880815D01*
X352685806Y-105674007D01*
X352699344Y-105386574D01*
X352708402Y-105039840D01*
X352713047Y-104655129D01*
X352713346Y-104253766D01*
X352709368Y-103857074D01*
X352701180Y-103486378D01*
X352688851Y-103163003D01*
X352672447Y-102908272D01*
X352652037Y-102743509D01*
X352634550Y-102692199D01*
X352492988Y-102627087D01*
X352303264Y-102623641D01*
X352125826Y-102677707D01*
G36*
X345264781Y-103450740D02*
G01*
X345083942Y-103489913D01*
X344910942Y-103576194D01*
X344800725Y-103647875D01*
X344583698Y-103815933D01*
X344427439Y-103996739D01*
X344321813Y-104215361D01*
X344256684Y-104496863D01*
X344221916Y-104866315D01*
X344212434Y-105102848D01*
X344206443Y-105483025D01*
X344217877Y-105754456D01*
X344253260Y-105934929D01*
X344319113Y-106042227D01*
X344421960Y-106094138D01*
X344568323Y-106108446D01*
X344581237Y-106108500D01*
X344749127Y-106094196D01*
X344855763Y-106058703D01*
X344867001Y-106047426D01*
X344955308Y-106019002D01*
X345065382Y-106047426D01*
X345287633Y-106094252D01*
X345571583Y-106104906D01*
X345861102Y-106081624D01*
X346100063Y-106026642D01*
X346153978Y-106004065D01*
X346454290Y-105792387D01*
X346698899Y-105497176D01*
X346865372Y-105153893D01*
X346931274Y-104797996D01*
X346931337Y-104792581D01*
X346106732Y-104792581D01*
X346054901Y-105000664D01*
X345935472Y-105178164D01*
X345765508Y-105303517D01*
X345562074Y-105355163D01*
X345342234Y-105311540D01*
X345240631Y-105253779D01*
X345070784Y-105067271D01*
X344993985Y-104832970D01*
X345023702Y-104593491D01*
X345028298Y-104581970D01*
X345176722Y-104358412D01*
X345379976Y-104230398D01*
X345609457Y-104204555D01*
X345836562Y-104287508D01*
X345939341Y-104370909D01*
X346073900Y-104575475D01*
X346106732Y-104792581D01*
X346931337Y-104792581D01*
X346931542Y-104775000D01*
X346877009Y-104439210D01*
X346729019Y-104105585D01*
X346510991Y-103810343D01*
X346246342Y-103589701D01*
X346124665Y-103527042D01*
X345949840Y-103480940D01*
X345708206Y-103449883D01*
X345512716Y-103441500D01*
X345264781Y-103450740D01*
G37*
X345264781Y-103450740D02*
X345083942Y-103489913D01*
X344910942Y-103576194D01*
X344800725Y-103647875D01*
X344583698Y-103815933D01*
X344427439Y-103996739D01*
X344321813Y-104215361D01*
X344256684Y-104496863D01*
X344221916Y-104866315D01*
X344212434Y-105102848D01*
X344206443Y-105483025D01*
X344217877Y-105754456D01*
X344253260Y-105934929D01*
X344319113Y-106042227D01*
X344421960Y-106094138D01*
X344568323Y-106108446D01*
X344581237Y-106108500D01*
X344749127Y-106094196D01*
X344855763Y-106058703D01*
X344867001Y-106047426D01*
X344955308Y-106019002D01*
X345065382Y-106047426D01*
X345287633Y-106094252D01*
X345571583Y-106104906D01*
X345861102Y-106081624D01*
X346100063Y-106026642D01*
X346153978Y-106004065D01*
X346454290Y-105792387D01*
X346698899Y-105497176D01*
X346865372Y-105153893D01*
X346931274Y-104797996D01*
X346931337Y-104792581D01*
X346106732Y-104792581D01*
X346054901Y-105000664D01*
X345935472Y-105178164D01*
X345765508Y-105303517D01*
X345562074Y-105355163D01*
X345342234Y-105311540D01*
X345240631Y-105253779D01*
X345070784Y-105067271D01*
X344993985Y-104832970D01*
X345023702Y-104593491D01*
X345028298Y-104581970D01*
X345176722Y-104358412D01*
X345379976Y-104230398D01*
X345609457Y-104204555D01*
X345836562Y-104287508D01*
X345939341Y-104370909D01*
X346073900Y-104575475D01*
X346106732Y-104792581D01*
X346931337Y-104792581D01*
X346931542Y-104775000D01*
X346877009Y-104439210D01*
X346729019Y-104105585D01*
X346510991Y-103810343D01*
X346246342Y-103589701D01*
X346124665Y-103527042D01*
X345949840Y-103480940D01*
X345708206Y-103449883D01*
X345512716Y-103441500D01*
X345264781Y-103450740D01*
G36*
X343353280Y-103448536D02*
G01*
X343210056Y-103507187D01*
X343198451Y-103517699D01*
X343160619Y-103621718D01*
X343135736Y-103846543D01*
X343123603Y-104194439D01*
X343122250Y-104398924D01*
X343117473Y-104776781D01*
X343099710Y-105044015D01*
X343063817Y-105216763D01*
X343004648Y-105311162D01*
X342917058Y-105343346D01*
X342823676Y-105335259D01*
X342764903Y-105304831D01*
X342725654Y-105223802D01*
X342699191Y-105067140D01*
X342678775Y-104809818D01*
X342677750Y-104793176D01*
X342655664Y-104544124D01*
X342625089Y-104343094D01*
X342591681Y-104224649D01*
X342582500Y-104210904D01*
X342401864Y-104114806D01*
X342192884Y-104117442D01*
X342038736Y-104193820D01*
X341957658Y-104275425D01*
X341906391Y-104381968D01*
X341874867Y-104547045D01*
X341853022Y-104804252D01*
X341852250Y-104816249D01*
X341831229Y-105073067D01*
X341803750Y-105228356D01*
X341762652Y-105307587D01*
X341706325Y-105335265D01*
X341592455Y-105341038D01*
X341511100Y-105297434D01*
X341457112Y-105188316D01*
X341425348Y-104997548D01*
X341410662Y-104708993D01*
X341407750Y-104398924D01*
X341404511Y-104030929D01*
X341390150Y-103771203D01*
X341357698Y-103601086D01*
X341300191Y-103501914D01*
X341210662Y-103455026D01*
X341082142Y-103441760D01*
X341050336Y-103441500D01*
X340901665Y-103451511D01*
X340794376Y-103493235D01*
X340721832Y-103584204D01*
X340677400Y-103741952D01*
X340654444Y-103984013D01*
X340646329Y-104327919D01*
X340645750Y-104510651D01*
X340652369Y-104939779D01*
X340676740Y-105264554D01*
X340725636Y-105507148D01*
X340805830Y-105689733D01*
X340924096Y-105834482D01*
X341087207Y-105963565D01*
X341090218Y-105965625D01*
X341298927Y-106057252D01*
X341562722Y-106105387D01*
X341832703Y-106107519D01*
X342059971Y-106061139D01*
X342141423Y-106019594D01*
X342256156Y-105963071D01*
X342359167Y-105998076D01*
X342389938Y-106019594D01*
X342562923Y-106086253D01*
X342806701Y-106109544D01*
X343073351Y-106091216D01*
X343314950Y-106033018D01*
X343424456Y-105981843D01*
X343593350Y-105863641D01*
X343715812Y-105731537D01*
X343798972Y-105563545D01*
X343849956Y-105337679D01*
X343875894Y-105031952D01*
X343883915Y-104624378D01*
X343884013Y-104564450D01*
X343879483Y-104232703D01*
X343866893Y-103939866D01*
X343848023Y-103713104D01*
X343824652Y-103579580D01*
X343818516Y-103564325D01*
X343711836Y-103481190D01*
X343538649Y-103441232D01*
X343353280Y-103448536D01*
G37*
X343353280Y-103448536D02*
X343210056Y-103507187D01*
X343198451Y-103517699D01*
X343160619Y-103621718D01*
X343135736Y-103846543D01*
X343123603Y-104194439D01*
X343122250Y-104398924D01*
X343117473Y-104776781D01*
X343099710Y-105044015D01*
X343063817Y-105216763D01*
X343004648Y-105311162D01*
X342917058Y-105343346D01*
X342823676Y-105335259D01*
X342764903Y-105304831D01*
X342725654Y-105223802D01*
X342699191Y-105067140D01*
X342678775Y-104809818D01*
X342677750Y-104793176D01*
X342655664Y-104544124D01*
X342625089Y-104343094D01*
X342591681Y-104224649D01*
X342582500Y-104210904D01*
X342401864Y-104114806D01*
X342192884Y-104117442D01*
X342038736Y-104193820D01*
X341957658Y-104275425D01*
X341906391Y-104381968D01*
X341874867Y-104547045D01*
X341853022Y-104804252D01*
X341852250Y-104816249D01*
X341831229Y-105073067D01*
X341803750Y-105228356D01*
X341762652Y-105307587D01*
X341706325Y-105335265D01*
X341592455Y-105341038D01*
X341511100Y-105297434D01*
X341457112Y-105188316D01*
X341425348Y-104997548D01*
X341410662Y-104708993D01*
X341407750Y-104398924D01*
X341404511Y-104030929D01*
X341390150Y-103771203D01*
X341357698Y-103601086D01*
X341300191Y-103501914D01*
X341210662Y-103455026D01*
X341082142Y-103441760D01*
X341050336Y-103441500D01*
X340901665Y-103451511D01*
X340794376Y-103493235D01*
X340721832Y-103584204D01*
X340677400Y-103741952D01*
X340654444Y-103984013D01*
X340646329Y-104327919D01*
X340645750Y-104510651D01*
X340652369Y-104939779D01*
X340676740Y-105264554D01*
X340725636Y-105507148D01*
X340805830Y-105689733D01*
X340924096Y-105834482D01*
X341087207Y-105963565D01*
X341090218Y-105965625D01*
X341298927Y-106057252D01*
X341562722Y-106105387D01*
X341832703Y-106107519D01*
X342059971Y-106061139D01*
X342141423Y-106019594D01*
X342256156Y-105963071D01*
X342359167Y-105998076D01*
X342389938Y-106019594D01*
X342562923Y-106086253D01*
X342806701Y-106109544D01*
X343073351Y-106091216D01*
X343314950Y-106033018D01*
X343424456Y-105981843D01*
X343593350Y-105863641D01*
X343715812Y-105731537D01*
X343798972Y-105563545D01*
X343849956Y-105337679D01*
X343875894Y-105031952D01*
X343883915Y-104624378D01*
X343884013Y-104564450D01*
X343879483Y-104232703D01*
X343866893Y-103939866D01*
X343848023Y-103713104D01*
X343824652Y-103579580D01*
X343818516Y-103564325D01*
X343711836Y-103481190D01*
X343538649Y-103441232D01*
X343353280Y-103448536D01*
G04 #@! TD*
M02*
