G04 #@! TF.GenerationSoftware,KiCad,Pcbnew,5.1.6*
G04 #@! TF.CreationDate,2020-08-19T08:50:55-04:00*
G04 #@! TF.ProjectId,southpawplate,736f7574-6870-4617-9770-6c6174652e6b,rev?*
G04 #@! TF.SameCoordinates,Original*
G04 #@! TF.FileFunction,Profile,NP*
%FSLAX46Y46*%
G04 Gerber Fmt 4.6, Leading zero omitted, Abs format (unit mm)*
G04 Created by KiCad (PCBNEW 5.1.6) date 2020-08-19 08:50:55*
%MOMM*%
%LPD*%
G01*
G04 APERTURE LIST*
G04 #@! TA.AperFunction,Profile*
%ADD10C,0.200000*%
G04 #@! TD*
G04 #@! TA.AperFunction,Profile*
%ADD11C,0.050000*%
G04 #@! TD*
G04 APERTURE END LIST*
D10*
X125043000Y-98828860D02*
X125043000Y-98229420D01*
X111042000Y-98828860D02*
X125043000Y-98828860D01*
X111042000Y-98229420D02*
X111042000Y-98828860D01*
X110243000Y-98229420D02*
X111042000Y-98229420D01*
X110243000Y-85428800D02*
X110243000Y-98229420D01*
X111042000Y-85428800D02*
X110243000Y-85428800D01*
X111042000Y-84829400D02*
X111042000Y-85428800D01*
X148855000Y-84829400D02*
X134856000Y-84829400D01*
X148855000Y-85428800D02*
X148855000Y-84829400D01*
X149656000Y-85428800D02*
X148855000Y-85428800D01*
X149656000Y-98229420D02*
X149656000Y-85428800D01*
X148855000Y-98229420D02*
X149656000Y-98229420D01*
X148855000Y-98828860D02*
X148855000Y-98229420D01*
X134856000Y-98828860D02*
X148855000Y-98828860D01*
X134856000Y-98229420D02*
X134856000Y-98828860D01*
X134055000Y-98229420D02*
X134856000Y-98229420D01*
X134055000Y-85428800D02*
X134055000Y-98229420D01*
X134856000Y-85428800D02*
X134055000Y-85428800D01*
X134856000Y-84829400D02*
X134856000Y-85428800D01*
X291730000Y-84829400D02*
X277731000Y-84829400D01*
X291730000Y-85428800D02*
X291730000Y-84829400D01*
X292531000Y-85428800D02*
X291730000Y-85428800D01*
X292531000Y-98229420D02*
X292531000Y-85428800D01*
X291730000Y-98229420D02*
X292531000Y-98229420D01*
X291730000Y-98828860D02*
X291730000Y-98229420D01*
X277731000Y-98828860D02*
X291730000Y-98828860D01*
X277731000Y-98229420D02*
X277731000Y-98828860D01*
X276930000Y-98229420D02*
X277731000Y-98229420D01*
X276930000Y-85428800D02*
X276930000Y-98229420D01*
X277731000Y-85428800D02*
X276930000Y-85428800D01*
X277731000Y-84829400D02*
X277731000Y-85428800D01*
X315543000Y-84829400D02*
X301542000Y-84829400D01*
X315543000Y-85428800D02*
X315543000Y-84829400D01*
X316342000Y-85428800D02*
X315543000Y-85428800D01*
X316342000Y-98229420D02*
X316342000Y-85428800D01*
X315543000Y-98229420D02*
X316342000Y-98229420D01*
X315543000Y-98828860D02*
X315543000Y-98229420D01*
X301542000Y-98828860D02*
X315543000Y-98828860D01*
X301542000Y-98229420D02*
X301542000Y-98828860D01*
X300743000Y-98229420D02*
X301542000Y-98229420D01*
X300743000Y-85428800D02*
X300743000Y-98229420D01*
X301542000Y-85428800D02*
X300743000Y-85428800D01*
X301542000Y-84829400D02*
X301542000Y-85428800D01*
X339355000Y-84829400D02*
X325356000Y-84829400D01*
X339355000Y-85428800D02*
X339355000Y-84829400D01*
X340156000Y-85428800D02*
X339355000Y-85428800D01*
X340156000Y-98229420D02*
X340156000Y-85428800D01*
X339355000Y-98229420D02*
X340156000Y-98229420D01*
X339355000Y-98828860D02*
X339355000Y-98229420D01*
X325356000Y-98828860D02*
X339355000Y-98828860D01*
X325356000Y-98229420D02*
X325356000Y-98828860D01*
X324555000Y-98229420D02*
X325356000Y-98229420D01*
X324555000Y-85428800D02*
X324555000Y-98229420D01*
X325356000Y-85428800D02*
X324555000Y-85428800D01*
X325356000Y-84829400D02*
X325356000Y-85428800D01*
X363168000Y-84829400D02*
X349167000Y-84829400D01*
X363168000Y-85428800D02*
X363168000Y-84829400D01*
X363969000Y-85428800D02*
X363168000Y-85428800D01*
X363969000Y-98229420D02*
X363969000Y-85428800D01*
X363168000Y-98229420D02*
X363969000Y-98229420D01*
X363168000Y-98828860D02*
X363168000Y-98229420D01*
X349167000Y-98828860D02*
X363168000Y-98828860D01*
X349167000Y-98229420D02*
X349167000Y-98828860D01*
X348368000Y-98229420D02*
X349167000Y-98229420D01*
X348368000Y-85428800D02*
X348368000Y-98229420D01*
X349167000Y-85428800D02*
X348368000Y-85428800D01*
X349167000Y-84829400D02*
X349167000Y-85428800D01*
X32174100Y-84829400D02*
X18174700Y-84829400D01*
X32174100Y-85428800D02*
X32174100Y-84829400D01*
X32974800Y-85428800D02*
X32174100Y-85428800D01*
X32974800Y-89529900D02*
X32974800Y-85428800D01*
X33699600Y-89529900D02*
X32974800Y-89529900D01*
X33699600Y-86299700D02*
X33699600Y-89529900D01*
X35424900Y-86299700D02*
X33699600Y-86299700D01*
X35424900Y-85377800D02*
X35424900Y-86299700D01*
X38724000Y-85377800D02*
X35424900Y-85377800D01*
X38724000Y-86299700D02*
X38724000Y-85377800D01*
X40449300Y-86299700D02*
X38724000Y-86299700D01*
X40449300Y-89529900D02*
X40449300Y-86299700D01*
X41274700Y-89529900D02*
X40449300Y-89529900D01*
X41274700Y-92328660D02*
X41274700Y-89529900D01*
X40449300Y-92328660D02*
X41274700Y-92328660D01*
X40449300Y-98598730D02*
X40449300Y-92328660D01*
X38724000Y-98598730D02*
X40449300Y-98598730D01*
X38724000Y-99579890D02*
X38724000Y-98598730D01*
X78330000Y-30654400D02*
X78330000Y-28929300D01*
X79249400Y-30654400D02*
X78330000Y-30654400D01*
X79249400Y-33953600D02*
X79249400Y-30654400D01*
X78330000Y-33953600D02*
X79249400Y-33953600D01*
X78330000Y-35679001D02*
X78330000Y-33953600D01*
X75100000Y-35679001D02*
X78330000Y-35679001D01*
X75100000Y-36403600D02*
X75100000Y-35679001D01*
X79199600Y-36403600D02*
X75100000Y-36403600D01*
X79199600Y-37204400D02*
X79199600Y-36403600D01*
X79799000Y-37204400D02*
X79199600Y-37204400D01*
X79799000Y-51203700D02*
X79799000Y-37204400D01*
X79199600Y-51203700D02*
X79799000Y-51203700D01*
X79199600Y-52004500D02*
X79199600Y-51203700D01*
X75100000Y-52004500D02*
X79199600Y-52004500D01*
X75100000Y-52729500D02*
X75100000Y-52004500D01*
X78330000Y-52729500D02*
X75100000Y-52729500D01*
X78330000Y-54454600D02*
X78330000Y-52729500D01*
X79249400Y-54454600D02*
X78330000Y-54454600D01*
X79249400Y-57753800D02*
X79249400Y-54454600D01*
X78330000Y-57753800D02*
X79249400Y-57753800D01*
X78330000Y-59478800D02*
X78330000Y-57753800D01*
X75100000Y-59478800D02*
X78330000Y-59478800D01*
X75100000Y-60304300D02*
X75100000Y-59478800D01*
X72299999Y-60304300D02*
X75100000Y-60304300D01*
X72299999Y-59478800D02*
X72299999Y-60304300D01*
X66029700Y-59478800D02*
X72299999Y-59478800D01*
X66029700Y-57753800D02*
X66029700Y-59478800D01*
X65050100Y-57753800D02*
X66029700Y-57753800D01*
X65050100Y-54454600D02*
X65050100Y-57753800D01*
X66029700Y-54454600D02*
X65050100Y-54454600D01*
X66029700Y-52729500D02*
X66029700Y-54454600D01*
X70500100Y-52729500D02*
X66029700Y-52729500D01*
X70500100Y-52004500D02*
X70500100Y-52729500D01*
X66399100Y-52004500D02*
X70500100Y-52004500D01*
X66399100Y-51203700D02*
X66399100Y-52004500D01*
X65799700Y-51203700D02*
X66399100Y-51203700D01*
X65799700Y-37204400D02*
X65799700Y-51203700D01*
X66399100Y-37204400D02*
X65799700Y-37204400D01*
X66399100Y-36403600D02*
X66399100Y-37204400D01*
X70500100Y-36403600D02*
X66399100Y-36403600D01*
X70500100Y-35679001D02*
X70500100Y-36403600D01*
X66029700Y-35679001D02*
X70500100Y-35679001D01*
X66029700Y-33953600D02*
X66029700Y-35679001D01*
X65050100Y-33953600D02*
X66029700Y-33953600D01*
X65050100Y-30654400D02*
X65050100Y-33953600D01*
X66029700Y-30654400D02*
X65050100Y-30654400D01*
X66029700Y-28929300D02*
X66029700Y-30654400D01*
X72299999Y-28929300D02*
X66029700Y-28929300D01*
X72299999Y-28103800D02*
X72299999Y-28929300D01*
X22649200Y-46729400D02*
X8649650Y-46729400D01*
X22649200Y-47328800D02*
X22649200Y-46729400D01*
X23449800Y-47328800D02*
X22649200Y-47328800D01*
X23449800Y-60129400D02*
X23449800Y-47328800D01*
X22649200Y-60129400D02*
X23449800Y-60129400D01*
X22649200Y-60728700D02*
X22649200Y-60129400D01*
X8649650Y-60728700D02*
X22649200Y-60728700D01*
X8649650Y-60129400D02*
X8649650Y-60728700D01*
X7849010Y-60129400D02*
X8649650Y-60129400D01*
X7849010Y-47328800D02*
X7849010Y-60129400D01*
X8649650Y-47328800D02*
X7849010Y-47328800D01*
X8649650Y-46729400D02*
X8649650Y-47328800D01*
X41699000Y-46729400D02*
X27699700Y-46729400D01*
X41699000Y-47328800D02*
X41699000Y-46729400D01*
X42499800Y-47328800D02*
X41699000Y-47328800D01*
X42499800Y-60129400D02*
X42499800Y-47328800D01*
X41699000Y-60129400D02*
X42499800Y-60129400D01*
X41699000Y-60728700D02*
X41699000Y-60129400D01*
X27699700Y-60728700D02*
X41699000Y-60728700D01*
X27699700Y-60129400D02*
X27699700Y-60728700D01*
X26899000Y-60129400D02*
X27699700Y-60129400D01*
X26899000Y-47328800D02*
X26899000Y-60129400D01*
X27699700Y-47328800D02*
X26899000Y-47328800D01*
X27699700Y-46729400D02*
X27699700Y-47328800D01*
X60749000Y-46729400D02*
X46749700Y-46729400D01*
X60749000Y-47328800D02*
X60749000Y-46729400D01*
X61549800Y-47328800D02*
X60749000Y-47328800D01*
X61549800Y-60129400D02*
X61549800Y-47328800D01*
X60749000Y-60129400D02*
X61549800Y-60129400D01*
X60749000Y-60728700D02*
X60749000Y-60129400D01*
X46749700Y-60728700D02*
X60749000Y-60728700D01*
X46749700Y-60129400D02*
X46749700Y-60728700D01*
X45948900Y-60129400D02*
X46749700Y-60129400D01*
X45948900Y-47328800D02*
X45948900Y-60129400D01*
X46749700Y-47328800D02*
X45948900Y-47328800D01*
X46749700Y-46729400D02*
X46749700Y-47328800D01*
X105992800Y-46729400D02*
X91992100Y-46729400D01*
X105992800Y-47328800D02*
X105992800Y-46729400D01*
X106792000Y-47328800D02*
X105992800Y-47328800D01*
X106792000Y-60129400D02*
X106792000Y-47328800D01*
X105992800Y-60129400D02*
X106792000Y-60129400D01*
X105992800Y-60728700D02*
X105992800Y-60129400D01*
X91992100Y-60728700D02*
X105992800Y-60728700D01*
X91992100Y-60129400D02*
X91992100Y-60728700D01*
X91192700Y-60129400D02*
X91992100Y-60129400D01*
X91192700Y-47328800D02*
X91192700Y-60129400D01*
X91992100Y-47328800D02*
X91192700Y-47328800D01*
X91992100Y-46729400D02*
X91992100Y-47328800D01*
X132187000Y-46729400D02*
X118187000Y-46729400D01*
X132187000Y-47328800D02*
X132187000Y-46729400D01*
X132986000Y-47328800D02*
X132187000Y-47328800D01*
X132986000Y-60129400D02*
X132986000Y-47328800D01*
X132187000Y-60129400D02*
X132986000Y-60129400D01*
X132187000Y-60728700D02*
X132187000Y-60129400D01*
X118187000Y-60728700D02*
X132187000Y-60728700D01*
X118187000Y-60129400D02*
X118187000Y-60728700D01*
X117386000Y-60129400D02*
X118187000Y-60129400D01*
X117386000Y-47328800D02*
X117386000Y-60129400D01*
X118187000Y-47328800D02*
X117386000Y-47328800D01*
X118187000Y-46729400D02*
X118187000Y-47328800D01*
X151237000Y-46729400D02*
X137237000Y-46729400D01*
X151237000Y-47328800D02*
X151237000Y-46729400D01*
X152036000Y-47328800D02*
X151237000Y-47328800D01*
X152036000Y-60129400D02*
X152036000Y-47328800D01*
X151237000Y-60129400D02*
X152036000Y-60129400D01*
X151237000Y-60728700D02*
X151237000Y-60129400D01*
X137237000Y-60728700D02*
X151237000Y-60728700D01*
X137237000Y-60129400D02*
X137237000Y-60728700D01*
X136436000Y-60129400D02*
X137237000Y-60129400D01*
X136436000Y-47328800D02*
X136436000Y-60129400D01*
X137237000Y-47328800D02*
X136436000Y-47328800D01*
X137237000Y-46729400D02*
X137237000Y-47328800D01*
X170287000Y-46729400D02*
X156287000Y-46729400D01*
X170287000Y-47328800D02*
X170287000Y-46729400D01*
X171086000Y-47328800D02*
X170287000Y-47328800D01*
X171086000Y-60129400D02*
X171086000Y-47328800D01*
X170287000Y-60129400D02*
X171086000Y-60129400D01*
X170287000Y-60728700D02*
X170287000Y-60129400D01*
X156287000Y-60728700D02*
X170287000Y-60728700D01*
X156287000Y-60129400D02*
X156287000Y-60728700D01*
X155486000Y-60129400D02*
X156287000Y-60129400D01*
X155486000Y-47328800D02*
X155486000Y-60129400D01*
X156287000Y-47328800D02*
X155486000Y-47328800D01*
X156287000Y-46729400D02*
X156287000Y-47328800D01*
X189337000Y-46729400D02*
X175337000Y-46729400D01*
X189337000Y-47328800D02*
X189337000Y-46729400D01*
X190136000Y-47328800D02*
X189337000Y-47328800D01*
X190136000Y-60129400D02*
X190136000Y-47328800D01*
X189337000Y-60129400D02*
X190136000Y-60129400D01*
X189337000Y-60728700D02*
X189337000Y-60129400D01*
X175337000Y-60728700D02*
X189337000Y-60728700D01*
X175337000Y-60129400D02*
X175337000Y-60728700D01*
X174536000Y-60129400D02*
X175337000Y-60129400D01*
X174536000Y-47328800D02*
X174536000Y-60129400D01*
X175337000Y-47328800D02*
X174536000Y-47328800D01*
X175337000Y-46729400D02*
X175337000Y-47328800D01*
X208387000Y-46729400D02*
X194387000Y-46729400D01*
X208387000Y-47328800D02*
X208387000Y-46729400D01*
X209186000Y-47328800D02*
X208387000Y-47328800D01*
X209186000Y-60129400D02*
X209186000Y-47328800D01*
X208387000Y-60129400D02*
X209186000Y-60129400D01*
X208387000Y-60728700D02*
X208387000Y-60129400D01*
X194387000Y-60728700D02*
X208387000Y-60728700D01*
X194387000Y-60129400D02*
X194387000Y-60728700D01*
X193586000Y-60129400D02*
X194387000Y-60129400D01*
X193586000Y-47328800D02*
X193586000Y-60129400D01*
X194387000Y-47328800D02*
X193586000Y-47328800D01*
X194387000Y-46729400D02*
X194387000Y-47328800D01*
X227437000Y-46729400D02*
X213437000Y-46729400D01*
X227437000Y-47328800D02*
X227437000Y-46729400D01*
X228236000Y-47328800D02*
X227437000Y-47328800D01*
X228236000Y-60129400D02*
X228236000Y-47328800D01*
X227437000Y-60129400D02*
X228236000Y-60129400D01*
X227437000Y-60728700D02*
X227437000Y-60129400D01*
X213437000Y-60728700D02*
X227437000Y-60728700D01*
X213437000Y-60129400D02*
X213437000Y-60728700D01*
X212636000Y-60129400D02*
X213437000Y-60129400D01*
X212636000Y-47328800D02*
X212636000Y-60129400D01*
X213437000Y-47328800D02*
X212636000Y-47328800D01*
X213437000Y-46729400D02*
X213437000Y-47328800D01*
X246487000Y-46729400D02*
X232487000Y-46729400D01*
X246487000Y-47328800D02*
X246487000Y-46729400D01*
X247286000Y-47328800D02*
X246487000Y-47328800D01*
X247286000Y-60129400D02*
X247286000Y-47328800D01*
X246487000Y-60129400D02*
X247286000Y-60129400D01*
X246487000Y-60728700D02*
X246487000Y-60129400D01*
X232487000Y-60728700D02*
X246487000Y-60728700D01*
X232487000Y-60129400D02*
X232487000Y-60728700D01*
X231686000Y-60129400D02*
X232487000Y-60129400D01*
X231686000Y-47328800D02*
X231686000Y-60129400D01*
X232487000Y-47328800D02*
X231686000Y-47328800D01*
X232487000Y-46729400D02*
X232487000Y-47328800D01*
X265537000Y-46729400D02*
X251537000Y-46729400D01*
X265537000Y-47328800D02*
X265537000Y-46729400D01*
X266335999Y-47328800D02*
X265537000Y-47328800D01*
X266335999Y-60129400D02*
X266335999Y-47328800D01*
X265537000Y-60129400D02*
X266335999Y-60129400D01*
X265537000Y-60728700D02*
X265537000Y-60129400D01*
X251537000Y-60728700D02*
X265537000Y-60728700D01*
X251537000Y-60129400D02*
X251537000Y-60728700D01*
X250736000Y-60129400D02*
X251537000Y-60129400D01*
X250736000Y-47328800D02*
X250736000Y-60129400D01*
X251537000Y-47328800D02*
X250736000Y-47328800D01*
X251537000Y-46729400D02*
X251537000Y-47328800D01*
X284587000Y-46729400D02*
X270587000Y-46729400D01*
X284587000Y-47328800D02*
X284587000Y-46729400D01*
X285386000Y-47328800D02*
X284587000Y-47328800D01*
X285386000Y-60129400D02*
X285386000Y-47328800D01*
X284587000Y-60129400D02*
X285386000Y-60129400D01*
X284587000Y-60728700D02*
X284587000Y-60129400D01*
X270587000Y-60728700D02*
X284587000Y-60728700D01*
X270587000Y-60129400D02*
X270587000Y-60728700D01*
X269785999Y-60129400D02*
X270587000Y-60129400D01*
X269785999Y-47328800D02*
X269785999Y-60129400D01*
X270587000Y-47328800D02*
X269785999Y-47328800D01*
X270587000Y-46729400D02*
X270587000Y-47328800D01*
X303637000Y-46729400D02*
X289637000Y-46729400D01*
X303637000Y-47328800D02*
X303637000Y-46729400D01*
X304436000Y-47328800D02*
X303637000Y-47328800D01*
X304436000Y-60129400D02*
X304436000Y-47328800D01*
X303637000Y-60129400D02*
X304436000Y-60129400D01*
X303637000Y-60728700D02*
X303637000Y-60129400D01*
X289637000Y-60728700D02*
X303637000Y-60728700D01*
X289637000Y-60129400D02*
X289637000Y-60728700D01*
X288836000Y-60129400D02*
X289637000Y-60129400D01*
X288836000Y-47328800D02*
X288836000Y-60129400D01*
X289637000Y-47328800D02*
X288836000Y-47328800D01*
X289637000Y-46729400D02*
X289637000Y-47328800D01*
X322687000Y-46729400D02*
X308687000Y-46729400D01*
X322687000Y-47328800D02*
X322687000Y-46729400D01*
X323486000Y-47328800D02*
X322687000Y-47328800D01*
X323486000Y-60129400D02*
X323486000Y-47328800D01*
X322687000Y-60129400D02*
X323486000Y-60129400D01*
X322687000Y-60728700D02*
X322687000Y-60129400D01*
X308687000Y-60728700D02*
X322687000Y-60728700D01*
X308687000Y-60129400D02*
X308687000Y-60728700D01*
X307886000Y-60129400D02*
X308687000Y-60129400D01*
X307886000Y-47328800D02*
X307886000Y-60129400D01*
X308687000Y-47328800D02*
X307886000Y-47328800D01*
X308687000Y-46729400D02*
X308687000Y-47328800D01*
X353643000Y-46729400D02*
X339642000Y-46729400D01*
X353643000Y-47328800D02*
X353643000Y-46729400D01*
X354442000Y-47328800D02*
X353643000Y-47328800D01*
X354442000Y-51429900D02*
X354442000Y-47328800D01*
X355167000Y-51429900D02*
X354442000Y-51429900D01*
X355167000Y-48199800D02*
X355167000Y-51429900D01*
X356892000Y-48199800D02*
X355167000Y-48199800D01*
X356892000Y-47279100D02*
X356892000Y-48199800D01*
X360194000Y-47279100D02*
X356892000Y-47279100D01*
X360194000Y-48199800D02*
X360194000Y-47279100D01*
X361919000Y-48199800D02*
X360194000Y-48199800D01*
X361919000Y-51429900D02*
X361919000Y-48199800D01*
X362741000Y-51429900D02*
X361919000Y-51429900D01*
X362741000Y-54228800D02*
X362741000Y-51429900D01*
X361919000Y-54228800D02*
X362741000Y-54228800D01*
X361919000Y-60498700D02*
X361919000Y-54228800D01*
X360194000Y-60498700D02*
X361919000Y-60498700D01*
X360194000Y-61479800D02*
X360194000Y-60498700D01*
X356892000Y-61479800D02*
X360194000Y-61479800D01*
X356892000Y-60498700D02*
X356892000Y-61479800D01*
X355167000Y-60498700D02*
X356892000Y-60498700D01*
X355167000Y-56029700D02*
X355167000Y-60498700D01*
X354442000Y-56029700D02*
X355167000Y-56029700D01*
X354442000Y-60129400D02*
X354442000Y-56029700D01*
X353643000Y-60129400D02*
X354442000Y-60129400D01*
X353643000Y-60728700D02*
X353643000Y-60129400D01*
X339642000Y-60728700D02*
X353643000Y-60728700D01*
X339642000Y-60129400D02*
X339642000Y-60728700D01*
X338843000Y-60129400D02*
X339642000Y-60129400D01*
X338843000Y-56029700D02*
X338843000Y-60129400D01*
X338118000Y-56029700D02*
X338843000Y-56029700D01*
X338118000Y-60498700D02*
X338118000Y-56029700D01*
X336393000Y-60498700D02*
X338118000Y-60498700D01*
X336393000Y-61479800D02*
X336393000Y-60498700D01*
X333092000Y-61479800D02*
X336393000Y-61479800D01*
X333092000Y-60498700D02*
X333092000Y-61479800D01*
X289349000Y-22029400D02*
X290150000Y-22029400D01*
X289349000Y-22628700D02*
X289349000Y-22029400D01*
X275350000Y-22628700D02*
X289349000Y-22628700D01*
X275350000Y-22029400D02*
X275350000Y-22628700D01*
X274549000Y-22029400D02*
X275350000Y-22029400D01*
X274549000Y-9228800D02*
X274549000Y-22029400D01*
X275350000Y-9228800D02*
X274549000Y-9228800D01*
X275350000Y-8629400D02*
X275350000Y-9228800D01*
X308399000Y-8629400D02*
X294400000Y-8629400D01*
X308399000Y-9228800D02*
X308399000Y-8629400D01*
X309200000Y-9228800D02*
X308399000Y-9228800D01*
X309200000Y-22029400D02*
X309200000Y-9228800D01*
X308399000Y-22029400D02*
X309200000Y-22029400D01*
X308399000Y-22628700D02*
X308399000Y-22029400D01*
X294400000Y-22628700D02*
X308399000Y-22628700D01*
X294400000Y-22029400D02*
X294400000Y-22628700D01*
X293599000Y-22029400D02*
X294400000Y-22029400D01*
X293599000Y-9228800D02*
X293599000Y-22029400D01*
X294400000Y-9228800D02*
X293599000Y-9228800D01*
X294400000Y-8629400D02*
X294400000Y-9228800D01*
X327449000Y-8629400D02*
X313450000Y-8629400D01*
X327449000Y-9228800D02*
X327449000Y-8629400D01*
X328250000Y-9228800D02*
X327449000Y-9228800D01*
X328250000Y-22029400D02*
X328250000Y-9228800D01*
X327449000Y-22029400D02*
X328250000Y-22029400D01*
X327449000Y-22628700D02*
X327449000Y-22029400D01*
X313450000Y-22628700D02*
X327449000Y-22628700D01*
X313450000Y-22029400D02*
X313450000Y-22628700D01*
X312649000Y-22029400D02*
X313450000Y-22029400D01*
X312649000Y-9228800D02*
X312649000Y-22029400D01*
X313450000Y-9228800D02*
X312649000Y-9228800D01*
X313450000Y-8629400D02*
X313450000Y-9228800D01*
X356024000Y-8629400D02*
X342025000Y-8629400D01*
X356024000Y-9228800D02*
X356024000Y-8629400D01*
X356825000Y-9228800D02*
X356024000Y-9228800D01*
X356825000Y-13329900D02*
X356825000Y-9228800D01*
X357550000Y-13329900D02*
X356825000Y-13329900D01*
X357550000Y-10099800D02*
X357550000Y-13329900D01*
X359273000Y-10099800D02*
X357550000Y-10099800D01*
X359273000Y-9177700D02*
X359273000Y-10099800D01*
X362575000Y-9177700D02*
X359273000Y-9177700D01*
X362575000Y-10099800D02*
X362575000Y-9177700D01*
X364301000Y-10099800D02*
X362575000Y-10099800D01*
X364301000Y-13329900D02*
X364301000Y-10099800D01*
X365126000Y-13329900D02*
X364301000Y-13329900D01*
X365126000Y-16128800D02*
X365126000Y-13329900D01*
X364301000Y-16128800D02*
X365126000Y-16128800D01*
X364301000Y-22398700D02*
X364301000Y-16128800D01*
X362575000Y-22398700D02*
X364301000Y-22398700D01*
X362575000Y-23379800D02*
X362575000Y-22398700D01*
X359273000Y-23379800D02*
X362575000Y-23379800D01*
X359273000Y-22398700D02*
X359273000Y-23379800D01*
X357550000Y-22398700D02*
X359273000Y-22398700D01*
X357550000Y-17929700D02*
X357550000Y-22398700D01*
X356825000Y-17929700D02*
X357550000Y-17929700D01*
X356825000Y-22029400D02*
X356825000Y-17929700D01*
X356024000Y-22029400D02*
X356825000Y-22029400D01*
X356024000Y-22628700D02*
X356024000Y-22029400D01*
X342025000Y-22628700D02*
X356024000Y-22628700D01*
X342025000Y-22029400D02*
X342025000Y-22628700D01*
X341224000Y-22029400D02*
X342025000Y-22029400D01*
X341224000Y-17929700D02*
X341224000Y-22029400D01*
X340499000Y-17929700D02*
X341224000Y-17929700D01*
X340499000Y-22398700D02*
X340499000Y-17929700D01*
X338774000Y-22398700D02*
X340499000Y-22398700D01*
X338774000Y-23379800D02*
X338774000Y-22398700D01*
X335475000Y-23379800D02*
X338774000Y-23379800D01*
X335475000Y-22398700D02*
X335475000Y-23379800D01*
X333750000Y-22398700D02*
X335475000Y-22398700D01*
X333750000Y-16128800D02*
X333750000Y-22398700D01*
X332924000Y-16128800D02*
X333750000Y-16128800D01*
X332924000Y-13329900D02*
X332924000Y-16128800D01*
X333750000Y-13329900D02*
X332924000Y-13329900D01*
X333750000Y-10099800D02*
X333750000Y-13329900D01*
X335475000Y-10099800D02*
X333750000Y-10099800D01*
X335475000Y-9177700D02*
X335475000Y-10099800D01*
X338774000Y-9177700D02*
X335475000Y-9177700D01*
X338774000Y-10099800D02*
X338774000Y-9177700D01*
X340499000Y-10099800D02*
X338774000Y-10099800D01*
X340499000Y-13329900D02*
X340499000Y-10099800D01*
X341224000Y-13329900D02*
X340499000Y-13329900D01*
X341224000Y-9228800D02*
X341224000Y-13329900D01*
X342025000Y-9228800D02*
X341224000Y-9228800D01*
X342025000Y-8629400D02*
X342025000Y-9228800D01*
X22649200Y-27679400D02*
X8649650Y-27679400D01*
X22649200Y-28278800D02*
X22649200Y-27679400D01*
X23449800Y-28278800D02*
X22649200Y-28278800D01*
X23449800Y-41079400D02*
X23449800Y-28278800D01*
X22649200Y-41079400D02*
X23449800Y-41079400D01*
X22649200Y-41678700D02*
X22649200Y-41079400D01*
X8649650Y-41678700D02*
X22649200Y-41678700D01*
X8649650Y-41079400D02*
X8649650Y-41678700D01*
X7849010Y-41079400D02*
X8649650Y-41079400D01*
X7849010Y-28278800D02*
X7849010Y-41079400D01*
X8649650Y-28278800D02*
X7849010Y-28278800D01*
X8649650Y-27679400D02*
X8649650Y-28278800D01*
X41699000Y-27679400D02*
X27699700Y-27679400D01*
X41699000Y-28278800D02*
X41699000Y-27679400D01*
X42499800Y-28278800D02*
X41699000Y-28278800D01*
X42499800Y-41079400D02*
X42499800Y-28278800D01*
X41699000Y-41079400D02*
X42499800Y-41079400D01*
X41699000Y-41678700D02*
X41699000Y-41079400D01*
X27699700Y-41678700D02*
X41699000Y-41678700D01*
X27699700Y-41079400D02*
X27699700Y-41678700D01*
X26899000Y-41079400D02*
X27699700Y-41079400D01*
X26899000Y-28278800D02*
X26899000Y-41079400D01*
X27699700Y-28278800D02*
X26899000Y-28278800D01*
X27699700Y-27679400D02*
X27699700Y-28278800D01*
X60749000Y-27679400D02*
X46749700Y-27679400D01*
X60749000Y-28278800D02*
X60749000Y-27679400D01*
X61549800Y-28278800D02*
X60749000Y-28278800D01*
X61549800Y-41079400D02*
X61549800Y-28278800D01*
X60749000Y-41079400D02*
X61549800Y-41079400D01*
X60749000Y-41678700D02*
X60749000Y-41079400D01*
X46749700Y-41678700D02*
X60749000Y-41678700D01*
X46749700Y-41079400D02*
X46749700Y-41678700D01*
X45948900Y-41079400D02*
X46749700Y-41079400D01*
X45948900Y-28278800D02*
X45948900Y-41079400D01*
X46749700Y-28278800D02*
X45948900Y-28278800D01*
X46749700Y-27679400D02*
X46749700Y-28278800D01*
X103611500Y-27679400D02*
X89612200Y-27679400D01*
X103611500Y-28278800D02*
X103611500Y-27679400D01*
X104410900Y-28278800D02*
X103611500Y-28278800D01*
X104410900Y-41079400D02*
X104410900Y-28278800D01*
X103611500Y-41079400D02*
X104410900Y-41079400D01*
X103611500Y-41678700D02*
X103611500Y-41079400D01*
X89612200Y-41678700D02*
X103611500Y-41678700D01*
X89612200Y-41079400D02*
X89612200Y-41678700D01*
X88811400Y-41079400D02*
X89612200Y-41079400D01*
X88811400Y-28278800D02*
X88811400Y-41079400D01*
X89612200Y-28278800D02*
X88811400Y-28278800D01*
X89612200Y-27679400D02*
X89612200Y-28278800D01*
X127424000Y-27679400D02*
X113425000Y-27679400D01*
X127424000Y-28278800D02*
X127424000Y-27679400D01*
X128225000Y-28278800D02*
X127424000Y-28278800D01*
X128225000Y-41079400D02*
X128225000Y-28278800D01*
X127424000Y-41079400D02*
X128225000Y-41079400D01*
X127424000Y-41678700D02*
X127424000Y-41079400D01*
X113425000Y-41678700D02*
X127424000Y-41678700D01*
X113425000Y-41079400D02*
X113425000Y-41678700D01*
X112624000Y-41079400D02*
X113425000Y-41079400D01*
X112624000Y-28278800D02*
X112624000Y-41079400D01*
X113425000Y-28278800D02*
X112624000Y-28278800D01*
X113425000Y-27679400D02*
X113425000Y-28278800D01*
X146474000Y-27679400D02*
X132475000Y-27679400D01*
X146474000Y-28278800D02*
X146474000Y-27679400D01*
X147275000Y-28278800D02*
X146474000Y-28278800D01*
X331367000Y-60498700D02*
X333092000Y-60498700D01*
X331367000Y-54228800D02*
X331367000Y-60498700D01*
X330543000Y-54228800D02*
X331367000Y-54228800D01*
X330543000Y-51429900D02*
X330543000Y-54228800D01*
X331367000Y-51429900D02*
X330543000Y-51429900D01*
X331367000Y-48199800D02*
X331367000Y-51429900D01*
X333092000Y-48199800D02*
X331367000Y-48199800D01*
X333092000Y-47279100D02*
X333092000Y-48199800D01*
X336393000Y-47279100D02*
X333092000Y-47279100D01*
X336393000Y-48199800D02*
X336393000Y-47279100D01*
X338118000Y-48199800D02*
X336393000Y-48199800D01*
X338118000Y-51429900D02*
X338118000Y-48199800D01*
X338843000Y-51429900D02*
X338118000Y-51429900D01*
X338843000Y-47328800D02*
X338843000Y-51429900D01*
X339642000Y-47328800D02*
X338843000Y-47328800D01*
X339642000Y-46729400D02*
X339642000Y-47328800D01*
X22649200Y-65779500D02*
X8649650Y-65779500D01*
X22649200Y-66378800D02*
X22649200Y-65779500D01*
X23449800Y-66378800D02*
X22649200Y-66378800D01*
X23449800Y-79179400D02*
X23449800Y-66378800D01*
X22649200Y-79179400D02*
X23449800Y-79179400D01*
X22649200Y-79778900D02*
X22649200Y-79179400D01*
X8649650Y-79778900D02*
X22649200Y-79778900D01*
X8649650Y-79179400D02*
X8649650Y-79778900D01*
X7849010Y-79179400D02*
X8649650Y-79179400D01*
X7849010Y-66378800D02*
X7849010Y-79179400D01*
X8649650Y-66378800D02*
X7849010Y-66378800D01*
X8649650Y-65779500D02*
X8649650Y-66378800D01*
X41699000Y-65779500D02*
X27699700Y-65779500D01*
X41699000Y-66378800D02*
X41699000Y-65779500D01*
X42499800Y-66378800D02*
X41699000Y-66378800D01*
X42499800Y-79179400D02*
X42499800Y-66378800D01*
X41699000Y-79179400D02*
X42499800Y-79179400D01*
X41699000Y-79778900D02*
X41699000Y-79179400D01*
X27699700Y-79778900D02*
X41699000Y-79778900D01*
X27699700Y-79179400D02*
X27699700Y-79778900D01*
X26899000Y-79179400D02*
X27699700Y-79179400D01*
X26899000Y-66378800D02*
X26899000Y-79179400D01*
X27699700Y-66378800D02*
X26899000Y-66378800D01*
X27699700Y-65779500D02*
X27699700Y-66378800D01*
X60749000Y-65779500D02*
X46749700Y-65779500D01*
X60749000Y-66378800D02*
X60749000Y-65779500D01*
X61549800Y-66378800D02*
X60749000Y-66378800D01*
X61549800Y-79179400D02*
X61549800Y-66378800D01*
X60749000Y-79179400D02*
X61549800Y-79179400D01*
X60749000Y-79778900D02*
X60749000Y-79179400D01*
X46749700Y-79778900D02*
X60749000Y-79778900D01*
X46749700Y-79179400D02*
X46749700Y-79778900D01*
X45948900Y-79179400D02*
X46749700Y-79179400D01*
X45948900Y-66378800D02*
X45948900Y-79179400D01*
X46749700Y-66378800D02*
X45948900Y-66378800D01*
X46749700Y-65779500D02*
X46749700Y-66378800D01*
X141712000Y-65779500D02*
X127712000Y-65779500D01*
X141712000Y-66378800D02*
X141712000Y-65779500D01*
X142511000Y-66378800D02*
X141712000Y-66378800D01*
X142511000Y-79179400D02*
X142511000Y-66378800D01*
X141712000Y-79179400D02*
X142511000Y-79179400D01*
X141712000Y-79778900D02*
X141712000Y-79179400D01*
X127712000Y-79778900D02*
X141712000Y-79778900D01*
X127712000Y-79179400D02*
X127712000Y-79778900D01*
X126911000Y-79179400D02*
X127712000Y-79179400D01*
X126911000Y-66378800D02*
X126911000Y-79179400D01*
X127712000Y-66378800D02*
X126911000Y-66378800D01*
X127712000Y-65779500D02*
X127712000Y-66378800D01*
X160762000Y-65779500D02*
X146762000Y-65779500D01*
X160762000Y-66378800D02*
X160762000Y-65779500D01*
X161561000Y-66378800D02*
X160762000Y-66378800D01*
X161561000Y-79179400D02*
X161561000Y-66378800D01*
X160762000Y-79179400D02*
X161561000Y-79179400D01*
X160762000Y-79778900D02*
X160762000Y-79179400D01*
X146762000Y-79778900D02*
X160762000Y-79778900D01*
X146762000Y-79179400D02*
X146762000Y-79778900D01*
X145961000Y-79179400D02*
X146762000Y-79179400D01*
X145961000Y-66378800D02*
X145961000Y-79179400D01*
X146762000Y-66378800D02*
X145961000Y-66378800D01*
X146762000Y-65779500D02*
X146762000Y-66378800D01*
X179812000Y-65779500D02*
X165812000Y-65779500D01*
X179812000Y-66378800D02*
X179812000Y-65779500D01*
X180611000Y-66378800D02*
X179812000Y-66378800D01*
X180611000Y-79179400D02*
X180611000Y-66378800D01*
X179812000Y-79179400D02*
X180611000Y-79179400D01*
X179812000Y-79778900D02*
X179812000Y-79179400D01*
X165812000Y-79778900D02*
X179812000Y-79778900D01*
X165812000Y-79179400D02*
X165812000Y-79778900D01*
X165011000Y-79179400D02*
X165812000Y-79179400D01*
X165011000Y-66378800D02*
X165011000Y-79179400D01*
X165812000Y-66378800D02*
X165011000Y-66378800D01*
X165812000Y-65779500D02*
X165812000Y-66378800D01*
X198862000Y-65779500D02*
X184862000Y-65779500D01*
X198862000Y-66378800D02*
X198862000Y-65779500D01*
X199661000Y-66378800D02*
X198862000Y-66378800D01*
X199661000Y-79179400D02*
X199661000Y-66378800D01*
X198862000Y-79179400D02*
X199661000Y-79179400D01*
X198862000Y-79778900D02*
X198862000Y-79179400D01*
X184862000Y-79778900D02*
X198862000Y-79778900D01*
X184862000Y-79179400D02*
X184862000Y-79778900D01*
X184061000Y-79179400D02*
X184862000Y-79179400D01*
X184061000Y-66378800D02*
X184061000Y-79179400D01*
X184862000Y-66378800D02*
X184061000Y-66378800D01*
X184862000Y-65779500D02*
X184862000Y-66378800D01*
X217912000Y-65779500D02*
X203912000Y-65779500D01*
X217912000Y-66378800D02*
X217912000Y-65779500D01*
X218711000Y-66378800D02*
X217912000Y-66378800D01*
X218711000Y-79179400D02*
X218711000Y-66378800D01*
X217912000Y-79179400D02*
X218711000Y-79179400D01*
X217912000Y-79778900D02*
X217912000Y-79179400D01*
X203912000Y-79778900D02*
X217912000Y-79778900D01*
X203912000Y-79179400D02*
X203912000Y-79778900D01*
X203111000Y-79179400D02*
X203912000Y-79179400D01*
X203111000Y-66378800D02*
X203111000Y-79179400D01*
X203912000Y-66378800D02*
X203111000Y-66378800D01*
X203912000Y-65779500D02*
X203912000Y-66378800D01*
X236962000Y-65779500D02*
X222962000Y-65779500D01*
X236962000Y-66378800D02*
X236962000Y-65779500D01*
X237761000Y-66378800D02*
X236962000Y-66378800D01*
X237761000Y-79179400D02*
X237761000Y-66378800D01*
X236962000Y-79179400D02*
X237761000Y-79179400D01*
X236962000Y-79778900D02*
X236962000Y-79179400D01*
X222962000Y-79778900D02*
X236962000Y-79778900D01*
X222962000Y-79179400D02*
X222962000Y-79778900D01*
X222161000Y-79179400D02*
X222962000Y-79179400D01*
X222161000Y-66378800D02*
X222161000Y-79179400D01*
X222962000Y-66378800D02*
X222161000Y-66378800D01*
X222962000Y-65779500D02*
X222962000Y-66378800D01*
X256012000Y-65779500D02*
X242012000Y-65779500D01*
X256012000Y-66378800D02*
X256012000Y-65779500D01*
X256811000Y-66378800D02*
X256012000Y-66378800D01*
X256811000Y-79179400D02*
X256811000Y-66378800D01*
X256012000Y-79179400D02*
X256811000Y-79179400D01*
X206292000Y-85428800D02*
X205493000Y-85428800D01*
X60749000Y-8629400D02*
X46749700Y-8629400D01*
X60749000Y-9228800D02*
X60749000Y-8629400D01*
X61549800Y-9228800D02*
X60749000Y-9228800D01*
X61549800Y-22029400D02*
X61549800Y-9228800D01*
X60749000Y-22029400D02*
X61549800Y-22029400D01*
X60749000Y-22628700D02*
X60749000Y-22029400D01*
X46749700Y-22628700D02*
X60749000Y-22628700D01*
X46749700Y-22029400D02*
X46749700Y-22628700D01*
X45948900Y-22029400D02*
X46749700Y-22029400D01*
X45948900Y-9228800D02*
X45948900Y-22029400D01*
X46749700Y-9228800D02*
X45948900Y-9228800D01*
X46749700Y-8629400D02*
X46749700Y-9228800D01*
X79799000Y-8629400D02*
X65799700Y-8629400D01*
X79799000Y-9228800D02*
X79799000Y-8629400D01*
X80599800Y-9228800D02*
X79799000Y-9228800D01*
X80599800Y-22029400D02*
X80599800Y-9228800D01*
X79799000Y-22029400D02*
X80599800Y-22029400D01*
X79799000Y-22628700D02*
X79799000Y-22029400D01*
X65799700Y-22628700D02*
X79799000Y-22628700D01*
X65799700Y-22029400D02*
X65799700Y-22628700D01*
X64998900Y-22029400D02*
X65799700Y-22029400D01*
X64998900Y-9228800D02*
X64998900Y-22029400D01*
X65799700Y-9228800D02*
X64998900Y-9228800D01*
X65799700Y-8629400D02*
X65799700Y-9228800D01*
X98849000Y-8629400D02*
X84849700Y-8629400D01*
X98849000Y-9228800D02*
X98849000Y-8629400D01*
X99648400Y-9228800D02*
X98849000Y-9228800D01*
X99648400Y-22029400D02*
X99648400Y-9228800D01*
X98849000Y-22029400D02*
X99648400Y-22029400D01*
X98849000Y-22628700D02*
X98849000Y-22029400D01*
X84849700Y-22628700D02*
X98849000Y-22628700D01*
X84849700Y-22029400D02*
X84849700Y-22628700D01*
X84048900Y-22029400D02*
X84849700Y-22029400D01*
X84048900Y-9228800D02*
X84048900Y-22029400D01*
X84849700Y-9228800D02*
X84048900Y-9228800D01*
X84849700Y-8629400D02*
X84849700Y-9228800D01*
X117899000Y-8629400D02*
X103898300Y-8629400D01*
X117899000Y-9228800D02*
X117899000Y-8629400D01*
X118698000Y-9228800D02*
X117899000Y-9228800D01*
X118698000Y-22029400D02*
X118698000Y-9228800D01*
X117899000Y-22029400D02*
X118698000Y-22029400D01*
X117899000Y-22628700D02*
X117899000Y-22029400D01*
X103898300Y-22628700D02*
X117899000Y-22628700D01*
X103898300Y-22029400D02*
X103898300Y-22628700D01*
X103098900Y-22029400D02*
X103898300Y-22029400D01*
X103098900Y-9228800D02*
X103098900Y-22029400D01*
X103898300Y-9228800D02*
X103098900Y-9228800D01*
X103898300Y-8629400D02*
X103898300Y-9228800D01*
X136949000Y-8629400D02*
X122948000Y-8629400D01*
X136949000Y-9228800D02*
X136949000Y-8629400D01*
X137750000Y-9228800D02*
X136949000Y-9228800D01*
X137750000Y-22029400D02*
X137750000Y-9228800D01*
X136949000Y-22029400D02*
X137750000Y-22029400D01*
X136949000Y-22628700D02*
X136949000Y-22029400D01*
X122948000Y-22628700D02*
X136949000Y-22628700D01*
X122948000Y-22029400D02*
X122948000Y-22628700D01*
X122149000Y-22029400D02*
X122948000Y-22029400D01*
X122149000Y-9228800D02*
X122149000Y-22029400D01*
X122948000Y-9228800D02*
X122149000Y-9228800D01*
X122948000Y-8629400D02*
X122948000Y-9228800D01*
X155999000Y-8629400D02*
X142000000Y-8629400D01*
X155999000Y-9228800D02*
X155999000Y-8629400D01*
X156800000Y-9228800D02*
X155999000Y-9228800D01*
X156800000Y-22029400D02*
X156800000Y-9228800D01*
X155999000Y-22029400D02*
X156800000Y-22029400D01*
X155999000Y-22628700D02*
X155999000Y-22029400D01*
X142000000Y-22628700D02*
X155999000Y-22628700D01*
X142000000Y-22029400D02*
X142000000Y-22628700D01*
X141199000Y-22029400D02*
X142000000Y-22029400D01*
X141199000Y-9228800D02*
X141199000Y-22029400D01*
X142000000Y-9228800D02*
X141199000Y-9228800D01*
X142000000Y-8629400D02*
X142000000Y-9228800D01*
X175049000Y-8629400D02*
X161050000Y-8629400D01*
X175049000Y-9228800D02*
X175049000Y-8629400D01*
X175850000Y-9228800D02*
X175049000Y-9228800D01*
X175850000Y-22029400D02*
X175850000Y-9228800D01*
X175049000Y-22029400D02*
X175850000Y-22029400D01*
X175049000Y-22628700D02*
X175049000Y-22029400D01*
X161050000Y-22628700D02*
X175049000Y-22628700D01*
X161050000Y-22029400D02*
X161050000Y-22628700D01*
X160249000Y-22029400D02*
X161050000Y-22029400D01*
X160249000Y-9228800D02*
X160249000Y-22029400D01*
X161050000Y-9228800D02*
X160249000Y-9228800D01*
X161050000Y-8629400D02*
X161050000Y-9228800D01*
X194099000Y-8629400D02*
X180100000Y-8629400D01*
X194099000Y-9228800D02*
X194099000Y-8629400D01*
X194900000Y-9228800D02*
X194099000Y-9228800D01*
X194900000Y-22029400D02*
X194900000Y-9228800D01*
X194099000Y-22029400D02*
X194900000Y-22029400D01*
X194099000Y-22628700D02*
X194099000Y-22029400D01*
X180100000Y-22628700D02*
X194099000Y-22628700D01*
X180100000Y-22029400D02*
X180100000Y-22628700D01*
X179299000Y-22029400D02*
X180100000Y-22029400D01*
X179299000Y-9228800D02*
X179299000Y-22029400D01*
X180100000Y-9228800D02*
X179299000Y-9228800D01*
X180100000Y-8629400D02*
X180100000Y-9228800D01*
X213149000Y-8629400D02*
X199150000Y-8629400D01*
X213149000Y-9228800D02*
X213149000Y-8629400D01*
X213950000Y-9228800D02*
X213149000Y-9228800D01*
X213950000Y-22029400D02*
X213950000Y-9228800D01*
X213149000Y-22029400D02*
X213950000Y-22029400D01*
X213149000Y-22628700D02*
X213149000Y-22029400D01*
X199150000Y-22628700D02*
X213149000Y-22628700D01*
X199150000Y-22029400D02*
X199150000Y-22628700D01*
X198349000Y-22029400D02*
X199150000Y-22029400D01*
X198349000Y-9228800D02*
X198349000Y-22029400D01*
X199150000Y-9228800D02*
X198349000Y-9228800D01*
X199150000Y-8629400D02*
X199150000Y-9228800D01*
X232199000Y-8629400D02*
X218200000Y-8629400D01*
X232199000Y-9228800D02*
X232199000Y-8629400D01*
X233000000Y-9228800D02*
X232199000Y-9228800D01*
X233000000Y-22029400D02*
X233000000Y-9228800D01*
X232199000Y-22029400D02*
X233000000Y-22029400D01*
X232199000Y-22628700D02*
X232199000Y-22029400D01*
X218200000Y-22628700D02*
X232199000Y-22628700D01*
X218200000Y-22029400D02*
X218200000Y-22628700D01*
X217399000Y-22029400D02*
X218200000Y-22029400D01*
X217399000Y-9228800D02*
X217399000Y-22029400D01*
X218200000Y-9228800D02*
X217399000Y-9228800D01*
X218200000Y-8629400D02*
X218200000Y-9228800D01*
X251249000Y-8629400D02*
X237250000Y-8629400D01*
X251249000Y-9228800D02*
X251249000Y-8629400D01*
X252050000Y-9228800D02*
X251249000Y-9228800D01*
X252050000Y-22029400D02*
X252050000Y-9228800D01*
X251249000Y-22029400D02*
X252050000Y-22029400D01*
X251249000Y-22628700D02*
X251249000Y-22029400D01*
X237250000Y-22628700D02*
X251249000Y-22628700D01*
X237250000Y-22029400D02*
X237250000Y-22628700D01*
X236449000Y-22029400D02*
X237250000Y-22029400D01*
X236449000Y-9228800D02*
X236449000Y-22029400D01*
X237250000Y-9228800D02*
X236449000Y-9228800D01*
X237250000Y-8629400D02*
X237250000Y-9228800D01*
X270299000Y-8629400D02*
X256300000Y-8629400D01*
X270299000Y-9228800D02*
X270299000Y-8629400D01*
X271100000Y-9228800D02*
X270299000Y-9228800D01*
X271100000Y-22029400D02*
X271100000Y-9228800D01*
X270299000Y-22029400D02*
X271100000Y-22029400D01*
X270299000Y-22628700D02*
X270299000Y-22029400D01*
X256300000Y-22628700D02*
X270299000Y-22628700D01*
X256300000Y-22029400D02*
X256300000Y-22628700D01*
X255499000Y-22029400D02*
X256300000Y-22029400D01*
X255499000Y-9228800D02*
X255499000Y-22029400D01*
X256300000Y-9228800D02*
X255499000Y-9228800D01*
X256300000Y-8629400D02*
X256300000Y-9228800D01*
X289349000Y-8629400D02*
X275350000Y-8629400D01*
X289349000Y-9228800D02*
X289349000Y-8629400D01*
X290150000Y-9228800D02*
X289349000Y-9228800D01*
X290150000Y-22029400D02*
X290150000Y-9228800D01*
X35424900Y-99579890D02*
X38724000Y-99579890D01*
X35424900Y-98598730D02*
X35424900Y-99579890D01*
X33699600Y-98598730D02*
X35424900Y-98598730D01*
X33699600Y-94128390D02*
X33699600Y-98598730D01*
X32974800Y-94128390D02*
X33699600Y-94128390D01*
X32974800Y-98229420D02*
X32974800Y-94128390D01*
X32174100Y-98229420D02*
X32974800Y-98229420D01*
X32174100Y-98828860D02*
X32174100Y-98229420D01*
X18174700Y-98828860D02*
X32174100Y-98828860D01*
X18174700Y-98229420D02*
X18174700Y-98828860D01*
X17374000Y-98229420D02*
X18174700Y-98229420D01*
X17374000Y-94128390D02*
X17374000Y-98229420D01*
X16649200Y-94128390D02*
X17374000Y-94128390D01*
X16649200Y-98598730D02*
X16649200Y-94128390D01*
X14923850Y-98598730D02*
X16649200Y-98598730D01*
X14923850Y-99579890D02*
X14923850Y-98598730D01*
X11624840Y-99579890D02*
X14923850Y-99579890D01*
X11624840Y-98598730D02*
X11624840Y-99579890D01*
X9899550Y-98598730D02*
X11624840Y-98598730D01*
X9899550Y-92328660D02*
X9899550Y-98598730D01*
X9074090Y-92328660D02*
X9899550Y-92328660D01*
X9074090Y-89529900D02*
X9074090Y-92328660D01*
X9899550Y-89529900D02*
X9074090Y-89529900D01*
X9899550Y-86299700D02*
X9899550Y-89529900D01*
X11624840Y-86299700D02*
X9899550Y-86299700D01*
X11624840Y-85377800D02*
X11624840Y-86299700D01*
X14923850Y-85377800D02*
X11624840Y-85377800D01*
X14923850Y-86299700D02*
X14923850Y-85377800D01*
X16649200Y-86299700D02*
X14923850Y-86299700D01*
X16649200Y-89529900D02*
X16649200Y-86299700D01*
X17374000Y-89529900D02*
X16649200Y-89529900D01*
X17374000Y-85428800D02*
X17374000Y-89529900D01*
X18174700Y-85428800D02*
X17374000Y-85428800D01*
X18174700Y-84829400D02*
X18174700Y-85428800D01*
X220293000Y-84829400D02*
X206292000Y-84829400D01*
X220293000Y-85428800D02*
X220293000Y-84829400D01*
X221092000Y-85428800D02*
X220293000Y-85428800D01*
X221092000Y-89529900D02*
X221092000Y-85428800D01*
X259917000Y-89529900D02*
X221092000Y-89529900D01*
X259917000Y-86299700D02*
X259917000Y-89529900D01*
X261641000Y-86299700D02*
X259917000Y-86299700D01*
X261641000Y-85377800D02*
X261641000Y-86299700D01*
X264943000Y-85377800D02*
X261641000Y-85377800D01*
X264943000Y-86299700D02*
X264943000Y-85377800D01*
X266667999Y-86299700D02*
X264943000Y-86299700D01*
X266667999Y-89529900D02*
X266667999Y-86299700D01*
X267492000Y-89529900D02*
X266667999Y-89529900D01*
X267492000Y-92328660D02*
X267492000Y-89529900D01*
X266667999Y-92328660D02*
X267492000Y-92328660D01*
X266667999Y-98598730D02*
X266667999Y-92328660D01*
X264943000Y-98598730D02*
X266667999Y-98598730D01*
X264943000Y-99579890D02*
X264943000Y-98598730D01*
X261641000Y-99579890D02*
X264943000Y-99579890D01*
X261641000Y-98598730D02*
X261641000Y-99579890D01*
X259917000Y-98598730D02*
X261641000Y-98598730D01*
X259917000Y-94128390D02*
X259917000Y-98598730D01*
X221092000Y-94128390D02*
X259917000Y-94128390D01*
X221092000Y-98229420D02*
X221092000Y-94128390D01*
X220293000Y-98229420D02*
X221092000Y-98229420D01*
X220293000Y-98828860D02*
X220293000Y-98229420D01*
X206292000Y-98828860D02*
X220293000Y-98828860D01*
X206292000Y-98229420D02*
X206292000Y-98828860D01*
X205493000Y-98229420D02*
X206292000Y-98229420D01*
X205493000Y-94128390D02*
X205493000Y-98229420D01*
X147275000Y-41079400D02*
X147275000Y-28278800D01*
X146474000Y-41079400D02*
X147275000Y-41079400D01*
X146474000Y-41678700D02*
X146474000Y-41079400D01*
X132475000Y-41678700D02*
X146474000Y-41678700D01*
X132475000Y-41079400D02*
X132475000Y-41678700D01*
X131674000Y-41079400D02*
X132475000Y-41079400D01*
X131674000Y-28278800D02*
X131674000Y-41079400D01*
X132475000Y-28278800D02*
X131674000Y-28278800D01*
X132475000Y-27679400D02*
X132475000Y-28278800D01*
X165524000Y-27679400D02*
X151525000Y-27679400D01*
X165524000Y-28278800D02*
X165524000Y-27679400D01*
X166325000Y-28278800D02*
X165524000Y-28278800D01*
X166325000Y-41079400D02*
X166325000Y-28278800D01*
X165524000Y-41079400D02*
X166325000Y-41079400D01*
X165524000Y-41678700D02*
X165524000Y-41079400D01*
X151525000Y-41678700D02*
X165524000Y-41678700D01*
X151525000Y-41079400D02*
X151525000Y-41678700D01*
X150724000Y-41079400D02*
X151525000Y-41079400D01*
X150724000Y-28278800D02*
X150724000Y-41079400D01*
X151525000Y-28278800D02*
X150724000Y-28278800D01*
X151525000Y-27679400D02*
X151525000Y-28278800D01*
X184574000Y-27679400D02*
X170575000Y-27679400D01*
X184574000Y-28278800D02*
X184574000Y-27679400D01*
X185375000Y-28278800D02*
X184574000Y-28278800D01*
X185375000Y-41079400D02*
X185375000Y-28278800D01*
X184574000Y-41079400D02*
X185375000Y-41079400D01*
X184574000Y-41678700D02*
X184574000Y-41079400D01*
X170575000Y-41678700D02*
X184574000Y-41678700D01*
X170575000Y-41079400D02*
X170575000Y-41678700D01*
X169774000Y-41079400D02*
X170575000Y-41079400D01*
X169774000Y-28278800D02*
X169774000Y-41079400D01*
X170575000Y-28278800D02*
X169774000Y-28278800D01*
X170575000Y-27679400D02*
X170575000Y-28278800D01*
X203624000Y-27679400D02*
X189625000Y-27679400D01*
X203624000Y-28278800D02*
X203624000Y-27679400D01*
X204425000Y-28278800D02*
X203624000Y-28278800D01*
X204425000Y-41079400D02*
X204425000Y-28278800D01*
X203624000Y-41079400D02*
X204425000Y-41079400D01*
X203624000Y-41678700D02*
X203624000Y-41079400D01*
X189625000Y-41678700D02*
X203624000Y-41678700D01*
X189625000Y-41079400D02*
X189625000Y-41678700D01*
X188824000Y-41079400D02*
X189625000Y-41079400D01*
X188824000Y-28278800D02*
X188824000Y-41079400D01*
X189625000Y-28278800D02*
X188824000Y-28278800D01*
X189625000Y-27679400D02*
X189625000Y-28278800D01*
X222674000Y-27679400D02*
X208675000Y-27679400D01*
X222674000Y-28278800D02*
X222674000Y-27679400D01*
X223475000Y-28278800D02*
X222674000Y-28278800D01*
X223475000Y-41079400D02*
X223475000Y-28278800D01*
X222674000Y-41079400D02*
X223475000Y-41079400D01*
X222674000Y-41678700D02*
X222674000Y-41079400D01*
X208675000Y-41678700D02*
X222674000Y-41678700D01*
X208675000Y-41079400D02*
X208675000Y-41678700D01*
X207874000Y-41079400D02*
X208675000Y-41079400D01*
X207874000Y-28278800D02*
X207874000Y-41079400D01*
X208675000Y-28278800D02*
X207874000Y-28278800D01*
X208675000Y-27679400D02*
X208675000Y-28278800D01*
X241724000Y-27679400D02*
X227725000Y-27679400D01*
X241724000Y-28278800D02*
X241724000Y-27679400D01*
X242525000Y-28278800D02*
X241724000Y-28278800D01*
X242525000Y-41079400D02*
X242525000Y-28278800D01*
X241724000Y-41079400D02*
X242525000Y-41079400D01*
X241724000Y-41678700D02*
X241724000Y-41079400D01*
X227725000Y-41678700D02*
X241724000Y-41678700D01*
X227725000Y-41079400D02*
X227725000Y-41678700D01*
X226924000Y-41079400D02*
X227725000Y-41079400D01*
X226924000Y-28278800D02*
X226924000Y-41079400D01*
X227725000Y-28278800D02*
X226924000Y-28278800D01*
X227725000Y-27679400D02*
X227725000Y-28278800D01*
X260774000Y-27679400D02*
X246775000Y-27679400D01*
X260774000Y-28278800D02*
X260774000Y-27679400D01*
X261575000Y-28278800D02*
X260774000Y-28278800D01*
X261575000Y-41079400D02*
X261575000Y-28278800D01*
X260774000Y-41079400D02*
X261575000Y-41079400D01*
X260774000Y-41678700D02*
X260774000Y-41079400D01*
X246775000Y-41678700D02*
X260774000Y-41678700D01*
X246775000Y-41079400D02*
X246775000Y-41678700D01*
X245974000Y-41079400D02*
X246775000Y-41079400D01*
X245974000Y-28278800D02*
X245974000Y-41079400D01*
X246775000Y-28278800D02*
X245974000Y-28278800D01*
X246775000Y-27679400D02*
X246775000Y-28278800D01*
X279824000Y-27679400D02*
X265825000Y-27679400D01*
X279824000Y-28278800D02*
X279824000Y-27679400D01*
X280625000Y-28278800D02*
X279824000Y-28278800D01*
X280625000Y-41079400D02*
X280625000Y-28278800D01*
X279824000Y-41079400D02*
X280625000Y-41079400D01*
X279824000Y-41678700D02*
X279824000Y-41079400D01*
X265825000Y-41678700D02*
X279824000Y-41678700D01*
X265825000Y-41079400D02*
X265825000Y-41678700D01*
X265024000Y-41079400D02*
X265825000Y-41079400D01*
X265024000Y-28278800D02*
X265024000Y-41079400D01*
X265825000Y-28278800D02*
X265024000Y-28278800D01*
X265825000Y-27679400D02*
X265825000Y-28278800D01*
X298874000Y-27679400D02*
X284875000Y-27679400D01*
X298874000Y-28278800D02*
X298874000Y-27679400D01*
X299675000Y-28278800D02*
X298874000Y-28278800D01*
X299675000Y-41079400D02*
X299675000Y-28278800D01*
X298874000Y-41079400D02*
X299675000Y-41079400D01*
X298874000Y-41678700D02*
X298874000Y-41079400D01*
X284875000Y-41678700D02*
X298874000Y-41678700D01*
X284875000Y-41079400D02*
X284875000Y-41678700D01*
X284074000Y-41079400D02*
X284875000Y-41079400D01*
X284074000Y-28278800D02*
X284074000Y-41079400D01*
X284875000Y-28278800D02*
X284074000Y-28278800D01*
X284875000Y-27679400D02*
X284875000Y-28278800D01*
X317924000Y-27679400D02*
X303925000Y-27679400D01*
X317924000Y-28278800D02*
X317924000Y-27679400D01*
X318725000Y-28278800D02*
X317924000Y-28278800D01*
X318725000Y-41079400D02*
X318725000Y-28278800D01*
X317924000Y-41079400D02*
X318725000Y-41079400D01*
X317924000Y-41678700D02*
X317924000Y-41079400D01*
X303925000Y-41678700D02*
X317924000Y-41678700D01*
X303925000Y-41079400D02*
X303925000Y-41678700D01*
X303124000Y-41079400D02*
X303925000Y-41079400D01*
X303124000Y-28278800D02*
X303124000Y-41079400D01*
X303925000Y-28278800D02*
X303124000Y-28278800D01*
X303925000Y-27679400D02*
X303925000Y-28278800D01*
X336974000Y-27679400D02*
X322975000Y-27679400D01*
X336974000Y-28278800D02*
X336974000Y-27679400D01*
X337775000Y-28278800D02*
X336974000Y-28278800D01*
X337775000Y-41079400D02*
X337775000Y-28278800D01*
X336974000Y-41079400D02*
X337775000Y-41079400D01*
X336974000Y-41678700D02*
X336974000Y-41079400D01*
X322975000Y-41678700D02*
X336974000Y-41678700D01*
X322975000Y-41079400D02*
X322975000Y-41678700D01*
X322174000Y-41079400D02*
X322975000Y-41079400D01*
X322174000Y-28278800D02*
X322174000Y-41079400D01*
X322975000Y-28278800D02*
X322174000Y-28278800D01*
X322975000Y-27679400D02*
X322975000Y-28278800D01*
X360787000Y-27679400D02*
X346787000Y-27679400D01*
X360787000Y-28278800D02*
X360787000Y-27679400D01*
X361588000Y-28278800D02*
X360787000Y-28278800D01*
X361588000Y-41079400D02*
X361588000Y-28278800D01*
X360787000Y-41079400D02*
X361588000Y-41079400D01*
X360787000Y-41678700D02*
X360787000Y-41079400D01*
X346787000Y-41678700D02*
X360787000Y-41678700D01*
X346787000Y-41079400D02*
X346787000Y-41678700D01*
X345986000Y-41079400D02*
X346787000Y-41079400D01*
X345986000Y-28278800D02*
X345986000Y-41079400D01*
X346787000Y-28278800D02*
X345986000Y-28278800D01*
X346787000Y-27679400D02*
X346787000Y-28278800D01*
X75100000Y-28103800D02*
X72299999Y-28103800D01*
X75100000Y-28929300D02*
X75100000Y-28103800D01*
X78330000Y-28929300D02*
X75100000Y-28929300D01*
X22649200Y-8629400D02*
X8649650Y-8629400D01*
X22649200Y-9228800D02*
X22649200Y-8629400D01*
X23449800Y-9228800D02*
X22649200Y-9228800D01*
X23449800Y-22029400D02*
X23449800Y-9228800D01*
X22649200Y-22029400D02*
X23449800Y-22029400D01*
X22649200Y-22628700D02*
X22649200Y-22029400D01*
X8649650Y-22628700D02*
X22649200Y-22628700D01*
X8649650Y-22029400D02*
X8649650Y-22628700D01*
X7849010Y-22029400D02*
X8649650Y-22029400D01*
X7849010Y-9228800D02*
X7849010Y-22029400D01*
X8649650Y-9228800D02*
X7849010Y-9228800D01*
X8649650Y-8629400D02*
X8649650Y-9228800D01*
X41699000Y-8629400D02*
X27699700Y-8629400D01*
X41699000Y-9228800D02*
X41699000Y-8629400D01*
X42499800Y-9228800D02*
X41699000Y-9228800D01*
X42499800Y-22029400D02*
X42499800Y-9228800D01*
X41699000Y-22029400D02*
X42499800Y-22029400D01*
X41699000Y-22628700D02*
X41699000Y-22029400D01*
X27699700Y-22628700D02*
X41699000Y-22628700D01*
X27699700Y-22029400D02*
X27699700Y-22628700D01*
X26899000Y-22029400D02*
X27699700Y-22029400D01*
X26899000Y-9228800D02*
X26899000Y-22029400D01*
X27699700Y-9228800D02*
X26899000Y-9228800D01*
X27699700Y-8629400D02*
X27699700Y-9228800D01*
X159917000Y-89529900D02*
X159093000Y-89529900D01*
X159917000Y-86299700D02*
X159917000Y-89529900D01*
X161642000Y-86299700D02*
X159917000Y-86299700D01*
X161642000Y-85377800D02*
X161642000Y-86299700D01*
X164943000Y-85377800D02*
X161642000Y-85377800D01*
X164943000Y-86299700D02*
X164943000Y-85377800D01*
X166668000Y-86299700D02*
X164943000Y-86299700D01*
X166668000Y-89529900D02*
X166668000Y-86299700D01*
X205493000Y-89529900D02*
X166668000Y-89529900D01*
X166668000Y-94128390D02*
X205493000Y-94128390D01*
X166668000Y-98598730D02*
X166668000Y-94128390D01*
X164943000Y-98598730D02*
X166668000Y-98598730D01*
X164943000Y-99579890D02*
X164943000Y-98598730D01*
X161642000Y-99579890D02*
X164943000Y-99579890D01*
X161642000Y-98598730D02*
X161642000Y-99579890D01*
X159917000Y-98598730D02*
X161642000Y-98598730D01*
X159917000Y-92328660D02*
X159917000Y-98598730D01*
X159093000Y-92328660D02*
X159917000Y-92328660D01*
X159093000Y-89529900D02*
X159093000Y-92328660D01*
X206292000Y-84829400D02*
X206292000Y-85428800D01*
X328331000Y-80529900D02*
X331630000Y-80529900D01*
X328331000Y-79548700D02*
X328331000Y-80529900D01*
X326606000Y-79548700D02*
X328331000Y-79548700D01*
X326606000Y-73278700D02*
X326606000Y-79548700D01*
X325780000Y-73278700D02*
X326606000Y-73278700D01*
X325780000Y-70479900D02*
X325780000Y-73278700D01*
X326606000Y-70479900D02*
X325780000Y-70479900D01*
X326606000Y-67249700D02*
X326606000Y-70479900D01*
X328331000Y-67249700D02*
X326606000Y-67249700D01*
X328331000Y-66327700D02*
X328331000Y-67249700D01*
X331630000Y-66327700D02*
X328331000Y-66327700D01*
X331630000Y-67249700D02*
X331630000Y-66327700D01*
X333356000Y-67249700D02*
X331630000Y-67249700D01*
X333356000Y-70479900D02*
X333356000Y-67249700D01*
X334080000Y-70479900D02*
X333356000Y-70479900D01*
X334080000Y-66378800D02*
X334080000Y-70479900D01*
X334881000Y-66378800D02*
X334080000Y-66378800D01*
X334881000Y-65779500D02*
X334881000Y-66378800D01*
X75100000Y-66203800D02*
X72299999Y-66203800D01*
X75100000Y-67029200D02*
X75100000Y-66203800D01*
X78330000Y-67029200D02*
X75100000Y-67029200D01*
X78330000Y-68754600D02*
X78330000Y-67029200D01*
X79249400Y-68754600D02*
X78330000Y-68754600D01*
X79249400Y-72053600D02*
X79249400Y-68754600D01*
X78330000Y-72053600D02*
X79249400Y-72053600D01*
X78330000Y-73778900D02*
X78330000Y-72053600D01*
X75100000Y-73778900D02*
X78330000Y-73778900D01*
X75100000Y-74503700D02*
X75100000Y-73778900D01*
X79199600Y-74503700D02*
X75100000Y-74503700D01*
X79199600Y-75304400D02*
X79199600Y-74503700D01*
X79799000Y-75304400D02*
X79199600Y-75304400D01*
X79799000Y-89303900D02*
X79799000Y-75304400D01*
X79199600Y-89303900D02*
X79799000Y-89303900D01*
X79199600Y-90104500D02*
X79199600Y-89303900D01*
X75100000Y-90104500D02*
X79199600Y-90104500D01*
X75100000Y-90829400D02*
X75100000Y-90104500D01*
X78330000Y-90829400D02*
X75100000Y-90829400D01*
X78330000Y-92554650D02*
X78330000Y-90829400D01*
X79249400Y-92554650D02*
X78330000Y-92554650D01*
X79249400Y-95853690D02*
X79249400Y-92554650D01*
X78330000Y-95853690D02*
X79249400Y-95853690D01*
X78330000Y-97578980D02*
X78330000Y-95853690D01*
X75100000Y-97578980D02*
X78330000Y-97578980D01*
X75100000Y-98404430D02*
X75100000Y-97578980D01*
X72299999Y-98404430D02*
X75100000Y-98404430D01*
X72299999Y-97578980D02*
X72299999Y-98404430D01*
X66029700Y-97578980D02*
X72299999Y-97578980D01*
X66029700Y-95853690D02*
X66029700Y-97578980D01*
X65050100Y-95853690D02*
X66029700Y-95853690D01*
X65050100Y-92554650D02*
X65050100Y-95853690D01*
X66029700Y-92554650D02*
X65050100Y-92554650D01*
X66029700Y-90829400D02*
X66029700Y-92554650D01*
X70500100Y-90829400D02*
X66029700Y-90829400D01*
X70500100Y-90104500D02*
X70500100Y-90829400D01*
X66399100Y-90104500D02*
X70500100Y-90104500D01*
X66399100Y-89303900D02*
X66399100Y-90104500D01*
X65799700Y-89303900D02*
X66399100Y-89303900D01*
X65799700Y-75304400D02*
X65799700Y-89303900D01*
X66399100Y-75304400D02*
X65799700Y-75304400D01*
X66399100Y-74503700D02*
X66399100Y-75304400D01*
X70500100Y-74503700D02*
X66399100Y-74503700D01*
X70500100Y-73778900D02*
X70500100Y-74503700D01*
X66029700Y-73778900D02*
X70500100Y-73778900D01*
X66029700Y-72053600D02*
X66029700Y-73778900D01*
X65050100Y-72053600D02*
X66029700Y-72053600D01*
X65050100Y-68754600D02*
X65050100Y-72053600D01*
X66029700Y-68754600D02*
X65050100Y-68754600D01*
X66029700Y-67029200D02*
X66029700Y-68754600D01*
X72299999Y-67029200D02*
X66029700Y-67029200D01*
X72299999Y-66203800D02*
X72299999Y-67029200D01*
X60749000Y-84829400D02*
X46749700Y-84829400D01*
X60749000Y-85428800D02*
X60749000Y-84829400D01*
X61549800Y-85428800D02*
X60749000Y-85428800D01*
X61549800Y-98229420D02*
X61549800Y-85428800D01*
X60749000Y-98229420D02*
X61549800Y-98229420D01*
X60749000Y-98828860D02*
X60749000Y-98229420D01*
X46749700Y-98828860D02*
X60749000Y-98828860D01*
X46749700Y-98229420D02*
X46749700Y-98828860D01*
X45948900Y-98229420D02*
X46749700Y-98229420D01*
X45948900Y-85428800D02*
X45948900Y-98229420D01*
X46749700Y-85428800D02*
X45948900Y-85428800D01*
X46749700Y-84829400D02*
X46749700Y-85428800D01*
X101230300Y-84829400D02*
X87231000Y-84829400D01*
X101230300Y-85428800D02*
X101230300Y-84829400D01*
X102031100Y-85428800D02*
X101230300Y-85428800D01*
X102031100Y-98229420D02*
X102031100Y-85428800D01*
X101230300Y-98229420D02*
X102031100Y-98229420D01*
X101230300Y-98828860D02*
X101230300Y-98229420D01*
X87231000Y-98828860D02*
X101230300Y-98828860D01*
X87231000Y-98229420D02*
X87231000Y-98828860D01*
X86430200Y-98229420D02*
X87231000Y-98229420D01*
X86430200Y-85428800D02*
X86430200Y-98229420D01*
X87231000Y-85428800D02*
X86430200Y-85428800D01*
X87231000Y-84829400D02*
X87231000Y-85428800D01*
X125043000Y-84829400D02*
X111042000Y-84829400D01*
X125043000Y-85428800D02*
X125043000Y-84829400D01*
X125842000Y-85428800D02*
X125043000Y-85428800D01*
X125842000Y-98229420D02*
X125842000Y-85428800D01*
X125043000Y-98229420D02*
X125842000Y-98229420D01*
X205493000Y-85428800D02*
X205493000Y-89529900D01*
X256012000Y-79778900D02*
X256012000Y-79179400D01*
X242012000Y-79778900D02*
X256012000Y-79778900D01*
X242012000Y-79179400D02*
X242012000Y-79778900D01*
X241211000Y-79179400D02*
X242012000Y-79179400D01*
X241211000Y-66378800D02*
X241211000Y-79179400D01*
X242012000Y-66378800D02*
X241211000Y-66378800D01*
X242012000Y-65779500D02*
X242012000Y-66378800D01*
X275062000Y-65779500D02*
X261062000Y-65779500D01*
X275062000Y-66378800D02*
X275062000Y-65779500D01*
X275861000Y-66378800D02*
X275062000Y-66378800D01*
X275861000Y-79179400D02*
X275861000Y-66378800D01*
X275062000Y-79179400D02*
X275861000Y-79179400D01*
X275062000Y-79778900D02*
X275062000Y-79179400D01*
X261062000Y-79778900D02*
X275062000Y-79778900D01*
X261062000Y-79179400D02*
X261062000Y-79778900D01*
X260261000Y-79179400D02*
X261062000Y-79179400D01*
X260261000Y-66378800D02*
X260261000Y-79179400D01*
X261062000Y-66378800D02*
X260261000Y-66378800D01*
X261062000Y-65779500D02*
X261062000Y-66378800D01*
X294112000Y-65779500D02*
X280112000Y-65779500D01*
X294112000Y-66378800D02*
X294112000Y-65779500D01*
X294911000Y-66378800D02*
X294112000Y-66378800D01*
X294911000Y-79179400D02*
X294911000Y-66378800D01*
X294112000Y-79179400D02*
X294911000Y-79179400D01*
X294112000Y-79778900D02*
X294112000Y-79179400D01*
X280112000Y-79778900D02*
X294112000Y-79778900D01*
X280112000Y-79179400D02*
X280112000Y-79778900D01*
X279311000Y-79179400D02*
X280112000Y-79179400D01*
X279311000Y-66378800D02*
X279311000Y-79179400D01*
X280112000Y-66378800D02*
X279311000Y-66378800D01*
X280112000Y-65779500D02*
X280112000Y-66378800D01*
X313162000Y-65779500D02*
X299162000Y-65779500D01*
X313162000Y-66378800D02*
X313162000Y-65779500D01*
X313961000Y-66378800D02*
X313162000Y-66378800D01*
X313961000Y-79179400D02*
X313961000Y-66378800D01*
X313162000Y-79179400D02*
X313961000Y-79179400D01*
X313162000Y-79778900D02*
X313162000Y-79179400D01*
X299162000Y-79778900D02*
X313162000Y-79778900D01*
X299162000Y-79179400D02*
X299162000Y-79778900D01*
X298361000Y-79179400D02*
X299162000Y-79179400D01*
X298361000Y-66378800D02*
X298361000Y-79179400D01*
X299162000Y-66378800D02*
X298361000Y-66378800D01*
X299162000Y-65779500D02*
X299162000Y-66378800D01*
X110755000Y-65779500D02*
X96756000Y-65779500D01*
X110755000Y-66378800D02*
X110755000Y-65779500D01*
X111556000Y-66378800D02*
X110755000Y-66378800D01*
X111556000Y-70479900D02*
X111556000Y-66378800D01*
X112281000Y-70479900D02*
X111556000Y-70479900D01*
X112281000Y-67249700D02*
X112281000Y-70479900D01*
X114005000Y-67249700D02*
X112281000Y-67249700D01*
X114005000Y-66327700D02*
X114005000Y-67249700D01*
X117305000Y-66327700D02*
X114005000Y-66327700D01*
X117305000Y-67249700D02*
X117305000Y-66327700D01*
X119030000Y-67249700D02*
X117305000Y-67249700D01*
X119030000Y-70479900D02*
X119030000Y-67249700D01*
X119856000Y-70479900D02*
X119030000Y-70479900D01*
X119856000Y-73278700D02*
X119856000Y-70479900D01*
X119030000Y-73278700D02*
X119856000Y-73278700D01*
X119030000Y-79548700D02*
X119030000Y-73278700D01*
X117305000Y-79548700D02*
X119030000Y-79548700D01*
X117305000Y-80529900D02*
X117305000Y-79548700D01*
X114005000Y-80529900D02*
X117305000Y-80529900D01*
X114005000Y-79548700D02*
X114005000Y-80529900D01*
X112281000Y-79548700D02*
X114005000Y-79548700D01*
X112281000Y-75079800D02*
X112281000Y-79548700D01*
X111556000Y-75079800D02*
X112281000Y-75079800D01*
X111556000Y-79179400D02*
X111556000Y-75079800D01*
X110755000Y-79179400D02*
X111556000Y-79179400D01*
X110755000Y-79778900D02*
X110755000Y-79179400D01*
X96756000Y-79778900D02*
X110755000Y-79778900D01*
X96756000Y-79179400D02*
X96756000Y-79778900D01*
X95955200Y-79179400D02*
X96756000Y-79179400D01*
X95955200Y-75079800D02*
X95955200Y-79179400D01*
X95230600Y-75079800D02*
X95955200Y-75079800D01*
X95230600Y-79548700D02*
X95230600Y-75079800D01*
X93505100Y-79548700D02*
X95230600Y-79548700D01*
X93505100Y-80529900D02*
X93505100Y-79548700D01*
X90206000Y-80529900D02*
X93505100Y-80529900D01*
X90206000Y-79548700D02*
X90206000Y-80529900D01*
X88480900Y-79548700D02*
X90206000Y-79548700D01*
X88480900Y-73278700D02*
X88480900Y-79548700D01*
X87655400Y-73278700D02*
X88480900Y-73278700D01*
X87655400Y-70479900D02*
X87655400Y-73278700D01*
X88480900Y-70479900D02*
X87655400Y-70479900D01*
X88480900Y-67249700D02*
X88480900Y-70479900D01*
X90206000Y-67249700D02*
X88480900Y-67249700D01*
X90206000Y-66327700D02*
X90206000Y-67249700D01*
X93505100Y-66327700D02*
X90206000Y-66327700D01*
X93505100Y-67249700D02*
X93505100Y-66327700D01*
X95230600Y-67249700D02*
X93505100Y-67249700D01*
X95230600Y-70479900D02*
X95230600Y-67249700D01*
X95955200Y-70479900D02*
X95230600Y-70479900D01*
X95955200Y-66378800D02*
X95955200Y-70479900D01*
X96756000Y-66378800D02*
X95955200Y-66378800D01*
X96756000Y-65779500D02*
X96756000Y-66378800D01*
X348880000Y-65779500D02*
X334881000Y-65779500D01*
X348880000Y-66378800D02*
X348880000Y-65779500D01*
X349681000Y-66378800D02*
X348880000Y-66378800D01*
X349681000Y-70479900D02*
X349681000Y-66378800D01*
X350406000Y-70479900D02*
X349681000Y-70479900D01*
X350406000Y-67249700D02*
X350406000Y-70479900D01*
X352130000Y-67249700D02*
X350406000Y-67249700D01*
X352130000Y-66327700D02*
X352130000Y-67249700D01*
X355430000Y-66327700D02*
X352130000Y-66327700D01*
X355430000Y-67249700D02*
X355430000Y-66327700D01*
X357155000Y-67249700D02*
X355430000Y-67249700D01*
X357155000Y-70479900D02*
X357155000Y-67249700D01*
X357981000Y-70479900D02*
X357155000Y-70479900D01*
X357981000Y-73278700D02*
X357981000Y-70479900D01*
X357155000Y-73278700D02*
X357981000Y-73278700D01*
X357155000Y-79548700D02*
X357155000Y-73278700D01*
X355430000Y-79548700D02*
X357155000Y-79548700D01*
X355430000Y-80529900D02*
X355430000Y-79548700D01*
X352130000Y-80529900D02*
X355430000Y-80529900D01*
X352130000Y-79548700D02*
X352130000Y-80529900D01*
X350406000Y-79548700D02*
X352130000Y-79548700D01*
X350406000Y-75079800D02*
X350406000Y-79548700D01*
X349681000Y-75079800D02*
X350406000Y-75079800D01*
X349681000Y-79179400D02*
X349681000Y-75079800D01*
X348880000Y-79179400D02*
X349681000Y-79179400D01*
X348880000Y-79778900D02*
X348880000Y-79179400D01*
X334881000Y-79778900D02*
X348880000Y-79778900D01*
X334881000Y-79179400D02*
X334881000Y-79778900D01*
X334080000Y-79179400D02*
X334881000Y-79179400D01*
X334080000Y-75079800D02*
X334080000Y-79179400D01*
X333356000Y-75079800D02*
X334080000Y-75079800D01*
X333356000Y-79548700D02*
X333356000Y-75079800D01*
X331630000Y-79548700D02*
X333356000Y-79548700D01*
X331630000Y-80529900D02*
X331630000Y-79548700D01*
D11*
X280200000Y-104450000D02*
G75*
G03*
X280200000Y-104450000I-950000J0D01*
G01*
X188050000Y-104450000D02*
G75*
G03*
X188050000Y-104450000I-950000J0D01*
G01*
X95900000Y-104450000D02*
G75*
G03*
X95900000Y-104450000I-950000J0D01*
G01*
X280200000Y-2800000D02*
G75*
G03*
X280200000Y-2800000I-950000J0D01*
G01*
X95900000Y-2800000D02*
G75*
G03*
X95900000Y-2800000I-950000J0D01*
G01*
X188050000Y-2800000D02*
G75*
G03*
X188050000Y-2800000I-950000J0D01*
G01*
X3750000Y-104450000D02*
G75*
G03*
X3750000Y-104450000I-950000J0D01*
G01*
X3750000Y-2800000D02*
G75*
G03*
X3750000Y-2800000I-950000J0D01*
G01*
X372350000Y-2800000D02*
G75*
G03*
X372350000Y-2800000I-950000J0D01*
G01*
X372350000Y-104450000D02*
G75*
G03*
X372350000Y-104450000I-950000J0D01*
G01*
X375237500Y-1381250D02*
X375237500Y-106156250D01*
X-1000000Y-106156250D02*
X-1000000Y-1381250D01*
X370475000Y-108537500D02*
X372856250Y-108537500D01*
X370475000Y1000000D02*
X372856250Y1000000D01*
X363331250Y1000000D02*
X370475000Y1000000D01*
X363331250Y-108537500D02*
X370475000Y-108537500D01*
X372856250Y1000000D02*
G75*
G02*
X375237500Y-1381250I0J-2381250D01*
G01*
X375237500Y-106156250D02*
G75*
G02*
X372856250Y-108537500I-2381250J0D01*
G01*
X1381250Y-108537500D02*
G75*
G02*
X-1000000Y-106156250I0J2381250D01*
G01*
X-1000000Y-1381250D02*
G75*
G02*
X1381250Y1000000I2381250J0D01*
G01*
X363331250Y-108537500D02*
X1381250Y-108537500D01*
X1381250Y1000000D02*
X363331250Y1000000D01*
M02*
