  0
SECTION
  2
HEADER
  9
$ACADVER
  1
AC1009
  9
$EXTMIN
 10
0.0
 20
0.0
 30
0.0
  9
$EXTMAX
 10
1000.0
 20
1000.0
 30
0.0
  9
$FILLMODE
 70
 0
  9
$SPLFRAME
 70
 1
  0
ENDSEC
  0
SECTION
  2
TABLES
  0
TABLE
  2
LAYER
 70
1
  0
LAYER
  2
0
 70
     0
 62
     7
  6
CONTINUOUS
  0
ENDTAB
  0
ENDSEC
  0
SECTION
  2
ENTITIES
  0
LINE
  8
0
 62
     0
 10
0.0950846
 20
95.5075
 30
0.0
 11
362.045
 21
95.5075
 31
0.0
  0
LINE
  8
0
 62
     0
 10
362.045
 20
95.5075
 30
0.0
 11
362.045
 21
0.257693
 31
0.0
  0
LINE
  8
0
 62
     0
 10
362.045
 20
0.257693
 30
0.0
 11
0.0950846
 21
0.257693
 31
0.0
  0
LINE
  8
0
 62
     0
 10
0.0950846
 20
0.257693
 30
0.0
 11
0.0950846
 21
95.5075
 31
0.0
  0
LINE
  8
0
 62
     0
 10
200.262
 20
16.7831
 30
0.0
 11
200.262
 21
16.1837
 31
0.0
  0
LINE
  8
0
 62
     0
 10
200.262
 20
16.1837
 30
0.0
 11
199.463
 21
16.1837
 31
0.0
  0
LINE
  8
0
 62
     0
 10
199.463
 20
16.1837
 30
0.0
 11
199.463
 21
12.0826
 31
0.0
  0
LINE
  8
0
 62
     0
 10
199.463
 20
12.0826
 30
0.0
 11
160.638
 21
12.0826
 31
0.0
  0
LINE
  8
0
 62
     0
 10
160.638
 20
12.0826
 30
0.0
 11
160.638
 21
15.3128
 31
0.0
  0
LINE
  8
0
 62
     0
 10
160.638
 20
15.3128
 30
0.0
 11
158.913
 21
15.3128
 31
0.0
  0
LINE
  8
0
 62
     0
 10
158.913
 20
15.3128
 30
0.0
 11
158.913
 21
16.2347
 31
0.0
  0
LINE
  8
0
 62
     0
 10
158.913
 20
16.2347
 30
0.0
 11
155.612
 21
16.2347
 31
0.0
  0
LINE
  8
0
 62
     0
 10
155.612
 20
16.2347
 30
0.0
 11
155.612
 21
15.3128
 31
0.0
  0
LINE
  8
0
 62
     0
 10
155.612
 20
15.3128
 30
0.0
 11
153.887
 21
15.3128
 31
0.0
  0
LINE
  8
0
 62
     0
 10
153.887
 20
15.3128
 30
0.0
 11
153.887
 21
12.0826
 31
0.0
  0
LINE
  8
0
 62
     0
 10
153.887
 20
12.0826
 30
0.0
 11
153.063
 21
12.0826
 31
0.0
  0
LINE
  8
0
 62
     0
 10
153.063
 20
12.0826
 30
0.0
 11
153.063
 21
9.28384
 31
0.0
  0
LINE
  8
0
 62
     0
 10
153.063
 20
9.28384
 30
0.0
 11
153.887
 21
9.28384
 31
0.0
  0
LINE
  8
0
 62
     0
 10
153.887
 20
9.28384
 30
0.0
 11
153.887
 21
3.01377
 31
0.0
  0
LINE
  8
0
 62
     0
 10
153.887
 20
3.01377
 30
0.0
 11
155.612
 21
3.01377
 31
0.0
  0
LINE
  8
0
 62
     0
 10
155.612
 20
3.01377
 30
0.0
 11
155.612
 21
2.03261
 31
0.0
  0
LINE
  8
0
 62
     0
 10
155.612
 20
2.03261
 30
0.0
 11
158.913
 21
2.03261
 31
0.0
  0
LINE
  8
0
 62
     0
 10
158.913
 20
2.03261
 30
0.0
 11
158.913
 21
3.01377
 31
0.0
  0
LINE
  8
0
 62
     0
 10
158.913
 20
3.01377
 30
0.0
 11
160.638
 21
3.01377
 31
0.0
  0
LINE
  8
0
 62
     0
 10
160.638
 20
3.01377
 30
0.0
 11
160.638
 21
7.48411
 31
0.0
  0
LINE
  8
0
 62
     0
 10
160.638
 20
7.48411
 30
0.0
 11
199.463
 21
7.48411
 31
0.0
  0
LINE
  8
0
 62
     0
 10
199.463
 20
7.48411
 30
0.0
 11
199.463
 21
3.38308
 31
0.0
  0
LINE
  8
0
 62
     0
 10
199.463
 20
3.38308
 30
0.0
 11
200.262
 21
3.38308
 31
0.0
  0
LINE
  8
0
 62
     0
 10
200.262
 20
3.38308
 30
0.0
 11
200.262
 21
2.78364
 31
0.0
  0
LINE
  8
0
 62
     0
 10
200.262
 20
2.78364
 30
0.0
 11
214.263
 21
2.78364
 31
0.0
  0
LINE
  8
0
 62
     0
 10
214.263
 20
2.78364
 30
0.0
 11
214.263
 21
3.38308
 31
0.0
  0
LINE
  8
0
 62
     0
 10
214.263
 20
3.38308
 30
0.0
 11
215.062
 21
3.38308
 31
0.0
  0
LINE
  8
0
 62
     0
 10
215.062
 20
3.38308
 30
0.0
 11
215.062
 21
7.48411
 31
0.0
  0
LINE
  8
0
 62
     0
 10
215.062
 20
7.48411
 30
0.0
 11
253.887
 21
7.48411
 31
0.0
  0
LINE
  8
0
 62
     0
 10
253.887
 20
7.48411
 30
0.0
 11
253.887
 21
3.01377
 31
0.0
  0
LINE
  8
0
 62
     0
 10
253.887
 20
3.01377
 30
0.0
 11
255.611
 21
3.01377
 31
0.0
  0
LINE
  8
0
 62
     0
 10
255.611
 20
3.01377
 30
0.0
 11
255.611
 21
2.03261
 31
0.0
  0
LINE
  8
0
 62
     0
 10
255.611
 20
2.03261
 30
0.0
 11
258.913
 21
2.03261
 31
0.0
  0
LINE
  8
0
 62
     0
 10
258.913
 20
2.03261
 30
0.0
 11
258.913
 21
3.01377
 31
0.0
  0
LINE
  8
0
 62
     0
 10
258.913
 20
3.01377
 30
0.0
 11
260.638
 21
3.01377
 31
0.0
  0
LINE
  8
0
 62
     0
 10
260.638
 20
3.01377
 30
0.0
 11
260.638
 21
9.28384
 31
0.0
  0
LINE
  8
0
 62
     0
 10
260.638
 20
9.28384
 30
0.0
 11
261.462
 21
9.28384
 31
0.0
  0
LINE
  8
0
 62
     0
 10
261.462
 20
9.28384
 30
0.0
 11
261.462
 21
12.0826
 31
0.0
  0
LINE
  8
0
 62
     0
 10
261.462
 20
12.0826
 30
0.0
 11
260.638
 21
12.0826
 31
0.0
  0
LINE
  8
0
 62
     0
 10
260.638
 20
12.0826
 30
0.0
 11
260.638
 21
15.3128
 31
0.0
  0
LINE
  8
0
 62
     0
 10
260.638
 20
15.3128
 30
0.0
 11
258.913
 21
15.3128
 31
0.0
  0
LINE
  8
0
 62
     0
 10
258.913
 20
15.3128
 30
0.0
 11
258.913
 21
16.2347
 31
0.0
  0
LINE
  8
0
 62
     0
 10
258.913
 20
16.2347
 30
0.0
 11
255.611
 21
16.2347
 31
0.0
  0
LINE
  8
0
 62
     0
 10
255.611
 20
16.2347
 30
0.0
 11
255.611
 21
15.3128
 31
0.0
  0
LINE
  8
0
 62
     0
 10
255.611
 20
15.3128
 30
0.0
 11
253.887
 21
15.3128
 31
0.0
  0
LINE
  8
0
 62
     0
 10
253.887
 20
15.3128
 30
0.0
 11
253.887
 21
12.0826
 31
0.0
  0
LINE
  8
0
 62
     0
 10
253.887
 20
12.0826
 30
0.0
 11
215.062
 21
12.0826
 31
0.0
  0
LINE
  8
0
 62
     0
 10
215.062
 20
12.0826
 30
0.0
 11
215.062
 21
16.1837
 31
0.0
  0
LINE
  8
0
 62
     0
 10
215.062
 20
16.1837
 30
0.0
 11
214.263
 21
16.1837
 31
0.0
  0
LINE
  8
0
 62
     0
 10
214.263
 20
16.1837
 30
0.0
 11
214.263
 21
16.7831
 31
0.0
  0
LINE
  8
0
 62
     0
 10
214.263
 20
16.7831
 30
0.0
 11
200.262
 21
16.7831
 31
0.0
  0
LINE
  8
0
 62
     0
 10
12.1447
 20
16.7831
 30
0.0
 11
12.1447
 21
16.1837
 31
0.0
  0
LINE
  8
0
 62
     0
 10
12.1447
 20
16.1837
 30
0.0
 11
11.344
 21
16.1837
 31
0.0
  0
LINE
  8
0
 62
     0
 10
11.344
 20
16.1837
 30
0.0
 11
11.344
 21
12.0826
 31
0.0
  0
LINE
  8
0
 62
     0
 10
11.344
 20
12.0826
 30
0.0
 11
10.6192
 21
12.0826
 31
0.0
  0
LINE
  8
0
 62
     0
 10
10.6192
 20
12.0826
 30
0.0
 11
10.6192
 21
15.3128
 31
0.0
  0
LINE
  8
0
 62
     0
 10
10.6192
 20
15.3128
 30
0.0
 11
8.89385
 21
15.3128
 31
0.0
  0
LINE
  8
0
 62
     0
 10
8.89385
 20
15.3128
 30
0.0
 11
8.89385
 21
16.2347
 31
0.0
  0
LINE
  8
0
 62
     0
 10
8.89385
 20
16.2347
 30
0.0
 11
5.59484
 21
16.2347
 31
0.0
  0
LINE
  8
0
 62
     0
 10
5.59484
 20
16.2347
 30
0.0
 11
5.59484
 21
15.3128
 31
0.0
  0
LINE
  8
0
 62
     0
 10
5.59484
 20
15.3128
 30
0.0
 11
3.86955
 21
15.3128
 31
0.0
  0
LINE
  8
0
 62
     0
 10
3.86955
 20
15.3128
 30
0.0
 11
3.86955
 21
12.0826
 31
0.0
  0
LINE
  8
0
 62
     0
 10
3.86955
 20
12.0826
 30
0.0
 11
3.04409
 21
12.0826
 31
0.0
  0
LINE
  8
0
 62
     0
 10
3.04409
 20
12.0826
 30
0.0
 11
3.04409
 21
9.28384
 31
0.0
  0
LINE
  8
0
 62
     0
 10
3.04409
 20
9.28384
 30
0.0
 11
3.86955
 21
9.28384
 31
0.0
  0
LINE
  8
0
 62
     0
 10
3.86955
 20
9.28384
 30
0.0
 11
3.86955
 21
3.01377
 31
0.0
  0
LINE
  8
0
 62
     0
 10
3.86955
 20
3.01377
 30
0.0
 11
5.59484
 21
3.01377
 31
0.0
  0
LINE
  8
0
 62
     0
 10
5.59484
 20
3.01377
 30
0.0
 11
5.59484
 21
2.03261
 31
0.0
  0
LINE
  8
0
 62
     0
 10
5.59484
 20
2.03261
 30
0.0
 11
8.89385
 21
2.03261
 31
0.0
  0
LINE
  8
0
 62
     0
 10
8.89385
 20
2.03261
 30
0.0
 11
8.89385
 21
3.01377
 31
0.0
  0
LINE
  8
0
 62
     0
 10
8.89385
 20
3.01377
 30
0.0
 11
10.6192
 21
3.01377
 31
0.0
  0
LINE
  8
0
 62
     0
 10
10.6192
 20
3.01377
 30
0.0
 11
10.6192
 21
7.48411
 31
0.0
  0
LINE
  8
0
 62
     0
 10
10.6192
 20
7.48411
 30
0.0
 11
11.344
 21
7.48411
 31
0.0
  0
LINE
  8
0
 62
     0
 10
11.344
 20
7.48411
 30
0.0
 11
11.344
 21
3.38308
 31
0.0
  0
LINE
  8
0
 62
     0
 10
11.344
 20
3.38308
 30
0.0
 11
12.1447
 21
3.38308
 31
0.0
  0
LINE
  8
0
 62
     0
 10
12.1447
 20
3.38308
 30
0.0
 11
12.1447
 21
2.78364
 31
0.0
  0
LINE
  8
0
 62
     0
 10
12.1447
 20
2.78364
 30
0.0
 11
26.1441
 21
2.78364
 31
0.0
  0
LINE
  8
0
 62
     0
 10
26.1441
 20
2.78364
 30
0.0
 11
26.1441
 21
3.38308
 31
0.0
  0
LINE
  8
0
 62
     0
 10
26.1441
 20
3.38308
 30
0.0
 11
26.9448
 21
3.38308
 31
0.0
  0
LINE
  8
0
 62
     0
 10
26.9448
 20
3.38308
 30
0.0
 11
26.9448
 21
7.48411
 31
0.0
  0
LINE
  8
0
 62
     0
 10
26.9448
 20
7.48411
 30
0.0
 11
27.6696
 21
7.48411
 31
0.0
  0
LINE
  8
0
 62
     0
 10
27.6696
 20
7.48411
 30
0.0
 11
27.6696
 21
3.01377
 31
0.0
  0
LINE
  8
0
 62
     0
 10
27.6696
 20
3.01377
 30
0.0
 11
29.3949
 21
3.01377
 31
0.0
  0
LINE
  8
0
 62
     0
 10
29.3949
 20
3.01377
 30
0.0
 11
29.3949
 21
2.03261
 31
0.0
  0
LINE
  8
0
 62
     0
 10
29.3949
 20
2.03261
 30
0.0
 11
32.694
 21
2.03261
 31
0.0
  0
LINE
  8
0
 62
     0
 10
32.694
 20
2.03261
 30
0.0
 11
32.694
 21
3.01377
 31
0.0
  0
LINE
  8
0
 62
     0
 10
32.694
 20
3.01377
 30
0.0
 11
34.4193
 21
3.01377
 31
0.0
  0
LINE
  8
0
 62
     0
 10
34.4193
 20
3.01377
 30
0.0
 11
34.4193
 21
9.28384
 31
0.0
  0
LINE
  8
0
 62
     0
 10
34.4193
 20
9.28384
 30
0.0
 11
35.2447
 21
9.28384
 31
0.0
  0
LINE
  8
0
 62
     0
 10
35.2447
 20
9.28384
 30
0.0
 11
35.2447
 21
12.0826
 31
0.0
  0
LINE
  8
0
 62
     0
 10
35.2447
 20
12.0826
 30
0.0
 11
34.4193
 21
12.0826
 31
0.0
  0
LINE
  8
0
 62
     0
 10
34.4193
 20
12.0826
 30
0.0
 11
34.4193
 21
15.3128
 31
0.0
  0
LINE
  8
0
 62
     0
 10
34.4193
 20
15.3128
 30
0.0
 11
32.694
 21
15.3128
 31
0.0
  0
LINE
  8
0
 62
     0
 10
32.694
 20
15.3128
 30
0.0
 11
32.694
 21
16.2347
 31
0.0
  0
LINE
  8
0
 62
     0
 10
32.694
 20
16.2347
 30
0.0
 11
29.3949
 21
16.2347
 31
0.0
  0
LINE
  8
0
 62
     0
 10
29.3949
 20
16.2347
 30
0.0
 11
29.3949
 21
15.3128
 31
0.0
  0
LINE
  8
0
 62
     0
 10
29.3949
 20
15.3128
 30
0.0
 11
27.6696
 21
15.3128
 31
0.0
  0
LINE
  8
0
 62
     0
 10
27.6696
 20
15.3128
 30
0.0
 11
27.6696
 21
12.0826
 31
0.0
  0
LINE
  8
0
 62
     0
 10
27.6696
 20
12.0826
 30
0.0
 11
26.9448
 21
12.0826
 31
0.0
  0
LINE
  8
0
 62
     0
 10
26.9448
 20
12.0826
 30
0.0
 11
26.9448
 21
16.1837
 31
0.0
  0
LINE
  8
0
 62
     0
 10
26.9448
 20
16.1837
 30
0.0
 11
26.1441
 21
16.1837
 31
0.0
  0
LINE
  8
0
 62
     0
 10
26.1441
 20
16.1837
 30
0.0
 11
26.1441
 21
16.7831
 31
0.0
  0
LINE
  8
0
 62
     0
 10
26.1441
 20
16.7831
 30
0.0
 11
12.1447
 21
16.7831
 31
0.0
  0
LINE
  8
0
 62
     0
 10
343.137
 20
16.7831
 30
0.0
 11
343.137
 21
16.1837
 31
0.0
  0
LINE
  8
0
 62
     0
 10
343.137
 20
16.1837
 30
0.0
 11
342.338
 21
16.1837
 31
0.0
  0
LINE
  8
0
 62
     0
 10
342.338
 20
16.1837
 30
0.0
 11
342.338
 21
3.38308
 31
0.0
  0
LINE
  8
0
 62
     0
 10
342.338
 20
3.38308
 30
0.0
 11
343.137
 21
3.38308
 31
0.0
  0
LINE
  8
0
 62
     0
 10
343.137
 20
3.38308
 30
0.0
 11
343.137
 21
2.78364
 31
0.0
  0
LINE
  8
0
 62
     0
 10
343.137
 20
2.78364
 30
0.0
 11
357.138
 21
2.78364
 31
0.0
  0
LINE
  8
0
 62
     0
 10
357.138
 20
2.78364
 30
0.0
 11
357.138
 21
3.38308
 31
0.0
  0
LINE
  8
0
 62
     0
 10
357.138
 20
3.38308
 30
0.0
 11
357.939
 21
3.38308
 31
0.0
  0
LINE
  8
0
 62
     0
 10
357.939
 20
3.38308
 30
0.0
 11
357.939
 21
16.1837
 31
0.0
  0
LINE
  8
0
 62
     0
 10
357.939
 20
16.1837
 30
0.0
 11
357.138
 21
16.1837
 31
0.0
  0
LINE
  8
0
 62
     0
 10
357.138
 20
16.1837
 30
0.0
 11
357.138
 21
16.7831
 31
0.0
  0
LINE
  8
0
 62
     0
 10
357.138
 20
16.7831
 30
0.0
 11
343.137
 21
16.7831
 31
0.0
  0
LINE
  8
0
 62
     0
 10
319.326
 20
16.7831
 30
0.0
 11
319.326
 21
16.1837
 31
0.0
  0
LINE
  8
0
 62
     0
 10
319.326
 20
16.1837
 30
0.0
 11
318.525
 21
16.1837
 31
0.0
  0
LINE
  8
0
 62
     0
 10
318.525
 20
16.1837
 30
0.0
 11
318.525
 21
3.38308
 31
0.0
  0
LINE
  8
0
 62
     0
 10
318.525
 20
3.38308
 30
0.0
 11
319.326
 21
3.38308
 31
0.0
  0
LINE
  8
0
 62
     0
 10
319.326
 20
3.38308
 30
0.0
 11
319.326
 21
2.78364
 31
0.0
  0
LINE
  8
0
 62
     0
 10
319.326
 20
2.78364
 30
0.0
 11
333.325
 21
2.78364
 31
0.0
  0
LINE
  8
0
 62
     0
 10
333.325
 20
2.78364
 30
0.0
 11
333.325
 21
3.38308
 31
0.0
  0
LINE
  8
0
 62
     0
 10
333.325
 20
3.38308
 30
0.0
 11
334.126
 21
3.38308
 31
0.0
  0
LINE
  8
0
 62
     0
 10
334.126
 20
3.38308
 30
0.0
 11
334.126
 21
16.1837
 31
0.0
  0
LINE
  8
0
 62
     0
 10
334.126
 20
16.1837
 30
0.0
 11
333.325
 21
16.1837
 31
0.0
  0
LINE
  8
0
 62
     0
 10
333.325
 20
16.1837
 30
0.0
 11
333.325
 21
16.7831
 31
0.0
  0
LINE
  8
0
 62
     0
 10
333.325
 20
16.7831
 30
0.0
 11
319.326
 21
16.7831
 31
0.0
  0
LINE
  8
0
 62
     0
 10
295.512
 20
16.7831
 30
0.0
 11
295.512
 21
16.1837
 31
0.0
  0
LINE
  8
0
 62
     0
 10
295.512
 20
16.1837
 30
0.0
 11
294.713
 21
16.1837
 31
0.0
  0
LINE
  8
0
 62
     0
 10
294.713
 20
16.1837
 30
0.0
 11
294.713
 21
3.38308
 31
0.0
  0
LINE
  8
0
 62
     0
 10
294.713
 20
3.38308
 30
0.0
 11
295.512
 21
3.38308
 31
0.0
  0
LINE
  8
0
 62
     0
 10
295.512
 20
3.38308
 30
0.0
 11
295.512
 21
2.78364
 31
0.0
  0
LINE
  8
0
 62
     0
 10
295.512
 20
2.78364
 30
0.0
 11
309.513
 21
2.78364
 31
0.0
  0
LINE
  8
0
 62
     0
 10
309.513
 20
2.78364
 30
0.0
 11
309.513
 21
3.38308
 31
0.0
  0
LINE
  8
0
 62
     0
 10
309.513
 20
3.38308
 30
0.0
 11
310.312
 21
3.38308
 31
0.0
  0
LINE
  8
0
 62
     0
 10
310.312
 20
3.38308
 30
0.0
 11
310.312
 21
16.1837
 31
0.0
  0
LINE
  8
0
 62
     0
 10
310.312
 20
16.1837
 30
0.0
 11
309.513
 21
16.1837
 31
0.0
  0
LINE
  8
0
 62
     0
 10
309.513
 20
16.1837
 30
0.0
 11
309.513
 21
16.7831
 31
0.0
  0
LINE
  8
0
 62
     0
 10
309.513
 20
16.7831
 30
0.0
 11
295.512
 21
16.7831
 31
0.0
  0
LINE
  8
0
 62
     0
 10
271.701
 20
16.7831
 30
0.0
 11
271.701
 21
16.1837
 31
0.0
  0
LINE
  8
0
 62
     0
 10
271.701
 20
16.1837
 30
0.0
 11
270.9
 21
16.1837
 31
0.0
  0
LINE
  8
0
 62
     0
 10
270.9
 20
16.1837
 30
0.0
 11
270.9
 21
3.38308
 31
0.0
  0
LINE
  8
0
 62
     0
 10
270.9
 20
3.38308
 30
0.0
 11
271.701
 21
3.38308
 31
0.0
  0
LINE
  8
0
 62
     0
 10
271.701
 20
3.38308
 30
0.0
 11
271.701
 21
2.78364
 31
0.0
  0
LINE
  8
0
 62
     0
 10
271.701
 20
2.78364
 30
0.0
 11
285.7
 21
2.78364
 31
0.0
  0
LINE
  8
0
 62
     0
 10
285.7
 20
2.78364
 30
0.0
 11
285.7
 21
3.38308
 31
0.0
  0
LINE
  8
0
 62
     0
 10
285.7
 20
3.38308
 30
0.0
 11
286.501
 21
3.38308
 31
0.0
  0
LINE
  8
0
 62
     0
 10
286.501
 20
3.38308
 30
0.0
 11
286.501
 21
16.1837
 31
0.0
  0
LINE
  8
0
 62
     0
 10
286.501
 20
16.1837
 30
0.0
 11
285.7
 21
16.1837
 31
0.0
  0
LINE
  8
0
 62
     0
 10
285.7
 20
16.1837
 30
0.0
 11
285.7
 21
16.7831
 31
0.0
  0
LINE
  8
0
 62
     0
 10
285.7
 20
16.7831
 30
0.0
 11
271.701
 21
16.7831
 31
0.0
  0
LINE
  8
0
 62
     0
 10
128.826
 20
16.7831
 30
0.0
 11
128.826
 21
16.1837
 31
0.0
  0
LINE
  8
0
 62
     0
 10
128.826
 20
16.1837
 30
0.0
 11
128.025
 21
16.1837
 31
0.0
  0
LINE
  8
0
 62
     0
 10
128.025
 20
16.1837
 30
0.0
 11
128.025
 21
3.38308
 31
0.0
  0
LINE
  8
0
 62
     0
 10
128.025
 20
3.38308
 30
0.0
 11
128.826
 21
3.38308
 31
0.0
  0
LINE
  8
0
 62
     0
 10
128.826
 20
3.38308
 30
0.0
 11
128.826
 21
2.78364
 31
0.0
  0
LINE
  8
0
 62
     0
 10
128.826
 20
2.78364
 30
0.0
 11
142.825
 21
2.78364
 31
0.0
  0
LINE
  8
0
 62
     0
 10
142.825
 20
2.78364
 30
0.0
 11
142.825
 21
3.38308
 31
0.0
  0
LINE
  8
0
 62
     0
 10
142.825
 20
3.38308
 30
0.0
 11
143.626
 21
3.38308
 31
0.0
  0
LINE
  8
0
 62
     0
 10
143.626
 20
3.38308
 30
0.0
 11
143.626
 21
16.1837
 31
0.0
  0
LINE
  8
0
 62
     0
 10
143.626
 20
16.1837
 30
0.0
 11
142.825
 21
16.1837
 31
0.0
  0
LINE
  8
0
 62
     0
 10
142.825
 20
16.1837
 30
0.0
 11
142.825
 21
16.7831
 31
0.0
  0
LINE
  8
0
 62
     0
 10
142.825
 20
16.7831
 30
0.0
 11
128.826
 21
16.7831
 31
0.0
  0
LINE
  8
0
 62
     0
 10
105.012
 20
16.7831
 30
0.0
 11
105.012
 21
16.1837
 31
0.0
  0
LINE
  8
0
 62
     0
 10
105.012
 20
16.1837
 30
0.0
 11
104.213
 21
16.1837
 31
0.0
  0
LINE
  8
0
 62
     0
 10
104.213
 20
16.1837
 30
0.0
 11
104.213
 21
3.38308
 31
0.0
  0
LINE
  8
0
 62
     0
 10
104.213
 20
3.38308
 30
0.0
 11
105.012
 21
3.38308
 31
0.0
  0
LINE
  8
0
 62
     0
 10
105.012
 20
3.38308
 30
0.0
 11
105.012
 21
2.78364
 31
0.0
  0
LINE
  8
0
 62
     0
 10
105.012
 20
2.78364
 30
0.0
 11
119.013
 21
2.78364
 31
0.0
  0
LINE
  8
0
 62
     0
 10
119.013
 20
2.78364
 30
0.0
 11
119.013
 21
3.38308
 31
0.0
  0
LINE
  8
0
 62
     0
 10
119.013
 20
3.38308
 30
0.0
 11
119.812
 21
3.38308
 31
0.0
  0
LINE
  8
0
 62
     0
 10
119.812
 20
3.38308
 30
0.0
 11
119.812
 21
16.1837
 31
0.0
  0
LINE
  8
0
 62
     0
 10
119.812
 20
16.1837
 30
0.0
 11
119.013
 21
16.1837
 31
0.0
  0
LINE
  8
0
 62
     0
 10
119.013
 20
16.1837
 30
0.0
 11
119.013
 21
16.7831
 31
0.0
  0
LINE
  8
0
 62
     0
 10
119.013
 20
16.7831
 30
0.0
 11
105.012
 21
16.7831
 31
0.0
  0
LINE
  8
0
 62
     0
 10
81.201
 20
16.7831
 30
0.0
 11
81.201
 21
16.1837
 31
0.0
  0
LINE
  8
0
 62
     0
 10
81.201
 20
16.1837
 30
0.0
 11
80.4002
 21
16.1837
 31
0.0
  0
LINE
  8
0
 62
     0
 10
80.4002
 20
16.1837
 30
0.0
 11
80.4002
 21
3.38308
 31
0.0
  0
LINE
  8
0
 62
     0
 10
80.4002
 20
3.38308
 30
0.0
 11
81.201
 21
3.38308
 31
0.0
  0
LINE
  8
0
 62
     0
 10
81.201
 20
3.38308
 30
0.0
 11
81.201
 21
2.78364
 31
0.0
  0
LINE
  8
0
 62
     0
 10
81.201
 20
2.78364
 30
0.0
 11
95.2003
 21
2.78364
 31
0.0
  0
LINE
  8
0
 62
     0
 10
95.2003
 20
2.78364
 30
0.0
 11
95.2003
 21
3.38308
 31
0.0
  0
LINE
  8
0
 62
     0
 10
95.2003
 20
3.38308
 30
0.0
 11
96.0011
 21
3.38308
 31
0.0
  0
LINE
  8
0
 62
     0
 10
96.0011
 20
3.38308
 30
0.0
 11
96.0011
 21
16.1837
 31
0.0
  0
LINE
  8
0
 62
     0
 10
96.0011
 20
16.1837
 30
0.0
 11
95.2003
 21
16.1837
 31
0.0
  0
LINE
  8
0
 62
     0
 10
95.2003
 20
16.1837
 30
0.0
 11
95.2003
 21
16.7831
 31
0.0
  0
LINE
  8
0
 62
     0
 10
95.2003
 20
16.7831
 30
0.0
 11
81.201
 21
16.7831
 31
0.0
  0
LINE
  8
0
 62
     0
 10
40.7197
 20
16.7831
 30
0.0
 11
40.7197
 21
16.1837
 31
0.0
  0
LINE
  8
0
 62
     0
 10
40.7197
 20
16.1837
 30
0.0
 11
39.9189
 21
16.1837
 31
0.0
  0
LINE
  8
0
 62
     0
 10
39.9189
 20
16.1837
 30
0.0
 11
39.9189
 21
3.38308
 31
0.0
  0
LINE
  8
0
 62
     0
 10
39.9189
 20
3.38308
 30
0.0
 11
40.7197
 21
3.38308
 31
0.0
  0
LINE
  8
0
 62
     0
 10
40.7197
 20
3.38308
 30
0.0
 11
40.7197
 21
2.78364
 31
0.0
  0
LINE
  8
0
 62
     0
 10
40.7197
 20
2.78364
 30
0.0
 11
54.719
 21
2.78364
 31
0.0
  0
LINE
  8
0
 62
     0
 10
54.719
 20
2.78364
 30
0.0
 11
54.719
 21
3.38308
 31
0.0
  0
LINE
  8
0
 62
     0
 10
54.719
 20
3.38308
 30
0.0
 11
55.5198
 21
3.38308
 31
0.0
  0
LINE
  8
0
 62
     0
 10
55.5198
 20
3.38308
 30
0.0
 11
55.5198
 21
16.1837
 31
0.0
  0
LINE
  8
0
 62
     0
 10
55.5198
 20
16.1837
 30
0.0
 11
54.719
 21
16.1837
 31
0.0
  0
LINE
  8
0
 62
     0
 10
54.719
 20
16.1837
 30
0.0
 11
54.719
 21
16.7831
 31
0.0
  0
LINE
  8
0
 62
     0
 10
54.719
 20
16.7831
 30
0.0
 11
40.7197
 21
16.7831
 31
0.0
  0
LINE
  8
0
 62
     0
 10
66.27
 20
35.4087
 30
0.0
 11
66.27
 21
34.5833
 31
0.0
  0
LINE
  8
0
 62
     0
 10
66.27
 20
34.5833
 30
0.0
 11
59.9997
 21
34.5833
 31
0.0
  0
LINE
  8
0
 62
     0
 10
59.9997
 20
34.5833
 30
0.0
 11
59.9997
 21
32.8579
 31
0.0
  0
LINE
  8
0
 62
     0
 10
59.9997
 20
32.8579
 30
0.0
 11
59.0201
 21
32.8579
 31
0.0
  0
LINE
  8
0
 62
     0
 10
59.0201
 20
32.8579
 30
0.0
 11
59.0201
 21
29.5589
 31
0.0
  0
LINE
  8
0
 62
     0
 10
59.0201
 20
29.5589
 30
0.0
 11
59.9997
 21
29.5589
 31
0.0
  0
LINE
  8
0
 62
     0
 10
59.9997
 20
29.5589
 30
0.0
 11
59.9997
 21
27.8336
 31
0.0
  0
LINE
  8
0
 62
     0
 10
59.9997
 20
27.8336
 30
0.0
 11
64.4701
 21
27.8336
 31
0.0
  0
LINE
  8
0
 62
     0
 10
64.4701
 20
27.8336
 30
0.0
 11
64.4701
 21
27.1088
 31
0.0
  0
LINE
  8
0
 62
     0
 10
64.4701
 20
27.1088
 30
0.0
 11
60.3691
 21
27.1088
 31
0.0
  0
LINE
  8
0
 62
     0
 10
60.3691
 20
27.1088
 30
0.0
 11
60.3691
 21
26.3081
 31
0.0
  0
LINE
  8
0
 62
     0
 10
60.3691
 20
26.3081
 30
0.0
 11
59.7697
 21
26.3081
 31
0.0
  0
LINE
  8
0
 62
     0
 10
59.7697
 20
26.3081
 30
0.0
 11
59.7697
 21
12.3086
 31
0.0
  0
LINE
  8
0
 62
     0
 10
59.7697
 20
12.3086
 30
0.0
 11
60.3691
 21
12.3086
 31
0.0
  0
LINE
  8
0
 62
     0
 10
60.3691
 20
12.3086
 30
0.0
 11
60.3691
 21
11.508
 31
0.0
  0
LINE
  8
0
 62
     0
 10
60.3691
 20
11.508
 30
0.0
 11
64.4701
 21
11.508
 31
0.0
  0
LINE
  8
0
 62
     0
 10
64.4701
 20
11.508
 30
0.0
 11
64.4701
 21
10.7831
 31
0.0
  0
LINE
  8
0
 62
     0
 10
64.4701
 20
10.7831
 30
0.0
 11
59.9997
 21
10.7831
 31
0.0
  0
LINE
  8
0
 62
     0
 10
59.9997
 20
10.7831
 30
0.0
 11
59.9997
 21
9.05785
 31
0.0
  0
LINE
  8
0
 62
     0
 10
59.9997
 20
9.05785
 30
0.0
 11
59.0201
 21
9.05785
 31
0.0
  0
LINE
  8
0
 62
     0
 10
59.0201
 20
9.05785
 30
0.0
 11
59.0201
 21
5.75881
 31
0.0
  0
LINE
  8
0
 62
     0
 10
59.0201
 20
5.75881
 30
0.0
 11
59.9997
 21
5.75881
 31
0.0
  0
LINE
  8
0
 62
     0
 10
59.9997
 20
5.75881
 30
0.0
 11
59.9997
 21
4.03352
 31
0.0
  0
LINE
  8
0
 62
     0
 10
59.9997
 20
4.03352
 30
0.0
 11
66.27
 21
4.03352
 31
0.0
  0
LINE
  8
0
 62
     0
 10
66.27
 20
4.03352
 30
0.0
 11
66.27
 21
3.20807
 31
0.0
  0
LINE
  8
0
 62
     0
 10
66.27
 20
3.20807
 30
0.0
 11
69.07
 21
3.20807
 31
0.0
  0
LINE
  8
0
 62
     0
 10
69.07
 20
3.20807
 30
0.0
 11
69.07
 21
4.03352
 31
0.0
  0
LINE
  8
0
 62
     0
 10
69.07
 20
4.03352
 30
0.0
 11
72.3
 21
4.03352
 31
0.0
  0
LINE
  8
0
 62
     0
 10
72.3
 20
4.03352
 30
0.0
 11
72.3
 21
5.75881
 31
0.0
  0
LINE
  8
0
 62
     0
 10
72.3
 20
5.75881
 30
0.0
 11
73.2194
 21
5.75881
 31
0.0
  0
LINE
  8
0
 62
     0
 10
73.2194
 20
5.75881
 30
0.0
 11
73.2194
 21
9.05785
 31
0.0
  0
LINE
  8
0
 62
     0
 10
73.2194
 20
9.05785
 30
0.0
 11
72.3
 21
9.05785
 31
0.0
  0
LINE
  8
0
 62
     0
 10
72.3
 20
9.05785
 30
0.0
 11
72.3
 21
10.7831
 31
0.0
  0
LINE
  8
0
 62
     0
 10
72.3
 20
10.7831
 30
0.0
 11
69.07
 21
10.7831
 31
0.0
  0
LINE
  8
0
 62
     0
 10
69.07
 20
10.7831
 30
0.0
 11
69.07
 21
11.508
 31
0.0
  0
LINE
  8
0
 62
     0
 10
69.07
 20
11.508
 30
0.0
 11
73.1696
 21
11.508
 31
0.0
  0
LINE
  8
0
 62
     0
 10
73.1696
 20
11.508
 30
0.0
 11
73.1696
 21
12.3086
 31
0.0
  0
LINE
  8
0
 62
     0
 10
73.1696
 20
12.3086
 30
0.0
 11
73.769
 21
12.3086
 31
0.0
  0
LINE
  8
0
 62
     0
 10
73.769
 20
12.3086
 30
0.0
 11
73.769
 21
26.3081
 31
0.0
  0
LINE
  8
0
 62
     0
 10
73.769
 20
26.3081
 30
0.0
 11
73.1696
 21
26.3081
 31
0.0
  0
LINE
  8
0
 62
     0
 10
73.1696
 20
26.3081
 30
0.0
 11
73.1696
 21
27.1088
 31
0.0
  0
LINE
  8
0
 62
     0
 10
73.1696
 20
27.1088
 30
0.0
 11
69.07
 21
27.1088
 31
0.0
  0
LINE
  8
0
 62
     0
 10
69.07
 20
27.1088
 30
0.0
 11
69.07
 21
27.8336
 31
0.0
  0
LINE
  8
0
 62
     0
 10
69.07
 20
27.8336
 30
0.0
 11
72.3
 21
27.8336
 31
0.0
  0
LINE
  8
0
 62
     0
 10
72.3
 20
27.8336
 30
0.0
 11
72.3
 21
29.5589
 31
0.0
  0
LINE
  8
0
 62
     0
 10
72.3
 20
29.5589
 30
0.0
 11
73.2194
 21
29.5589
 31
0.0
  0
LINE
  8
0
 62
     0
 10
73.2194
 20
29.5589
 30
0.0
 11
73.2194
 21
32.8579
 31
0.0
  0
LINE
  8
0
 62
     0
 10
73.2194
 20
32.8579
 30
0.0
 11
72.3
 21
32.8579
 31
0.0
  0
LINE
  8
0
 62
     0
 10
72.3
 20
32.8579
 30
0.0
 11
72.3
 21
34.5833
 31
0.0
  0
LINE
  8
0
 62
     0
 10
72.3
 20
34.5833
 30
0.0
 11
69.07
 21
34.5833
 31
0.0
  0
LINE
  8
0
 62
     0
 10
69.07
 20
34.5833
 30
0.0
 11
69.07
 21
35.4087
 31
0.0
  0
LINE
  8
0
 62
     0
 10
69.07
 20
35.4087
 30
0.0
 11
66.27
 21
35.4087
 31
0.0
  0
LINE
  8
0
 62
     0
 10
328.851
 20
35.833
 30
0.0
 11
328.851
 21
35.2337
 31
0.0
  0
LINE
  8
0
 62
     0
 10
328.851
 20
35.2337
 30
0.0
 11
328.05
 21
35.2337
 31
0.0
  0
LINE
  8
0
 62
     0
 10
328.05
 20
35.2337
 30
0.0
 11
328.05
 21
31.1326
 31
0.0
  0
LINE
  8
0
 62
     0
 10
328.05
 20
31.1326
 30
0.0
 11
327.326
 21
31.1326
 31
0.0
  0
LINE
  8
0
 62
     0
 10
327.326
 20
31.1326
 30
0.0
 11
327.326
 21
34.3628
 31
0.0
  0
LINE
  8
0
 62
     0
 10
327.326
 20
34.3628
 30
0.0
 11
325.6
 21
34.3628
 31
0.0
  0
LINE
  8
0
 62
     0
 10
325.6
 20
34.3628
 30
0.0
 11
325.6
 21
35.2848
 31
0.0
  0
LINE
  8
0
 62
     0
 10
325.6
 20
35.2848
 30
0.0
 11
322.301
 21
35.2848
 31
0.0
  0
LINE
  8
0
 62
     0
 10
322.301
 20
35.2848
 30
0.0
 11
322.301
 21
34.3628
 31
0.0
  0
LINE
  8
0
 62
     0
 10
322.301
 20
34.3628
 30
0.0
 11
320.576
 21
34.3628
 31
0.0
  0
LINE
  8
0
 62
     0
 10
320.576
 20
34.3628
 30
0.0
 11
320.576
 21
31.1326
 31
0.0
  0
LINE
  8
0
 62
     0
 10
320.576
 20
31.1326
 30
0.0
 11
319.75
 21
31.1326
 31
0.0
  0
LINE
  8
0
 62
     0
 10
319.75
 20
31.1326
 30
0.0
 11
319.75
 21
28.3338
 31
0.0
  0
LINE
  8
0
 62
     0
 10
319.75
 20
28.3338
 30
0.0
 11
320.576
 21
28.3338
 31
0.0
  0
LINE
  8
0
 62
     0
 10
320.576
 20
28.3338
 30
0.0
 11
320.576
 21
22.0638
 31
0.0
  0
LINE
  8
0
 62
     0
 10
320.576
 20
22.0638
 30
0.0
 11
322.301
 21
22.0638
 31
0.0
  0
LINE
  8
0
 62
     0
 10
322.301
 20
22.0638
 30
0.0
 11
322.301
 21
21.0826
 31
0.0
  0
LINE
  8
0
 62
     0
 10
322.301
 20
21.0826
 30
0.0
 11
325.6
 21
21.0826
 31
0.0
  0
LINE
  8
0
 62
     0
 10
325.6
 20
21.0826
 30
0.0
 11
325.6
 21
22.0638
 31
0.0
  0
LINE
  8
0
 62
     0
 10
325.6
 20
22.0638
 30
0.0
 11
327.326
 21
22.0638
 31
0.0
  0
LINE
  8
0
 62
     0
 10
327.326
 20
22.0638
 30
0.0
 11
327.326
 21
26.5327
 31
0.0
  0
LINE
  8
0
 62
     0
 10
327.326
 20
26.5327
 30
0.0
 11
328.05
 21
26.5327
 31
0.0
  0
LINE
  8
0
 62
     0
 10
328.05
 20
26.5327
 30
0.0
 11
328.05
 21
22.4331
 31
0.0
  0
LINE
  8
0
 62
     0
 10
328.05
 20
22.4331
 30
0.0
 11
328.851
 21
22.4331
 31
0.0
  0
LINE
  8
0
 62
     0
 10
328.851
 20
22.4331
 30
0.0
 11
328.851
 21
21.8336
 31
0.0
  0
LINE
  8
0
 62
     0
 10
328.851
 20
21.8336
 30
0.0
 11
342.85
 21
21.8336
 31
0.0
  0
LINE
  8
0
 62
     0
 10
342.85
 20
21.8336
 30
0.0
 11
342.85
 21
22.4331
 31
0.0
  0
LINE
  8
0
 62
     0
 10
342.85
 20
22.4331
 30
0.0
 11
343.651
 21
22.4331
 31
0.0
  0
LINE
  8
0
 62
     0
 10
343.651
 20
22.4331
 30
0.0
 11
343.651
 21
26.5327
 31
0.0
  0
LINE
  8
0
 62
     0
 10
343.651
 20
26.5327
 30
0.0
 11
344.376
 21
26.5327
 31
0.0
  0
LINE
  8
0
 62
     0
 10
344.376
 20
26.5327
 30
0.0
 11
344.376
 21
22.0638
 31
0.0
  0
LINE
  8
0
 62
     0
 10
344.376
 20
22.0638
 30
0.0
 11
346.1
 21
22.0638
 31
0.0
  0
LINE
  8
0
 62
     0
 10
346.1
 20
22.0638
 30
0.0
 11
346.1
 21
21.0826
 31
0.0
  0
LINE
  8
0
 62
     0
 10
346.1
 20
21.0826
 30
0.0
 11
349.4
 21
21.0826
 31
0.0
  0
LINE
  8
0
 62
     0
 10
349.4
 20
21.0826
 30
0.0
 11
349.4
 21
22.0638
 31
0.0
  0
LINE
  8
0
 62
     0
 10
349.4
 20
22.0638
 30
0.0
 11
351.125
 21
22.0638
 31
0.0
  0
LINE
  8
0
 62
     0
 10
351.125
 20
22.0638
 30
0.0
 11
351.125
 21
28.3338
 31
0.0
  0
LINE
  8
0
 62
     0
 10
351.125
 20
28.3338
 30
0.0
 11
351.951
 21
28.3338
 31
0.0
  0
LINE
  8
0
 62
     0
 10
351.951
 20
28.3338
 30
0.0
 11
351.951
 21
31.1326
 31
0.0
  0
LINE
  8
0
 62
     0
 10
351.951
 20
31.1326
 30
0.0
 11
351.125
 21
31.1326
 31
0.0
  0
LINE
  8
0
 62
     0
 10
351.125
 20
31.1326
 30
0.0
 11
351.125
 21
34.3628
 31
0.0
  0
LINE
  8
0
 62
     0
 10
351.125
 20
34.3628
 30
0.0
 11
349.4
 21
34.3628
 31
0.0
  0
LINE
  8
0
 62
     0
 10
349.4
 20
34.3628
 30
0.0
 11
349.4
 21
35.2848
 31
0.0
  0
LINE
  8
0
 62
     0
 10
349.4
 20
35.2848
 30
0.0
 11
346.1
 21
35.2848
 31
0.0
  0
LINE
  8
0
 62
     0
 10
346.1
 20
35.2848
 30
0.0
 11
346.1
 21
34.3628
 31
0.0
  0
LINE
  8
0
 62
     0
 10
346.1
 20
34.3628
 30
0.0
 11
344.376
 21
34.3628
 31
0.0
  0
LINE
  8
0
 62
     0
 10
344.376
 20
34.3628
 30
0.0
 11
344.376
 21
31.1326
 31
0.0
  0
LINE
  8
0
 62
     0
 10
344.376
 20
31.1326
 30
0.0
 11
343.651
 21
31.1326
 31
0.0
  0
LINE
  8
0
 62
     0
 10
343.651
 20
31.1326
 30
0.0
 11
343.651
 21
35.2337
 31
0.0
  0
LINE
  8
0
 62
     0
 10
343.651
 20
35.2337
 30
0.0
 11
342.85
 21
35.2337
 31
0.0
  0
LINE
  8
0
 62
     0
 10
342.85
 20
35.2337
 30
0.0
 11
342.85
 21
35.833
 31
0.0
  0
LINE
  8
0
 62
     0
 10
342.85
 20
35.833
 30
0.0
 11
328.851
 21
35.833
 31
0.0
  0
LINE
  8
0
 62
     0
 10
90.726
 20
35.833
 30
0.0
 11
90.726
 21
35.2337
 31
0.0
  0
LINE
  8
0
 62
     0
 10
90.726
 20
35.2337
 30
0.0
 11
89.9252
 21
35.2337
 31
0.0
  0
LINE
  8
0
 62
     0
 10
89.9252
 20
35.2337
 30
0.0
 11
89.9252
 21
31.1326
 31
0.0
  0
LINE
  8
0
 62
     0
 10
89.9252
 20
31.1326
 30
0.0
 11
89.2006
 21
31.1326
 31
0.0
  0
LINE
  8
0
 62
     0
 10
89.2006
 20
31.1326
 30
0.0
 11
89.2006
 21
34.3628
 31
0.0
  0
LINE
  8
0
 62
     0
 10
89.2006
 20
34.3628
 30
0.0
 11
87.4751
 21
34.3628
 31
0.0
  0
LINE
  8
0
 62
     0
 10
87.4751
 20
34.3628
 30
0.0
 11
87.4751
 21
35.2848
 31
0.0
  0
LINE
  8
0
 62
     0
 10
87.4751
 20
35.2848
 30
0.0
 11
84.176
 21
35.2848
 31
0.0
  0
LINE
  8
0
 62
     0
 10
84.176
 20
35.2848
 30
0.0
 11
84.176
 21
34.3628
 31
0.0
  0
LINE
  8
0
 62
     0
 10
84.176
 20
34.3628
 30
0.0
 11
82.4509
 21
34.3628
 31
0.0
  0
LINE
  8
0
 62
     0
 10
82.4509
 20
34.3628
 30
0.0
 11
82.4509
 21
31.1326
 31
0.0
  0
LINE
  8
0
 62
     0
 10
82.4509
 20
31.1326
 30
0.0
 11
81.6254
 21
31.1326
 31
0.0
  0
LINE
  8
0
 62
     0
 10
81.6254
 20
31.1326
 30
0.0
 11
81.6254
 21
28.3338
 31
0.0
  0
LINE
  8
0
 62
     0
 10
81.6254
 20
28.3338
 30
0.0
 11
82.4509
 21
28.3338
 31
0.0
  0
LINE
  8
0
 62
     0
 10
82.4509
 20
28.3338
 30
0.0
 11
82.4509
 21
22.0638
 31
0.0
  0
LINE
  8
0
 62
     0
 10
82.4509
 20
22.0638
 30
0.0
 11
84.176
 21
22.0638
 31
0.0
  0
LINE
  8
0
 62
     0
 10
84.176
 20
22.0638
 30
0.0
 11
84.176
 21
21.0826
 31
0.0
  0
LINE
  8
0
 62
     0
 10
84.176
 20
21.0826
 30
0.0
 11
87.4751
 21
21.0826
 31
0.0
  0
LINE
  8
0
 62
     0
 10
87.4751
 20
21.0826
 30
0.0
 11
87.4751
 21
22.0638
 31
0.0
  0
LINE
  8
0
 62
     0
 10
87.4751
 20
22.0638
 30
0.0
 11
89.2006
 21
22.0638
 31
0.0
  0
LINE
  8
0
 62
     0
 10
89.2006
 20
22.0638
 30
0.0
 11
89.2006
 21
26.5327
 31
0.0
  0
LINE
  8
0
 62
     0
 10
89.2006
 20
26.5327
 30
0.0
 11
89.9252
 21
26.5327
 31
0.0
  0
LINE
  8
0
 62
     0
 10
89.9252
 20
26.5327
 30
0.0
 11
89.9252
 21
22.4331
 31
0.0
  0
LINE
  8
0
 62
     0
 10
89.9252
 20
22.4331
 30
0.0
 11
90.726
 21
22.4331
 31
0.0
  0
LINE
  8
0
 62
     0
 10
90.726
 20
22.4331
 30
0.0
 11
90.726
 21
21.8336
 31
0.0
  0
LINE
  8
0
 62
     0
 10
90.726
 20
21.8336
 30
0.0
 11
104.725
 21
21.8336
 31
0.0
  0
LINE
  8
0
 62
     0
 10
104.725
 20
21.8336
 30
0.0
 11
104.725
 21
22.4331
 31
0.0
  0
LINE
  8
0
 62
     0
 10
104.725
 20
22.4331
 30
0.0
 11
105.526
 21
22.4331
 31
0.0
  0
LINE
  8
0
 62
     0
 10
105.526
 20
22.4331
 30
0.0
 11
105.526
 21
26.5327
 31
0.0
  0
LINE
  8
0
 62
     0
 10
105.526
 20
26.5327
 30
0.0
 11
106.251
 21
26.5327
 31
0.0
  0
LINE
  8
0
 62
     0
 10
106.251
 20
26.5327
 30
0.0
 11
106.251
 21
22.0638
 31
0.0
  0
LINE
  8
0
 62
     0
 10
106.251
 20
22.0638
 30
0.0
 11
107.975
 21
22.0638
 31
0.0
  0
LINE
  8
0
 62
     0
 10
107.975
 20
22.0638
 30
0.0
 11
107.975
 21
21.0826
 31
0.0
  0
LINE
  8
0
 62
     0
 10
107.975
 20
21.0826
 30
0.0
 11
111.275
 21
21.0826
 31
0.0
  0
LINE
  8
0
 62
     0
 10
111.275
 20
21.0826
 30
0.0
 11
111.275
 21
22.0638
 31
0.0
  0
LINE
  8
0
 62
     0
 10
111.275
 20
22.0638
 30
0.0
 11
113
 21
22.0638
 31
0.0
  0
LINE
  8
0
 62
     0
 10
113
 20
22.0638
 30
0.0
 11
113
 21
28.3338
 31
0.0
  0
LINE
  8
0
 62
     0
 10
113
 20
28.3338
 30
0.0
 11
113.826
 21
28.3338
 31
0.0
  0
LINE
  8
0
 62
     0
 10
113.826
 20
28.3338
 30
0.0
 11
113.826
 21
31.1326
 31
0.0
  0
LINE
  8
0
 62
     0
 10
113.826
 20
31.1326
 30
0.0
 11
113
 21
31.1326
 31
0.0
  0
LINE
  8
0
 62
     0
 10
113
 20
31.1326
 30
0.0
 11
113
 21
34.3628
 31
0.0
  0
LINE
  8
0
 62
     0
 10
113
 20
34.3628
 30
0.0
 11
111.275
 21
34.3628
 31
0.0
  0
LINE
  8
0
 62
     0
 10
111.275
 20
34.3628
 30
0.0
 11
111.275
 21
35.2848
 31
0.0
  0
LINE
  8
0
 62
     0
 10
111.275
 20
35.2848
 30
0.0
 11
107.975
 21
35.2848
 31
0.0
  0
LINE
  8
0
 62
     0
 10
107.975
 20
35.2848
 30
0.0
 11
107.975
 21
34.3628
 31
0.0
  0
LINE
  8
0
 62
     0
 10
107.975
 20
34.3628
 30
0.0
 11
106.251
 21
34.3628
 31
0.0
  0
LINE
  8
0
 62
     0
 10
106.251
 20
34.3628
 30
0.0
 11
106.251
 21
31.1326
 31
0.0
  0
LINE
  8
0
 62
     0
 10
106.251
 20
31.1326
 30
0.0
 11
105.526
 21
31.1326
 31
0.0
  0
LINE
  8
0
 62
     0
 10
105.526
 20
31.1326
 30
0.0
 11
105.526
 21
35.2337
 31
0.0
  0
LINE
  8
0
 62
     0
 10
105.526
 20
35.2337
 30
0.0
 11
104.725
 21
35.2337
 31
0.0
  0
LINE
  8
0
 62
     0
 10
104.725
 20
35.2337
 30
0.0
 11
104.725
 21
35.833
 31
0.0
  0
LINE
  8
0
 62
     0
 10
104.725
 20
35.833
 30
0.0
 11
90.726
 21
35.833
 31
0.0
  0
LINE
  8
0
 62
     0
 10
293.132
 20
35.833
 30
0.0
 11
293.132
 21
35.2337
 31
0.0
  0
LINE
  8
0
 62
     0
 10
293.132
 20
35.2337
 30
0.0
 11
292.331
 21
35.2337
 31
0.0
  0
LINE
  8
0
 62
     0
 10
292.331
 20
35.2337
 30
0.0
 11
292.331
 21
22.4331
 31
0.0
  0
LINE
  8
0
 62
     0
 10
292.331
 20
22.4331
 30
0.0
 11
293.132
 21
22.4331
 31
0.0
  0
LINE
  8
0
 62
     0
 10
293.132
 20
22.4331
 30
0.0
 11
293.132
 21
21.8336
 31
0.0
  0
LINE
  8
0
 62
     0
 10
293.132
 20
21.8336
 30
0.0
 11
307.132
 21
21.8336
 31
0.0
  0
LINE
  8
0
 62
     0
 10
307.132
 20
21.8336
 30
0.0
 11
307.132
 21
22.4331
 31
0.0
  0
LINE
  8
0
 62
     0
 10
307.132
 20
22.4331
 30
0.0
 11
307.931
 21
22.4331
 31
0.0
  0
LINE
  8
0
 62
     0
 10
307.931
 20
22.4331
 30
0.0
 11
307.931
 21
35.2337
 31
0.0
  0
LINE
  8
0
 62
     0
 10
307.931
 20
35.2337
 30
0.0
 11
307.132
 21
35.2337
 31
0.0
  0
LINE
  8
0
 62
     0
 10
307.132
 20
35.2337
 30
0.0
 11
307.132
 21
35.833
 31
0.0
  0
LINE
  8
0
 62
     0
 10
307.132
 20
35.833
 30
0.0
 11
293.132
 21
35.833
 31
0.0
  0
LINE
  8
0
 62
     0
 10
274.082
 20
35.833
 30
0.0
 11
274.082
 21
35.2337
 31
0.0
  0
LINE
  8
0
 62
     0
 10
274.082
 20
35.2337
 30
0.0
 11
273.281
 21
35.2337
 31
0.0
  0
LINE
  8
0
 62
     0
 10
273.281
 20
35.2337
 30
0.0
 11
273.281
 21
22.4331
 31
0.0
  0
LINE
  8
0
 62
     0
 10
273.281
 20
22.4331
 30
0.0
 11
274.082
 21
22.4331
 31
0.0
  0
LINE
  8
0
 62
     0
 10
274.082
 20
22.4331
 30
0.0
 11
274.082
 21
21.8336
 31
0.0
  0
LINE
  8
0
 62
     0
 10
274.082
 20
21.8336
 30
0.0
 11
288.082
 21
21.8336
 31
0.0
  0
LINE
  8
0
 62
     0
 10
288.082
 20
21.8336
 30
0.0
 11
288.082
 21
22.4331
 31
0.0
  0
LINE
  8
0
 62
     0
 10
288.082
 20
22.4331
 30
0.0
 11
288.881
 21
22.4331
 31
0.0
  0
LINE
  8
0
 62
     0
 10
288.881
 20
22.4331
 30
0.0
 11
288.881
 21
35.2337
 31
0.0
  0
LINE
  8
0
 62
     0
 10
288.881
 20
35.2337
 30
0.0
 11
288.082
 21
35.2337
 31
0.0
  0
LINE
  8
0
 62
     0
 10
288.082
 20
35.2337
 30
0.0
 11
288.082
 21
35.833
 31
0.0
  0
LINE
  8
0
 62
     0
 10
288.082
 20
35.833
 30
0.0
 11
274.082
 21
35.833
 31
0.0
  0
LINE
  8
0
 62
     0
 10
255.032
 20
35.833
 30
0.0
 11
255.032
 21
35.2337
 31
0.0
  0
LINE
  8
0
 62
     0
 10
255.032
 20
35.2337
 30
0.0
 11
254.231
 21
35.2337
 31
0.0
  0
LINE
  8
0
 62
     0
 10
254.231
 20
35.2337
 30
0.0
 11
254.231
 21
22.4331
 31
0.0
  0
LINE
  8
0
 62
     0
 10
254.231
 20
22.4331
 30
0.0
 11
255.032
 21
22.4331
 31
0.0
  0
LINE
  8
0
 62
     0
 10
255.032
 20
22.4331
 30
0.0
 11
255.032
 21
21.8336
 31
0.0
  0
LINE
  8
0
 62
     0
 10
255.032
 20
21.8336
 30
0.0
 11
269.032
 21
21.8336
 31
0.0
  0
LINE
  8
0
 62
     0
 10
269.032
 20
21.8336
 30
0.0
 11
269.032
 21
22.4331
 31
0.0
  0
LINE
  8
0
 62
     0
 10
269.032
 20
22.4331
 30
0.0
 11
269.831
 21
22.4331
 31
0.0
  0
LINE
  8
0
 62
     0
 10
269.831
 20
22.4331
 30
0.0
 11
269.831
 21
35.2337
 31
0.0
  0
LINE
  8
0
 62
     0
 10
269.831
 20
35.2337
 30
0.0
 11
269.032
 21
35.2337
 31
0.0
  0
LINE
  8
0
 62
     0
 10
269.032
 20
35.2337
 30
0.0
 11
269.032
 21
35.833
 31
0.0
  0
LINE
  8
0
 62
     0
 10
269.032
 20
35.833
 30
0.0
 11
255.032
 21
35.833
 31
0.0
  0
LINE
  8
0
 62
     0
 10
235.982
 20
35.833
 30
0.0
 11
235.982
 21
35.2337
 31
0.0
  0
LINE
  8
0
 62
     0
 10
235.982
 20
35.2337
 30
0.0
 11
235.181
 21
35.2337
 31
0.0
  0
LINE
  8
0
 62
     0
 10
235.181
 20
35.2337
 30
0.0
 11
235.181
 21
22.4331
 31
0.0
  0
LINE
  8
0
 62
     0
 10
235.181
 20
22.4331
 30
0.0
 11
235.982
 21
22.4331
 31
0.0
  0
LINE
  8
0
 62
     0
 10
235.982
 20
22.4331
 30
0.0
 11
235.982
 21
21.8336
 31
0.0
  0
LINE
  8
0
 62
     0
 10
235.982
 20
21.8336
 30
0.0
 11
249.982
 21
21.8336
 31
0.0
  0
LINE
  8
0
 62
     0
 10
249.982
 20
21.8336
 30
0.0
 11
249.982
 21
22.4331
 31
0.0
  0
LINE
  8
0
 62
     0
 10
249.982
 20
22.4331
 30
0.0
 11
250.781
 21
22.4331
 31
0.0
  0
LINE
  8
0
 62
     0
 10
250.781
 20
22.4331
 30
0.0
 11
250.781
 21
35.2337
 31
0.0
  0
LINE
  8
0
 62
     0
 10
250.781
 20
35.2337
 30
0.0
 11
249.982
 21
35.2337
 31
0.0
  0
LINE
  8
0
 62
     0
 10
249.982
 20
35.2337
 30
0.0
 11
249.982
 21
35.833
 31
0.0
  0
LINE
  8
0
 62
     0
 10
249.982
 20
35.833
 30
0.0
 11
235.982
 21
35.833
 31
0.0
  0
LINE
  8
0
 62
     0
 10
216.932
 20
35.833
 30
0.0
 11
216.932
 21
35.2337
 31
0.0
  0
LINE
  8
0
 62
     0
 10
216.932
 20
35.2337
 30
0.0
 11
216.131
 21
35.2337
 31
0.0
  0
LINE
  8
0
 62
     0
 10
216.131
 20
35.2337
 30
0.0
 11
216.131
 21
22.4331
 31
0.0
  0
LINE
  8
0
 62
     0
 10
216.131
 20
22.4331
 30
0.0
 11
216.932
 21
22.4331
 31
0.0
  0
LINE
  8
0
 62
     0
 10
216.932
 20
22.4331
 30
0.0
 11
216.932
 21
21.8336
 31
0.0
  0
LINE
  8
0
 62
     0
 10
216.932
 20
21.8336
 30
0.0
 11
230.932
 21
21.8336
 31
0.0
  0
LINE
  8
0
 62
     0
 10
230.932
 20
21.8336
 30
0.0
 11
230.932
 21
22.4331
 31
0.0
  0
LINE
  8
0
 62
     0
 10
230.932
 20
22.4331
 30
0.0
 11
231.731
 21
22.4331
 31
0.0
  0
LINE
  8
0
 62
     0
 10
231.731
 20
22.4331
 30
0.0
 11
231.731
 21
35.2337
 31
0.0
  0
LINE
  8
0
 62
     0
 10
231.731
 20
35.2337
 30
0.0
 11
230.932
 21
35.2337
 31
0.0
  0
LINE
  8
0
 62
     0
 10
230.932
 20
35.2337
 30
0.0
 11
230.932
 21
35.833
 31
0.0
  0
LINE
  8
0
 62
     0
 10
230.932
 20
35.833
 30
0.0
 11
216.932
 21
35.833
 31
0.0
  0
LINE
  8
0
 62
     0
 10
197.882
 20
35.833
 30
0.0
 11
197.882
 21
35.2337
 31
0.0
  0
LINE
  8
0
 62
     0
 10
197.882
 20
35.2337
 30
0.0
 11
197.081
 21
35.2337
 31
0.0
  0
LINE
  8
0
 62
     0
 10
197.081
 20
35.2337
 30
0.0
 11
197.081
 21
22.4331
 31
0.0
  0
LINE
  8
0
 62
     0
 10
197.081
 20
22.4331
 30
0.0
 11
197.882
 21
22.4331
 31
0.0
  0
LINE
  8
0
 62
     0
 10
197.882
 20
22.4331
 30
0.0
 11
197.882
 21
21.8336
 31
0.0
  0
LINE
  8
0
 62
     0
 10
197.882
 20
21.8336
 30
0.0
 11
211.882
 21
21.8336
 31
0.0
  0
LINE
  8
0
 62
     0
 10
211.882
 20
21.8336
 30
0.0
 11
211.882
 21
22.4331
 31
0.0
  0
LINE
  8
0
 62
     0
 10
211.882
 20
22.4331
 30
0.0
 11
212.681
 21
22.4331
 31
0.0
  0
LINE
  8
0
 62
     0
 10
212.681
 20
22.4331
 30
0.0
 11
212.681
 21
35.2337
 31
0.0
  0
LINE
  8
0
 62
     0
 10
212.681
 20
35.2337
 30
0.0
 11
211.882
 21
35.2337
 31
0.0
  0
LINE
  8
0
 62
     0
 10
211.882
 20
35.2337
 30
0.0
 11
211.882
 21
35.833
 31
0.0
  0
LINE
  8
0
 62
     0
 10
211.882
 20
35.833
 30
0.0
 11
197.882
 21
35.833
 31
0.0
  0
LINE
  8
0
 62
     0
 10
178.832
 20
35.833
 30
0.0
 11
178.832
 21
35.2337
 31
0.0
  0
LINE
  8
0
 62
     0
 10
178.832
 20
35.2337
 30
0.0
 11
178.031
 21
35.2337
 31
0.0
  0
LINE
  8
0
 62
     0
 10
178.031
 20
35.2337
 30
0.0
 11
178.031
 21
22.4331
 31
0.0
  0
LINE
  8
0
 62
     0
 10
178.031
 20
22.4331
 30
0.0
 11
178.832
 21
22.4331
 31
0.0
  0
LINE
  8
0
 62
     0
 10
178.832
 20
22.4331
 30
0.0
 11
178.832
 21
21.8336
 31
0.0
  0
LINE
  8
0
 62
     0
 10
178.832
 20
21.8336
 30
0.0
 11
192.832
 21
21.8336
 31
0.0
  0
LINE
  8
0
 62
     0
 10
192.832
 20
21.8336
 30
0.0
 11
192.832
 21
22.4331
 31
0.0
  0
LINE
  8
0
 62
     0
 10
192.832
 20
22.4331
 30
0.0
 11
193.631
 21
22.4331
 31
0.0
  0
LINE
  8
0
 62
     0
 10
193.631
 20
22.4331
 30
0.0
 11
193.631
 21
35.2337
 31
0.0
  0
LINE
  8
0
 62
     0
 10
193.631
 20
35.2337
 30
0.0
 11
192.832
 21
35.2337
 31
0.0
  0
LINE
  8
0
 62
     0
 10
192.832
 20
35.2337
 30
0.0
 11
192.832
 21
35.833
 31
0.0
  0
LINE
  8
0
 62
     0
 10
192.832
 20
35.833
 30
0.0
 11
178.832
 21
35.833
 31
0.0
  0
LINE
  8
0
 62
     0
 10
159.782
 20
35.833
 30
0.0
 11
159.782
 21
35.2337
 31
0.0
  0
LINE
  8
0
 62
     0
 10
159.782
 20
35.2337
 30
0.0
 11
158.981
 21
35.2337
 31
0.0
  0
LINE
  8
0
 62
     0
 10
158.981
 20
35.2337
 30
0.0
 11
158.981
 21
22.4331
 31
0.0
  0
LINE
  8
0
 62
     0
 10
158.981
 20
22.4331
 30
0.0
 11
159.782
 21
22.4331
 31
0.0
  0
LINE
  8
0
 62
     0
 10
159.782
 20
22.4331
 30
0.0
 11
159.782
 21
21.8336
 31
0.0
  0
LINE
  8
0
 62
     0
 10
159.782
 20
21.8336
 30
0.0
 11
173.782
 21
21.8336
 31
0.0
  0
LINE
  8
0
 62
     0
 10
173.782
 20
21.8336
 30
0.0
 11
173.782
 21
22.4331
 31
0.0
  0
LINE
  8
0
 62
     0
 10
173.782
 20
22.4331
 30
0.0
 11
174.581
 21
22.4331
 31
0.0
  0
LINE
  8
0
 62
     0
 10
174.581
 20
22.4331
 30
0.0
 11
174.581
 21
35.2337
 31
0.0
  0
LINE
  8
0
 62
     0
 10
174.581
 20
35.2337
 30
0.0
 11
173.782
 21
35.2337
 31
0.0
  0
LINE
  8
0
 62
     0
 10
173.782
 20
35.2337
 30
0.0
 11
173.782
 21
35.833
 31
0.0
  0
LINE
  8
0
 62
     0
 10
173.782
 20
35.833
 30
0.0
 11
159.782
 21
35.833
 31
0.0
  0
LINE
  8
0
 62
     0
 10
140.732
 20
35.833
 30
0.0
 11
140.732
 21
35.2337
 31
0.0
  0
LINE
  8
0
 62
     0
 10
140.732
 20
35.2337
 30
0.0
 11
139.931
 21
35.2337
 31
0.0
  0
LINE
  8
0
 62
     0
 10
139.931
 20
35.2337
 30
0.0
 11
139.931
 21
22.4331
 31
0.0
  0
LINE
  8
0
 62
     0
 10
139.931
 20
22.4331
 30
0.0
 11
140.732
 21
22.4331
 31
0.0
  0
LINE
  8
0
 62
     0
 10
140.732
 20
22.4331
 30
0.0
 11
140.732
 21
21.8336
 31
0.0
  0
LINE
  8
0
 62
     0
 10
140.732
 20
21.8336
 30
0.0
 11
154.732
 21
21.8336
 31
0.0
  0
LINE
  8
0
 62
     0
 10
154.732
 20
21.8336
 30
0.0
 11
154.732
 21
22.4331
 31
0.0
  0
LINE
  8
0
 62
     0
 10
154.732
 20
22.4331
 30
0.0
 11
155.531
 21
22.4331
 31
0.0
  0
LINE
  8
0
 62
     0
 10
155.531
 20
22.4331
 30
0.0
 11
155.531
 21
35.2337
 31
0.0
  0
LINE
  8
0
 62
     0
 10
155.531
 20
35.2337
 30
0.0
 11
154.732
 21
35.2337
 31
0.0
  0
LINE
  8
0
 62
     0
 10
154.732
 20
35.2337
 30
0.0
 11
154.732
 21
35.833
 31
0.0
  0
LINE
  8
0
 62
     0
 10
154.732
 20
35.833
 30
0.0
 11
140.732
 21
35.833
 31
0.0
  0
LINE
  8
0
 62
     0
 10
121.682
 20
35.833
 30
0.0
 11
121.682
 21
35.2337
 31
0.0
  0
LINE
  8
0
 62
     0
 10
121.682
 20
35.2337
 30
0.0
 11
120.881
 21
35.2337
 31
0.0
  0
LINE
  8
0
 62
     0
 10
120.881
 20
35.2337
 30
0.0
 11
120.881
 21
22.4331
 31
0.0
  0
LINE
  8
0
 62
     0
 10
120.881
 20
22.4331
 30
0.0
 11
121.682
 21
22.4331
 31
0.0
  0
LINE
  8
0
 62
     0
 10
121.682
 20
22.4331
 30
0.0
 11
121.682
 21
21.8336
 31
0.0
  0
LINE
  8
0
 62
     0
 10
121.682
 20
21.8336
 30
0.0
 11
135.682
 21
21.8336
 31
0.0
  0
LINE
  8
0
 62
     0
 10
135.682
 20
21.8336
 30
0.0
 11
135.682
 21
22.4331
 31
0.0
  0
LINE
  8
0
 62
     0
 10
135.682
 20
22.4331
 30
0.0
 11
136.481
 21
22.4331
 31
0.0
  0
LINE
  8
0
 62
     0
 10
136.481
 20
22.4331
 30
0.0
 11
136.481
 21
35.2337
 31
0.0
  0
LINE
  8
0
 62
     0
 10
136.481
 20
35.2337
 30
0.0
 11
135.682
 21
35.2337
 31
0.0
  0
LINE
  8
0
 62
     0
 10
135.682
 20
35.2337
 30
0.0
 11
135.682
 21
35.833
 31
0.0
  0
LINE
  8
0
 62
     0
 10
135.682
 20
35.833
 30
0.0
 11
121.682
 21
35.833
 31
0.0
  0
LINE
  8
0
 62
     0
 10
40.7197
 20
35.833
 30
0.0
 11
40.7197
 21
35.2337
 31
0.0
  0
LINE
  8
0
 62
     0
 10
40.7197
 20
35.2337
 30
0.0
 11
39.9189
 21
35.2337
 31
0.0
  0
LINE
  8
0
 62
     0
 10
39.9189
 20
35.2337
 30
0.0
 11
39.9189
 21
22.4331
 31
0.0
  0
LINE
  8
0
 62
     0
 10
39.9189
 20
22.4331
 30
0.0
 11
40.7197
 21
22.4331
 31
0.0
  0
LINE
  8
0
 62
     0
 10
40.7197
 20
22.4331
 30
0.0
 11
40.7197
 21
21.8336
 31
0.0
  0
LINE
  8
0
 62
     0
 10
40.7197
 20
21.8336
 30
0.0
 11
54.719
 21
21.8336
 31
0.0
  0
LINE
  8
0
 62
     0
 10
54.719
 20
21.8336
 30
0.0
 11
54.719
 21
22.4331
 31
0.0
  0
LINE
  8
0
 62
     0
 10
54.719
 20
22.4331
 30
0.0
 11
55.5198
 21
22.4331
 31
0.0
  0
LINE
  8
0
 62
     0
 10
55.5198
 20
22.4331
 30
0.0
 11
55.5198
 21
35.2337
 31
0.0
  0
LINE
  8
0
 62
     0
 10
55.5198
 20
35.2337
 30
0.0
 11
54.719
 21
35.2337
 31
0.0
  0
LINE
  8
0
 62
     0
 10
54.719
 20
35.2337
 30
0.0
 11
54.719
 21
35.833
 31
0.0
  0
LINE
  8
0
 62
     0
 10
54.719
 20
35.833
 30
0.0
 11
40.7197
 21
35.833
 31
0.0
  0
LINE
  8
0
 62
     0
 10
21.6697
 20
35.833
 30
0.0
 11
21.6697
 21
35.2337
 31
0.0
  0
LINE
  8
0
 62
     0
 10
21.6697
 20
35.2337
 30
0.0
 11
20.869
 21
35.2337
 31
0.0
  0
LINE
  8
0
 62
     0
 10
20.869
 20
35.2337
 30
0.0
 11
20.869
 21
22.4331
 31
0.0
  0
LINE
  8
0
 62
     0
 10
20.869
 20
22.4331
 30
0.0
 11
21.6697
 21
22.4331
 31
0.0
  0
LINE
  8
0
 62
     0
 10
21.6697
 20
22.4331
 30
0.0
 11
21.6697
 21
21.8336
 31
0.0
  0
LINE
  8
0
 62
     0
 10
21.6697
 20
21.8336
 30
0.0
 11
35.669
 21
21.8336
 31
0.0
  0
LINE
  8
0
 62
     0
 10
35.669
 20
21.8336
 30
0.0
 11
35.669
 21
22.4331
 31
0.0
  0
LINE
  8
0
 62
     0
 10
35.669
 20
22.4331
 30
0.0
 11
36.4698
 21
22.4331
 31
0.0
  0
LINE
  8
0
 62
     0
 10
36.4698
 20
22.4331
 30
0.0
 11
36.4698
 21
35.2337
 31
0.0
  0
LINE
  8
0
 62
     0
 10
36.4698
 20
35.2337
 30
0.0
 11
35.669
 21
35.2337
 31
0.0
  0
LINE
  8
0
 62
     0
 10
35.669
 20
35.2337
 30
0.0
 11
35.669
 21
35.833
 31
0.0
  0
LINE
  8
0
 62
     0
 10
35.669
 20
35.833
 30
0.0
 11
21.6697
 21
35.833
 31
0.0
  0
LINE
  8
0
 62
     0
 10
2.61965
 20
35.833
 30
0.0
 11
2.61965
 21
35.2337
 31
0.0
  0
LINE
  8
0
 62
     0
 10
2.61965
 20
35.2337
 30
0.0
 11
1.81901
 21
35.2337
 31
0.0
  0
LINE
  8
0
 62
     0
 10
1.81901
 20
35.2337
 30
0.0
 11
1.81901
 21
22.4331
 31
0.0
  0
LINE
  8
0
 62
     0
 10
1.81901
 20
22.4331
 30
0.0
 11
2.61965
 21
22.4331
 31
0.0
  0
LINE
  8
0
 62
     0
 10
2.61965
 20
22.4331
 30
0.0
 11
2.61965
 21
21.8336
 31
0.0
  0
LINE
  8
0
 62
     0
 10
2.61965
 20
21.8336
 30
0.0
 11
16.6192
 21
21.8336
 31
0.0
  0
LINE
  8
0
 62
     0
 10
16.6192
 20
21.8336
 30
0.0
 11
16.6192
 21
22.4331
 31
0.0
  0
LINE
  8
0
 62
     0
 10
16.6192
 20
22.4331
 30
0.0
 11
17.4198
 21
22.4331
 31
0.0
  0
LINE
  8
0
 62
     0
 10
17.4198
 20
22.4331
 30
0.0
 11
17.4198
 21
35.2337
 31
0.0
  0
LINE
  8
0
 62
     0
 10
17.4198
 20
35.2337
 30
0.0
 11
16.6192
 21
35.2337
 31
0.0
  0
LINE
  8
0
 62
     0
 10
16.6192
 20
35.2337
 30
0.0
 11
16.6192
 21
35.833
 31
0.0
  0
LINE
  8
0
 62
     0
 10
16.6192
 20
35.833
 30
0.0
 11
2.61965
 21
35.833
 31
0.0
  0
LINE
  8
0
 62
     0
 10
333.612
 20
54.8831
 30
0.0
 11
333.612
 21
54.2837
 31
0.0
  0
LINE
  8
0
 62
     0
 10
333.612
 20
54.2837
 30
0.0
 11
332.813
 21
54.2837
 31
0.0
  0
LINE
  8
0
 62
     0
 10
332.813
 20
54.2837
 30
0.0
 11
332.813
 21
50.1826
 31
0.0
  0
LINE
  8
0
 62
     0
 10
332.813
 20
50.1826
 30
0.0
 11
332.088
 21
50.1826
 31
0.0
  0
LINE
  8
0
 62
     0
 10
332.088
 20
50.1826
 30
0.0
 11
332.088
 21
53.4127
 31
0.0
  0
LINE
  8
0
 62
     0
 10
332.088
 20
53.4127
 30
0.0
 11
330.363
 21
53.4127
 31
0.0
  0
LINE
  8
0
 62
     0
 10
330.363
 20
53.4127
 30
0.0
 11
330.363
 21
54.3334
 31
0.0
  0
LINE
  8
0
 62
     0
 10
330.363
 20
54.3334
 30
0.0
 11
327.062
 21
54.3334
 31
0.0
  0
LINE
  8
0
 62
     0
 10
327.062
 20
54.3334
 30
0.0
 11
327.062
 21
53.4127
 31
0.0
  0
LINE
  8
0
 62
     0
 10
327.062
 20
53.4127
 30
0.0
 11
325.337
 21
53.4127
 31
0.0
  0
LINE
  8
0
 62
     0
 10
325.337
 20
53.4127
 30
0.0
 11
325.337
 21
50.1826
 31
0.0
  0
LINE
  8
0
 62
     0
 10
325.337
 20
50.1826
 30
0.0
 11
324.513
 21
50.1826
 31
0.0
  0
LINE
  8
0
 62
     0
 10
324.513
 20
50.1826
 30
0.0
 11
324.513
 21
47.3837
 31
0.0
  0
LINE
  8
0
 62
     0
 10
324.513
 20
47.3837
 30
0.0
 11
325.337
 21
47.3837
 31
0.0
  0
LINE
  8
0
 62
     0
 10
325.337
 20
47.3837
 30
0.0
 11
325.337
 21
41.1138
 31
0.0
  0
LINE
  8
0
 62
     0
 10
325.337
 20
41.1138
 30
0.0
 11
327.062
 21
41.1138
 31
0.0
  0
LINE
  8
0
 62
     0
 10
327.062
 20
41.1138
 30
0.0
 11
327.062
 21
40.1327
 31
0.0
  0
LINE
  8
0
 62
     0
 10
327.062
 20
40.1327
 30
0.0
 11
330.363
 21
40.1327
 31
0.0
  0
LINE
  8
0
 62
     0
 10
330.363
 20
40.1327
 30
0.0
 11
330.363
 21
41.1138
 31
0.0
  0
LINE
  8
0
 62
     0
 10
330.363
 20
41.1138
 30
0.0
 11
332.088
 21
41.1138
 31
0.0
  0
LINE
  8
0
 62
     0
 10
332.088
 20
41.1138
 30
0.0
 11
332.088
 21
45.5828
 31
0.0
  0
LINE
  8
0
 62
     0
 10
332.088
 20
45.5828
 30
0.0
 11
332.813
 21
45.5828
 31
0.0
  0
LINE
  8
0
 62
     0
 10
332.813
 20
45.5828
 30
0.0
 11
332.813
 21
41.4831
 31
0.0
  0
LINE
  8
0
 62
     0
 10
332.813
 20
41.4831
 30
0.0
 11
333.612
 21
41.4831
 31
0.0
  0
LINE
  8
0
 62
     0
 10
333.612
 20
41.4831
 30
0.0
 11
333.612
 21
40.8838
 31
0.0
  0
LINE
  8
0
 62
     0
 10
333.612
 20
40.8838
 30
0.0
 11
347.613
 21
40.8838
 31
0.0
  0
LINE
  8
0
 62
     0
 10
347.613
 20
40.8838
 30
0.0
 11
347.613
 21
41.4831
 31
0.0
  0
LINE
  8
0
 62
     0
 10
347.613
 20
41.4831
 30
0.0
 11
348.412
 21
41.4831
 31
0.0
  0
LINE
  8
0
 62
     0
 10
348.412
 20
41.4831
 30
0.0
 11
348.412
 21
45.5828
 31
0.0
  0
LINE
  8
0
 62
     0
 10
348.412
 20
45.5828
 30
0.0
 11
349.137
 21
45.5828
 31
0.0
  0
LINE
  8
0
 62
     0
 10
349.137
 20
45.5828
 30
0.0
 11
349.137
 21
41.1138
 31
0.0
  0
LINE
  8
0
 62
     0
 10
349.137
 20
41.1138
 30
0.0
 11
350.862
 21
41.1138
 31
0.0
  0
LINE
  8
0
 62
     0
 10
350.862
 20
41.1138
 30
0.0
 11
350.862
 21
40.1327
 31
0.0
  0
LINE
  8
0
 62
     0
 10
350.862
 20
40.1327
 30
0.0
 11
354.164
 21
40.1327
 31
0.0
  0
LINE
  8
0
 62
     0
 10
354.164
 20
40.1327
 30
0.0
 11
354.164
 21
41.1138
 31
0.0
  0
LINE
  8
0
 62
     0
 10
354.164
 20
41.1138
 30
0.0
 11
355.889
 21
41.1138
 31
0.0
  0
LINE
  8
0
 62
     0
 10
355.889
 20
41.1138
 30
0.0
 11
355.889
 21
47.3837
 31
0.0
  0
LINE
  8
0
 62
     0
 10
355.889
 20
47.3837
 30
0.0
 11
356.711
 21
47.3837
 31
0.0
  0
LINE
  8
0
 62
     0
 10
356.711
 20
47.3837
 30
0.0
 11
356.711
 21
50.1826
 31
0.0
  0
LINE
  8
0
 62
     0
 10
356.711
 20
50.1826
 30
0.0
 11
355.889
 21
50.1826
 31
0.0
  0
LINE
  8
0
 62
     0
 10
355.889
 20
50.1826
 30
0.0
 11
355.889
 21
53.4127
 31
0.0
  0
LINE
  8
0
 62
     0
 10
355.889
 20
53.4127
 30
0.0
 11
354.164
 21
53.4127
 31
0.0
  0
LINE
  8
0
 62
     0
 10
354.164
 20
53.4127
 30
0.0
 11
354.164
 21
54.3334
 31
0.0
  0
LINE
  8
0
 62
     0
 10
354.164
 20
54.3334
 30
0.0
 11
350.862
 21
54.3334
 31
0.0
  0
LINE
  8
0
 62
     0
 10
350.862
 20
54.3334
 30
0.0
 11
350.862
 21
53.4127
 31
0.0
  0
LINE
  8
0
 62
     0
 10
350.862
 20
53.4127
 30
0.0
 11
349.137
 21
53.4127
 31
0.0
  0
LINE
  8
0
 62
     0
 10
349.137
 20
53.4127
 30
0.0
 11
349.137
 21
50.1826
 31
0.0
  0
LINE
  8
0
 62
     0
 10
349.137
 20
50.1826
 30
0.0
 11
348.412
 21
50.1826
 31
0.0
  0
LINE
  8
0
 62
     0
 10
348.412
 20
50.1826
 30
0.0
 11
348.412
 21
54.2837
 31
0.0
  0
LINE
  8
0
 62
     0
 10
348.412
 20
54.2837
 30
0.0
 11
347.613
 21
54.2837
 31
0.0
  0
LINE
  8
0
 62
     0
 10
347.613
 20
54.2837
 30
0.0
 11
347.613
 21
54.8831
 31
0.0
  0
LINE
  8
0
 62
     0
 10
347.613
 20
54.8831
 30
0.0
 11
333.612
 21
54.8831
 31
0.0
  0
LINE
  8
0
 62
     0
 10
302.657
 20
54.8831
 30
0.0
 11
302.657
 21
54.2837
 31
0.0
  0
LINE
  8
0
 62
     0
 10
302.657
 20
54.2837
 30
0.0
 11
301.856
 21
54.2837
 31
0.0
  0
LINE
  8
0
 62
     0
 10
301.856
 20
54.2837
 30
0.0
 11
301.856
 21
41.4831
 31
0.0
  0
LINE
  8
0
 62
     0
 10
301.856
 20
41.4831
 30
0.0
 11
302.657
 21
41.4831
 31
0.0
  0
LINE
  8
0
 62
     0
 10
302.657
 20
41.4831
 30
0.0
 11
302.657
 21
40.8838
 31
0.0
  0
LINE
  8
0
 62
     0
 10
302.657
 20
40.8838
 30
0.0
 11
316.657
 21
40.8838
 31
0.0
  0
LINE
  8
0
 62
     0
 10
316.657
 20
40.8838
 30
0.0
 11
316.657
 21
41.4831
 31
0.0
  0
LINE
  8
0
 62
     0
 10
316.657
 20
41.4831
 30
0.0
 11
317.456
 21
41.4831
 31
0.0
  0
LINE
  8
0
 62
     0
 10
317.456
 20
41.4831
 30
0.0
 11
317.456
 21
54.2837
 31
0.0
  0
LINE
  8
0
 62
     0
 10
317.456
 20
54.2837
 30
0.0
 11
316.657
 21
54.2837
 31
0.0
  0
LINE
  8
0
 62
     0
 10
316.657
 20
54.2837
 30
0.0
 11
316.657
 21
54.8831
 31
0.0
  0
LINE
  8
0
 62
     0
 10
316.657
 20
54.8831
 30
0.0
 11
302.657
 21
54.8831
 31
0.0
  0
LINE
  8
0
 62
     0
 10
283.607
 20
54.8831
 30
0.0
 11
283.607
 21
54.2837
 31
0.0
  0
LINE
  8
0
 62
     0
 10
283.607
 20
54.2837
 30
0.0
 11
282.806
 21
54.2837
 31
0.0
  0
LINE
  8
0
 62
     0
 10
282.806
 20
54.2837
 30
0.0
 11
282.806
 21
41.4831
 31
0.0
  0
LINE
  8
0
 62
     0
 10
282.806
 20
41.4831
 30
0.0
 11
283.607
 21
41.4831
 31
0.0
  0
LINE
  8
0
 62
     0
 10
283.607
 20
41.4831
 30
0.0
 11
283.607
 21
40.8838
 31
0.0
  0
LINE
  8
0
 62
     0
 10
283.607
 20
40.8838
 30
0.0
 11
297.607
 21
40.8838
 31
0.0
  0
LINE
  8
0
 62
     0
 10
297.607
 20
40.8838
 30
0.0
 11
297.607
 21
41.4831
 31
0.0
  0
LINE
  8
0
 62
     0
 10
297.607
 20
41.4831
 30
0.0
 11
298.406
 21
41.4831
 31
0.0
  0
LINE
  8
0
 62
     0
 10
298.406
 20
41.4831
 30
0.0
 11
298.406
 21
54.2837
 31
0.0
  0
LINE
  8
0
 62
     0
 10
298.406
 20
54.2837
 30
0.0
 11
297.607
 21
54.2837
 31
0.0
  0
LINE
  8
0
 62
     0
 10
297.607
 20
54.2837
 30
0.0
 11
297.607
 21
54.8831
 31
0.0
  0
LINE
  8
0
 62
     0
 10
297.607
 20
54.8831
 30
0.0
 11
283.607
 21
54.8831
 31
0.0
  0
LINE
  8
0
 62
     0
 10
264.557
 20
54.8831
 30
0.0
 11
264.557
 21
54.2837
 31
0.0
  0
LINE
  8
0
 62
     0
 10
264.557
 20
54.2837
 30
0.0
 11
263.756
 21
54.2837
 31
0.0
  0
LINE
  8
0
 62
     0
 10
263.756
 20
54.2837
 30
0.0
 11
263.756
 21
41.4831
 31
0.0
  0
LINE
  8
0
 62
     0
 10
263.756
 20
41.4831
 30
0.0
 11
264.557
 21
41.4831
 31
0.0
  0
LINE
  8
0
 62
     0
 10
264.557
 20
41.4831
 30
0.0
 11
264.557
 21
40.8838
 31
0.0
  0
LINE
  8
0
 62
     0
 10
264.557
 20
40.8838
 30
0.0
 11
278.557
 21
40.8838
 31
0.0
  0
LINE
  8
0
 62
     0
 10
278.557
 20
40.8838
 30
0.0
 11
278.557
 21
41.4831
 31
0.0
  0
LINE
  8
0
 62
     0
 10
278.557
 20
41.4831
 30
0.0
 11
279.356
 21
41.4831
 31
0.0
  0
LINE
  8
0
 62
     0
 10
279.356
 20
41.4831
 30
0.0
 11
279.356
 21
54.2837
 31
0.0
  0
LINE
  8
0
 62
     0
 10
279.356
 20
54.2837
 30
0.0
 11
278.557
 21
54.2837
 31
0.0
  0
LINE
  8
0
 62
     0
 10
278.557
 20
54.2837
 30
0.0
 11
278.557
 21
54.8831
 31
0.0
  0
LINE
  8
0
 62
     0
 10
278.557
 20
54.8831
 30
0.0
 11
264.557
 21
54.8831
 31
0.0
  0
LINE
  8
0
 62
     0
 10
245.507
 20
54.8831
 30
0.0
 11
245.507
 21
54.2837
 31
0.0
  0
LINE
  8
0
 62
     0
 10
245.507
 20
54.2837
 30
0.0
 11
244.706
 21
54.2837
 31
0.0
  0
LINE
  8
0
 62
     0
 10
244.706
 20
54.2837
 30
0.0
 11
244.706
 21
41.4831
 31
0.0
  0
LINE
  8
0
 62
     0
 10
244.706
 20
41.4831
 30
0.0
 11
245.507
 21
41.4831
 31
0.0
  0
LINE
  8
0
 62
     0
 10
245.507
 20
41.4831
 30
0.0
 11
245.507
 21
40.8838
 31
0.0
  0
LINE
  8
0
 62
     0
 10
245.507
 20
40.8838
 30
0.0
 11
259.507
 21
40.8838
 31
0.0
  0
LINE
  8
0
 62
     0
 10
259.507
 20
40.8838
 30
0.0
 11
259.507
 21
41.4831
 31
0.0
  0
LINE
  8
0
 62
     0
 10
259.507
 20
41.4831
 30
0.0
 11
260.306
 21
41.4831
 31
0.0
  0
LINE
  8
0
 62
     0
 10
260.306
 20
41.4831
 30
0.0
 11
260.306
 21
54.2837
 31
0.0
  0
LINE
  8
0
 62
     0
 10
260.306
 20
54.2837
 30
0.0
 11
259.507
 21
54.2837
 31
0.0
  0
LINE
  8
0
 62
     0
 10
259.507
 20
54.2837
 30
0.0
 11
259.507
 21
54.8831
 31
0.0
  0
LINE
  8
0
 62
     0
 10
259.507
 20
54.8831
 30
0.0
 11
245.507
 21
54.8831
 31
0.0
  0
LINE
  8
0
 62
     0
 10
226.457
 20
54.8831
 30
0.0
 11
226.457
 21
54.2837
 31
0.0
  0
LINE
  8
0
 62
     0
 10
226.457
 20
54.2837
 30
0.0
 11
225.656
 21
54.2837
 31
0.0
  0
LINE
  8
0
 62
     0
 10
225.656
 20
54.2837
 30
0.0
 11
225.656
 21
41.4831
 31
0.0
  0
LINE
  8
0
 62
     0
 10
225.656
 20
41.4831
 30
0.0
 11
226.457
 21
41.4831
 31
0.0
  0
LINE
  8
0
 62
     0
 10
226.457
 20
41.4831
 30
0.0
 11
226.457
 21
40.8838
 31
0.0
  0
LINE
  8
0
 62
     0
 10
226.457
 20
40.8838
 30
0.0
 11
240.457
 21
40.8838
 31
0.0
  0
LINE
  8
0
 62
     0
 10
240.457
 20
40.8838
 30
0.0
 11
240.457
 21
41.4831
 31
0.0
  0
LINE
  8
0
 62
     0
 10
240.457
 20
41.4831
 30
0.0
 11
241.256
 21
41.4831
 31
0.0
  0
LINE
  8
0
 62
     0
 10
241.256
 20
41.4831
 30
0.0
 11
241.256
 21
54.2837
 31
0.0
  0
LINE
  8
0
 62
     0
 10
241.256
 20
54.2837
 30
0.0
 11
240.457
 21
54.2837
 31
0.0
  0
LINE
  8
0
 62
     0
 10
240.457
 20
54.2837
 30
0.0
 11
240.457
 21
54.8831
 31
0.0
  0
LINE
  8
0
 62
     0
 10
240.457
 20
54.8831
 30
0.0
 11
226.457
 21
54.8831
 31
0.0
  0
LINE
  8
0
 62
     0
 10
207.407
 20
54.8831
 30
0.0
 11
207.407
 21
54.2837
 31
0.0
  0
LINE
  8
0
 62
     0
 10
207.407
 20
54.2837
 30
0.0
 11
206.606
 21
54.2837
 31
0.0
  0
LINE
  8
0
 62
     0
 10
206.606
 20
54.2837
 30
0.0
 11
206.606
 21
41.4831
 31
0.0
  0
LINE
  8
0
 62
     0
 10
206.606
 20
41.4831
 30
0.0
 11
207.407
 21
41.4831
 31
0.0
  0
LINE
  8
0
 62
     0
 10
207.407
 20
41.4831
 30
0.0
 11
207.407
 21
40.8838
 31
0.0
  0
LINE
  8
0
 62
     0
 10
207.407
 20
40.8838
 30
0.0
 11
221.407
 21
40.8838
 31
0.0
  0
LINE
  8
0
 62
     0
 10
221.407
 20
40.8838
 30
0.0
 11
221.407
 21
41.4831
 31
0.0
  0
LINE
  8
0
 62
     0
 10
221.407
 20
41.4831
 30
0.0
 11
222.206
 21
41.4831
 31
0.0
  0
LINE
  8
0
 62
     0
 10
222.206
 20
41.4831
 30
0.0
 11
222.206
 21
54.2837
 31
0.0
  0
LINE
  8
0
 62
     0
 10
222.206
 20
54.2837
 30
0.0
 11
221.407
 21
54.2837
 31
0.0
  0
LINE
  8
0
 62
     0
 10
221.407
 20
54.2837
 30
0.0
 11
221.407
 21
54.8831
 31
0.0
  0
LINE
  8
0
 62
     0
 10
221.407
 20
54.8831
 30
0.0
 11
207.407
 21
54.8831
 31
0.0
  0
LINE
  8
0
 62
     0
 10
188.357
 20
54.8831
 30
0.0
 11
188.357
 21
54.2837
 31
0.0
  0
LINE
  8
0
 62
     0
 10
188.357
 20
54.2837
 30
0.0
 11
187.556
 21
54.2837
 31
0.0
  0
LINE
  8
0
 62
     0
 10
187.556
 20
54.2837
 30
0.0
 11
187.556
 21
41.4831
 31
0.0
  0
LINE
  8
0
 62
     0
 10
187.556
 20
41.4831
 30
0.0
 11
188.357
 21
41.4831
 31
0.0
  0
LINE
  8
0
 62
     0
 10
188.357
 20
41.4831
 30
0.0
 11
188.357
 21
40.8838
 31
0.0
  0
LINE
  8
0
 62
     0
 10
188.357
 20
40.8838
 30
0.0
 11
202.357
 21
40.8838
 31
0.0
  0
LINE
  8
0
 62
     0
 10
202.357
 20
40.8838
 30
0.0
 11
202.357
 21
41.4831
 31
0.0
  0
LINE
  8
0
 62
     0
 10
202.357
 20
41.4831
 30
0.0
 11
203.156
 21
41.4831
 31
0.0
  0
LINE
  8
0
 62
     0
 10
203.156
 20
41.4831
 30
0.0
 11
203.156
 21
54.2837
 31
0.0
  0
LINE
  8
0
 62
     0
 10
203.156
 20
54.2837
 30
0.0
 11
202.357
 21
54.2837
 31
0.0
  0
LINE
  8
0
 62
     0
 10
202.357
 20
54.2837
 30
0.0
 11
202.357
 21
54.8831
 31
0.0
  0
LINE
  8
0
 62
     0
 10
202.357
 20
54.8831
 30
0.0
 11
188.357
 21
54.8831
 31
0.0
  0
LINE
  8
0
 62
     0
 10
169.307
 20
54.8831
 30
0.0
 11
169.307
 21
54.2837
 31
0.0
  0
LINE
  8
0
 62
     0
 10
169.307
 20
54.2837
 30
0.0
 11
168.506
 21
54.2837
 31
0.0
  0
LINE
  8
0
 62
     0
 10
168.506
 20
54.2837
 30
0.0
 11
168.506
 21
41.4831
 31
0.0
  0
LINE
  8
0
 62
     0
 10
168.506
 20
41.4831
 30
0.0
 11
169.307
 21
41.4831
 31
0.0
  0
LINE
  8
0
 62
     0
 10
169.307
 20
41.4831
 30
0.0
 11
169.307
 21
40.8838
 31
0.0
  0
LINE
  8
0
 62
     0
 10
169.307
 20
40.8838
 30
0.0
 11
183.307
 21
40.8838
 31
0.0
  0
LINE
  8
0
 62
     0
 10
183.307
 20
40.8838
 30
0.0
 11
183.307
 21
41.4831
 31
0.0
  0
LINE
  8
0
 62
     0
 10
183.307
 20
41.4831
 30
0.0
 11
184.106
 21
41.4831
 31
0.0
  0
LINE
  8
0
 62
     0
 10
184.106
 20
41.4831
 30
0.0
 11
184.106
 21
54.2837
 31
0.0
  0
LINE
  8
0
 62
     0
 10
184.106
 20
54.2837
 30
0.0
 11
183.307
 21
54.2837
 31
0.0
  0
LINE
  8
0
 62
     0
 10
183.307
 20
54.2837
 30
0.0
 11
183.307
 21
54.8831
 31
0.0
  0
LINE
  8
0
 62
     0
 10
183.307
 20
54.8831
 30
0.0
 11
169.307
 21
54.8831
 31
0.0
  0
LINE
  8
0
 62
     0
 10
150.257
 20
54.8831
 30
0.0
 11
150.257
 21
54.2837
 31
0.0
  0
LINE
  8
0
 62
     0
 10
150.257
 20
54.2837
 30
0.0
 11
149.456
 21
54.2837
 31
0.0
  0
LINE
  8
0
 62
     0
 10
149.456
 20
54.2837
 30
0.0
 11
149.456
 21
41.4831
 31
0.0
  0
LINE
  8
0
 62
     0
 10
149.456
 20
41.4831
 30
0.0
 11
150.257
 21
41.4831
 31
0.0
  0
LINE
  8
0
 62
     0
 10
150.257
 20
41.4831
 30
0.0
 11
150.257
 21
40.8838
 31
0.0
  0
LINE
  8
0
 62
     0
 10
150.257
 20
40.8838
 30
0.0
 11
164.257
 21
40.8838
 31
0.0
  0
LINE
  8
0
 62
     0
 10
164.257
 20
40.8838
 30
0.0
 11
164.257
 21
41.4831
 31
0.0
  0
LINE
  8
0
 62
     0
 10
164.257
 20
41.4831
 30
0.0
 11
165.056
 21
41.4831
 31
0.0
  0
LINE
  8
0
 62
     0
 10
165.056
 20
41.4831
 30
0.0
 11
165.056
 21
54.2837
 31
0.0
  0
LINE
  8
0
 62
     0
 10
165.056
 20
54.2837
 30
0.0
 11
164.257
 21
54.2837
 31
0.0
  0
LINE
  8
0
 62
     0
 10
164.257
 20
54.2837
 30
0.0
 11
164.257
 21
54.8831
 31
0.0
  0
LINE
  8
0
 62
     0
 10
164.257
 20
54.8831
 30
0.0
 11
150.257
 21
54.8831
 31
0.0
  0
LINE
  8
0
 62
     0
 10
131.207
 20
54.8831
 30
0.0
 11
131.207
 21
54.2837
 31
0.0
  0
LINE
  8
0
 62
     0
 10
131.207
 20
54.2837
 30
0.0
 11
130.406
 21
54.2837
 31
0.0
  0
LINE
  8
0
 62
     0
 10
130.406
 20
54.2837
 30
0.0
 11
130.406
 21
41.4831
 31
0.0
  0
LINE
  8
0
 62
     0
 10
130.406
 20
41.4831
 30
0.0
 11
131.207
 21
41.4831
 31
0.0
  0
LINE
  8
0
 62
     0
 10
131.207
 20
41.4831
 30
0.0
 11
131.207
 21
40.8838
 31
0.0
  0
LINE
  8
0
 62
     0
 10
131.207
 20
40.8838
 30
0.0
 11
145.207
 21
40.8838
 31
0.0
  0
LINE
  8
0
 62
     0
 10
145.207
 20
40.8838
 30
0.0
 11
145.207
 21
41.4831
 31
0.0
  0
LINE
  8
0
 62
     0
 10
145.207
 20
41.4831
 30
0.0
 11
146.006
 21
41.4831
 31
0.0
  0
LINE
  8
0
 62
     0
 10
146.006
 20
41.4831
 30
0.0
 11
146.006
 21
54.2837
 31
0.0
  0
LINE
  8
0
 62
     0
 10
146.006
 20
54.2837
 30
0.0
 11
145.207
 21
54.2837
 31
0.0
  0
LINE
  8
0
 62
     0
 10
145.207
 20
54.2837
 30
0.0
 11
145.207
 21
54.8831
 31
0.0
  0
LINE
  8
0
 62
     0
 10
145.207
 20
54.8831
 30
0.0
 11
131.207
 21
54.8831
 31
0.0
  0
LINE
  8
0
 62
     0
 10
112.157
 20
54.8831
 30
0.0
 11
112.157
 21
54.2837
 31
0.0
  0
LINE
  8
0
 62
     0
 10
112.157
 20
54.2837
 30
0.0
 11
111.356
 21
54.2837
 31
0.0
  0
LINE
  8
0
 62
     0
 10
111.356
 20
54.2837
 30
0.0
 11
111.356
 21
41.4831
 31
0.0
  0
LINE
  8
0
 62
     0
 10
111.356
 20
41.4831
 30
0.0
 11
112.157
 21
41.4831
 31
0.0
  0
LINE
  8
0
 62
     0
 10
112.157
 20
41.4831
 30
0.0
 11
112.157
 21
40.8838
 31
0.0
  0
LINE
  8
0
 62
     0
 10
112.157
 20
40.8838
 30
0.0
 11
126.157
 21
40.8838
 31
0.0
  0
LINE
  8
0
 62
     0
 10
126.157
 20
40.8838
 30
0.0
 11
126.157
 21
41.4831
 31
0.0
  0
LINE
  8
0
 62
     0
 10
126.157
 20
41.4831
 30
0.0
 11
126.956
 21
41.4831
 31
0.0
  0
LINE
  8
0
 62
     0
 10
126.956
 20
41.4831
 30
0.0
 11
126.956
 21
54.2837
 31
0.0
  0
LINE
  8
0
 62
     0
 10
126.956
 20
54.2837
 30
0.0
 11
126.157
 21
54.2837
 31
0.0
  0
LINE
  8
0
 62
     0
 10
126.157
 20
54.2837
 30
0.0
 11
126.157
 21
54.8831
 31
0.0
  0
LINE
  8
0
 62
     0
 10
126.157
 20
54.8831
 30
0.0
 11
112.157
 21
54.8831
 31
0.0
  0
LINE
  8
0
 62
     0
 10
85.9621
 20
54.8831
 30
0.0
 11
85.9621
 21
54.2837
 31
0.0
  0
LINE
  8
0
 62
     0
 10
85.9621
 20
54.2837
 30
0.0
 11
85.1627
 21
54.2837
 31
0.0
  0
LINE
  8
0
 62
     0
 10
85.1627
 20
54.2837
 30
0.0
 11
85.1627
 21
41.4831
 31
0.0
  0
LINE
  8
0
 62
     0
 10
85.1627
 20
41.4831
 30
0.0
 11
85.9621
 21
41.4831
 31
0.0
  0
LINE
  8
0
 62
     0
 10
85.9621
 20
41.4831
 30
0.0
 11
85.9621
 21
40.8838
 31
0.0
  0
LINE
  8
0
 62
     0
 10
85.9621
 20
40.8838
 30
0.0
 11
99.9628
 21
40.8838
 31
0.0
  0
LINE
  8
0
 62
     0
 10
99.9628
 20
40.8838
 30
0.0
 11
99.9628
 21
41.4831
 31
0.0
  0
LINE
  8
0
 62
     0
 10
99.9628
 20
41.4831
 30
0.0
 11
100.762
 21
41.4831
 31
0.0
  0
LINE
  8
0
 62
     0
 10
100.762
 20
41.4831
 30
0.0
 11
100.762
 21
54.2837
 31
0.0
  0
LINE
  8
0
 62
     0
 10
100.762
 20
54.2837
 30
0.0
 11
99.9628
 21
54.2837
 31
0.0
  0
LINE
  8
0
 62
     0
 10
99.9628
 20
54.2837
 30
0.0
 11
99.9628
 21
54.8831
 31
0.0
  0
LINE
  8
0
 62
     0
 10
99.9628
 20
54.8831
 30
0.0
 11
85.9621
 21
54.8831
 31
0.0
  0
LINE
  8
0
 62
     0
 10
40.7197
 20
54.8831
 30
0.0
 11
40.7197
 21
54.2837
 31
0.0
  0
LINE
  8
0
 62
     0
 10
40.7197
 20
54.2837
 30
0.0
 11
39.9189
 21
54.2837
 31
0.0
  0
LINE
  8
0
 62
     0
 10
39.9189
 20
54.2837
 30
0.0
 11
39.9189
 21
41.4831
 31
0.0
  0
LINE
  8
0
 62
     0
 10
39.9189
 20
41.4831
 30
0.0
 11
40.7197
 21
41.4831
 31
0.0
  0
LINE
  8
0
 62
     0
 10
40.7197
 20
41.4831
 30
0.0
 11
40.7197
 21
40.8838
 31
0.0
  0
LINE
  8
0
 62
     0
 10
40.7197
 20
40.8838
 30
0.0
 11
54.719
 21
40.8838
 31
0.0
  0
LINE
  8
0
 62
     0
 10
54.719
 20
40.8838
 30
0.0
 11
54.719
 21
41.4831
 31
0.0
  0
LINE
  8
0
 62
     0
 10
54.719
 20
41.4831
 30
0.0
 11
55.5198
 21
41.4831
 31
0.0
  0
LINE
  8
0
 62
     0
 10
55.5198
 20
41.4831
 30
0.0
 11
55.5198
 21
54.2837
 31
0.0
  0
LINE
  8
0
 62
     0
 10
55.5198
 20
54.2837
 30
0.0
 11
54.719
 21
54.2837
 31
0.0
  0
LINE
  8
0
 62
     0
 10
54.719
 20
54.2837
 30
0.0
 11
54.719
 21
54.8831
 31
0.0
  0
LINE
  8
0
 62
     0
 10
54.719
 20
54.8831
 30
0.0
 11
40.7197
 21
54.8831
 31
0.0
  0
LINE
  8
0
 62
     0
 10
21.6697
 20
54.8831
 30
0.0
 11
21.6697
 21
54.2837
 31
0.0
  0
LINE
  8
0
 62
     0
 10
21.6697
 20
54.2837
 30
0.0
 11
20.869
 21
54.2837
 31
0.0
  0
LINE
  8
0
 62
     0
 10
20.869
 20
54.2837
 30
0.0
 11
20.869
 21
41.4831
 31
0.0
  0
LINE
  8
0
 62
     0
 10
20.869
 20
41.4831
 30
0.0
 11
21.6697
 21
41.4831
 31
0.0
  0
LINE
  8
0
 62
     0
 10
21.6697
 20
41.4831
 30
0.0
 11
21.6697
 21
40.8838
 31
0.0
  0
LINE
  8
0
 62
     0
 10
21.6697
 20
40.8838
 30
0.0
 11
35.669
 21
40.8838
 31
0.0
  0
LINE
  8
0
 62
     0
 10
35.669
 20
40.8838
 30
0.0
 11
35.669
 21
41.4831
 31
0.0
  0
LINE
  8
0
 62
     0
 10
35.669
 20
41.4831
 30
0.0
 11
36.4698
 21
41.4831
 31
0.0
  0
LINE
  8
0
 62
     0
 10
36.4698
 20
41.4831
 30
0.0
 11
36.4698
 21
54.2837
 31
0.0
  0
LINE
  8
0
 62
     0
 10
36.4698
 20
54.2837
 30
0.0
 11
35.669
 21
54.2837
 31
0.0
  0
LINE
  8
0
 62
     0
 10
35.669
 20
54.2837
 30
0.0
 11
35.669
 21
54.8831
 31
0.0
  0
LINE
  8
0
 62
     0
 10
35.669
 20
54.8831
 30
0.0
 11
21.6697
 21
54.8831
 31
0.0
  0
LINE
  8
0
 62
     0
 10
2.61965
 20
54.8831
 30
0.0
 11
2.61965
 21
54.2837
 31
0.0
  0
LINE
  8
0
 62
     0
 10
2.61965
 20
54.2837
 30
0.0
 11
1.81901
 21
54.2837
 31
0.0
  0
LINE
  8
0
 62
     0
 10
1.81901
 20
54.2837
 30
0.0
 11
1.81901
 21
41.4831
 31
0.0
  0
LINE
  8
0
 62
     0
 10
1.81901
 20
41.4831
 30
0.0
 11
2.61965
 21
41.4831
 31
0.0
  0
LINE
  8
0
 62
     0
 10
2.61965
 20
41.4831
 30
0.0
 11
2.61965
 21
40.8838
 31
0.0
  0
LINE
  8
0
 62
     0
 10
2.61965
 20
40.8838
 30
0.0
 11
16.6192
 21
40.8838
 31
0.0
  0
LINE
  8
0
 62
     0
 10
16.6192
 20
40.8838
 30
0.0
 11
16.6192
 21
41.4831
 31
0.0
  0
LINE
  8
0
 62
     0
 10
16.6192
 20
41.4831
 30
0.0
 11
17.4198
 21
41.4831
 31
0.0
  0
LINE
  8
0
 62
     0
 10
17.4198
 20
41.4831
 30
0.0
 11
17.4198
 21
54.2837
 31
0.0
  0
LINE
  8
0
 62
     0
 10
17.4198
 20
54.2837
 30
0.0
 11
16.6192
 21
54.2837
 31
0.0
  0
LINE
  8
0
 62
     0
 10
16.6192
 20
54.2837
 30
0.0
 11
16.6192
 21
54.8831
 31
0.0
  0
LINE
  8
0
 62
     0
 10
16.6192
 20
54.8831
 30
0.0
 11
2.61965
 21
54.8831
 31
0.0
  0
LINE
  8
0
 62
     0
 10
66.27
 20
73.5087
 30
0.0
 11
66.27
 21
72.6832
 31
0.0
  0
LINE
  8
0
 62
     0
 10
66.27
 20
72.6832
 30
0.0
 11
59.9997
 21
72.6832
 31
0.0
  0
LINE
  8
0
 62
     0
 10
59.9997
 20
72.6832
 30
0.0
 11
59.9997
 21
70.9581
 31
0.0
  0
LINE
  8
0
 62
     0
 10
59.9997
 20
70.9581
 30
0.0
 11
59.0201
 21
70.9581
 31
0.0
  0
LINE
  8
0
 62
     0
 10
59.0201
 20
70.9581
 30
0.0
 11
59.0201
 21
67.6589
 31
0.0
  0
LINE
  8
0
 62
     0
 10
59.0201
 20
67.6589
 30
0.0
 11
59.9997
 21
67.6589
 31
0.0
  0
LINE
  8
0
 62
     0
 10
59.9997
 20
67.6589
 30
0.0
 11
59.9997
 21
65.9335
 31
0.0
  0
LINE
  8
0
 62
     0
 10
59.9997
 20
65.9335
 30
0.0
 11
64.4701
 21
65.9335
 31
0.0
  0
LINE
  8
0
 62
     0
 10
64.4701
 20
65.9335
 30
0.0
 11
64.4701
 21
65.2089
 31
0.0
  0
LINE
  8
0
 62
     0
 10
64.4701
 20
65.2089
 30
0.0
 11
60.3691
 21
65.2089
 31
0.0
  0
LINE
  8
0
 62
     0
 10
60.3691
 20
65.2089
 30
0.0
 11
60.3691
 21
64.4081
 31
0.0
  0
LINE
  8
0
 62
     0
 10
60.3691
 20
64.4081
 30
0.0
 11
59.7697
 21
64.4081
 31
0.0
  0
LINE
  8
0
 62
     0
 10
59.7697
 20
64.4081
 30
0.0
 11
59.7697
 21
50.4088
 31
0.0
  0
LINE
  8
0
 62
     0
 10
59.7697
 20
50.4088
 30
0.0
 11
60.3691
 21
50.4088
 31
0.0
  0
LINE
  8
0
 62
     0
 10
60.3691
 20
50.4088
 30
0.0
 11
60.3691
 21
49.608
 31
0.0
  0
LINE
  8
0
 62
     0
 10
60.3691
 20
49.608
 30
0.0
 11
64.4701
 21
49.608
 31
0.0
  0
LINE
  8
0
 62
     0
 10
64.4701
 20
49.608
 30
0.0
 11
64.4701
 21
48.883
 31
0.0
  0
LINE
  8
0
 62
     0
 10
64.4701
 20
48.883
 30
0.0
 11
59.9997
 21
48.883
 31
0.0
  0
LINE
  8
0
 62
     0
 10
59.9997
 20
48.883
 30
0.0
 11
59.9997
 21
47.1579
 31
0.0
  0
LINE
  8
0
 62
     0
 10
59.9997
 20
47.1579
 30
0.0
 11
59.0201
 21
47.1579
 31
0.0
  0
LINE
  8
0
 62
     0
 10
59.0201
 20
47.1579
 30
0.0
 11
59.0201
 21
43.8587
 31
0.0
  0
LINE
  8
0
 62
     0
 10
59.0201
 20
43.8587
 30
0.0
 11
59.9997
 21
43.8587
 31
0.0
  0
LINE
  8
0
 62
     0
 10
59.9997
 20
43.8587
 30
0.0
 11
59.9997
 21
42.1337
 31
0.0
  0
LINE
  8
0
 62
     0
 10
59.9997
 20
42.1337
 30
0.0
 11
66.27
 21
42.1337
 31
0.0
  0
LINE
  8
0
 62
     0
 10
66.27
 20
42.1337
 30
0.0
 11
66.27
 21
41.3082
 31
0.0
  0
LINE
  8
0
 62
     0
 10
66.27
 20
41.3082
 30
0.0
 11
69.07
 21
41.3082
 31
0.0
  0
LINE
  8
0
 62
     0
 10
69.07
 20
41.3082
 30
0.0
 11
69.07
 21
42.1337
 31
0.0
  0
LINE
  8
0
 62
     0
 10
69.07
 20
42.1337
 30
0.0
 11
72.3
 21
42.1337
 31
0.0
  0
LINE
  8
0
 62
     0
 10
72.3
 20
42.1337
 30
0.0
 11
72.3
 21
43.8587
 31
0.0
  0
LINE
  8
0
 62
     0
 10
72.3
 20
43.8587
 30
0.0
 11
73.2194
 21
43.8587
 31
0.0
  0
LINE
  8
0
 62
     0
 10
73.2194
 20
43.8587
 30
0.0
 11
73.2194
 21
47.1579
 31
0.0
  0
LINE
  8
0
 62
     0
 10
73.2194
 20
47.1579
 30
0.0
 11
72.3
 21
47.1579
 31
0.0
  0
LINE
  8
0
 62
     0
 10
72.3
 20
47.1579
 30
0.0
 11
72.3
 21
48.883
 31
0.0
  0
LINE
  8
0
 62
     0
 10
72.3
 20
48.883
 30
0.0
 11
69.07
 21
48.883
 31
0.0
  0
LINE
  8
0
 62
     0
 10
69.07
 20
48.883
 30
0.0
 11
69.07
 21
49.608
 31
0.0
  0
LINE
  8
0
 62
     0
 10
69.07
 20
49.608
 30
0.0
 11
73.1696
 21
49.608
 31
0.0
  0
LINE
  8
0
 62
     0
 10
73.1696
 20
49.608
 30
0.0
 11
73.1696
 21
50.4088
 31
0.0
  0
LINE
  8
0
 62
     0
 10
73.1696
 20
50.4088
 30
0.0
 11
73.769
 21
50.4088
 31
0.0
  0
LINE
  8
0
 62
     0
 10
73.769
 20
50.4088
 30
0.0
 11
73.769
 21
64.4081
 31
0.0
  0
LINE
  8
0
 62
     0
 10
73.769
 20
64.4081
 30
0.0
 11
73.1696
 21
64.4081
 31
0.0
  0
LINE
  8
0
 62
     0
 10
73.1696
 20
64.4081
 30
0.0
 11
73.1696
 21
65.2089
 31
0.0
  0
LINE
  8
0
 62
     0
 10
73.1696
 20
65.2089
 30
0.0
 11
69.07
 21
65.2089
 31
0.0
  0
LINE
  8
0
 62
     0
 10
69.07
 20
65.2089
 30
0.0
 11
69.07
 21
65.9335
 31
0.0
  0
LINE
  8
0
 62
     0
 10
69.07
 20
65.9335
 30
0.0
 11
72.3
 21
65.9335
 31
0.0
  0
LINE
  8
0
 62
     0
 10
72.3
 20
65.9335
 30
0.0
 11
72.3
 21
67.6589
 31
0.0
  0
LINE
  8
0
 62
     0
 10
72.3
 20
67.6589
 30
0.0
 11
73.2194
 21
67.6589
 31
0.0
  0
LINE
  8
0
 62
     0
 10
73.2194
 20
67.6589
 30
0.0
 11
73.2194
 21
70.9581
 31
0.0
  0
LINE
  8
0
 62
     0
 10
73.2194
 20
70.9581
 30
0.0
 11
72.3
 21
70.9581
 31
0.0
  0
LINE
  8
0
 62
     0
 10
72.3
 20
70.9581
 30
0.0
 11
72.3
 21
72.6832
 31
0.0
  0
LINE
  8
0
 62
     0
 10
72.3
 20
72.6832
 30
0.0
 11
69.07
 21
72.6832
 31
0.0
  0
LINE
  8
0
 62
     0
 10
69.07
 20
72.6832
 30
0.0
 11
69.07
 21
73.5087
 31
0.0
  0
LINE
  8
0
 62
     0
 10
69.07
 20
73.5087
 30
0.0
 11
66.27
 21
73.5087
 31
0.0
  0
LINE
  8
0
 62
     0
 10
340.757
 20
73.9331
 30
0.0
 11
340.757
 21
73.3337
 31
0.0
  0
LINE
  8
0
 62
     0
 10
340.757
 20
73.3337
 30
0.0
 11
339.956
 21
73.3337
 31
0.0
  0
LINE
  8
0
 62
     0
 10
339.956
 20
73.3337
 30
0.0
 11
339.956
 21
60.5331
 31
0.0
  0
LINE
  8
0
 62
     0
 10
339.956
 20
60.5331
 30
0.0
 11
340.757
 21
60.5331
 31
0.0
  0
LINE
  8
0
 62
     0
 10
340.757
 20
60.5331
 30
0.0
 11
340.757
 21
59.9338
 31
0.0
  0
LINE
  8
0
 62
     0
 10
340.757
 20
59.9338
 30
0.0
 11
354.757
 21
59.9338
 31
0.0
  0
LINE
  8
0
 62
     0
 10
354.757
 20
59.9338
 30
0.0
 11
354.757
 21
60.5331
 31
0.0
  0
LINE
  8
0
 62
     0
 10
354.757
 20
60.5331
 30
0.0
 11
355.558
 21
60.5331
 31
0.0
  0
LINE
  8
0
 62
     0
 10
355.558
 20
60.5331
 30
0.0
 11
355.558
 21
73.3337
 31
0.0
  0
LINE
  8
0
 62
     0
 10
355.558
 20
73.3337
 30
0.0
 11
354.757
 21
73.3337
 31
0.0
  0
LINE
  8
0
 62
     0
 10
354.757
 20
73.3337
 30
0.0
 11
354.757
 21
73.9331
 31
0.0
  0
LINE
  8
0
 62
     0
 10
354.757
 20
73.9331
 30
0.0
 11
340.757
 21
73.9331
 31
0.0
  0
LINE
  8
0
 62
     0
 10
316.945
 20
73.9331
 30
0.0
 11
316.945
 21
73.3337
 31
0.0
  0
LINE
  8
0
 62
     0
 10
316.945
 20
73.3337
 30
0.0
 11
316.144
 21
73.3337
 31
0.0
  0
LINE
  8
0
 62
     0
 10
316.144
 20
73.3337
 30
0.0
 11
316.144
 21
60.5331
 31
0.0
  0
LINE
  8
0
 62
     0
 10
316.144
 20
60.5331
 30
0.0
 11
316.945
 21
60.5331
 31
0.0
  0
LINE
  8
0
 62
     0
 10
316.945
 20
60.5331
 30
0.0
 11
316.945
 21
59.9338
 31
0.0
  0
LINE
  8
0
 62
     0
 10
316.945
 20
59.9338
 30
0.0
 11
330.944
 21
59.9338
 31
0.0
  0
LINE
  8
0
 62
     0
 10
330.944
 20
59.9338
 30
0.0
 11
330.944
 21
60.5331
 31
0.0
  0
LINE
  8
0
 62
     0
 10
330.944
 20
60.5331
 30
0.0
 11
331.745
 21
60.5331
 31
0.0
  0
LINE
  8
0
 62
     0
 10
331.745
 20
60.5331
 30
0.0
 11
331.745
 21
73.3337
 31
0.0
  0
LINE
  8
0
 62
     0
 10
331.745
 20
73.3337
 30
0.0
 11
330.944
 21
73.3337
 31
0.0
  0
LINE
  8
0
 62
     0
 10
330.944
 20
73.3337
 30
0.0
 11
330.944
 21
73.9331
 31
0.0
  0
LINE
  8
0
 62
     0
 10
330.944
 20
73.9331
 30
0.0
 11
316.945
 21
73.9331
 31
0.0
  0
LINE
  8
0
 62
     0
 10
297.895
 20
73.9331
 30
0.0
 11
297.895
 21
73.3337
 31
0.0
  0
LINE
  8
0
 62
     0
 10
297.895
 20
73.3337
 30
0.0
 11
297.094
 21
73.3337
 31
0.0
  0
LINE
  8
0
 62
     0
 10
297.094
 20
73.3337
 30
0.0
 11
297.094
 21
60.5331
 31
0.0
  0
LINE
  8
0
 62
     0
 10
297.094
 20
60.5331
 30
0.0
 11
297.895
 21
60.5331
 31
0.0
  0
LINE
  8
0
 62
     0
 10
297.895
 20
60.5331
 30
0.0
 11
297.895
 21
59.9338
 31
0.0
  0
LINE
  8
0
 62
     0
 10
297.895
 20
59.9338
 30
0.0
 11
311.894
 21
59.9338
 31
0.0
  0
LINE
  8
0
 62
     0
 10
311.894
 20
59.9338
 30
0.0
 11
311.894
 21
60.5331
 31
0.0
  0
LINE
  8
0
 62
     0
 10
311.894
 20
60.5331
 30
0.0
 11
312.695
 21
60.5331
 31
0.0
  0
LINE
  8
0
 62
     0
 10
312.695
 20
60.5331
 30
0.0
 11
312.695
 21
73.3337
 31
0.0
  0
LINE
  8
0
 62
     0
 10
312.695
 20
73.3337
 30
0.0
 11
311.894
 21
73.3337
 31
0.0
  0
LINE
  8
0
 62
     0
 10
311.894
 20
73.3337
 30
0.0
 11
311.894
 21
73.9331
 31
0.0
  0
LINE
  8
0
 62
     0
 10
311.894
 20
73.9331
 30
0.0
 11
297.895
 21
73.9331
 31
0.0
  0
LINE
  8
0
 62
     0
 10
278.845
 20
73.9331
 30
0.0
 11
278.845
 21
73.3337
 31
0.0
  0
LINE
  8
0
 62
     0
 10
278.845
 20
73.3337
 30
0.0
 11
278.044
 21
73.3337
 31
0.0
  0
LINE
  8
0
 62
     0
 10
278.044
 20
73.3337
 30
0.0
 11
278.044
 21
60.5331
 31
0.0
  0
LINE
  8
0
 62
     0
 10
278.044
 20
60.5331
 30
0.0
 11
278.845
 21
60.5331
 31
0.0
  0
LINE
  8
0
 62
     0
 10
278.845
 20
60.5331
 30
0.0
 11
278.845
 21
59.9338
 31
0.0
  0
LINE
  8
0
 62
     0
 10
278.845
 20
59.9338
 30
0.0
 11
292.844
 21
59.9338
 31
0.0
  0
LINE
  8
0
 62
     0
 10
292.844
 20
59.9338
 30
0.0
 11
292.844
 21
60.5331
 31
0.0
  0
LINE
  8
0
 62
     0
 10
292.844
 20
60.5331
 30
0.0
 11
293.645
 21
60.5331
 31
0.0
  0
LINE
  8
0
 62
     0
 10
293.645
 20
60.5331
 30
0.0
 11
293.645
 21
73.3337
 31
0.0
  0
LINE
  8
0
 62
     0
 10
293.645
 20
73.3337
 30
0.0
 11
292.844
 21
73.3337
 31
0.0
  0
LINE
  8
0
 62
     0
 10
292.844
 20
73.3337
 30
0.0
 11
292.844
 21
73.9331
 31
0.0
  0
LINE
  8
0
 62
     0
 10
292.844
 20
73.9331
 30
0.0
 11
278.845
 21
73.9331
 31
0.0
  0
LINE
  8
0
 62
     0
 10
259.795
 20
73.9331
 30
0.0
 11
259.795
 21
73.3337
 31
0.0
  0
LINE
  8
0
 62
     0
 10
259.795
 20
73.3337
 30
0.0
 11
258.994
 21
73.3337
 31
0.0
  0
LINE
  8
0
 62
     0
 10
258.994
 20
73.3337
 30
0.0
 11
258.994
 21
60.5331
 31
0.0
  0
LINE
  8
0
 62
     0
 10
258.994
 20
60.5331
 30
0.0
 11
259.795
 21
60.5331
 31
0.0
  0
LINE
  8
0
 62
     0
 10
259.795
 20
60.5331
 30
0.0
 11
259.795
 21
59.9338
 31
0.0
  0
LINE
  8
0
 62
     0
 10
259.795
 20
59.9338
 30
0.0
 11
273.794
 21
59.9338
 31
0.0
  0
LINE
  8
0
 62
     0
 10
273.794
 20
59.9338
 30
0.0
 11
273.794
 21
60.5331
 31
0.0
  0
LINE
  8
0
 62
     0
 10
273.794
 20
60.5331
 30
0.0
 11
274.595
 21
60.5331
 31
0.0
  0
LINE
  8
0
 62
     0
 10
274.595
 20
60.5331
 30
0.0
 11
274.595
 21
73.3337
 31
0.0
  0
LINE
  8
0
 62
     0
 10
274.595
 20
73.3337
 30
0.0
 11
273.794
 21
73.3337
 31
0.0
  0
LINE
  8
0
 62
     0
 10
273.794
 20
73.3337
 30
0.0
 11
273.794
 21
73.9331
 31
0.0
  0
LINE
  8
0
 62
     0
 10
273.794
 20
73.9331
 30
0.0
 11
259.795
 21
73.9331
 31
0.0
  0
LINE
  8
0
 62
     0
 10
240.745
 20
73.9331
 30
0.0
 11
240.745
 21
73.3337
 31
0.0
  0
LINE
  8
0
 62
     0
 10
240.745
 20
73.3337
 30
0.0
 11
239.944
 21
73.3337
 31
0.0
  0
LINE
  8
0
 62
     0
 10
239.944
 20
73.3337
 30
0.0
 11
239.944
 21
60.5331
 31
0.0
  0
LINE
  8
0
 62
     0
 10
239.944
 20
60.5331
 30
0.0
 11
240.745
 21
60.5331
 31
0.0
  0
LINE
  8
0
 62
     0
 10
240.745
 20
60.5331
 30
0.0
 11
240.745
 21
59.9338
 31
0.0
  0
LINE
  8
0
 62
     0
 10
240.745
 20
59.9338
 30
0.0
 11
254.744
 21
59.9338
 31
0.0
  0
LINE
  8
0
 62
     0
 10
254.744
 20
59.9338
 30
0.0
 11
254.744
 21
60.5331
 31
0.0
  0
LINE
  8
0
 62
     0
 10
254.744
 20
60.5331
 30
0.0
 11
255.545
 21
60.5331
 31
0.0
  0
LINE
  8
0
 62
     0
 10
255.545
 20
60.5331
 30
0.0
 11
255.545
 21
73.3337
 31
0.0
  0
LINE
  8
0
 62
     0
 10
255.545
 20
73.3337
 30
0.0
 11
254.744
 21
73.3337
 31
0.0
  0
LINE
  8
0
 62
     0
 10
254.744
 20
73.3337
 30
0.0
 11
254.744
 21
73.9331
 31
0.0
  0
LINE
  8
0
 62
     0
 10
254.744
 20
73.9331
 30
0.0
 11
240.745
 21
73.9331
 31
0.0
  0
LINE
  8
0
 62
     0
 10
221.695
 20
73.9331
 30
0.0
 11
221.695
 21
73.3337
 31
0.0
  0
LINE
  8
0
 62
     0
 10
221.695
 20
73.3337
 30
0.0
 11
220.894
 21
73.3337
 31
0.0
  0
LINE
  8
0
 62
     0
 10
220.894
 20
73.3337
 30
0.0
 11
220.894
 21
60.5331
 31
0.0
  0
LINE
  8
0
 62
     0
 10
220.894
 20
60.5331
 30
0.0
 11
221.695
 21
60.5331
 31
0.0
  0
LINE
  8
0
 62
     0
 10
221.695
 20
60.5331
 30
0.0
 11
221.695
 21
59.9338
 31
0.0
  0
LINE
  8
0
 62
     0
 10
221.695
 20
59.9338
 30
0.0
 11
235.694
 21
59.9338
 31
0.0
  0
LINE
  8
0
 62
     0
 10
235.694
 20
59.9338
 30
0.0
 11
235.694
 21
60.5331
 31
0.0
  0
LINE
  8
0
 62
     0
 10
235.694
 20
60.5331
 30
0.0
 11
236.495
 21
60.5331
 31
0.0
  0
LINE
  8
0
 62
     0
 10
236.495
 20
60.5331
 30
0.0
 11
236.495
 21
73.3337
 31
0.0
  0
LINE
  8
0
 62
     0
 10
236.495
 20
73.3337
 30
0.0
 11
235.694
 21
73.3337
 31
0.0
  0
LINE
  8
0
 62
     0
 10
235.694
 20
73.3337
 30
0.0
 11
235.694
 21
73.9331
 31
0.0
  0
LINE
  8
0
 62
     0
 10
235.694
 20
73.9331
 30
0.0
 11
221.695
 21
73.9331
 31
0.0
  0
LINE
  8
0
 62
     0
 10
202.645
 20
73.9331
 30
0.0
 11
202.645
 21
73.3337
 31
0.0
  0
LINE
  8
0
 62
     0
 10
202.645
 20
73.3337
 30
0.0
 11
201.844
 21
73.3337
 31
0.0
  0
LINE
  8
0
 62
     0
 10
201.844
 20
73.3337
 30
0.0
 11
201.844
 21
60.5331
 31
0.0
  0
LINE
  8
0
 62
     0
 10
201.844
 20
60.5331
 30
0.0
 11
202.645
 21
60.5331
 31
0.0
  0
LINE
  8
0
 62
     0
 10
202.645
 20
60.5331
 30
0.0
 11
202.645
 21
59.9338
 31
0.0
  0
LINE
  8
0
 62
     0
 10
202.645
 20
59.9338
 30
0.0
 11
216.644
 21
59.9338
 31
0.0
  0
LINE
  8
0
 62
     0
 10
216.644
 20
59.9338
 30
0.0
 11
216.644
 21
60.5331
 31
0.0
  0
LINE
  8
0
 62
     0
 10
216.644
 20
60.5331
 30
0.0
 11
217.445
 21
60.5331
 31
0.0
  0
LINE
  8
0
 62
     0
 10
217.445
 20
60.5331
 30
0.0
 11
217.445
 21
73.3337
 31
0.0
  0
LINE
  8
0
 62
     0
 10
217.445
 20
73.3337
 30
0.0
 11
216.644
 21
73.3337
 31
0.0
  0
LINE
  8
0
 62
     0
 10
216.644
 20
73.3337
 30
0.0
 11
216.644
 21
73.9331
 31
0.0
  0
LINE
  8
0
 62
     0
 10
216.644
 20
73.9331
 30
0.0
 11
202.645
 21
73.9331
 31
0.0
  0
LINE
  8
0
 62
     0
 10
183.595
 20
73.9331
 30
0.0
 11
183.595
 21
73.3337
 31
0.0
  0
LINE
  8
0
 62
     0
 10
183.595
 20
73.3337
 30
0.0
 11
182.794
 21
73.3337
 31
0.0
  0
LINE
  8
0
 62
     0
 10
182.794
 20
73.3337
 30
0.0
 11
182.794
 21
60.5331
 31
0.0
  0
LINE
  8
0
 62
     0
 10
182.794
 20
60.5331
 30
0.0
 11
183.595
 21
60.5331
 31
0.0
  0
LINE
  8
0
 62
     0
 10
183.595
 20
60.5331
 30
0.0
 11
183.595
 21
59.9338
 31
0.0
  0
LINE
  8
0
 62
     0
 10
183.595
 20
59.9338
 30
0.0
 11
197.594
 21
59.9338
 31
0.0
  0
LINE
  8
0
 62
     0
 10
197.594
 20
59.9338
 30
0.0
 11
197.594
 21
60.5331
 31
0.0
  0
LINE
  8
0
 62
     0
 10
197.594
 20
60.5331
 30
0.0
 11
198.395
 21
60.5331
 31
0.0
  0
LINE
  8
0
 62
     0
 10
198.395
 20
60.5331
 30
0.0
 11
198.395
 21
73.3337
 31
0.0
  0
LINE
  8
0
 62
     0
 10
198.395
 20
73.3337
 30
0.0
 11
197.594
 21
73.3337
 31
0.0
  0
LINE
  8
0
 62
     0
 10
197.594
 20
73.3337
 30
0.0
 11
197.594
 21
73.9331
 31
0.0
  0
LINE
  8
0
 62
     0
 10
197.594
 20
73.9331
 30
0.0
 11
183.595
 21
73.9331
 31
0.0
  0
LINE
  8
0
 62
     0
 10
164.545
 20
73.9331
 30
0.0
 11
164.545
 21
73.3337
 31
0.0
  0
LINE
  8
0
 62
     0
 10
164.545
 20
73.3337
 30
0.0
 11
163.744
 21
73.3337
 31
0.0
  0
LINE
  8
0
 62
     0
 10
163.744
 20
73.3337
 30
0.0
 11
163.744
 21
60.5331
 31
0.0
  0
LINE
  8
0
 62
     0
 10
163.744
 20
60.5331
 30
0.0
 11
164.545
 21
60.5331
 31
0.0
  0
LINE
  8
0
 62
     0
 10
164.545
 20
60.5331
 30
0.0
 11
164.545
 21
59.9338
 31
0.0
  0
LINE
  8
0
 62
     0
 10
164.545
 20
59.9338
 30
0.0
 11
178.544
 21
59.9338
 31
0.0
  0
LINE
  8
0
 62
     0
 10
178.544
 20
59.9338
 30
0.0
 11
178.544
 21
60.5331
 31
0.0
  0
LINE
  8
0
 62
     0
 10
178.544
 20
60.5331
 30
0.0
 11
179.345
 21
60.5331
 31
0.0
  0
LINE
  8
0
 62
     0
 10
179.345
 20
60.5331
 30
0.0
 11
179.345
 21
73.3337
 31
0.0
  0
LINE
  8
0
 62
     0
 10
179.345
 20
73.3337
 30
0.0
 11
178.544
 21
73.3337
 31
0.0
  0
LINE
  8
0
 62
     0
 10
178.544
 20
73.3337
 30
0.0
 11
178.544
 21
73.9331
 31
0.0
  0
LINE
  8
0
 62
     0
 10
178.544
 20
73.9331
 30
0.0
 11
164.545
 21
73.9331
 31
0.0
  0
LINE
  8
0
 62
     0
 10
145.495
 20
73.9331
 30
0.0
 11
145.495
 21
73.3337
 31
0.0
  0
LINE
  8
0
 62
     0
 10
145.495
 20
73.3337
 30
0.0
 11
144.694
 21
73.3337
 31
0.0
  0
LINE
  8
0
 62
     0
 10
144.694
 20
73.3337
 30
0.0
 11
144.694
 21
60.5331
 31
0.0
  0
LINE
  8
0
 62
     0
 10
144.694
 20
60.5331
 30
0.0
 11
145.495
 21
60.5331
 31
0.0
  0
LINE
  8
0
 62
     0
 10
145.495
 20
60.5331
 30
0.0
 11
145.495
 21
59.9338
 31
0.0
  0
LINE
  8
0
 62
     0
 10
145.495
 20
59.9338
 30
0.0
 11
159.494
 21
59.9338
 31
0.0
  0
LINE
  8
0
 62
     0
 10
159.494
 20
59.9338
 30
0.0
 11
159.494
 21
60.5331
 31
0.0
  0
LINE
  8
0
 62
     0
 10
159.494
 20
60.5331
 30
0.0
 11
160.295
 21
60.5331
 31
0.0
  0
LINE
  8
0
 62
     0
 10
160.295
 20
60.5331
 30
0.0
 11
160.295
 21
73.3337
 31
0.0
  0
LINE
  8
0
 62
     0
 10
160.295
 20
73.3337
 30
0.0
 11
159.494
 21
73.3337
 31
0.0
  0
LINE
  8
0
 62
     0
 10
159.494
 20
73.3337
 30
0.0
 11
159.494
 21
73.9331
 31
0.0
  0
LINE
  8
0
 62
     0
 10
159.494
 20
73.9331
 30
0.0
 11
145.495
 21
73.9331
 31
0.0
  0
LINE
  8
0
 62
     0
 10
126.445
 20
73.9331
 30
0.0
 11
126.445
 21
73.3337
 31
0.0
  0
LINE
  8
0
 62
     0
 10
126.445
 20
73.3337
 30
0.0
 11
125.644
 21
73.3337
 31
0.0
  0
LINE
  8
0
 62
     0
 10
125.644
 20
73.3337
 30
0.0
 11
125.644
 21
60.5331
 31
0.0
  0
LINE
  8
0
 62
     0
 10
125.644
 20
60.5331
 30
0.0
 11
126.445
 21
60.5331
 31
0.0
  0
LINE
  8
0
 62
     0
 10
126.445
 20
60.5331
 30
0.0
 11
126.445
 21
59.9338
 31
0.0
  0
LINE
  8
0
 62
     0
 10
126.445
 20
59.9338
 30
0.0
 11
140.444
 21
59.9338
 31
0.0
  0
LINE
  8
0
 62
     0
 10
140.444
 20
59.9338
 30
0.0
 11
140.444
 21
60.5331
 31
0.0
  0
LINE
  8
0
 62
     0
 10
140.444
 20
60.5331
 30
0.0
 11
141.245
 21
60.5331
 31
0.0
  0
LINE
  8
0
 62
     0
 10
141.245
 20
60.5331
 30
0.0
 11
141.245
 21
73.3337
 31
0.0
  0
LINE
  8
0
 62
     0
 10
141.245
 20
73.3337
 30
0.0
 11
140.444
 21
73.3337
 31
0.0
  0
LINE
  8
0
 62
     0
 10
140.444
 20
73.3337
 30
0.0
 11
140.444
 21
73.9331
 31
0.0
  0
LINE
  8
0
 62
     0
 10
140.444
 20
73.9331
 30
0.0
 11
126.445
 21
73.9331
 31
0.0
  0
LINE
  8
0
 62
     0
 10
107.395
 20
73.9331
 30
0.0
 11
107.395
 21
73.3337
 31
0.0
  0
LINE
  8
0
 62
     0
 10
107.395
 20
73.3337
 30
0.0
 11
106.594
 21
73.3337
 31
0.0
  0
LINE
  8
0
 62
     0
 10
106.594
 20
73.3337
 30
0.0
 11
106.594
 21
60.5331
 31
0.0
  0
LINE
  8
0
 62
     0
 10
106.594
 20
60.5331
 30
0.0
 11
107.395
 21
60.5331
 31
0.0
  0
LINE
  8
0
 62
     0
 10
107.395
 20
60.5331
 30
0.0
 11
107.395
 21
59.9338
 31
0.0
  0
LINE
  8
0
 62
     0
 10
107.395
 20
59.9338
 30
0.0
 11
121.394
 21
59.9338
 31
0.0
  0
LINE
  8
0
 62
     0
 10
121.394
 20
59.9338
 30
0.0
 11
121.394
 21
60.5331
 31
0.0
  0
LINE
  8
0
 62
     0
 10
121.394
 20
60.5331
 30
0.0
 11
122.195
 21
60.5331
 31
0.0
  0
LINE
  8
0
 62
     0
 10
122.195
 20
60.5331
 30
0.0
 11
122.195
 21
73.3337
 31
0.0
  0
LINE
  8
0
 62
     0
 10
122.195
 20
73.3337
 30
0.0
 11
121.394
 21
73.3337
 31
0.0
  0
LINE
  8
0
 62
     0
 10
121.394
 20
73.3337
 30
0.0
 11
121.394
 21
73.9331
 31
0.0
  0
LINE
  8
0
 62
     0
 10
121.394
 20
73.9331
 30
0.0
 11
107.395
 21
73.9331
 31
0.0
  0
LINE
  8
0
 62
     0
 10
83.5822
 20
73.9331
 30
0.0
 11
83.5822
 21
73.3337
 31
0.0
  0
LINE
  8
0
 62
     0
 10
83.5822
 20
73.3337
 30
0.0
 11
82.7814
 21
73.3337
 31
0.0
  0
LINE
  8
0
 62
     0
 10
82.7814
 20
73.3337
 30
0.0
 11
82.7814
 21
60.5331
 31
0.0
  0
LINE
  8
0
 62
     0
 10
82.7814
 20
60.5331
 30
0.0
 11
83.5822
 21
60.5331
 31
0.0
  0
LINE
  8
0
 62
     0
 10
83.5822
 20
60.5331
 30
0.0
 11
83.5822
 21
59.9338
 31
0.0
  0
LINE
  8
0
 62
     0
 10
83.5822
 20
59.9338
 30
0.0
 11
97.5815
 21
59.9338
 31
0.0
  0
LINE
  8
0
 62
     0
 10
97.5815
 20
59.9338
 30
0.0
 11
97.5815
 21
60.5331
 31
0.0
  0
LINE
  8
0
 62
     0
 10
97.5815
 20
60.5331
 30
0.0
 11
98.3809
 21
60.5331
 31
0.0
  0
LINE
  8
0
 62
     0
 10
98.3809
 20
60.5331
 30
0.0
 11
98.3809
 21
73.3337
 31
0.0
  0
LINE
  8
0
 62
     0
 10
98.3809
 20
73.3337
 30
0.0
 11
97.5815
 21
73.3337
 31
0.0
  0
LINE
  8
0
 62
     0
 10
97.5815
 20
73.3337
 30
0.0
 11
97.5815
 21
73.9331
 31
0.0
  0
LINE
  8
0
 62
     0
 10
97.5815
 20
73.9331
 30
0.0
 11
83.5822
 21
73.9331
 31
0.0
  0
LINE
  8
0
 62
     0
 10
40.7197
 20
73.9331
 30
0.0
 11
40.7197
 21
73.3337
 31
0.0
  0
LINE
  8
0
 62
     0
 10
40.7197
 20
73.3337
 30
0.0
 11
39.9189
 21
73.3337
 31
0.0
  0
LINE
  8
0
 62
     0
 10
39.9189
 20
73.3337
 30
0.0
 11
39.9189
 21
60.5331
 31
0.0
  0
LINE
  8
0
 62
     0
 10
39.9189
 20
60.5331
 30
0.0
 11
40.7197
 21
60.5331
 31
0.0
  0
LINE
  8
0
 62
     0
 10
40.7197
 20
60.5331
 30
0.0
 11
40.7197
 21
59.9338
 31
0.0
  0
LINE
  8
0
 62
     0
 10
40.7197
 20
59.9338
 30
0.0
 11
54.719
 21
59.9338
 31
0.0
  0
LINE
  8
0
 62
     0
 10
54.719
 20
59.9338
 30
0.0
 11
54.719
 21
60.5331
 31
0.0
  0
LINE
  8
0
 62
     0
 10
54.719
 20
60.5331
 30
0.0
 11
55.5198
 21
60.5331
 31
0.0
  0
LINE
  8
0
 62
     0
 10
55.5198
 20
60.5331
 30
0.0
 11
55.5198
 21
73.3337
 31
0.0
  0
LINE
  8
0
 62
     0
 10
55.5198
 20
73.3337
 30
0.0
 11
54.719
 21
73.3337
 31
0.0
  0
LINE
  8
0
 62
     0
 10
54.719
 20
73.3337
 30
0.0
 11
54.719
 21
73.9331
 31
0.0
  0
LINE
  8
0
 62
     0
 10
54.719
 20
73.9331
 30
0.0
 11
40.7197
 21
73.9331
 31
0.0
  0
LINE
  8
0
 62
     0
 10
21.6697
 20
73.9331
 30
0.0
 11
21.6697
 21
73.3337
 31
0.0
  0
LINE
  8
0
 62
     0
 10
21.6697
 20
73.3337
 30
0.0
 11
20.869
 21
73.3337
 31
0.0
  0
LINE
  8
0
 62
     0
 10
20.869
 20
73.3337
 30
0.0
 11
20.869
 21
60.5331
 31
0.0
  0
LINE
  8
0
 62
     0
 10
20.869
 20
60.5331
 30
0.0
 11
21.6697
 21
60.5331
 31
0.0
  0
LINE
  8
0
 62
     0
 10
21.6697
 20
60.5331
 30
0.0
 11
21.6697
 21
59.9338
 31
0.0
  0
LINE
  8
0
 62
     0
 10
21.6697
 20
59.9338
 30
0.0
 11
35.669
 21
59.9338
 31
0.0
  0
LINE
  8
0
 62
     0
 10
35.669
 20
59.9338
 30
0.0
 11
35.669
 21
60.5331
 31
0.0
  0
LINE
  8
0
 62
     0
 10
35.669
 20
60.5331
 30
0.0
 11
36.4698
 21
60.5331
 31
0.0
  0
LINE
  8
0
 62
     0
 10
36.4698
 20
60.5331
 30
0.0
 11
36.4698
 21
73.3337
 31
0.0
  0
LINE
  8
0
 62
     0
 10
36.4698
 20
73.3337
 30
0.0
 11
35.669
 21
73.3337
 31
0.0
  0
LINE
  8
0
 62
     0
 10
35.669
 20
73.3337
 30
0.0
 11
35.669
 21
73.9331
 31
0.0
  0
LINE
  8
0
 62
     0
 10
35.669
 20
73.9331
 30
0.0
 11
21.6697
 21
73.9331
 31
0.0
  0
LINE
  8
0
 62
     0
 10
2.61965
 20
73.9331
 30
0.0
 11
2.61965
 21
73.3337
 31
0.0
  0
LINE
  8
0
 62
     0
 10
2.61965
 20
73.3337
 30
0.0
 11
1.81901
 21
73.3337
 31
0.0
  0
LINE
  8
0
 62
     0
 10
1.81901
 20
73.3337
 30
0.0
 11
1.81901
 21
60.5331
 31
0.0
  0
LINE
  8
0
 62
     0
 10
1.81901
 20
60.5331
 30
0.0
 11
2.61965
 21
60.5331
 31
0.0
  0
LINE
  8
0
 62
     0
 10
2.61965
 20
60.5331
 30
0.0
 11
2.61965
 21
59.9338
 31
0.0
  0
LINE
  8
0
 62
     0
 10
2.61965
 20
59.9338
 30
0.0
 11
16.6192
 21
59.9338
 31
0.0
  0
LINE
  8
0
 62
     0
 10
16.6192
 20
59.9338
 30
0.0
 11
16.6192
 21
60.5331
 31
0.0
  0
LINE
  8
0
 62
     0
 10
16.6192
 20
60.5331
 30
0.0
 11
17.4198
 21
60.5331
 31
0.0
  0
LINE
  8
0
 62
     0
 10
17.4198
 20
60.5331
 30
0.0
 11
17.4198
 21
73.3337
 31
0.0
  0
LINE
  8
0
 62
     0
 10
17.4198
 20
73.3337
 30
0.0
 11
16.6192
 21
73.3337
 31
0.0
  0
LINE
  8
0
 62
     0
 10
16.6192
 20
73.3337
 30
0.0
 11
16.6192
 21
73.9331
 31
0.0
  0
LINE
  8
0
 62
     0
 10
16.6192
 20
73.9331
 30
0.0
 11
2.61965
 21
73.9331
 31
0.0
  0
LINE
  8
0
 62
     0
 10
335.995
 20
92.9831
 30
0.0
 11
335.995
 21
92.3837
 31
0.0
  0
LINE
  8
0
 62
     0
 10
335.995
 20
92.3837
 30
0.0
 11
335.194
 21
92.3837
 31
0.0
  0
LINE
  8
0
 62
     0
 10
335.194
 20
92.3837
 30
0.0
 11
335.194
 21
88.2826
 31
0.0
  0
LINE
  8
0
 62
     0
 10
335.194
 20
88.2826
 30
0.0
 11
334.469
 21
88.2826
 31
0.0
  0
LINE
  8
0
 62
     0
 10
334.469
 20
88.2826
 30
0.0
 11
334.469
 21
91.5127
 31
0.0
  0
LINE
  8
0
 62
     0
 10
334.469
 20
91.5127
 30
0.0
 11
332.744
 21
91.5127
 31
0.0
  0
LINE
  8
0
 62
     0
 10
332.744
 20
91.5127
 30
0.0
 11
332.744
 21
92.4348
 31
0.0
  0
LINE
  8
0
 62
     0
 10
332.744
 20
92.4348
 30
0.0
 11
329.445
 21
92.4348
 31
0.0
  0
LINE
  8
0
 62
     0
 10
329.445
 20
92.4348
 30
0.0
 11
329.445
 21
91.5127
 31
0.0
  0
LINE
  8
0
 62
     0
 10
329.445
 20
91.5127
 30
0.0
 11
327.72
 21
91.5127
 31
0.0
  0
LINE
  8
0
 62
     0
 10
327.72
 20
91.5127
 30
0.0
 11
327.72
 21
88.2826
 31
0.0
  0
LINE
  8
0
 62
     0
 10
327.72
 20
88.2826
 30
0.0
 11
326.894
 21
88.2826
 31
0.0
  0
LINE
  8
0
 62
     0
 10
326.894
 20
88.2826
 30
0.0
 11
326.894
 21
85.4837
 31
0.0
  0
LINE
  8
0
 62
     0
 10
326.894
 20
85.4837
 30
0.0
 11
327.72
 21
85.4837
 31
0.0
  0
LINE
  8
0
 62
     0
 10
327.72
 20
85.4837
 30
0.0
 11
327.72
 21
79.2138
 31
0.0
  0
LINE
  8
0
 62
     0
 10
327.72
 20
79.2138
 30
0.0
 11
329.445
 21
79.2138
 31
0.0
  0
LINE
  8
0
 62
     0
 10
329.445
 20
79.2138
 30
0.0
 11
329.445
 21
78.2327
 31
0.0
  0
LINE
  8
0
 62
     0
 10
329.445
 20
78.2327
 30
0.0
 11
332.744
 21
78.2327
 31
0.0
  0
LINE
  8
0
 62
     0
 10
332.744
 20
78.2327
 30
0.0
 11
332.744
 21
79.2138
 31
0.0
  0
LINE
  8
0
 62
     0
 10
332.744
 20
79.2138
 30
0.0
 11
334.469
 21
79.2138
 31
0.0
  0
LINE
  8
0
 62
     0
 10
334.469
 20
79.2138
 30
0.0
 11
334.469
 21
83.6828
 31
0.0
  0
LINE
  8
0
 62
     0
 10
334.469
 20
83.6828
 30
0.0
 11
335.194
 21
83.6828
 31
0.0
  0
LINE
  8
0
 62
     0
 10
335.194
 20
83.6828
 30
0.0
 11
335.194
 21
79.5831
 31
0.0
  0
LINE
  8
0
 62
     0
 10
335.194
 20
79.5831
 30
0.0
 11
335.995
 21
79.5831
 31
0.0
  0
LINE
  8
0
 62
     0
 10
335.995
 20
79.5831
 30
0.0
 11
335.995
 21
78.9838
 31
0.0
  0
LINE
  8
0
 62
     0
 10
335.995
 20
78.9838
 30
0.0
 11
349.994
 21
78.9838
 31
0.0
  0
LINE
  8
0
 62
     0
 10
349.994
 20
78.9838
 30
0.0
 11
349.994
 21
79.5831
 31
0.0
  0
LINE
  8
0
 62
     0
 10
349.994
 20
79.5831
 30
0.0
 11
350.795
 21
79.5831
 31
0.0
  0
LINE
  8
0
 62
     0
 10
350.795
 20
79.5831
 30
0.0
 11
350.795
 21
83.6828
 31
0.0
  0
LINE
  8
0
 62
     0
 10
350.795
 20
83.6828
 30
0.0
 11
351.52
 21
83.6828
 31
0.0
  0
LINE
  8
0
 62
     0
 10
351.52
 20
83.6828
 30
0.0
 11
351.52
 21
79.2138
 31
0.0
  0
LINE
  8
0
 62
     0
 10
351.52
 20
79.2138
 30
0.0
 11
353.243
 21
79.2138
 31
0.0
  0
LINE
  8
0
 62
     0
 10
353.243
 20
79.2138
 30
0.0
 11
353.243
 21
78.2327
 31
0.0
  0
LINE
  8
0
 62
     0
 10
353.243
 20
78.2327
 30
0.0
 11
356.545
 21
78.2327
 31
0.0
  0
LINE
  8
0
 62
     0
 10
356.545
 20
78.2327
 30
0.0
 11
356.545
 21
79.2138
 31
0.0
  0
LINE
  8
0
 62
     0
 10
356.545
 20
79.2138
 30
0.0
 11
358.271
 21
79.2138
 31
0.0
  0
LINE
  8
0
 62
     0
 10
358.271
 20
79.2138
 30
0.0
 11
358.271
 21
85.4837
 31
0.0
  0
LINE
  8
0
 62
     0
 10
358.271
 20
85.4837
 30
0.0
 11
359.096
 21
85.4837
 31
0.0
  0
LINE
  8
0
 62
     0
 10
359.096
 20
85.4837
 30
0.0
 11
359.096
 21
88.2826
 31
0.0
  0
LINE
  8
0
 62
     0
 10
359.096
 20
88.2826
 30
0.0
 11
358.271
 21
88.2826
 31
0.0
  0
LINE
  8
0
 62
     0
 10
358.271
 20
88.2826
 30
0.0
 11
358.271
 21
91.5127
 31
0.0
  0
LINE
  8
0
 62
     0
 10
358.271
 20
91.5127
 30
0.0
 11
356.545
 21
91.5127
 31
0.0
  0
LINE
  8
0
 62
     0
 10
356.545
 20
91.5127
 30
0.0
 11
356.545
 21
92.4348
 31
0.0
  0
LINE
  8
0
 62
     0
 10
356.545
 20
92.4348
 30
0.0
 11
353.243
 21
92.4348
 31
0.0
  0
LINE
  8
0
 62
     0
 10
353.243
 20
92.4348
 30
0.0
 11
353.243
 21
91.5127
 31
0.0
  0
LINE
  8
0
 62
     0
 10
353.243
 20
91.5127
 30
0.0
 11
351.52
 21
91.5127
 31
0.0
  0
LINE
  8
0
 62
     0
 10
351.52
 20
91.5127
 30
0.0
 11
351.52
 21
88.2826
 31
0.0
  0
LINE
  8
0
 62
     0
 10
351.52
 20
88.2826
 30
0.0
 11
350.795
 21
88.2826
 31
0.0
  0
LINE
  8
0
 62
     0
 10
350.795
 20
88.2826
 30
0.0
 11
350.795
 21
92.3837
 31
0.0
  0
LINE
  8
0
 62
     0
 10
350.795
 20
92.3837
 30
0.0
 11
349.994
 21
92.3837
 31
0.0
  0
LINE
  8
0
 62
     0
 10
349.994
 20
92.3837
 30
0.0
 11
349.994
 21
92.9831
 31
0.0
  0
LINE
  8
0
 62
     0
 10
349.994
 20
92.9831
 30
0.0
 11
335.995
 21
92.9831
 31
0.0
  0
LINE
  8
0
 62
     0
 10
307.42
 20
92.9831
 30
0.0
 11
307.42
 21
92.3837
 31
0.0
  0
LINE
  8
0
 62
     0
 10
307.42
 20
92.3837
 30
0.0
 11
306.619
 21
92.3837
 31
0.0
  0
LINE
  8
0
 62
     0
 10
306.619
 20
92.3837
 30
0.0
 11
306.619
 21
79.5831
 31
0.0
  0
LINE
  8
0
 62
     0
 10
306.619
 20
79.5831
 30
0.0
 11
307.42
 21
79.5831
 31
0.0
  0
LINE
  8
0
 62
     0
 10
307.42
 20
79.5831
 30
0.0
 11
307.42
 21
78.9838
 31
0.0
  0
LINE
  8
0
 62
     0
 10
307.42
 20
78.9838
 30
0.0
 11
321.419
 21
78.9838
 31
0.0
  0
LINE
  8
0
 62
     0
 10
321.419
 20
78.9838
 30
0.0
 11
321.419
 21
79.5831
 31
0.0
  0
LINE
  8
0
 62
     0
 10
321.419
 20
79.5831
 30
0.0
 11
322.22
 21
79.5831
 31
0.0
  0
LINE
  8
0
 62
     0
 10
322.22
 20
79.5831
 30
0.0
 11
322.22
 21
92.3837
 31
0.0
  0
LINE
  8
0
 62
     0
 10
322.22
 20
92.3837
 30
0.0
 11
321.419
 21
92.3837
 31
0.0
  0
LINE
  8
0
 62
     0
 10
321.419
 20
92.3837
 30
0.0
 11
321.419
 21
92.9831
 31
0.0
  0
LINE
  8
0
 62
     0
 10
321.419
 20
92.9831
 30
0.0
 11
307.42
 21
92.9831
 31
0.0
  0
LINE
  8
0
 62
     0
 10
288.37
 20
92.9831
 30
0.0
 11
288.37
 21
92.3837
 31
0.0
  0
LINE
  8
0
 62
     0
 10
288.37
 20
92.3837
 30
0.0
 11
287.569
 21
92.3837
 31
0.0
  0
LINE
  8
0
 62
     0
 10
287.569
 20
92.3837
 30
0.0
 11
287.569
 21
79.5831
 31
0.0
  0
LINE
  8
0
 62
     0
 10
287.569
 20
79.5831
 30
0.0
 11
288.37
 21
79.5831
 31
0.0
  0
LINE
  8
0
 62
     0
 10
288.37
 20
79.5831
 30
0.0
 11
288.37
 21
78.9838
 31
0.0
  0
LINE
  8
0
 62
     0
 10
288.37
 20
78.9838
 30
0.0
 11
302.369
 21
78.9838
 31
0.0
  0
LINE
  8
0
 62
     0
 10
302.369
 20
78.9838
 30
0.0
 11
302.369
 21
79.5831
 31
0.0
  0
LINE
  8
0
 62
     0
 10
302.369
 20
79.5831
 30
0.0
 11
303.17
 21
79.5831
 31
0.0
  0
LINE
  8
0
 62
     0
 10
303.17
 20
79.5831
 30
0.0
 11
303.17
 21
92.3837
 31
0.0
  0
LINE
  8
0
 62
     0
 10
303.17
 20
92.3837
 30
0.0
 11
302.369
 21
92.3837
 31
0.0
  0
LINE
  8
0
 62
     0
 10
302.369
 20
92.3837
 30
0.0
 11
302.369
 21
92.9831
 31
0.0
  0
LINE
  8
0
 62
     0
 10
302.369
 20
92.9831
 30
0.0
 11
288.37
 21
92.9831
 31
0.0
  0
LINE
  8
0
 62
     0
 10
269.32
 20
92.9831
 30
0.0
 11
269.32
 21
92.3837
 31
0.0
  0
LINE
  8
0
 62
     0
 10
269.32
 20
92.3837
 30
0.0
 11
268.519
 21
92.3837
 31
0.0
  0
LINE
  8
0
 62
     0
 10
268.519
 20
92.3837
 30
0.0
 11
268.519
 21
79.5831
 31
0.0
  0
LINE
  8
0
 62
     0
 10
268.519
 20
79.5831
 30
0.0
 11
269.32
 21
79.5831
 31
0.0
  0
LINE
  8
0
 62
     0
 10
269.32
 20
79.5831
 30
0.0
 11
269.32
 21
78.9838
 31
0.0
  0
LINE
  8
0
 62
     0
 10
269.32
 20
78.9838
 30
0.0
 11
283.319
 21
78.9838
 31
0.0
  0
LINE
  8
0
 62
     0
 10
283.319
 20
78.9838
 30
0.0
 11
283.319
 21
79.5831
 31
0.0
  0
LINE
  8
0
 62
     0
 10
283.319
 20
79.5831
 30
0.0
 11
284.12
 21
79.5831
 31
0.0
  0
LINE
  8
0
 62
     0
 10
284.12
 20
79.5831
 30
0.0
 11
284.12
 21
92.3837
 31
0.0
  0
LINE
  8
0
 62
     0
 10
284.12
 20
92.3837
 30
0.0
 11
283.319
 21
92.3837
 31
0.0
  0
LINE
  8
0
 62
     0
 10
283.319
 20
92.3837
 30
0.0
 11
283.319
 21
92.9831
 31
0.0
  0
LINE
  8
0
 62
     0
 10
283.319
 20
92.9831
 30
0.0
 11
269.32
 21
92.9831
 31
0.0
  0
LINE
  8
0
 62
     0
 10
250.27
 20
92.9831
 30
0.0
 11
250.27
 21
92.3837
 31
0.0
  0
LINE
  8
0
 62
     0
 10
250.27
 20
92.3837
 30
0.0
 11
249.469
 21
92.3837
 31
0.0
  0
LINE
  8
0
 62
     0
 10
249.469
 20
92.3837
 30
0.0
 11
249.469
 21
79.5831
 31
0.0
  0
LINE
  8
0
 62
     0
 10
249.469
 20
79.5831
 30
0.0
 11
250.27
 21
79.5831
 31
0.0
  0
LINE
  8
0
 62
     0
 10
250.27
 20
79.5831
 30
0.0
 11
250.27
 21
78.9838
 31
0.0
  0
LINE
  8
0
 62
     0
 10
250.27
 20
78.9838
 30
0.0
 11
264.269
 21
78.9838
 31
0.0
  0
LINE
  8
0
 62
     0
 10
264.269
 20
78.9838
 30
0.0
 11
264.269
 21
79.5831
 31
0.0
  0
LINE
  8
0
 62
     0
 10
264.269
 20
79.5831
 30
0.0
 11
265.07
 21
79.5831
 31
0.0
  0
LINE
  8
0
 62
     0
 10
265.07
 20
79.5831
 30
0.0
 11
265.07
 21
92.3837
 31
0.0
  0
LINE
  8
0
 62
     0
 10
265.07
 20
92.3837
 30
0.0
 11
264.269
 21
92.3837
 31
0.0
  0
LINE
  8
0
 62
     0
 10
264.269
 20
92.3837
 30
0.0
 11
264.269
 21
92.9831
 31
0.0
  0
LINE
  8
0
 62
     0
 10
264.269
 20
92.9831
 30
0.0
 11
250.27
 21
92.9831
 31
0.0
  0
LINE
  8
0
 62
     0
 10
231.22
 20
92.9831
 30
0.0
 11
231.22
 21
92.3837
 31
0.0
  0
LINE
  8
0
 62
     0
 10
231.22
 20
92.3837
 30
0.0
 11
230.419
 21
92.3837
 31
0.0
  0
LINE
  8
0
 62
     0
 10
230.419
 20
92.3837
 30
0.0
 11
230.419
 21
79.5831
 31
0.0
  0
LINE
  8
0
 62
     0
 10
230.419
 20
79.5831
 30
0.0
 11
231.22
 21
79.5831
 31
0.0
  0
LINE
  8
0
 62
     0
 10
231.22
 20
79.5831
 30
0.0
 11
231.22
 21
78.9838
 31
0.0
  0
LINE
  8
0
 62
     0
 10
231.22
 20
78.9838
 30
0.0
 11
245.219
 21
78.9838
 31
0.0
  0
LINE
  8
0
 62
     0
 10
245.219
 20
78.9838
 30
0.0
 11
245.219
 21
79.5831
 31
0.0
  0
LINE
  8
0
 62
     0
 10
245.219
 20
79.5831
 30
0.0
 11
246.02
 21
79.5831
 31
0.0
  0
LINE
  8
0
 62
     0
 10
246.02
 20
79.5831
 30
0.0
 11
246.02
 21
92.3837
 31
0.0
  0
LINE
  8
0
 62
     0
 10
246.02
 20
92.3837
 30
0.0
 11
245.219
 21
92.3837
 31
0.0
  0
LINE
  8
0
 62
     0
 10
245.219
 20
92.3837
 30
0.0
 11
245.219
 21
92.9831
 31
0.0
  0
LINE
  8
0
 62
     0
 10
245.219
 20
92.9831
 30
0.0
 11
231.22
 21
92.9831
 31
0.0
  0
LINE
  8
0
 62
     0
 10
212.17
 20
92.9831
 30
0.0
 11
212.17
 21
92.3837
 31
0.0
  0
LINE
  8
0
 62
     0
 10
212.17
 20
92.3837
 30
0.0
 11
211.369
 21
92.3837
 31
0.0
  0
LINE
  8
0
 62
     0
 10
211.369
 20
92.3837
 30
0.0
 11
211.369
 21
79.5831
 31
0.0
  0
LINE
  8
0
 62
     0
 10
211.369
 20
79.5831
 30
0.0
 11
212.17
 21
79.5831
 31
0.0
  0
LINE
  8
0
 62
     0
 10
212.17
 20
79.5831
 30
0.0
 11
212.17
 21
78.9838
 31
0.0
  0
LINE
  8
0
 62
     0
 10
212.17
 20
78.9838
 30
0.0
 11
226.169
 21
78.9838
 31
0.0
  0
LINE
  8
0
 62
     0
 10
226.169
 20
78.9838
 30
0.0
 11
226.169
 21
79.5831
 31
0.0
  0
LINE
  8
0
 62
     0
 10
226.169
 20
79.5831
 30
0.0
 11
226.97
 21
79.5831
 31
0.0
  0
LINE
  8
0
 62
     0
 10
226.97
 20
79.5831
 30
0.0
 11
226.97
 21
92.3837
 31
0.0
  0
LINE
  8
0
 62
     0
 10
226.97
 20
92.3837
 30
0.0
 11
226.169
 21
92.3837
 31
0.0
  0
LINE
  8
0
 62
     0
 10
226.169
 20
92.3837
 30
0.0
 11
226.169
 21
92.9831
 31
0.0
  0
LINE
  8
0
 62
     0
 10
226.169
 20
92.9831
 30
0.0
 11
212.17
 21
92.9831
 31
0.0
  0
LINE
  8
0
 62
     0
 10
193.12
 20
92.9831
 30
0.0
 11
193.12
 21
92.3837
 31
0.0
  0
LINE
  8
0
 62
     0
 10
193.12
 20
92.3837
 30
0.0
 11
192.319
 21
92.3837
 31
0.0
  0
LINE
  8
0
 62
     0
 10
192.319
 20
92.3837
 30
0.0
 11
192.319
 21
79.5831
 31
0.0
  0
LINE
  8
0
 62
     0
 10
192.319
 20
79.5831
 30
0.0
 11
193.12
 21
79.5831
 31
0.0
  0
LINE
  8
0
 62
     0
 10
193.12
 20
79.5831
 30
0.0
 11
193.12
 21
78.9838
 31
0.0
  0
LINE
  8
0
 62
     0
 10
193.12
 20
78.9838
 30
0.0
 11
207.119
 21
78.9838
 31
0.0
  0
LINE
  8
0
 62
     0
 10
207.119
 20
78.9838
 30
0.0
 11
207.119
 21
79.5831
 31
0.0
  0
LINE
  8
0
 62
     0
 10
207.119
 20
79.5831
 30
0.0
 11
207.92
 21
79.5831
 31
0.0
  0
LINE
  8
0
 62
     0
 10
207.92
 20
79.5831
 30
0.0
 11
207.92
 21
92.3837
 31
0.0
  0
LINE
  8
0
 62
     0
 10
207.92
 20
92.3837
 30
0.0
 11
207.119
 21
92.3837
 31
0.0
  0
LINE
  8
0
 62
     0
 10
207.119
 20
92.3837
 30
0.0
 11
207.119
 21
92.9831
 31
0.0
  0
LINE
  8
0
 62
     0
 10
207.119
 20
92.9831
 30
0.0
 11
193.12
 21
92.9831
 31
0.0
  0
LINE
  8
0
 62
     0
 10
174.07
 20
92.9831
 30
0.0
 11
174.07
 21
92.3837
 31
0.0
  0
LINE
  8
0
 62
     0
 10
174.07
 20
92.3837
 30
0.0
 11
173.269
 21
92.3837
 31
0.0
  0
LINE
  8
0
 62
     0
 10
173.269
 20
92.3837
 30
0.0
 11
173.269
 21
79.5831
 31
0.0
  0
LINE
  8
0
 62
     0
 10
173.269
 20
79.5831
 30
0.0
 11
174.07
 21
79.5831
 31
0.0
  0
LINE
  8
0
 62
     0
 10
174.07
 20
79.5831
 30
0.0
 11
174.07
 21
78.9838
 31
0.0
  0
LINE
  8
0
 62
     0
 10
174.07
 20
78.9838
 30
0.0
 11
188.069
 21
78.9838
 31
0.0
  0
LINE
  8
0
 62
     0
 10
188.069
 20
78.9838
 30
0.0
 11
188.069
 21
79.5831
 31
0.0
  0
LINE
  8
0
 62
     0
 10
188.069
 20
79.5831
 30
0.0
 11
188.87
 21
79.5831
 31
0.0
  0
LINE
  8
0
 62
     0
 10
188.87
 20
79.5831
 30
0.0
 11
188.87
 21
92.3837
 31
0.0
  0
LINE
  8
0
 62
     0
 10
188.87
 20
92.3837
 30
0.0
 11
188.069
 21
92.3837
 31
0.0
  0
LINE
  8
0
 62
     0
 10
188.069
 20
92.3837
 30
0.0
 11
188.069
 21
92.9831
 31
0.0
  0
LINE
  8
0
 62
     0
 10
188.069
 20
92.9831
 30
0.0
 11
174.07
 21
92.9831
 31
0.0
  0
LINE
  8
0
 62
     0
 10
155.02
 20
92.9831
 30
0.0
 11
155.02
 21
92.3837
 31
0.0
  0
LINE
  8
0
 62
     0
 10
155.02
 20
92.3837
 30
0.0
 11
154.219
 21
92.3837
 31
0.0
  0
LINE
  8
0
 62
     0
 10
154.219
 20
92.3837
 30
0.0
 11
154.219
 21
79.5831
 31
0.0
  0
LINE
  8
0
 62
     0
 10
154.219
 20
79.5831
 30
0.0
 11
155.02
 21
79.5831
 31
0.0
  0
LINE
  8
0
 62
     0
 10
155.02
 20
79.5831
 30
0.0
 11
155.02
 21
78.9838
 31
0.0
  0
LINE
  8
0
 62
     0
 10
155.02
 20
78.9838
 30
0.0
 11
169.019
 21
78.9838
 31
0.0
  0
LINE
  8
0
 62
     0
 10
169.019
 20
78.9838
 30
0.0
 11
169.019
 21
79.5831
 31
0.0
  0
LINE
  8
0
 62
     0
 10
169.019
 20
79.5831
 30
0.0
 11
169.82
 21
79.5831
 31
0.0
  0
LINE
  8
0
 62
     0
 10
169.82
 20
79.5831
 30
0.0
 11
169.82
 21
92.3837
 31
0.0
  0
LINE
  8
0
 62
     0
 10
169.82
 20
92.3837
 30
0.0
 11
169.019
 21
92.3837
 31
0.0
  0
LINE
  8
0
 62
     0
 10
169.019
 20
92.3837
 30
0.0
 11
169.019
 21
92.9831
 31
0.0
  0
LINE
  8
0
 62
     0
 10
169.019
 20
92.9831
 30
0.0
 11
155.02
 21
92.9831
 31
0.0
  0
LINE
  8
0
 62
     0
 10
135.97
 20
92.9831
 30
0.0
 11
135.97
 21
92.3837
 31
0.0
  0
LINE
  8
0
 62
     0
 10
135.97
 20
92.3837
 30
0.0
 11
135.169
 21
92.3837
 31
0.0
  0
LINE
  8
0
 62
     0
 10
135.169
 20
92.3837
 30
0.0
 11
135.169
 21
79.5831
 31
0.0
  0
LINE
  8
0
 62
     0
 10
135.169
 20
79.5831
 30
0.0
 11
135.97
 21
79.5831
 31
0.0
  0
LINE
  8
0
 62
     0
 10
135.97
 20
79.5831
 30
0.0
 11
135.97
 21
78.9838
 31
0.0
  0
LINE
  8
0
 62
     0
 10
135.97
 20
78.9838
 30
0.0
 11
149.969
 21
78.9838
 31
0.0
  0
LINE
  8
0
 62
     0
 10
149.969
 20
78.9838
 30
0.0
 11
149.969
 21
79.5831
 31
0.0
  0
LINE
  8
0
 62
     0
 10
149.969
 20
79.5831
 30
0.0
 11
150.77
 21
79.5831
 31
0.0
  0
LINE
  8
0
 62
     0
 10
150.77
 20
79.5831
 30
0.0
 11
150.77
 21
92.3837
 31
0.0
  0
LINE
  8
0
 62
     0
 10
150.77
 20
92.3837
 30
0.0
 11
149.969
 21
92.3837
 31
0.0
  0
LINE
  8
0
 62
     0
 10
149.969
 20
92.3837
 30
0.0
 11
149.969
 21
92.9831
 31
0.0
  0
LINE
  8
0
 62
     0
 10
149.969
 20
92.9831
 30
0.0
 11
135.97
 21
92.9831
 31
0.0
  0
LINE
  8
0
 62
     0
 10
116.918
 20
92.9831
 30
0.0
 11
116.918
 21
92.3837
 31
0.0
  0
LINE
  8
0
 62
     0
 10
116.918
 20
92.3837
 30
0.0
 11
116.119
 21
92.3837
 31
0.0
  0
LINE
  8
0
 62
     0
 10
116.119
 20
92.3837
 30
0.0
 11
116.119
 21
79.5831
 31
0.0
  0
LINE
  8
0
 62
     0
 10
116.119
 20
79.5831
 30
0.0
 11
116.918
 21
79.5831
 31
0.0
  0
LINE
  8
0
 62
     0
 10
116.918
 20
79.5831
 30
0.0
 11
116.918
 21
78.9838
 31
0.0
  0
LINE
  8
0
 62
     0
 10
116.918
 20
78.9838
 30
0.0
 11
130.919
 21
78.9838
 31
0.0
  0
LINE
  8
0
 62
     0
 10
130.919
 20
78.9838
 30
0.0
 11
130.919
 21
79.5831
 31
0.0
  0
LINE
  8
0
 62
     0
 10
130.919
 20
79.5831
 30
0.0
 11
131.72
 21
79.5831
 31
0.0
  0
LINE
  8
0
 62
     0
 10
131.72
 20
79.5831
 30
0.0
 11
131.72
 21
92.3837
 31
0.0
  0
LINE
  8
0
 62
     0
 10
131.72
 20
92.3837
 30
0.0
 11
130.919
 21
92.3837
 31
0.0
  0
LINE
  8
0
 62
     0
 10
130.919
 20
92.3837
 30
0.0
 11
130.919
 21
92.9831
 31
0.0
  0
LINE
  8
0
 62
     0
 10
130.919
 20
92.9831
 30
0.0
 11
116.918
 21
92.9831
 31
0.0
  0
LINE
  8
0
 62
     0
 10
97.8683
 20
92.9831
 30
0.0
 11
97.8683
 21
92.3837
 31
0.0
  0
LINE
  8
0
 62
     0
 10
97.8683
 20
92.3837
 30
0.0
 11
97.0689
 21
92.3837
 31
0.0
  0
LINE
  8
0
 62
     0
 10
97.0689
 20
92.3837
 30
0.0
 11
97.0689
 21
79.5831
 31
0.0
  0
LINE
  8
0
 62
     0
 10
97.0689
 20
79.5831
 30
0.0
 11
97.8683
 21
79.5831
 31
0.0
  0
LINE
  8
0
 62
     0
 10
97.8683
 20
79.5831
 30
0.0
 11
97.8683
 21
78.9838
 31
0.0
  0
LINE
  8
0
 62
     0
 10
97.8683
 20
78.9838
 30
0.0
 11
111.869
 21
78.9838
 31
0.0
  0
LINE
  8
0
 62
     0
 10
111.869
 20
78.9838
 30
0.0
 11
111.869
 21
79.5831
 31
0.0
  0
LINE
  8
0
 62
     0
 10
111.869
 20
79.5831
 30
0.0
 11
112.668
 21
79.5831
 31
0.0
  0
LINE
  8
0
 62
     0
 10
112.668
 20
79.5831
 30
0.0
 11
112.668
 21
92.3837
 31
0.0
  0
LINE
  8
0
 62
     0
 10
112.668
 20
92.3837
 30
0.0
 11
111.869
 21
92.3837
 31
0.0
  0
LINE
  8
0
 62
     0
 10
111.869
 20
92.3837
 30
0.0
 11
111.869
 21
92.9831
 31
0.0
  0
LINE
  8
0
 62
     0
 10
111.869
 20
92.9831
 30
0.0
 11
97.8683
 21
92.9831
 31
0.0
  0
LINE
  8
0
 62
     0
 10
78.8197
 20
92.9831
 30
0.0
 11
78.8197
 21
92.3837
 31
0.0
  0
LINE
  8
0
 62
     0
 10
78.8197
 20
92.3837
 30
0.0
 11
78.0189
 21
92.3837
 31
0.0
  0
LINE
  8
0
 62
     0
 10
78.0189
 20
92.3837
 30
0.0
 11
78.0189
 21
79.5831
 31
0.0
  0
LINE
  8
0
 62
     0
 10
78.0189
 20
79.5831
 30
0.0
 11
78.8197
 21
79.5831
 31
0.0
  0
LINE
  8
0
 62
     0
 10
78.8197
 20
79.5831
 30
0.0
 11
78.8197
 21
78.9838
 31
0.0
  0
LINE
  8
0
 62
     0
 10
78.8197
 20
78.9838
 30
0.0
 11
92.819
 21
78.9838
 31
0.0
  0
LINE
  8
0
 62
     0
 10
92.819
 20
78.9838
 30
0.0
 11
92.819
 21
79.5831
 31
0.0
  0
LINE
  8
0
 62
     0
 10
92.819
 20
79.5831
 30
0.0
 11
93.6184
 21
79.5831
 31
0.0
  0
LINE
  8
0
 62
     0
 10
93.6184
 20
79.5831
 30
0.0
 11
93.6184
 21
92.3837
 31
0.0
  0
LINE
  8
0
 62
     0
 10
93.6184
 20
92.3837
 30
0.0
 11
92.819
 21
92.3837
 31
0.0
  0
LINE
  8
0
 62
     0
 10
92.819
 20
92.3837
 30
0.0
 11
92.819
 21
92.9831
 31
0.0
  0
LINE
  8
0
 62
     0
 10
92.819
 20
92.9831
 30
0.0
 11
78.8197
 21
92.9831
 31
0.0
  0
LINE
  8
0
 62
     0
 10
59.7697
 20
92.9831
 30
0.0
 11
59.7697
 21
92.3837
 31
0.0
  0
LINE
  8
0
 62
     0
 10
59.7697
 20
92.3837
 30
0.0
 11
58.9689
 21
92.3837
 31
0.0
  0
LINE
  8
0
 62
     0
 10
58.9689
 20
92.3837
 30
0.0
 11
58.9689
 21
79.5831
 31
0.0
  0
LINE
  8
0
 62
     0
 10
58.9689
 20
79.5831
 30
0.0
 11
59.7697
 21
79.5831
 31
0.0
  0
LINE
  8
0
 62
     0
 10
59.7697
 20
79.5831
 30
0.0
 11
59.7697
 21
78.9838
 31
0.0
  0
LINE
  8
0
 62
     0
 10
59.7697
 20
78.9838
 30
0.0
 11
73.769
 21
78.9838
 31
0.0
  0
LINE
  8
0
 62
     0
 10
73.769
 20
78.9838
 30
0.0
 11
73.769
 21
79.5831
 31
0.0
  0
LINE
  8
0
 62
     0
 10
73.769
 20
79.5831
 30
0.0
 11
74.5698
 21
79.5831
 31
0.0
  0
LINE
  8
0
 62
     0
 10
74.5698
 20
79.5831
 30
0.0
 11
74.5698
 21
92.3837
 31
0.0
  0
LINE
  8
0
 62
     0
 10
74.5698
 20
92.3837
 30
0.0
 11
73.769
 21
92.3837
 31
0.0
  0
LINE
  8
0
 62
     0
 10
73.769
 20
92.3837
 30
0.0
 11
73.769
 21
92.9831
 31
0.0
  0
LINE
  8
0
 62
     0
 10
73.769
 20
92.9831
 30
0.0
 11
59.7697
 21
92.9831
 31
0.0
  0
LINE
  8
0
 62
     0
 10
40.7197
 20
92.9831
 30
0.0
 11
40.7197
 21
92.3837
 31
0.0
  0
LINE
  8
0
 62
     0
 10
40.7197
 20
92.3837
 30
0.0
 11
39.9189
 21
92.3837
 31
0.0
  0
LINE
  8
0
 62
     0
 10
39.9189
 20
92.3837
 30
0.0
 11
39.9189
 21
79.5831
 31
0.0
  0
LINE
  8
0
 62
     0
 10
39.9189
 20
79.5831
 30
0.0
 11
40.7197
 21
79.5831
 31
0.0
  0
LINE
  8
0
 62
     0
 10
40.7197
 20
79.5831
 30
0.0
 11
40.7197
 21
78.9838
 31
0.0
  0
LINE
  8
0
 62
     0
 10
40.7197
 20
78.9838
 30
0.0
 11
54.719
 21
78.9838
 31
0.0
  0
LINE
  8
0
 62
     0
 10
54.719
 20
78.9838
 30
0.0
 11
54.719
 21
79.5831
 31
0.0
  0
LINE
  8
0
 62
     0
 10
54.719
 20
79.5831
 30
0.0
 11
55.5198
 21
79.5831
 31
0.0
  0
LINE
  8
0
 62
     0
 10
55.5198
 20
79.5831
 30
0.0
 11
55.5198
 21
92.3837
 31
0.0
  0
LINE
  8
0
 62
     0
 10
55.5198
 20
92.3837
 30
0.0
 11
54.719
 21
92.3837
 31
0.0
  0
LINE
  8
0
 62
     0
 10
54.719
 20
92.3837
 30
0.0
 11
54.719
 21
92.9831
 31
0.0
  0
LINE
  8
0
 62
     0
 10
54.719
 20
92.9831
 30
0.0
 11
40.7197
 21
92.9831
 31
0.0
  0
LINE
  8
0
 62
     0
 10
21.6697
 20
92.9831
 30
0.0
 11
21.6697
 21
92.3837
 31
0.0
  0
LINE
  8
0
 62
     0
 10
21.6697
 20
92.3837
 30
0.0
 11
20.869
 21
92.3837
 31
0.0
  0
LINE
  8
0
 62
     0
 10
20.869
 20
92.3837
 30
0.0
 11
20.869
 21
79.5831
 31
0.0
  0
LINE
  8
0
 62
     0
 10
20.869
 20
79.5831
 30
0.0
 11
21.6697
 21
79.5831
 31
0.0
  0
LINE
  8
0
 62
     0
 10
21.6697
 20
79.5831
 30
0.0
 11
21.6697
 21
78.9838
 31
0.0
  0
LINE
  8
0
 62
     0
 10
21.6697
 20
78.9838
 30
0.0
 11
35.669
 21
78.9838
 31
0.0
  0
LINE
  8
0
 62
     0
 10
35.669
 20
78.9838
 30
0.0
 11
35.669
 21
79.5831
 31
0.0
  0
LINE
  8
0
 62
     0
 10
35.669
 20
79.5831
 30
0.0
 11
36.4698
 21
79.5831
 31
0.0
  0
LINE
  8
0
 62
     0
 10
36.4698
 20
79.5831
 30
0.0
 11
36.4698
 21
92.3837
 31
0.0
  0
LINE
  8
0
 62
     0
 10
36.4698
 20
92.3837
 30
0.0
 11
35.669
 21
92.3837
 31
0.0
  0
LINE
  8
0
 62
     0
 10
35.669
 20
92.3837
 30
0.0
 11
35.669
 21
92.9831
 31
0.0
  0
LINE
  8
0
 62
     0
 10
35.669
 20
92.9831
 30
0.0
 11
21.6697
 21
92.9831
 31
0.0
  0
LINE
  8
0
 62
     0
 10
2.61965
 20
92.9831
 30
0.0
 11
2.61965
 21
92.3837
 31
0.0
  0
LINE
  8
0
 62
     0
 10
2.61965
 20
92.3837
 30
0.0
 11
1.81901
 21
92.3837
 31
0.0
  0
LINE
  8
0
 62
     0
 10
1.81901
 20
92.3837
 30
0.0
 11
1.81901
 21
79.5831
 31
0.0
  0
LINE
  8
0
 62
     0
 10
1.81901
 20
79.5831
 30
0.0
 11
2.61965
 21
79.5831
 31
0.0
  0
LINE
  8
0
 62
     0
 10
2.61965
 20
79.5831
 30
0.0
 11
2.61965
 21
78.9838
 31
0.0
  0
LINE
  8
0
 62
     0
 10
2.61965
 20
78.9838
 30
0.0
 11
16.6192
 21
78.9838
 31
0.0
  0
LINE
  8
0
 62
     0
 10
16.6192
 20
78.9838
 30
0.0
 11
16.6192
 21
79.5831
 31
0.0
  0
LINE
  8
0
 62
     0
 10
16.6192
 20
79.5831
 30
0.0
 11
17.4198
 21
79.5831
 31
0.0
  0
LINE
  8
0
 62
     0
 10
17.4198
 20
79.5831
 30
0.0
 11
17.4198
 21
92.3837
 31
0.0
  0
LINE
  8
0
 62
     0
 10
17.4198
 20
92.3837
 30
0.0
 11
16.6192
 21
92.3837
 31
0.0
  0
LINE
  8
0
 62
     0
 10
16.6192
 20
92.3837
 30
0.0
 11
16.6192
 21
92.9831
 31
0.0
  0
LINE
  8
0
 62
     0
 10
16.6192
 20
92.9831
 30
0.0
 11
2.61965
 21
92.9831
 31
0.0
  0
ENDSEC
  0
EOF
