G04 #@! TF.GenerationSoftware,KiCad,Pcbnew,5.1.6*
G04 #@! TF.CreationDate,2020-07-30T11:30:43-04:00*
G04 #@! TF.ProjectId,southpawpcb,736f7574-6870-4617-9770-63622e6b6963,rev?*
G04 #@! TF.SameCoordinates,Original*
G04 #@! TF.FileFunction,Soldermask,Top*
G04 #@! TF.FilePolarity,Negative*
%FSLAX46Y46*%
G04 Gerber Fmt 4.6, Leading zero omitted, Abs format (unit mm)*
G04 Created by KiCad (PCBNEW 5.1.6) date 2020-07-30 11:30:43*
%MOMM*%
%LPD*%
G01*
G04 APERTURE LIST*
%ADD10R,1.700000X1.700000*%
%ADD11C,1.700000*%
%ADD12C,4.087800*%
%ADD13C,1.850000*%
%ADD14R,1.300000X1.300000*%
%ADD15C,3.148000*%
%ADD16C,1.801800*%
G04 APERTURE END LIST*
D10*
G04 #@! TO.C,U1*
X50582500Y23457600D03*
D11*
X50582500Y20917600D03*
X50582500Y18377600D03*
X50582500Y15837600D03*
X50582500Y13297600D03*
X50582500Y10757600D03*
X50582500Y8217600D03*
X50582500Y5677600D03*
X50582500Y3137600D03*
X50582500Y597600D03*
X50582500Y-1942400D03*
X50582500Y-4482400D03*
X35342500Y-4482400D03*
X35342500Y-1942400D03*
X35342500Y597600D03*
X35342500Y3137600D03*
X35342500Y5677600D03*
X35342500Y8217600D03*
X35342500Y10757600D03*
X35342500Y13297600D03*
X35342500Y15837600D03*
X35342500Y18377600D03*
X35342500Y20917600D03*
X35342500Y23457600D03*
G04 #@! TD*
D12*
G04 #@! TO.C,K46*
X228643000Y-26900000D03*
D13*
X223563000Y-26900000D03*
X233723000Y-26900000D03*
G04 #@! TD*
D14*
G04 #@! TO.C,D7*
X136581000Y20725000D03*
X139731000Y20725000D03*
D10*
X134256000Y20725000D03*
D11*
X142056000Y20725000D03*
G04 #@! TD*
D12*
G04 #@! TO.C,K65*
X257219000Y-45950000D03*
D13*
X252139000Y-45950000D03*
X262299000Y-45950000D03*
G04 #@! TD*
D11*
G04 #@! TO.C,D48*
X270643000Y-17375000D03*
D10*
X262843000Y-17375000D03*
D14*
X268318000Y-17375000D03*
X265168000Y-17375000D03*
G04 #@! TD*
D12*
G04 #@! TO.C,K77*
X316750000Y-65000000D03*
D13*
X311670000Y-65000000D03*
X321830000Y-65000000D03*
G04 #@! TD*
D14*
G04 #@! TO.C,D72*
X100819000Y-55475000D03*
X103969000Y-55475000D03*
D10*
X98494000Y-55475000D03*
D11*
X106294000Y-55475000D03*
G04 #@! TD*
D13*
G04 #@! TO.C,K59*
X147999000Y-45950000D03*
X137839000Y-45950000D03*
D12*
X142919000Y-45950000D03*
G04 #@! TD*
D14*
G04 #@! TO.C,D39*
X60381200Y-17375000D03*
X63531200Y-17375000D03*
D10*
X58056200Y-17375000D03*
D11*
X65856200Y-17375000D03*
G04 #@! TD*
D13*
G04 #@! TO.C,K25*
X152761000Y-7850000D03*
X142601000Y-7850000D03*
D12*
X147681000Y-7850000D03*
G04 #@! TD*
G04 #@! TO.C,K8*
X157206000Y11200000D03*
D13*
X152126000Y11200000D03*
X162286000Y11200000D03*
G04 #@! TD*
D11*
G04 #@! TO.C,D2*
X46806200Y20725000D03*
D10*
X39006200Y20725000D03*
D14*
X44481200Y20725000D03*
X41331200Y20725000D03*
G04 #@! TD*
D11*
G04 #@! TO.C,D50*
X308743000Y-17375000D03*
D10*
X300943000Y-17375000D03*
D14*
X306418000Y-17375000D03*
X303268000Y-17375000D03*
G04 #@! TD*
D12*
G04 #@! TO.C,K28*
X204831000Y-7850000D03*
D13*
X199751000Y-7850000D03*
X209911000Y-7850000D03*
G04 #@! TD*
D14*
G04 #@! TO.C,D21*
X60381200Y1675000D03*
X63531200Y1675000D03*
D10*
X58056200Y1675000D03*
D11*
X65856200Y1675000D03*
G04 #@! TD*
G04 #@! TO.C,D53*
X27756200Y-36425000D03*
D10*
X19956200Y-36425000D03*
D14*
X25431200Y-36425000D03*
X22281200Y-36425000D03*
G04 #@! TD*
D11*
G04 #@! TO.C,D26*
X170631000Y1675000D03*
D10*
X162831000Y1675000D03*
D14*
X168306000Y1675000D03*
X165156000Y1675000D03*
G04 #@! TD*
G04 #@! TO.C,D60*
X160394000Y-36425000D03*
X163544000Y-36425000D03*
D10*
X158069000Y-36425000D03*
D11*
X165869000Y-36425000D03*
G04 #@! TD*
G04 #@! TO.C,D42*
X156343000Y-17375000D03*
D10*
X148543000Y-17375000D03*
D14*
X154018000Y-17375000D03*
X150868000Y-17375000D03*
G04 #@! TD*
D11*
G04 #@! TO.C,D4*
X84906200Y20725000D03*
D10*
X77106200Y20725000D03*
D14*
X82581200Y20725000D03*
X79431200Y20725000D03*
G04 #@! TD*
D12*
G04 #@! TO.C,K27*
X185781000Y-7850000D03*
D13*
X180701000Y-7850000D03*
X190861000Y-7850000D03*
G04 #@! TD*
D14*
G04 #@! TO.C,D3*
X60381200Y20725000D03*
X63531200Y20725000D03*
D10*
X58056200Y20725000D03*
D11*
X65856200Y20725000D03*
G04 #@! TD*
D12*
G04 #@! TO.C,K5*
X100056000Y11200000D03*
D13*
X94976000Y11200000D03*
X105136000Y11200000D03*
G04 #@! TD*
G04 #@! TO.C,K64*
X243249000Y-45950000D03*
X233089000Y-45950000D03*
D12*
X238169000Y-45950000D03*
G04 #@! TD*
D14*
G04 #@! TO.C,D25*
X146106000Y1675000D03*
X149256000Y1675000D03*
D10*
X143781000Y1675000D03*
D11*
X151581000Y1675000D03*
G04 #@! TD*
G04 #@! TO.C,D71*
X65812500Y-55475000D03*
D10*
X58012500Y-55475000D03*
D14*
X63487500Y-55475000D03*
X60337500Y-55475000D03*
G04 #@! TD*
D13*
G04 #@! TO.C,K67*
X300399000Y-45950000D03*
X290239000Y-45950000D03*
D12*
X295319000Y-45950000D03*
G04 #@! TD*
D11*
G04 #@! TO.C,D78*
X343762000Y-54768800D03*
D10*
X351562000Y-54768800D03*
D14*
X346087000Y-54768800D03*
X349237000Y-54768800D03*
G04 #@! TD*
D11*
G04 #@! TO.C,D77*
X312806000Y-55475000D03*
D10*
X320606000Y-55475000D03*
D14*
X315131000Y-55475000D03*
X318281000Y-55475000D03*
G04 #@! TD*
G04 #@! TO.C,D45*
X208018000Y-17375000D03*
X211168000Y-17375000D03*
D10*
X205693000Y-17375000D03*
D11*
X213493000Y-17375000D03*
G04 #@! TD*
G04 #@! TO.C,D16*
X313506000Y20725000D03*
D10*
X305706000Y20725000D03*
D14*
X311181000Y20725000D03*
X308031000Y20725000D03*
G04 #@! TD*
D12*
G04 #@! TO.C,K26*
X166731000Y-7850000D03*
D13*
X161651000Y-7850000D03*
X171811000Y-7850000D03*
G04 #@! TD*
G04 #@! TO.C,K6*
X124186000Y11200000D03*
X114026000Y11200000D03*
D12*
X119106000Y11200000D03*
G04 #@! TD*
D11*
G04 #@! TO.C,D22*
X71481200Y-13475000D03*
D10*
X71481200Y-21275000D03*
D14*
X71481200Y-15800000D03*
X71481200Y-18950000D03*
G04 #@! TD*
D11*
G04 #@! TO.C,D10*
X204831000Y15100000D03*
D10*
X204831000Y7300000D03*
D14*
X204831000Y12775000D03*
X204831000Y9625000D03*
G04 #@! TD*
D13*
G04 #@! TO.C,K30*
X248011000Y-7850000D03*
X237851000Y-7850000D03*
D12*
X242931000Y-7850000D03*
G04 #@! TD*
D14*
G04 #@! TO.C,D54*
X41331200Y-36425000D03*
X44481200Y-36425000D03*
D10*
X39006200Y-36425000D03*
D11*
X46806200Y-36425000D03*
G04 #@! TD*
D14*
G04 #@! TO.C,D19*
X22281200Y1675000D03*
X25431200Y1675000D03*
D10*
X19956200Y1675000D03*
D11*
X27756200Y1675000D03*
G04 #@! TD*
D13*
G04 #@! TO.C,K35*
X343261000Y-7850000D03*
X333101000Y-7850000D03*
D12*
X338181000Y-7850000D03*
G04 #@! TD*
D14*
G04 #@! TO.C,D57*
X100819000Y-36425000D03*
X103969000Y-36425000D03*
D10*
X98494000Y-36425000D03*
D11*
X106294000Y-36425000D03*
G04 #@! TD*
D13*
G04 #@! TO.C,K31*
X267061000Y-7850000D03*
X256901000Y-7850000D03*
D12*
X261981000Y-7850000D03*
G04 #@! TD*
D14*
G04 #@! TO.C,D47*
X246118000Y-17375000D03*
X249268000Y-17375000D03*
D10*
X243793000Y-17375000D03*
D11*
X251593000Y-17375000D03*
G04 #@! TD*
D14*
G04 #@! TO.C,D15*
X300081000Y9625000D03*
X300081000Y12775000D03*
D10*
X300081000Y7300000D03*
D11*
X300081000Y15100000D03*
G04 #@! TD*
G04 #@! TO.C,D67*
X299219000Y-36425000D03*
D10*
X291419000Y-36425000D03*
D14*
X296894000Y-36425000D03*
X293744000Y-36425000D03*
G04 #@! TD*
D12*
G04 #@! TO.C,K40*
X107200000Y-26900000D03*
D13*
X102120000Y-26900000D03*
X112280000Y-26900000D03*
G04 #@! TD*
D12*
G04 #@! TO.C,K63*
X219119000Y-45950000D03*
D13*
X214039000Y-45950000D03*
X224199000Y-45950000D03*
G04 #@! TD*
G04 #@! TO.C,K41*
X138473000Y-26900000D03*
X128313000Y-26900000D03*
D12*
X133393000Y-26900000D03*
G04 #@! TD*
D11*
G04 #@! TO.C,D36*
X373856000Y-12768800D03*
D10*
X373856000Y-20568800D03*
D14*
X373856000Y-15093800D03*
X373856000Y-18243800D03*
G04 #@! TD*
G04 #@! TO.C,D62*
X198494000Y-36425000D03*
X201644000Y-36425000D03*
D10*
X196169000Y-36425000D03*
D11*
X203969000Y-36425000D03*
G04 #@! TD*
D14*
G04 #@! TO.C,D61*
X179444000Y-36425000D03*
X182594000Y-36425000D03*
D10*
X177119000Y-36425000D03*
D11*
X184919000Y-36425000D03*
G04 #@! TD*
G04 #@! TO.C,D52*
X346800000Y-17375000D03*
D10*
X339000000Y-17375000D03*
D14*
X344475000Y-17375000D03*
X341325000Y-17375000D03*
G04 #@! TD*
D12*
G04 #@! TO.C,K43*
X171493000Y-26900000D03*
D13*
X166413000Y-26900000D03*
X176573000Y-26900000D03*
G04 #@! TD*
G04 #@! TO.C,K73*
X131286000Y-65000000D03*
X121126000Y-65000000D03*
D12*
X126206000Y-65000000D03*
G04 #@! TD*
D14*
G04 #@! TO.C,D37*
X22281200Y-17375000D03*
X25431200Y-17375000D03*
D10*
X19956200Y-17375000D03*
D11*
X27756200Y-17375000D03*
G04 #@! TD*
D12*
G04 #@! TO.C,K49*
X285793000Y-26900000D03*
D13*
X280713000Y-26900000D03*
X290873000Y-26900000D03*
G04 #@! TD*
G04 #@! TO.C,K72*
X107474000Y-65000000D03*
X97314000Y-65000000D03*
D12*
X102394000Y-65000000D03*
G04 #@! TD*
D14*
G04 #@! TO.C,D65*
X255644000Y-36425000D03*
X258794000Y-36425000D03*
D10*
X253319000Y-36425000D03*
D11*
X261119000Y-36425000D03*
G04 #@! TD*
D12*
G04 #@! TO.C,K15*
X290556000Y11200000D03*
D13*
X285476000Y11200000D03*
X295636000Y11200000D03*
G04 #@! TD*
D14*
G04 #@! TO.C,D14*
X269931000Y20725000D03*
X273081000Y20725000D03*
D10*
X267606000Y20725000D03*
D11*
X275406000Y20725000D03*
G04 #@! TD*
D14*
G04 #@! TO.C,D68*
X312750000Y-36425000D03*
X315900000Y-36425000D03*
D10*
X310425000Y-36425000D03*
D11*
X318225000Y-36425000D03*
G04 #@! TD*
G04 #@! TO.C,D18*
X361131000Y20725000D03*
D10*
X353331000Y20725000D03*
D14*
X358806000Y20725000D03*
X355656000Y20725000D03*
G04 #@! TD*
D11*
G04 #@! TO.C,D38*
X46806200Y-17375000D03*
D10*
X39006200Y-17375000D03*
D14*
X44481200Y-17375000D03*
X41331200Y-17375000D03*
G04 #@! TD*
D11*
G04 #@! TO.C,D12*
X237306000Y20725000D03*
D10*
X229506000Y20725000D03*
D14*
X234981000Y20725000D03*
X231831000Y20725000D03*
G04 #@! TD*
D12*
G04 #@! TO.C,K22*
X89261200Y-5437000D03*
X89261200Y-29313000D03*
D15*
X74021200Y-5437000D03*
X74021200Y-29313000D03*
D13*
X81006200Y-12295000D03*
X81006200Y-22455000D03*
D12*
X81006200Y-17375000D03*
G04 #@! TD*
D11*
G04 #@! TO.C,D58*
X127769000Y-36425000D03*
D10*
X119969000Y-36425000D03*
D14*
X125444000Y-36425000D03*
X122294000Y-36425000D03*
G04 #@! TD*
D11*
G04 #@! TO.C,D34*
X323031000Y1675000D03*
D10*
X315231000Y1675000D03*
D14*
X320706000Y1675000D03*
X317556000Y1675000D03*
G04 #@! TD*
D11*
G04 #@! TO.C,D20*
X46806200Y1675000D03*
D10*
X39006200Y1675000D03*
D14*
X44481200Y1675000D03*
X41331200Y1675000D03*
G04 #@! TD*
G04 #@! TO.C,D69*
X348469000Y-35718800D03*
X351619000Y-35718800D03*
D10*
X346144000Y-35718800D03*
D11*
X353944000Y-35718800D03*
G04 #@! TD*
D13*
G04 #@! TO.C,K16*
X314686000Y11200000D03*
X304526000Y11200000D03*
D12*
X309606000Y11200000D03*
G04 #@! TD*
D13*
G04 #@! TO.C,K37*
X28936200Y-26900000D03*
X18776200Y-26900000D03*
D12*
X23856200Y-26900000D03*
G04 #@! TD*
G04 #@! TO.C,K9*
X176256000Y11200000D03*
D13*
X171176000Y11200000D03*
X181336000Y11200000D03*
G04 #@! TD*
D12*
G04 #@! TO.C,K54*
X42906200Y-45950000D03*
D13*
X37826200Y-45950000D03*
X47986200Y-45950000D03*
G04 #@! TD*
D12*
G04 #@! TO.C,K51*
X323893000Y-26900000D03*
D13*
X318813000Y-26900000D03*
X328973000Y-26900000D03*
G04 #@! TD*
D12*
G04 #@! TO.C,K11*
X214356000Y11200000D03*
D13*
X209276000Y11200000D03*
X219436000Y11200000D03*
G04 #@! TD*
G04 #@! TO.C,K14*
X276586000Y11200000D03*
X266426000Y11200000D03*
D12*
X271506000Y11200000D03*
G04 #@! TD*
D11*
G04 #@! TO.C,D40*
X111100000Y-17375000D03*
D10*
X103300000Y-17375000D03*
D14*
X108775000Y-17375000D03*
X105625000Y-17375000D03*
G04 #@! TD*
D13*
G04 #@! TO.C,K10*
X200386000Y11200000D03*
X190226000Y11200000D03*
D12*
X195306000Y11200000D03*
G04 #@! TD*
G04 #@! TO.C,K62*
X200069000Y-45950000D03*
D13*
X194989000Y-45950000D03*
X205149000Y-45950000D03*
G04 #@! TD*
D12*
G04 #@! TO.C,K60*
X161969000Y-45950000D03*
D13*
X156889000Y-45950000D03*
X167049000Y-45950000D03*
G04 #@! TD*
D12*
G04 #@! TO.C,K58*
X123869000Y-45950000D03*
D13*
X118789000Y-45950000D03*
X128949000Y-45950000D03*
G04 #@! TD*
D12*
G04 #@! TO.C,K38*
X42906200Y-26900000D03*
D13*
X37826200Y-26900000D03*
X47986200Y-26900000D03*
G04 #@! TD*
D11*
G04 #@! TO.C,D56*
X71481200Y-51575000D03*
D10*
X71481200Y-59375000D03*
D14*
X71481200Y-53900000D03*
X71481200Y-57050000D03*
G04 #@! TD*
D13*
G04 #@! TO.C,K55*
X67036200Y-45950000D03*
X56876200Y-45950000D03*
D12*
X61956200Y-45950000D03*
G04 #@! TD*
D13*
G04 #@! TO.C,K50*
X309923000Y-26900000D03*
X299763000Y-26900000D03*
D12*
X304843000Y-26900000D03*
G04 #@! TD*
G04 #@! TO.C,K56*
X89261200Y-43537000D03*
X89261200Y-67413000D03*
D15*
X74021200Y-43537000D03*
X74021200Y-67413000D03*
D13*
X81006200Y-50395000D03*
X81006200Y-60555000D03*
D12*
X81006200Y-55475000D03*
G04 #@! TD*
D13*
G04 #@! TO.C,K39*
X67036200Y-26900000D03*
X56876200Y-26900000D03*
D12*
X61956200Y-26900000D03*
G04 #@! TD*
D13*
G04 #@! TO.C,K12*
X238486000Y11200000D03*
X228326000Y11200000D03*
D12*
X233406000Y11200000D03*
G04 #@! TD*
D14*
G04 #@! TO.C,D23*
X103244000Y1675000D03*
X106394000Y1675000D03*
D10*
X100919000Y1675000D03*
D11*
X108719000Y1675000D03*
G04 #@! TD*
D13*
G04 #@! TO.C,K61*
X186099000Y-45950000D03*
X175939000Y-45950000D03*
D12*
X181019000Y-45950000D03*
G04 #@! TD*
G04 #@! TO.C,K48*
X266743000Y-26900000D03*
D13*
X261663000Y-26900000D03*
X271823000Y-26900000D03*
G04 #@! TD*
G04 #@! TO.C,K53*
X28936200Y-45950000D03*
X18776200Y-45950000D03*
D12*
X23856200Y-45950000D03*
G04 #@! TD*
G04 #@! TO.C,K76*
X292938000Y-65000000D03*
D13*
X287858000Y-65000000D03*
X298018000Y-65000000D03*
G04 #@! TD*
D14*
G04 #@! TO.C,D17*
X327081000Y20725000D03*
X330231000Y20725000D03*
D10*
X324756000Y20725000D03*
D11*
X332556000Y20725000D03*
G04 #@! TD*
D12*
G04 #@! TO.C,K42*
X152443000Y-26900000D03*
D13*
X147363000Y-26900000D03*
X157523000Y-26900000D03*
G04 #@! TD*
G04 #@! TO.C,K20*
X47986200Y-7850000D03*
X37826200Y-7850000D03*
D12*
X42906200Y-7850000D03*
G04 #@! TD*
D13*
G04 #@! TO.C,K44*
X195623000Y-26900000D03*
X185463000Y-26900000D03*
D12*
X190543000Y-26900000D03*
G04 #@! TD*
D11*
G04 #@! TO.C,D32*
X284931000Y1675000D03*
D10*
X277131000Y1675000D03*
D14*
X282606000Y1675000D03*
X279456000Y1675000D03*
G04 #@! TD*
D12*
G04 #@! TO.C,K29*
X223881000Y-7850000D03*
D13*
X218801000Y-7850000D03*
X228961000Y-7850000D03*
G04 #@! TD*
D14*
G04 #@! TO.C,D31*
X260406000Y1675000D03*
X263556000Y1675000D03*
D10*
X258081000Y1675000D03*
D11*
X265881000Y1675000D03*
G04 #@! TD*
D14*
G04 #@! TO.C,D9*
X174681000Y20725000D03*
X177831000Y20725000D03*
D10*
X172356000Y20725000D03*
D11*
X180156000Y20725000D03*
G04 #@! TD*
D13*
G04 #@! TO.C,K21*
X67036200Y-7850000D03*
X56876200Y-7850000D03*
D12*
X61956200Y-7850000D03*
G04 #@! TD*
D11*
G04 #@! TO.C,D64*
X242069000Y-36425000D03*
D10*
X234269000Y-36425000D03*
D14*
X239744000Y-36425000D03*
X236594000Y-36425000D03*
G04 #@! TD*
D11*
G04 #@! TO.C,D74*
X153919000Y-55475000D03*
D10*
X146119000Y-55475000D03*
D14*
X151594000Y-55475000D03*
X148444000Y-55475000D03*
G04 #@! TD*
D12*
G04 #@! TO.C,K3*
X61956200Y11200000D03*
D13*
X56876200Y11200000D03*
X67036200Y11200000D03*
G04 #@! TD*
D11*
G04 #@! TO.C,D76*
X296794000Y-55475000D03*
D10*
X288994000Y-55475000D03*
D14*
X294469000Y-55475000D03*
X291319000Y-55475000D03*
G04 #@! TD*
G04 #@! TO.C,D49*
X284218000Y-17375000D03*
X287368000Y-17375000D03*
D10*
X281893000Y-17375000D03*
D11*
X289693000Y-17375000D03*
G04 #@! TD*
D13*
G04 #@! TO.C,K4*
X86086200Y11200000D03*
X75926200Y11200000D03*
D12*
X81006200Y11200000D03*
G04 #@! TD*
D13*
G04 #@! TO.C,K2*
X47986200Y11200000D03*
X37826200Y11200000D03*
D12*
X42906200Y11200000D03*
G04 #@! TD*
D14*
G04 #@! TO.C,D70*
X31762500Y-55475000D03*
X34912500Y-55475000D03*
D10*
X29437500Y-55475000D03*
D11*
X37237500Y-55475000D03*
G04 #@! TD*
D12*
G04 #@! TO.C,K7*
X138156000Y11200000D03*
D13*
X133076000Y11200000D03*
X143236000Y11200000D03*
G04 #@! TD*
D12*
G04 #@! TO.C,K23*
X104819000Y-7850000D03*
D13*
X99739000Y-7850000D03*
X109899000Y-7850000D03*
G04 #@! TD*
D11*
G04 #@! TO.C,D75*
X225356000Y-55475000D03*
D10*
X217556000Y-55475000D03*
D14*
X223031000Y-55475000D03*
X219881000Y-55475000D03*
G04 #@! TD*
D13*
G04 #@! TO.C,K66*
X281349000Y-45950000D03*
X271189000Y-45950000D03*
D12*
X276269000Y-45950000D03*
G04 #@! TD*
D11*
G04 #@! TO.C,D8*
X161106000Y20725000D03*
D10*
X153306000Y20725000D03*
D14*
X158781000Y20725000D03*
X155631000Y20725000D03*
G04 #@! TD*
G04 #@! TO.C,D28*
X203256000Y1675000D03*
X206406000Y1675000D03*
D10*
X200931000Y1675000D03*
D11*
X208731000Y1675000D03*
G04 #@! TD*
D14*
G04 #@! TO.C,D13*
X250881000Y20725000D03*
X254031000Y20725000D03*
D10*
X248556000Y20725000D03*
D11*
X256356000Y20725000D03*
G04 #@! TD*
D12*
G04 #@! TO.C,K13*
X252456000Y11200000D03*
D13*
X247376000Y11200000D03*
X257536000Y11200000D03*
G04 #@! TD*
D14*
G04 #@! TO.C,D66*
X274694000Y-36425000D03*
X277844000Y-36425000D03*
D10*
X272369000Y-36425000D03*
D11*
X280169000Y-36425000D03*
G04 #@! TD*
G04 #@! TO.C,D6*
X123006000Y20725000D03*
D10*
X115206000Y20725000D03*
D14*
X120681000Y20725000D03*
X117531000Y20725000D03*
G04 #@! TD*
D11*
G04 #@! TO.C,D44*
X194443000Y-17375000D03*
D10*
X186643000Y-17375000D03*
D14*
X192118000Y-17375000D03*
X188968000Y-17375000D03*
G04 #@! TD*
D12*
G04 #@! TO.C,K32*
X281031000Y-7850000D03*
D13*
X275951000Y-7850000D03*
X286111000Y-7850000D03*
G04 #@! TD*
G04 #@! TO.C,K45*
X214673000Y-26900000D03*
X204513000Y-26900000D03*
D12*
X209593000Y-26900000D03*
G04 #@! TD*
D11*
G04 #@! TO.C,D46*
X232543000Y-17375000D03*
D10*
X224743000Y-17375000D03*
D14*
X230218000Y-17375000D03*
X227068000Y-17375000D03*
G04 #@! TD*
D13*
G04 #@! TO.C,K78*
X345642000Y-65000000D03*
X335482000Y-65000000D03*
D12*
X340562000Y-65000000D03*
G04 #@! TD*
D13*
G04 #@! TO.C,K34*
X324211000Y-7850000D03*
X314051000Y-7850000D03*
D12*
X319131000Y-7850000D03*
G04 #@! TD*
D13*
G04 #@! TO.C,K17*
X333736000Y11200000D03*
X323576000Y11200000D03*
D12*
X328656000Y11200000D03*
G04 #@! TD*
D13*
G04 #@! TO.C,K47*
X252773000Y-26900000D03*
X242613000Y-26900000D03*
D12*
X247693000Y-26900000D03*
G04 #@! TD*
G04 #@! TO.C,K33*
X300081000Y-7850000D03*
D13*
X295001000Y-7850000D03*
X305161000Y-7850000D03*
G04 #@! TD*
D12*
G04 #@! TO.C,K18*
X357231000Y11200000D03*
D13*
X352151000Y11200000D03*
X362311000Y11200000D03*
D15*
X345293000Y18185000D03*
X369169000Y18185000D03*
D12*
X345293000Y2945000D03*
X369169000Y2945000D03*
G04 #@! TD*
D14*
G04 #@! TO.C,D51*
X322318000Y-17375000D03*
X325468000Y-17375000D03*
D10*
X319993000Y-17375000D03*
D11*
X327793000Y-17375000D03*
G04 #@! TD*
D14*
G04 #@! TO.C,D11*
X212781000Y20725000D03*
X215931000Y20725000D03*
D10*
X210456000Y20725000D03*
D11*
X218256000Y20725000D03*
G04 #@! TD*
G04 #@! TO.C,D63*
X223019000Y-36425000D03*
D10*
X215219000Y-36425000D03*
D14*
X220694000Y-36425000D03*
X217544000Y-36425000D03*
G04 #@! TD*
G04 #@! TO.C,D29*
X222306000Y1675000D03*
X225456000Y1675000D03*
D10*
X219981000Y1675000D03*
D11*
X227781000Y1675000D03*
G04 #@! TD*
D14*
G04 #@! TO.C,D55*
X60381200Y-36425000D03*
X63531200Y-36425000D03*
D10*
X58056200Y-36425000D03*
D11*
X65856200Y-36425000D03*
G04 #@! TD*
D14*
G04 #@! TO.C,D5*
X109581000Y9625000D03*
X109581000Y12775000D03*
D10*
X109581000Y7300000D03*
D11*
X109581000Y15100000D03*
G04 #@! TD*
D14*
G04 #@! TO.C,D43*
X169918000Y-17375000D03*
X173068000Y-17375000D03*
D10*
X167593000Y-17375000D03*
D11*
X175393000Y-17375000D03*
G04 #@! TD*
G04 #@! TO.C,D73*
X130106000Y-55475000D03*
D10*
X122306000Y-55475000D03*
D14*
X127781000Y-55475000D03*
X124631000Y-55475000D03*
G04 #@! TD*
G04 #@! TO.C,D33*
X298506000Y1675000D03*
X301656000Y1675000D03*
D10*
X296181000Y1675000D03*
D11*
X303981000Y1675000D03*
G04 #@! TD*
G04 #@! TO.C,D30*
X246831000Y1675000D03*
D10*
X239031000Y1675000D03*
D14*
X244506000Y1675000D03*
X241356000Y1675000D03*
G04 #@! TD*
D12*
G04 #@! TO.C,K19*
X23856200Y-7850000D03*
D13*
X18776200Y-7850000D03*
X28936200Y-7850000D03*
G04 #@! TD*
D14*
G04 #@! TO.C,D35*
X334225000Y1675000D03*
X337375000Y1675000D03*
D10*
X331900000Y1675000D03*
D11*
X339700000Y1675000D03*
G04 #@! TD*
D13*
G04 #@! TO.C,K24*
X133711000Y-7850000D03*
X123551000Y-7850000D03*
D12*
X128631000Y-7850000D03*
G04 #@! TD*
D11*
G04 #@! TO.C,D24*
X132531000Y1675000D03*
D10*
X124731000Y1675000D03*
D14*
X130206000Y1675000D03*
X127056000Y1675000D03*
G04 #@! TD*
D11*
G04 #@! TO.C,D59*
X146819000Y-36425000D03*
D10*
X139019000Y-36425000D03*
D14*
X144494000Y-36425000D03*
X141344000Y-36425000D03*
G04 #@! TD*
G04 #@! TO.C,D41*
X131818000Y-17375000D03*
X134968000Y-17375000D03*
D10*
X129493000Y-17375000D03*
D11*
X137293000Y-17375000D03*
G04 #@! TD*
D14*
G04 #@! TO.C,D1*
X22281200Y20725000D03*
X25431200Y20725000D03*
D10*
X19956200Y20725000D03*
D11*
X27756200Y20725000D03*
G04 #@! TD*
G04 #@! TO.C,D27*
X189681000Y1675000D03*
D10*
X181881000Y1675000D03*
D14*
X187356000Y1675000D03*
X184206000Y1675000D03*
G04 #@! TD*
D12*
G04 #@! TO.C,K1*
X23856200Y11200000D03*
D13*
X18776200Y11200000D03*
X28936200Y11200000D03*
G04 #@! TD*
D14*
G04 #@! TO.C,D79*
X373856000Y-65868800D03*
X373856000Y-62718800D03*
D10*
X373856000Y-68193800D03*
D11*
X373856000Y-60393800D03*
G04 #@! TD*
D13*
G04 #@! TO.C,K52*
X347980000Y-26900000D03*
X337820000Y-26900000D03*
D12*
X342900000Y-26900000D03*
G04 #@! TD*
G04 #@! TO.C,K57*
X102394000Y-45950000D03*
D13*
X97314000Y-45950000D03*
X107474000Y-45950000D03*
G04 #@! TD*
D12*
G04 #@! TO.C,K68*
X314325000Y-45950000D03*
D13*
X309245000Y-45950000D03*
X319405000Y-45950000D03*
G04 #@! TD*
D12*
G04 #@! TO.C,K69*
X350050000Y-45950000D03*
D13*
X344970000Y-45950000D03*
X355130000Y-45950000D03*
D15*
X338112000Y-38965000D03*
X361988000Y-38965000D03*
D12*
X338112000Y-54205000D03*
X361988000Y-54205000D03*
G04 #@! TD*
G04 #@! TO.C,K70*
X33337500Y-65000000D03*
D13*
X28257500Y-65000000D03*
X38417500Y-65000000D03*
D15*
X21399500Y-58015000D03*
X45275500Y-58015000D03*
D12*
X21399500Y-73255000D03*
X45275500Y-73255000D03*
G04 #@! TD*
G04 #@! TO.C,K71*
X61912500Y-65000000D03*
D13*
X56832500Y-65000000D03*
X66992500Y-65000000D03*
G04 #@! TD*
D12*
G04 #@! TO.C,K74*
X150019000Y-65000000D03*
D13*
X144939000Y-65000000D03*
X155099000Y-65000000D03*
G04 #@! TD*
D12*
G04 #@! TO.C,K75*
X221460000Y-65000000D03*
D13*
X216380000Y-65000000D03*
X226540000Y-65000000D03*
D15*
X171460100Y-58015000D03*
X271459900Y-58015000D03*
D12*
X171460100Y-73255000D03*
X271459900Y-73255000D03*
G04 #@! TD*
D13*
G04 #@! TO.C,K79*
X369420000Y-65000000D03*
X359260000Y-65000000D03*
D12*
X364340000Y-65000000D03*
G04 #@! TD*
G04 #@! TO.C,K36*
X364340000Y-17370000D03*
D16*
X364340000Y-12290000D03*
X364340000Y-22450000D03*
D15*
X357355000Y-29308000D03*
X357355000Y-5432000D03*
D12*
X372595000Y-29308000D03*
X372595000Y-5432000D03*
G04 #@! TD*
M02*
