G04 #@! TF.GenerationSoftware,KiCad,Pcbnew,5.1.6*
G04 #@! TF.CreationDate,2020-07-30T11:30:43-04:00*
G04 #@! TF.ProjectId,southpawpcb,736f7574-6870-4617-9770-63622e6b6963,rev?*
G04 #@! TF.SameCoordinates,Original*
G04 #@! TF.FileFunction,Profile,NP*
%FSLAX46Y46*%
G04 Gerber Fmt 4.6, Leading zero omitted, Abs format (unit mm)*
G04 Created by KiCad (PCBNEW 5.1.6) date 2020-07-30 11:30:43*
%MOMM*%
%LPD*%
G01*
G04 APERTURE LIST*
G04 #@! TA.AperFunction,Profile*
%ADD10C,0.050000*%
G04 #@! TD*
G04 APERTURE END LIST*
D10*
X192437500Y-77581250D02*
G75*
G02*
X191487500Y-78531250I-950000J0D01*
G01*
X283637500Y25018750D02*
G75*
G02*
X284587500Y24068750I0J-950000D01*
G01*
X13837500Y24068750D02*
X13837500Y-76631250D01*
X191487500Y-78531250D02*
X106937500Y-78531250D01*
X283637500Y-78531250D02*
X199087500Y-78531250D01*
X191487500Y25018750D02*
G75*
G02*
X192437500Y24068750I0J-950000D01*
G01*
X15737500Y25018750D02*
X99337500Y25018750D01*
X199087500Y-78531250D02*
G75*
G02*
X198137500Y-77581250I0J950000D01*
G01*
X106937500Y-78531250D02*
G75*
G02*
X105987500Y-77581250I0J950000D01*
G01*
X105987500Y24068750D02*
G75*
G02*
X106937500Y25018750I950000J0D01*
G01*
X375787500Y25018750D02*
G75*
G02*
X376737500Y24068750I0J-950000D01*
G01*
X106937500Y25018750D02*
X191487500Y25018750D01*
X198137500Y24068750D02*
G75*
G02*
X199087500Y25018750I950000J0D01*
G01*
X14787500Y-78531250D02*
G75*
G02*
X13837500Y-77581250I0J950000D01*
G01*
X13837500Y24068750D02*
G75*
G02*
X14787500Y25018750I950000J0D01*
G01*
X199087500Y25018750D02*
X283637500Y25018750D01*
X192437500Y-77581250D02*
G75*
G02*
X198137500Y-77581250I2850000J0D01*
G01*
X100287500Y-77581250D02*
G75*
G02*
X105987500Y-77581250I2850000J0D01*
G01*
X284587500Y-77581250D02*
G75*
G02*
X283637500Y-78531250I-950000J0D01*
G01*
X99337500Y-78531250D02*
X14787500Y-78531250D01*
X99337500Y25018750D02*
G75*
G02*
X100287500Y24068750I0J-950000D01*
G01*
X100287500Y-77581250D02*
G75*
G02*
X99337500Y-78531250I-950000J0D01*
G01*
X290287500Y24068750D02*
G75*
G02*
X284587500Y24068750I-2850000J0D01*
G01*
X291237500Y25018750D02*
X375787500Y25018750D01*
X105987500Y24068750D02*
G75*
G02*
X100287500Y24068750I-2850000J0D01*
G01*
X291237500Y-78531250D02*
X375787500Y-78531250D01*
X284587500Y-77581250D02*
G75*
G02*
X290287500Y-77581250I2850000J0D01*
G01*
X291237500Y-78531250D02*
G75*
G02*
X290287500Y-77581250I0J950000D01*
G01*
X376737500Y-77581250D02*
X376737500Y24068750D01*
X15737500Y25018750D02*
X14787500Y25018750D01*
X376737500Y-77581250D02*
G75*
G02*
X375787500Y-78531250I-950000J0D01*
G01*
X290287500Y24068750D02*
G75*
G02*
X291237500Y25018750I950000J0D01*
G01*
X198137500Y24068750D02*
G75*
G02*
X192437500Y24068750I-2850000J0D01*
G01*
X13837500Y-76631250D02*
X13837500Y-77581250D01*
M02*
