G04 #@! TF.GenerationSoftware,KiCad,Pcbnew,5.1.6*
G04 #@! TF.CreationDate,2020-07-25T08:35:44-04:00*
G04 #@! TF.ProjectId,southpawcase,736f7574-6870-4617-9763-6173652e6b69,rev?*
G04 #@! TF.SameCoordinates,Original*
G04 #@! TF.FileFunction,Copper,L2,Bot*
G04 #@! TF.FilePolarity,Positive*
%FSLAX46Y46*%
G04 Gerber Fmt 4.6, Leading zero omitted, Abs format (unit mm)*
G04 Created by KiCad (PCBNEW 5.1.6) date 2020-07-25 08:35:44*
%MOMM*%
%LPD*%
G01*
G04 APERTURE LIST*
G04 #@! TA.AperFunction,EtchedComponent*
%ADD10C,0.010000*%
G04 #@! TD*
G04 APERTURE END LIST*
D10*
G04 #@! TO.C,G\u002A\u002A\u002A*
G36*
X156634181Y-48526568D02*
G01*
X155960186Y-48802572D01*
X155905574Y-48852044D01*
X155727545Y-49341544D01*
X155610445Y-50399545D01*
X155553352Y-52036698D01*
X155546985Y-52998984D01*
X155524503Y-54777131D01*
X155440914Y-56034705D01*
X155272005Y-56847639D01*
X154993563Y-57291866D01*
X154581374Y-57443320D01*
X154141929Y-57405263D01*
X153865351Y-57262075D01*
X153680649Y-56880759D01*
X153556116Y-56143530D01*
X153460042Y-54932599D01*
X153455221Y-54854287D01*
X153351283Y-53682276D01*
X153207403Y-52736252D01*
X153050189Y-52178865D01*
X153006985Y-52114182D01*
X152156930Y-51661955D01*
X151173496Y-51674360D01*
X150448091Y-52033788D01*
X150066551Y-52417812D01*
X149825291Y-52919192D01*
X149676945Y-53696024D01*
X149574144Y-54906409D01*
X149570515Y-54962866D01*
X149471590Y-56171418D01*
X149342277Y-56902192D01*
X149148875Y-57275045D01*
X148883807Y-57405292D01*
X148347949Y-57432459D01*
X147965099Y-57227264D01*
X147711042Y-56713768D01*
X147561563Y-55816036D01*
X147492450Y-54458133D01*
X147478750Y-52998984D01*
X147463507Y-51267240D01*
X147395922Y-50045002D01*
X147243211Y-49244448D01*
X146972589Y-48777758D01*
X146551272Y-48557110D01*
X145946476Y-48494683D01*
X145796801Y-48493455D01*
X145097173Y-48540569D01*
X144592280Y-48736916D01*
X144250898Y-49165006D01*
X144041805Y-49907350D01*
X143933777Y-51046459D01*
X143895591Y-52664841D01*
X143892868Y-53524756D01*
X143924013Y-55544181D01*
X144038699Y-57072534D01*
X144268797Y-58214154D01*
X144646183Y-59073379D01*
X145202729Y-59754548D01*
X145970308Y-60361999D01*
X145984481Y-60371691D01*
X146966641Y-60802877D01*
X148208027Y-61029395D01*
X149478525Y-61039431D01*
X150548022Y-60821171D01*
X150931325Y-60625665D01*
X151471247Y-60359674D01*
X151956003Y-60524402D01*
X152100811Y-60625665D01*
X152914854Y-60939354D01*
X154062046Y-61048959D01*
X155316869Y-60962710D01*
X156453808Y-60688837D01*
X156969128Y-60448011D01*
X157763924Y-59891767D01*
X158340218Y-59270102D01*
X158731555Y-58479552D01*
X158971482Y-57416652D01*
X159093545Y-55977938D01*
X159131289Y-54059944D01*
X159131751Y-53777928D01*
X159110433Y-52216764D01*
X159051188Y-50838709D01*
X158962388Y-49771593D01*
X158852404Y-49143247D01*
X158823530Y-49071457D01*
X158321506Y-48680234D01*
X157506506Y-48492196D01*
X156634181Y-48526568D01*
G37*
X156634181Y-48526568D02*
X155960186Y-48802572D01*
X155905574Y-48852044D01*
X155727545Y-49341544D01*
X155610445Y-50399545D01*
X155553352Y-52036698D01*
X155546985Y-52998984D01*
X155524503Y-54777131D01*
X155440914Y-56034705D01*
X155272005Y-56847639D01*
X154993563Y-57291866D01*
X154581374Y-57443320D01*
X154141929Y-57405263D01*
X153865351Y-57262075D01*
X153680649Y-56880759D01*
X153556116Y-56143530D01*
X153460042Y-54932599D01*
X153455221Y-54854287D01*
X153351283Y-53682276D01*
X153207403Y-52736252D01*
X153050189Y-52178865D01*
X153006985Y-52114182D01*
X152156930Y-51661955D01*
X151173496Y-51674360D01*
X150448091Y-52033788D01*
X150066551Y-52417812D01*
X149825291Y-52919192D01*
X149676945Y-53696024D01*
X149574144Y-54906409D01*
X149570515Y-54962866D01*
X149471590Y-56171418D01*
X149342277Y-56902192D01*
X149148875Y-57275045D01*
X148883807Y-57405292D01*
X148347949Y-57432459D01*
X147965099Y-57227264D01*
X147711042Y-56713768D01*
X147561563Y-55816036D01*
X147492450Y-54458133D01*
X147478750Y-52998984D01*
X147463507Y-51267240D01*
X147395922Y-50045002D01*
X147243211Y-49244448D01*
X146972589Y-48777758D01*
X146551272Y-48557110D01*
X145946476Y-48494683D01*
X145796801Y-48493455D01*
X145097173Y-48540569D01*
X144592280Y-48736916D01*
X144250898Y-49165006D01*
X144041805Y-49907350D01*
X143933777Y-51046459D01*
X143895591Y-52664841D01*
X143892868Y-53524756D01*
X143924013Y-55544181D01*
X144038699Y-57072534D01*
X144268797Y-58214154D01*
X144646183Y-59073379D01*
X145202729Y-59754548D01*
X145970308Y-60361999D01*
X145984481Y-60371691D01*
X146966641Y-60802877D01*
X148208027Y-61029395D01*
X149478525Y-61039431D01*
X150548022Y-60821171D01*
X150931325Y-60625665D01*
X151471247Y-60359674D01*
X151956003Y-60524402D01*
X152100811Y-60625665D01*
X152914854Y-60939354D01*
X154062046Y-61048959D01*
X155316869Y-60962710D01*
X156453808Y-60688837D01*
X156969128Y-60448011D01*
X157763924Y-59891767D01*
X158340218Y-59270102D01*
X158731555Y-58479552D01*
X158971482Y-57416652D01*
X159093545Y-55977938D01*
X159131289Y-54059944D01*
X159131751Y-53777928D01*
X159110433Y-52216764D01*
X159051188Y-50838709D01*
X158962388Y-49771593D01*
X158852404Y-49143247D01*
X158823530Y-49071457D01*
X158321506Y-48680234D01*
X157506506Y-48492196D01*
X156634181Y-48526568D01*
G36*
X165629480Y-48536940D02*
G01*
X164778476Y-48721282D01*
X163964356Y-49127314D01*
X163445688Y-49464632D01*
X162424386Y-50255495D01*
X161689050Y-51106349D01*
X161191985Y-52135154D01*
X160885494Y-53459873D01*
X160721884Y-55198467D01*
X160677259Y-56311566D01*
X160649066Y-58100634D01*
X160702875Y-59377959D01*
X160869381Y-60227239D01*
X161179280Y-60732173D01*
X161663265Y-60976458D01*
X162352031Y-61043793D01*
X162412805Y-61044044D01*
X163202876Y-60976733D01*
X163704693Y-60809708D01*
X163757576Y-60756638D01*
X164173140Y-60622881D01*
X164691135Y-60756638D01*
X165737020Y-60976996D01*
X167073255Y-61027133D01*
X168435701Y-60917570D01*
X169560221Y-60658830D01*
X169813939Y-60552586D01*
X171227173Y-59556454D01*
X172378274Y-58167228D01*
X173161673Y-56551777D01*
X173471802Y-54876969D01*
X173472099Y-54851486D01*
X169591603Y-54851486D01*
X169347694Y-55830702D01*
X168785674Y-56665992D01*
X167985845Y-57255891D01*
X167028509Y-57498930D01*
X165993967Y-57293644D01*
X165515835Y-57021827D01*
X164716557Y-56144143D01*
X164355149Y-55041553D01*
X164494992Y-53914593D01*
X164516621Y-53860378D01*
X165215085Y-52808340D01*
X166171575Y-52205920D01*
X167251488Y-52084303D01*
X168320218Y-52474672D01*
X168803884Y-52867145D01*
X169437100Y-53829812D01*
X169591603Y-54851486D01*
X173472099Y-54851486D01*
X173473064Y-54768750D01*
X173216436Y-53188563D01*
X172520015Y-51618564D01*
X171494001Y-50229189D01*
X170248590Y-49190875D01*
X169675995Y-48896009D01*
X168853290Y-48679056D01*
X167716186Y-48532905D01*
X166796237Y-48493455D01*
X165629480Y-48536940D01*
G37*
X165629480Y-48536940D02*
X164778476Y-48721282D01*
X163964356Y-49127314D01*
X163445688Y-49464632D01*
X162424386Y-50255495D01*
X161689050Y-51106349D01*
X161191985Y-52135154D01*
X160885494Y-53459873D01*
X160721884Y-55198467D01*
X160677259Y-56311566D01*
X160649066Y-58100634D01*
X160702875Y-59377959D01*
X160869381Y-60227239D01*
X161179280Y-60732173D01*
X161663265Y-60976458D01*
X162352031Y-61043793D01*
X162412805Y-61044044D01*
X163202876Y-60976733D01*
X163704693Y-60809708D01*
X163757576Y-60756638D01*
X164173140Y-60622881D01*
X164691135Y-60756638D01*
X165737020Y-60976996D01*
X167073255Y-61027133D01*
X168435701Y-60917570D01*
X169560221Y-60658830D01*
X169813939Y-60552586D01*
X171227173Y-59556454D01*
X172378274Y-58167228D01*
X173161673Y-56551777D01*
X173471802Y-54876969D01*
X173472099Y-54851486D01*
X169591603Y-54851486D01*
X169347694Y-55830702D01*
X168785674Y-56665992D01*
X167985845Y-57255891D01*
X167028509Y-57498930D01*
X165993967Y-57293644D01*
X165515835Y-57021827D01*
X164716557Y-56144143D01*
X164355149Y-55041553D01*
X164494992Y-53914593D01*
X164516621Y-53860378D01*
X165215085Y-52808340D01*
X166171575Y-52205920D01*
X167251488Y-52084303D01*
X168320218Y-52474672D01*
X168803884Y-52867145D01*
X169437100Y-53829812D01*
X169591603Y-54851486D01*
X173472099Y-54851486D01*
X173473064Y-54768750D01*
X173216436Y-53188563D01*
X172520015Y-51618564D01*
X171494001Y-50229189D01*
X170248590Y-49190875D01*
X169675995Y-48896009D01*
X168853290Y-48679056D01*
X167716186Y-48532905D01*
X166796237Y-48493455D01*
X165629480Y-48536940D01*
G36*
X197916752Y-44899137D02*
G01*
X197578005Y-45155220D01*
X197207866Y-45953662D01*
X197083456Y-47182047D01*
X197083456Y-48662404D01*
X195018977Y-48545750D01*
X193246152Y-48551778D01*
X191863474Y-48836923D01*
X190705976Y-49458869D01*
X189659549Y-50419777D01*
X188887785Y-51377404D01*
X188357960Y-52377660D01*
X188030234Y-53560331D01*
X187864770Y-55065202D01*
X187821593Y-56868730D01*
X187868423Y-58565395D01*
X188036144Y-59750683D01*
X188362128Y-60504997D01*
X188883748Y-60908743D01*
X189638375Y-61042324D01*
X189762279Y-61044044D01*
X190536140Y-60948570D01*
X191080839Y-60608366D01*
X191432450Y-59942763D01*
X191627049Y-58871089D01*
X191700711Y-57312673D01*
X191704632Y-56700520D01*
X191712761Y-55323068D01*
X191757531Y-54403947D01*
X191869514Y-53803871D01*
X192079285Y-53383556D01*
X192417418Y-53003716D01*
X192542748Y-52882304D01*
X193606311Y-52213329D01*
X194740448Y-52123128D01*
X195859196Y-52613691D01*
X196095037Y-52800026D01*
X196455200Y-53137128D01*
X196700196Y-53495306D01*
X196859051Y-53997823D01*
X196960790Y-54767945D01*
X197034438Y-55928934D01*
X197082877Y-56995110D01*
X197168747Y-58617516D01*
X197292773Y-59735869D01*
X197501375Y-60443707D01*
X197840974Y-60834568D01*
X198357990Y-61001989D01*
X199090001Y-61039468D01*
X199981425Y-60853355D01*
X200360001Y-60466042D01*
X200466839Y-59972589D01*
X200551953Y-58999374D01*
X200615663Y-57646747D01*
X200658287Y-56015057D01*
X200680144Y-54204653D01*
X200681553Y-52315885D01*
X200662833Y-50449101D01*
X200624302Y-48704650D01*
X200566280Y-47182883D01*
X200489086Y-45984148D01*
X200393038Y-45208795D01*
X200310750Y-44967338D01*
X199644574Y-44660924D01*
X198751753Y-44644710D01*
X197916752Y-44899137D01*
G37*
X197916752Y-44899137D02*
X197578005Y-45155220D01*
X197207866Y-45953662D01*
X197083456Y-47182047D01*
X197083456Y-48662404D01*
X195018977Y-48545750D01*
X193246152Y-48551778D01*
X191863474Y-48836923D01*
X190705976Y-49458869D01*
X189659549Y-50419777D01*
X188887785Y-51377404D01*
X188357960Y-52377660D01*
X188030234Y-53560331D01*
X187864770Y-55065202D01*
X187821593Y-56868730D01*
X187868423Y-58565395D01*
X188036144Y-59750683D01*
X188362128Y-60504997D01*
X188883748Y-60908743D01*
X189638375Y-61042324D01*
X189762279Y-61044044D01*
X190536140Y-60948570D01*
X191080839Y-60608366D01*
X191432450Y-59942763D01*
X191627049Y-58871089D01*
X191700711Y-57312673D01*
X191704632Y-56700520D01*
X191712761Y-55323068D01*
X191757531Y-54403947D01*
X191869514Y-53803871D01*
X192079285Y-53383556D01*
X192417418Y-53003716D01*
X192542748Y-52882304D01*
X193606311Y-52213329D01*
X194740448Y-52123128D01*
X195859196Y-52613691D01*
X196095037Y-52800026D01*
X196455200Y-53137128D01*
X196700196Y-53495306D01*
X196859051Y-53997823D01*
X196960790Y-54767945D01*
X197034438Y-55928934D01*
X197082877Y-56995110D01*
X197168747Y-58617516D01*
X197292773Y-59735869D01*
X197501375Y-60443707D01*
X197840974Y-60834568D01*
X198357990Y-61001989D01*
X199090001Y-61039468D01*
X199981425Y-60853355D01*
X200360001Y-60466042D01*
X200466839Y-59972589D01*
X200551953Y-58999374D01*
X200615663Y-57646747D01*
X200658287Y-56015057D01*
X200680144Y-54204653D01*
X200681553Y-52315885D01*
X200662833Y-50449101D01*
X200624302Y-48704650D01*
X200566280Y-47182883D01*
X200489086Y-45984148D01*
X200393038Y-45208795D01*
X200310750Y-44967338D01*
X199644574Y-44660924D01*
X198751753Y-44644710D01*
X197916752Y-44899137D01*
G36*
X210618657Y-44690845D02*
G01*
X210007070Y-44953439D01*
X209992632Y-44967338D01*
X209779486Y-45463267D01*
X209651044Y-46307765D01*
X209634044Y-46760279D01*
X209634044Y-48194632D01*
X206990946Y-48194632D01*
X205421650Y-48251237D01*
X204358133Y-48449363D01*
X203716793Y-48831471D01*
X203414029Y-49440025D01*
X203358750Y-50039495D01*
X203485056Y-50790229D01*
X203916008Y-51302533D01*
X204729658Y-51612888D01*
X206004059Y-51757775D01*
X207083780Y-51780514D01*
X209715868Y-51780514D01*
X209554722Y-53788059D01*
X209432215Y-54922126D01*
X209237803Y-55659665D01*
X208894165Y-56201772D01*
X208463213Y-56626883D01*
X207474317Y-57274506D01*
X206457448Y-57403971D01*
X205286458Y-57021127D01*
X204862891Y-56793851D01*
X203720389Y-56366273D01*
X202739004Y-56442554D01*
X202009441Y-57001708D01*
X201745709Y-57515033D01*
X201678249Y-58466789D01*
X202108039Y-59318919D01*
X202938365Y-60038061D01*
X204072516Y-60590856D01*
X205413777Y-60943941D01*
X206865438Y-61063956D01*
X208330784Y-60917540D01*
X209713104Y-60471332D01*
X209960574Y-60348749D01*
X210953506Y-59656999D01*
X211892344Y-58740064D01*
X212174044Y-58381720D01*
X213070515Y-57109986D01*
X213163195Y-51285173D01*
X213185886Y-49023748D01*
X213171458Y-47312582D01*
X213117979Y-46105326D01*
X213023516Y-45355627D01*
X212902488Y-45034555D01*
X212343527Y-44737805D01*
X211489863Y-44621101D01*
X210618657Y-44690845D01*
G37*
X210618657Y-44690845D02*
X210007070Y-44953439D01*
X209992632Y-44967338D01*
X209779486Y-45463267D01*
X209651044Y-46307765D01*
X209634044Y-46760279D01*
X209634044Y-48194632D01*
X206990946Y-48194632D01*
X205421650Y-48251237D01*
X204358133Y-48449363D01*
X203716793Y-48831471D01*
X203414029Y-49440025D01*
X203358750Y-50039495D01*
X203485056Y-50790229D01*
X203916008Y-51302533D01*
X204729658Y-51612888D01*
X206004059Y-51757775D01*
X207083780Y-51780514D01*
X209715868Y-51780514D01*
X209554722Y-53788059D01*
X209432215Y-54922126D01*
X209237803Y-55659665D01*
X208894165Y-56201772D01*
X208463213Y-56626883D01*
X207474317Y-57274506D01*
X206457448Y-57403971D01*
X205286458Y-57021127D01*
X204862891Y-56793851D01*
X203720389Y-56366273D01*
X202739004Y-56442554D01*
X202009441Y-57001708D01*
X201745709Y-57515033D01*
X201678249Y-58466789D01*
X202108039Y-59318919D01*
X202938365Y-60038061D01*
X204072516Y-60590856D01*
X205413777Y-60943941D01*
X206865438Y-61063956D01*
X208330784Y-60917540D01*
X209713104Y-60471332D01*
X209960574Y-60348749D01*
X210953506Y-59656999D01*
X211892344Y-58740064D01*
X212174044Y-58381720D01*
X213070515Y-57109986D01*
X213163195Y-51285173D01*
X213185886Y-49023748D01*
X213171458Y-47312582D01*
X213117979Y-46105326D01*
X213023516Y-45355627D01*
X212902488Y-45034555D01*
X212343527Y-44737805D01*
X211489863Y-44621101D01*
X210618657Y-44690845D01*
G36*
X224663526Y-48643915D02*
G01*
X224345458Y-48866985D01*
X224208588Y-49307692D01*
X224078634Y-50202158D01*
X223972945Y-51406582D01*
X223921873Y-52378161D01*
X223817516Y-54104603D01*
X223634422Y-55339674D01*
X223336034Y-56188160D01*
X222885799Y-56754847D01*
X222261383Y-57138072D01*
X221024594Y-57439929D01*
X219892691Y-57156212D01*
X219288345Y-56737473D01*
X218924152Y-56395526D01*
X218677697Y-56031120D01*
X218518806Y-55518743D01*
X218417302Y-54732882D01*
X218343011Y-53548026D01*
X218300505Y-52628650D01*
X218220011Y-51239306D01*
X218116095Y-50055359D01*
X218003005Y-49213634D01*
X217908761Y-48866985D01*
X217417763Y-48580373D01*
X216628778Y-48506756D01*
X215798687Y-48637080D01*
X215184370Y-48962291D01*
X215183624Y-48963035D01*
X214972376Y-49297554D01*
X214832421Y-49868486D01*
X214751510Y-50779824D01*
X214717395Y-52135559D01*
X214714044Y-52950153D01*
X214727121Y-54520549D01*
X214780354Y-55639665D01*
X214894749Y-56453561D01*
X215091314Y-57108296D01*
X215391054Y-57749929D01*
X215409339Y-57784691D01*
X216102374Y-58779609D01*
X217019166Y-59717563D01*
X217370524Y-59993305D01*
X218176288Y-60493699D01*
X218966373Y-60783482D01*
X219976427Y-60930684D01*
X220784053Y-60978778D01*
X222243381Y-60978513D01*
X223276818Y-60813997D01*
X223828162Y-60591207D01*
X225411689Y-59450328D01*
X226634780Y-57976055D01*
X226996927Y-57308750D01*
X227286022Y-56373744D01*
X227483716Y-55112634D01*
X227589654Y-53672675D01*
X227603481Y-52201122D01*
X227524842Y-50845232D01*
X227353383Y-49752260D01*
X227088748Y-49069462D01*
X227016985Y-48988005D01*
X226312111Y-48624658D01*
X225439060Y-48505950D01*
X224663526Y-48643915D01*
G37*
X224663526Y-48643915D02*
X224345458Y-48866985D01*
X224208588Y-49307692D01*
X224078634Y-50202158D01*
X223972945Y-51406582D01*
X223921873Y-52378161D01*
X223817516Y-54104603D01*
X223634422Y-55339674D01*
X223336034Y-56188160D01*
X222885799Y-56754847D01*
X222261383Y-57138072D01*
X221024594Y-57439929D01*
X219892691Y-57156212D01*
X219288345Y-56737473D01*
X218924152Y-56395526D01*
X218677697Y-56031120D01*
X218518806Y-55518743D01*
X218417302Y-54732882D01*
X218343011Y-53548026D01*
X218300505Y-52628650D01*
X218220011Y-51239306D01*
X218116095Y-50055359D01*
X218003005Y-49213634D01*
X217908761Y-48866985D01*
X217417763Y-48580373D01*
X216628778Y-48506756D01*
X215798687Y-48637080D01*
X215184370Y-48962291D01*
X215183624Y-48963035D01*
X214972376Y-49297554D01*
X214832421Y-49868486D01*
X214751510Y-50779824D01*
X214717395Y-52135559D01*
X214714044Y-52950153D01*
X214727121Y-54520549D01*
X214780354Y-55639665D01*
X214894749Y-56453561D01*
X215091314Y-57108296D01*
X215391054Y-57749929D01*
X215409339Y-57784691D01*
X216102374Y-58779609D01*
X217019166Y-59717563D01*
X217370524Y-59993305D01*
X218176288Y-60493699D01*
X218966373Y-60783482D01*
X219976427Y-60930684D01*
X220784053Y-60978778D01*
X222243381Y-60978513D01*
X223276818Y-60813997D01*
X223828162Y-60591207D01*
X225411689Y-59450328D01*
X226634780Y-57976055D01*
X226996927Y-57308750D01*
X227286022Y-56373744D01*
X227483716Y-55112634D01*
X227589654Y-53672675D01*
X227603481Y-52201122D01*
X227524842Y-50845232D01*
X227353383Y-49752260D01*
X227088748Y-49069462D01*
X227016985Y-48988005D01*
X226312111Y-48624658D01*
X225439060Y-48505950D01*
X224663526Y-48643915D01*
G36*
X233202133Y-48756633D02*
G01*
X231773655Y-49319700D01*
X231409276Y-49548378D01*
X230025793Y-50825567D01*
X229168418Y-52357009D01*
X228817156Y-54185792D01*
X228819522Y-55129401D01*
X229176287Y-57115170D01*
X229991196Y-58734175D01*
X231225744Y-59949870D01*
X232841422Y-60725709D01*
X234799724Y-61025146D01*
X235034044Y-61027431D01*
X236210195Y-60962400D01*
X237276221Y-60800696D01*
X237872868Y-60625548D01*
X238696255Y-60136885D01*
X239527766Y-59462704D01*
X239618849Y-59373455D01*
X240766432Y-57834994D01*
X241390589Y-56139697D01*
X241483865Y-54754564D01*
X237723456Y-54754564D01*
X237473907Y-55944084D01*
X236813753Y-56824492D01*
X235875735Y-57335590D01*
X234792594Y-57417178D01*
X233697070Y-57009058D01*
X233339264Y-56742817D01*
X232762395Y-56096010D01*
X232531852Y-55320627D01*
X232507627Y-54768750D01*
X232750363Y-53556312D01*
X233396134Y-52681466D01*
X234321286Y-52199349D01*
X235402164Y-52165099D01*
X236515115Y-52633853D01*
X236804058Y-52852960D01*
X237457951Y-53555111D01*
X237705255Y-54339937D01*
X237723456Y-54754564D01*
X241483865Y-54754564D01*
X241508753Y-54384999D01*
X241138358Y-52668332D01*
X240296837Y-51087132D01*
X239001624Y-49738832D01*
X237752753Y-48943989D01*
X236414342Y-48547563D01*
X234823249Y-48492182D01*
X233202133Y-48756633D01*
G37*
X233202133Y-48756633D02*
X231773655Y-49319700D01*
X231409276Y-49548378D01*
X230025793Y-50825567D01*
X229168418Y-52357009D01*
X228817156Y-54185792D01*
X228819522Y-55129401D01*
X229176287Y-57115170D01*
X229991196Y-58734175D01*
X231225744Y-59949870D01*
X232841422Y-60725709D01*
X234799724Y-61025146D01*
X235034044Y-61027431D01*
X236210195Y-60962400D01*
X237276221Y-60800696D01*
X237872868Y-60625548D01*
X238696255Y-60136885D01*
X239527766Y-59462704D01*
X239618849Y-59373455D01*
X240766432Y-57834994D01*
X241390589Y-56139697D01*
X241483865Y-54754564D01*
X237723456Y-54754564D01*
X237473907Y-55944084D01*
X236813753Y-56824492D01*
X235875735Y-57335590D01*
X234792594Y-57417178D01*
X233697070Y-57009058D01*
X233339264Y-56742817D01*
X232762395Y-56096010D01*
X232531852Y-55320627D01*
X232507627Y-54768750D01*
X232750363Y-53556312D01*
X233396134Y-52681466D01*
X234321286Y-52199349D01*
X235402164Y-52165099D01*
X236515115Y-52633853D01*
X236804058Y-52852960D01*
X237457951Y-53555111D01*
X237705255Y-54339937D01*
X237723456Y-54754564D01*
X241483865Y-54754564D01*
X241508753Y-54384999D01*
X241138358Y-52668332D01*
X240296837Y-51087132D01*
X239001624Y-49738832D01*
X237752753Y-48943989D01*
X236414342Y-48547563D01*
X234823249Y-48492182D01*
X233202133Y-48756633D01*
G36*
X247668653Y-48610980D02*
G01*
X246371664Y-48960607D01*
X246153316Y-49062022D01*
X244623766Y-50143450D01*
X243531547Y-51527067D01*
X242876913Y-53111359D01*
X242660114Y-54794811D01*
X242881403Y-56475905D01*
X243541031Y-58053128D01*
X244639251Y-59424964D01*
X246125023Y-60464002D01*
X247561250Y-60927692D01*
X249227372Y-61057772D01*
X250875309Y-60858390D01*
X252207462Y-60362280D01*
X253051804Y-59762092D01*
X253715196Y-59081791D01*
X253844855Y-58886773D01*
X254115672Y-58291605D01*
X254054129Y-57825309D01*
X253674399Y-57247738D01*
X252847405Y-56502316D01*
X251923020Y-56346038D01*
X250916918Y-56781190D01*
X250843105Y-56834399D01*
X249674167Y-57390931D01*
X248515475Y-57358904D01*
X247430839Y-56742766D01*
X247262822Y-56584677D01*
X246536502Y-55538596D01*
X246405283Y-54469444D01*
X246869168Y-53409243D01*
X247262822Y-52952822D01*
X247983857Y-52337956D01*
X248667338Y-52045972D01*
X249395703Y-52103914D01*
X250251390Y-52538826D01*
X251316836Y-53377753D01*
X252674480Y-54647740D01*
X252798162Y-54768750D01*
X253995884Y-55919960D01*
X254876685Y-56698808D01*
X255530245Y-57170946D01*
X256046245Y-57402026D01*
X256471859Y-57458161D01*
X257500969Y-57224758D01*
X258148788Y-56572487D01*
X258342279Y-55712680D01*
X258236469Y-55252841D01*
X257880056Y-54660627D01*
X257214564Y-53861275D01*
X256181521Y-52780023D01*
X255578162Y-52178614D01*
X254447712Y-51098606D01*
X253377665Y-50139645D01*
X252484308Y-49401954D01*
X251883932Y-48985757D01*
X251857707Y-48972163D01*
X250666709Y-48612741D01*
X249185346Y-48493686D01*
X247668653Y-48610980D01*
G37*
X247668653Y-48610980D02*
X246371664Y-48960607D01*
X246153316Y-49062022D01*
X244623766Y-50143450D01*
X243531547Y-51527067D01*
X242876913Y-53111359D01*
X242660114Y-54794811D01*
X242881403Y-56475905D01*
X243541031Y-58053128D01*
X244639251Y-59424964D01*
X246125023Y-60464002D01*
X247561250Y-60927692D01*
X249227372Y-61057772D01*
X250875309Y-60858390D01*
X252207462Y-60362280D01*
X253051804Y-59762092D01*
X253715196Y-59081791D01*
X253844855Y-58886773D01*
X254115672Y-58291605D01*
X254054129Y-57825309D01*
X253674399Y-57247738D01*
X252847405Y-56502316D01*
X251923020Y-56346038D01*
X250916918Y-56781190D01*
X250843105Y-56834399D01*
X249674167Y-57390931D01*
X248515475Y-57358904D01*
X247430839Y-56742766D01*
X247262822Y-56584677D01*
X246536502Y-55538596D01*
X246405283Y-54469444D01*
X246869168Y-53409243D01*
X247262822Y-52952822D01*
X247983857Y-52337956D01*
X248667338Y-52045972D01*
X249395703Y-52103914D01*
X250251390Y-52538826D01*
X251316836Y-53377753D01*
X252674480Y-54647740D01*
X252798162Y-54768750D01*
X253995884Y-55919960D01*
X254876685Y-56698808D01*
X255530245Y-57170946D01*
X256046245Y-57402026D01*
X256471859Y-57458161D01*
X257500969Y-57224758D01*
X258148788Y-56572487D01*
X258342279Y-55712680D01*
X258236469Y-55252841D01*
X257880056Y-54660627D01*
X257214564Y-53861275D01*
X256181521Y-52780023D01*
X255578162Y-52178614D01*
X254447712Y-51098606D01*
X253377665Y-50139645D01*
X252484308Y-49401954D01*
X251883932Y-48985757D01*
X251857707Y-48972163D01*
X250666709Y-48612741D01*
X249185346Y-48493686D01*
X247668653Y-48610980D01*
G36*
X123819770Y-48194632D02*
G01*
X122158762Y-48203622D01*
X120990740Y-48238988D01*
X120211198Y-48313329D01*
X119715634Y-48439241D01*
X119399543Y-48629321D01*
X119286240Y-48741103D01*
X118856701Y-49591730D01*
X118880800Y-50526193D01*
X119338162Y-51285965D01*
X119763607Y-51537924D01*
X120443496Y-51691674D01*
X121501781Y-51765864D01*
X122625221Y-51780514D01*
X123912850Y-51786187D01*
X124716765Y-51823910D01*
X125150898Y-51924740D01*
X125329179Y-52119733D01*
X125365540Y-52439947D01*
X125365809Y-52527573D01*
X125330302Y-52933883D01*
X125132425Y-53157567D01*
X124635140Y-53252967D01*
X123701412Y-53274428D01*
X123481960Y-53274632D01*
X122265217Y-53330383D01*
X121349986Y-53549034D01*
X120446321Y-54007681D01*
X120237964Y-54137211D01*
X118927663Y-55289987D01*
X118059948Y-56728329D01*
X117634817Y-58336179D01*
X117652271Y-59997480D01*
X118112311Y-61596176D01*
X119014936Y-63016209D01*
X120237964Y-64066170D01*
X121197676Y-64593147D01*
X122105251Y-64849156D01*
X123266256Y-64916090D01*
X123407254Y-64915543D01*
X125162222Y-64732218D01*
X126300814Y-64329314D01*
X127333768Y-63627007D01*
X128207393Y-62752808D01*
X128787997Y-61862672D01*
X128951691Y-61237018D01*
X128728524Y-60194968D01*
X128135840Y-59530378D01*
X127288869Y-59271133D01*
X126302839Y-59445115D01*
X125292980Y-60080209D01*
X125066985Y-60296985D01*
X124214235Y-61045649D01*
X123501691Y-61297298D01*
X122775731Y-61075348D01*
X122268461Y-60723531D01*
X121639055Y-59970455D01*
X121481103Y-59101691D01*
X121646774Y-58150002D01*
X122182313Y-57484337D01*
X123145513Y-57072542D01*
X124594167Y-56882461D01*
X125509206Y-56860514D01*
X126843365Y-56837167D01*
X127779045Y-56707166D01*
X128386856Y-56380570D01*
X128737411Y-55767438D01*
X128901319Y-54777830D01*
X128949191Y-53321805D01*
X128951691Y-52475652D01*
X128945271Y-50923655D01*
X128870570Y-49800736D01*
X128644433Y-49037524D01*
X128183702Y-48564650D01*
X127405220Y-48312746D01*
X126225829Y-48212441D01*
X124562373Y-48194367D01*
X123819770Y-48194632D01*
G37*
X123819770Y-48194632D02*
X122158762Y-48203622D01*
X120990740Y-48238988D01*
X120211198Y-48313329D01*
X119715634Y-48439241D01*
X119399543Y-48629321D01*
X119286240Y-48741103D01*
X118856701Y-49591730D01*
X118880800Y-50526193D01*
X119338162Y-51285965D01*
X119763607Y-51537924D01*
X120443496Y-51691674D01*
X121501781Y-51765864D01*
X122625221Y-51780514D01*
X123912850Y-51786187D01*
X124716765Y-51823910D01*
X125150898Y-51924740D01*
X125329179Y-52119733D01*
X125365540Y-52439947D01*
X125365809Y-52527573D01*
X125330302Y-52933883D01*
X125132425Y-53157567D01*
X124635140Y-53252967D01*
X123701412Y-53274428D01*
X123481960Y-53274632D01*
X122265217Y-53330383D01*
X121349986Y-53549034D01*
X120446321Y-54007681D01*
X120237964Y-54137211D01*
X118927663Y-55289987D01*
X118059948Y-56728329D01*
X117634817Y-58336179D01*
X117652271Y-59997480D01*
X118112311Y-61596176D01*
X119014936Y-63016209D01*
X120237964Y-64066170D01*
X121197676Y-64593147D01*
X122105251Y-64849156D01*
X123266256Y-64916090D01*
X123407254Y-64915543D01*
X125162222Y-64732218D01*
X126300814Y-64329314D01*
X127333768Y-63627007D01*
X128207393Y-62752808D01*
X128787997Y-61862672D01*
X128951691Y-61237018D01*
X128728524Y-60194968D01*
X128135840Y-59530378D01*
X127288869Y-59271133D01*
X126302839Y-59445115D01*
X125292980Y-60080209D01*
X125066985Y-60296985D01*
X124214235Y-61045649D01*
X123501691Y-61297298D01*
X122775731Y-61075348D01*
X122268461Y-60723531D01*
X121639055Y-59970455D01*
X121481103Y-59101691D01*
X121646774Y-58150002D01*
X122182313Y-57484337D01*
X123145513Y-57072542D01*
X124594167Y-56882461D01*
X125509206Y-56860514D01*
X126843365Y-56837167D01*
X127779045Y-56707166D01*
X128386856Y-56380570D01*
X128737411Y-55767438D01*
X128901319Y-54777830D01*
X128949191Y-53321805D01*
X128951691Y-52475652D01*
X128945271Y-50923655D01*
X128870570Y-49800736D01*
X128644433Y-49037524D01*
X128183702Y-48564650D01*
X127405220Y-48312746D01*
X126225829Y-48212441D01*
X124562373Y-48194367D01*
X123819770Y-48194632D01*
G36*
X178937525Y-48640554D02*
G01*
X178106312Y-48816842D01*
X177434548Y-49147139D01*
X176860092Y-49571776D01*
X175371113Y-51061397D01*
X174467719Y-52661537D01*
X174222280Y-53580415D01*
X174182648Y-55510314D01*
X174684477Y-57343949D01*
X175676762Y-58960161D01*
X176991920Y-60159776D01*
X177596865Y-60524164D01*
X178220940Y-60744809D01*
X179038448Y-60856243D01*
X180223688Y-60893001D01*
X180700973Y-60894632D01*
X183337574Y-60894632D01*
X183337574Y-62333689D01*
X183420107Y-63618503D01*
X183710190Y-64416827D01*
X184271546Y-64822256D01*
X185104439Y-64928750D01*
X185942731Y-64824205D01*
X186540587Y-64566363D01*
X186606017Y-64502944D01*
X186738884Y-64123703D01*
X186829003Y-63328330D01*
X186878309Y-62070478D01*
X186888735Y-60303796D01*
X186866724Y-58256033D01*
X186811202Y-54768750D01*
X183174579Y-54768750D01*
X183075074Y-55727461D01*
X182693800Y-56404358D01*
X182342942Y-56742817D01*
X181251624Y-57354008D01*
X180109634Y-57437818D01*
X179060157Y-56997204D01*
X178691540Y-56667467D01*
X178155758Y-55747118D01*
X177958405Y-54654527D01*
X178124848Y-53637638D01*
X178341783Y-53248737D01*
X179296558Y-52434015D01*
X180431070Y-52120971D01*
X181591534Y-52327054D01*
X182342942Y-52794682D01*
X182919811Y-53441489D01*
X183150355Y-54216872D01*
X183174579Y-54768750D01*
X186811202Y-54768750D01*
X186774044Y-52434927D01*
X185833222Y-51137184D01*
X184598535Y-49786304D01*
X183177580Y-48945276D01*
X181469162Y-48568060D01*
X180147151Y-48550226D01*
X178937525Y-48640554D01*
G37*
X178937525Y-48640554D02*
X178106312Y-48816842D01*
X177434548Y-49147139D01*
X176860092Y-49571776D01*
X175371113Y-51061397D01*
X174467719Y-52661537D01*
X174222280Y-53580415D01*
X174182648Y-55510314D01*
X174684477Y-57343949D01*
X175676762Y-58960161D01*
X176991920Y-60159776D01*
X177596865Y-60524164D01*
X178220940Y-60744809D01*
X179038448Y-60856243D01*
X180223688Y-60893001D01*
X180700973Y-60894632D01*
X183337574Y-60894632D01*
X183337574Y-62333689D01*
X183420107Y-63618503D01*
X183710190Y-64416827D01*
X184271546Y-64822256D01*
X185104439Y-64928750D01*
X185942731Y-64824205D01*
X186540587Y-64566363D01*
X186606017Y-64502944D01*
X186738884Y-64123703D01*
X186829003Y-63328330D01*
X186878309Y-62070478D01*
X186888735Y-60303796D01*
X186866724Y-58256033D01*
X186811202Y-54768750D01*
X183174579Y-54768750D01*
X183075074Y-55727461D01*
X182693800Y-56404358D01*
X182342942Y-56742817D01*
X181251624Y-57354008D01*
X180109634Y-57437818D01*
X179060157Y-56997204D01*
X178691540Y-56667467D01*
X178155758Y-55747118D01*
X177958405Y-54654527D01*
X178124848Y-53637638D01*
X178341783Y-53248737D01*
X179296558Y-52434015D01*
X180431070Y-52120971D01*
X181591534Y-52327054D01*
X182342942Y-52794682D01*
X182919811Y-53441489D01*
X183150355Y-54216872D01*
X183174579Y-54768750D01*
X186811202Y-54768750D01*
X186774044Y-52434927D01*
X185833222Y-51137184D01*
X184598535Y-49786304D01*
X183177580Y-48945276D01*
X181469162Y-48568060D01*
X180147151Y-48550226D01*
X178937525Y-48640554D01*
G36*
X130571094Y-49235399D02*
G01*
X130252346Y-49970181D01*
X130358416Y-50758600D01*
X130390709Y-50854431D01*
X130651944Y-51451117D01*
X131145337Y-52442798D01*
X131822414Y-53742038D01*
X132634700Y-55261396D01*
X133533718Y-56913435D01*
X134470996Y-58610715D01*
X135398056Y-60265798D01*
X136266424Y-61791244D01*
X137027625Y-63099616D01*
X137633184Y-64103473D01*
X138034625Y-64715378D01*
X138151944Y-64854044D01*
X139044357Y-65202496D01*
X140053793Y-65032497D01*
X140539319Y-64762393D01*
X141099091Y-64038633D01*
X141201001Y-63492393D01*
X141061544Y-62985729D01*
X140674086Y-62051506D01*
X140082610Y-60783631D01*
X139331095Y-59276015D01*
X138463523Y-57622564D01*
X138374963Y-57458161D01*
X135551379Y-52228750D01*
X138701341Y-52079338D01*
X140156303Y-51995220D01*
X141131677Y-51891309D01*
X141745507Y-51743504D01*
X142115837Y-51527707D01*
X142274438Y-51349871D01*
X142664108Y-50476977D01*
X142495864Y-49598338D01*
X142232394Y-49157593D01*
X142043410Y-48920827D01*
X141798611Y-48748251D01*
X141409169Y-48629729D01*
X140786259Y-48555126D01*
X139841055Y-48514306D01*
X138484730Y-48497132D01*
X136628460Y-48493469D01*
X136412224Y-48493455D01*
X131057234Y-48493455D01*
X130571094Y-49235399D01*
G37*
X130571094Y-49235399D02*
X130252346Y-49970181D01*
X130358416Y-50758600D01*
X130390709Y-50854431D01*
X130651944Y-51451117D01*
X131145337Y-52442798D01*
X131822414Y-53742038D01*
X132634700Y-55261396D01*
X133533718Y-56913435D01*
X134470996Y-58610715D01*
X135398056Y-60265798D01*
X136266424Y-61791244D01*
X137027625Y-63099616D01*
X137633184Y-64103473D01*
X138034625Y-64715378D01*
X138151944Y-64854044D01*
X139044357Y-65202496D01*
X140053793Y-65032497D01*
X140539319Y-64762393D01*
X141099091Y-64038633D01*
X141201001Y-63492393D01*
X141061544Y-62985729D01*
X140674086Y-62051506D01*
X140082610Y-60783631D01*
X139331095Y-59276015D01*
X138463523Y-57622564D01*
X138374963Y-57458161D01*
X135551379Y-52228750D01*
X138701341Y-52079338D01*
X140156303Y-51995220D01*
X141131677Y-51891309D01*
X141745507Y-51743504D01*
X142115837Y-51527707D01*
X142274438Y-51349871D01*
X142664108Y-50476977D01*
X142495864Y-49598338D01*
X142232394Y-49157593D01*
X142043410Y-48920827D01*
X141798611Y-48748251D01*
X141409169Y-48629729D01*
X140786259Y-48555126D01*
X139841055Y-48514306D01*
X138484730Y-48497132D01*
X136628460Y-48493469D01*
X136412224Y-48493455D01*
X131057234Y-48493455D01*
X130571094Y-49235399D01*
G04 #@! TD*
M02*
