G04 #@! TF.GenerationSoftware,KiCad,Pcbnew,5.1.6*
G04 #@! TF.CreationDate,2020-07-25T08:35:44-04:00*
G04 #@! TF.ProjectId,southpawcase,736f7574-6870-4617-9763-6173652e6b69,rev?*
G04 #@! TF.SameCoordinates,Original*
G04 #@! TF.FileFunction,Copper,L1,Top*
G04 #@! TF.FilePolarity,Positive*
%FSLAX46Y46*%
G04 Gerber Fmt 4.6, Leading zero omitted, Abs format (unit mm)*
G04 Created by KiCad (PCBNEW 5.1.6) date 2020-07-25 08:35:44*
%MOMM*%
%LPD*%
G01*
G04 APERTURE LIST*
G04 #@! TA.AperFunction,EtchedComponent*
%ADD10C,0.010000*%
G04 #@! TD*
G04 APERTURE END LIST*
D10*
G04 #@! TO.C,G\u002A\u002A\u002A*
G36*
X31270470Y-104293536D02*
G01*
X31413694Y-104352187D01*
X31425299Y-104362699D01*
X31463131Y-104466718D01*
X31488014Y-104691543D01*
X31500147Y-105039439D01*
X31501500Y-105243924D01*
X31506277Y-105621781D01*
X31524040Y-105889015D01*
X31559933Y-106061763D01*
X31619102Y-106156162D01*
X31706692Y-106188346D01*
X31800074Y-106180259D01*
X31858847Y-106149831D01*
X31898096Y-106068802D01*
X31924559Y-105912140D01*
X31944975Y-105654818D01*
X31946000Y-105638176D01*
X31968086Y-105389124D01*
X31998661Y-105188094D01*
X32032069Y-105069649D01*
X32041250Y-105055904D01*
X32221886Y-104959806D01*
X32430866Y-104962442D01*
X32585014Y-105038820D01*
X32666092Y-105120425D01*
X32717359Y-105226968D01*
X32748883Y-105392045D01*
X32770728Y-105649252D01*
X32771500Y-105661249D01*
X32792521Y-105918067D01*
X32820000Y-106073356D01*
X32861098Y-106152587D01*
X32917425Y-106180265D01*
X33031295Y-106186038D01*
X33112650Y-106142434D01*
X33166638Y-106033316D01*
X33198402Y-105842548D01*
X33213088Y-105553993D01*
X33216000Y-105243924D01*
X33219239Y-104875929D01*
X33233600Y-104616203D01*
X33266052Y-104446086D01*
X33323559Y-104346914D01*
X33413088Y-104300026D01*
X33541608Y-104286760D01*
X33573414Y-104286500D01*
X33722085Y-104296511D01*
X33829374Y-104338235D01*
X33901918Y-104429204D01*
X33946350Y-104586952D01*
X33969306Y-104829013D01*
X33977421Y-105172919D01*
X33978000Y-105355651D01*
X33971381Y-105784779D01*
X33947010Y-106109554D01*
X33898114Y-106352148D01*
X33817920Y-106534733D01*
X33699654Y-106679482D01*
X33536543Y-106808565D01*
X33533532Y-106810625D01*
X33324823Y-106902252D01*
X33061028Y-106950387D01*
X32791047Y-106952519D01*
X32563779Y-106906139D01*
X32482327Y-106864594D01*
X32367594Y-106808071D01*
X32264583Y-106843076D01*
X32233812Y-106864594D01*
X32060827Y-106931253D01*
X31817049Y-106954544D01*
X31550399Y-106936216D01*
X31308800Y-106878018D01*
X31199294Y-106826843D01*
X31030400Y-106708641D01*
X30907938Y-106576537D01*
X30824778Y-106408545D01*
X30773794Y-106182679D01*
X30747856Y-105876952D01*
X30739835Y-105469378D01*
X30739737Y-105409450D01*
X30744267Y-105077703D01*
X30756857Y-104784866D01*
X30775727Y-104558104D01*
X30799098Y-104424580D01*
X30805234Y-104409325D01*
X30911914Y-104326190D01*
X31085101Y-104286232D01*
X31270470Y-104293536D01*
G37*
X31270470Y-104293536D02*
X31413694Y-104352187D01*
X31425299Y-104362699D01*
X31463131Y-104466718D01*
X31488014Y-104691543D01*
X31500147Y-105039439D01*
X31501500Y-105243924D01*
X31506277Y-105621781D01*
X31524040Y-105889015D01*
X31559933Y-106061763D01*
X31619102Y-106156162D01*
X31706692Y-106188346D01*
X31800074Y-106180259D01*
X31858847Y-106149831D01*
X31898096Y-106068802D01*
X31924559Y-105912140D01*
X31944975Y-105654818D01*
X31946000Y-105638176D01*
X31968086Y-105389124D01*
X31998661Y-105188094D01*
X32032069Y-105069649D01*
X32041250Y-105055904D01*
X32221886Y-104959806D01*
X32430866Y-104962442D01*
X32585014Y-105038820D01*
X32666092Y-105120425D01*
X32717359Y-105226968D01*
X32748883Y-105392045D01*
X32770728Y-105649252D01*
X32771500Y-105661249D01*
X32792521Y-105918067D01*
X32820000Y-106073356D01*
X32861098Y-106152587D01*
X32917425Y-106180265D01*
X33031295Y-106186038D01*
X33112650Y-106142434D01*
X33166638Y-106033316D01*
X33198402Y-105842548D01*
X33213088Y-105553993D01*
X33216000Y-105243924D01*
X33219239Y-104875929D01*
X33233600Y-104616203D01*
X33266052Y-104446086D01*
X33323559Y-104346914D01*
X33413088Y-104300026D01*
X33541608Y-104286760D01*
X33573414Y-104286500D01*
X33722085Y-104296511D01*
X33829374Y-104338235D01*
X33901918Y-104429204D01*
X33946350Y-104586952D01*
X33969306Y-104829013D01*
X33977421Y-105172919D01*
X33978000Y-105355651D01*
X33971381Y-105784779D01*
X33947010Y-106109554D01*
X33898114Y-106352148D01*
X33817920Y-106534733D01*
X33699654Y-106679482D01*
X33536543Y-106808565D01*
X33533532Y-106810625D01*
X33324823Y-106902252D01*
X33061028Y-106950387D01*
X32791047Y-106952519D01*
X32563779Y-106906139D01*
X32482327Y-106864594D01*
X32367594Y-106808071D01*
X32264583Y-106843076D01*
X32233812Y-106864594D01*
X32060827Y-106931253D01*
X31817049Y-106954544D01*
X31550399Y-106936216D01*
X31308800Y-106878018D01*
X31199294Y-106826843D01*
X31030400Y-106708641D01*
X30907938Y-106576537D01*
X30824778Y-106408545D01*
X30773794Y-106182679D01*
X30747856Y-105876952D01*
X30739835Y-105469378D01*
X30739737Y-105409450D01*
X30744267Y-105077703D01*
X30756857Y-104784866D01*
X30775727Y-104558104D01*
X30799098Y-104424580D01*
X30805234Y-104409325D01*
X30911914Y-104326190D01*
X31085101Y-104286232D01*
X31270470Y-104293536D01*
G36*
X29358969Y-104295740D02*
G01*
X29539808Y-104334913D01*
X29712808Y-104421194D01*
X29823025Y-104492875D01*
X30040052Y-104660933D01*
X30196311Y-104841739D01*
X30301937Y-105060361D01*
X30367066Y-105341863D01*
X30401834Y-105711315D01*
X30411316Y-105947848D01*
X30417307Y-106328025D01*
X30405873Y-106599456D01*
X30370490Y-106779929D01*
X30304637Y-106887227D01*
X30201790Y-106939138D01*
X30055427Y-106953446D01*
X30042513Y-106953500D01*
X29874623Y-106939196D01*
X29767987Y-106903703D01*
X29756749Y-106892426D01*
X29668442Y-106864002D01*
X29558368Y-106892426D01*
X29336117Y-106939252D01*
X29052167Y-106949906D01*
X28762648Y-106926624D01*
X28523687Y-106871642D01*
X28469772Y-106849065D01*
X28169460Y-106637387D01*
X27924851Y-106342176D01*
X27758378Y-105998893D01*
X27692476Y-105642996D01*
X27692413Y-105637581D01*
X28517018Y-105637581D01*
X28568849Y-105845664D01*
X28688278Y-106023164D01*
X28858242Y-106148517D01*
X29061676Y-106200163D01*
X29281516Y-106156540D01*
X29383119Y-106098779D01*
X29552966Y-105912271D01*
X29629765Y-105677970D01*
X29600048Y-105438491D01*
X29595452Y-105426970D01*
X29447028Y-105203412D01*
X29243774Y-105075398D01*
X29014293Y-105049555D01*
X28787188Y-105132508D01*
X28684409Y-105215909D01*
X28549850Y-105420475D01*
X28517018Y-105637581D01*
X27692413Y-105637581D01*
X27692208Y-105620000D01*
X27746741Y-105284210D01*
X27894731Y-104950585D01*
X28112759Y-104655343D01*
X28377408Y-104434701D01*
X28499085Y-104372042D01*
X28673910Y-104325940D01*
X28915544Y-104294883D01*
X29111034Y-104286500D01*
X29358969Y-104295740D01*
G37*
X29358969Y-104295740D02*
X29539808Y-104334913D01*
X29712808Y-104421194D01*
X29823025Y-104492875D01*
X30040052Y-104660933D01*
X30196311Y-104841739D01*
X30301937Y-105060361D01*
X30367066Y-105341863D01*
X30401834Y-105711315D01*
X30411316Y-105947848D01*
X30417307Y-106328025D01*
X30405873Y-106599456D01*
X30370490Y-106779929D01*
X30304637Y-106887227D01*
X30201790Y-106939138D01*
X30055427Y-106953446D01*
X30042513Y-106953500D01*
X29874623Y-106939196D01*
X29767987Y-106903703D01*
X29756749Y-106892426D01*
X29668442Y-106864002D01*
X29558368Y-106892426D01*
X29336117Y-106939252D01*
X29052167Y-106949906D01*
X28762648Y-106926624D01*
X28523687Y-106871642D01*
X28469772Y-106849065D01*
X28169460Y-106637387D01*
X27924851Y-106342176D01*
X27758378Y-105998893D01*
X27692476Y-105642996D01*
X27692413Y-105637581D01*
X28517018Y-105637581D01*
X28568849Y-105845664D01*
X28688278Y-106023164D01*
X28858242Y-106148517D01*
X29061676Y-106200163D01*
X29281516Y-106156540D01*
X29383119Y-106098779D01*
X29552966Y-105912271D01*
X29629765Y-105677970D01*
X29600048Y-105438491D01*
X29595452Y-105426970D01*
X29447028Y-105203412D01*
X29243774Y-105075398D01*
X29014293Y-105049555D01*
X28787188Y-105132508D01*
X28684409Y-105215909D01*
X28549850Y-105420475D01*
X28517018Y-105637581D01*
X27692413Y-105637581D01*
X27692208Y-105620000D01*
X27746741Y-105284210D01*
X27894731Y-104950585D01*
X28112759Y-104655343D01*
X28377408Y-104434701D01*
X28499085Y-104372042D01*
X28673910Y-104325940D01*
X28915544Y-104294883D01*
X29111034Y-104286500D01*
X29358969Y-104295740D01*
G36*
X22497924Y-103522707D02*
G01*
X22569908Y-103577125D01*
X22648562Y-103746794D01*
X22675000Y-104007825D01*
X22675000Y-104322401D01*
X23113701Y-104297612D01*
X23490427Y-104298893D01*
X23784246Y-104359486D01*
X24030214Y-104491650D01*
X24252580Y-104695843D01*
X24416580Y-104899339D01*
X24529167Y-105111893D01*
X24598809Y-105363211D01*
X24633970Y-105682996D01*
X24643145Y-106066245D01*
X24633194Y-106426787D01*
X24597553Y-106678660D01*
X24528282Y-106838952D01*
X24417438Y-106924748D01*
X24257079Y-106953134D01*
X24230750Y-106953500D01*
X24066304Y-106933211D01*
X23950556Y-106860918D01*
X23875838Y-106719477D01*
X23834486Y-106491747D01*
X23818833Y-106160583D01*
X23818000Y-106030501D01*
X23816272Y-105737792D01*
X23806759Y-105542479D01*
X23782962Y-105414963D01*
X23738386Y-105325646D01*
X23666533Y-105244930D01*
X23639900Y-105219130D01*
X23413893Y-105076973D01*
X23172889Y-105057805D01*
X22935155Y-105162050D01*
X22885038Y-105201646D01*
X22808504Y-105273280D01*
X22756442Y-105349393D01*
X22722686Y-105456178D01*
X22701066Y-105619828D01*
X22685416Y-105866539D01*
X22675122Y-106093101D01*
X22656875Y-106437862D01*
X22630520Y-106675512D01*
X22586192Y-106825928D01*
X22514027Y-106908986D01*
X22404161Y-106944563D01*
X22248609Y-106952527D01*
X22059181Y-106912978D01*
X21978734Y-106830674D01*
X21956031Y-106725815D01*
X21937944Y-106519007D01*
X21924406Y-106231574D01*
X21915348Y-105884840D01*
X21910703Y-105500129D01*
X21910404Y-105098766D01*
X21914382Y-104702074D01*
X21922570Y-104331378D01*
X21934899Y-104008003D01*
X21951303Y-103753272D01*
X21971713Y-103588509D01*
X21989200Y-103537199D01*
X22130762Y-103472087D01*
X22320486Y-103468641D01*
X22497924Y-103522707D01*
G37*
X22497924Y-103522707D02*
X22569908Y-103577125D01*
X22648562Y-103746794D01*
X22675000Y-104007825D01*
X22675000Y-104322401D01*
X23113701Y-104297612D01*
X23490427Y-104298893D01*
X23784246Y-104359486D01*
X24030214Y-104491650D01*
X24252580Y-104695843D01*
X24416580Y-104899339D01*
X24529167Y-105111893D01*
X24598809Y-105363211D01*
X24633970Y-105682996D01*
X24643145Y-106066245D01*
X24633194Y-106426787D01*
X24597553Y-106678660D01*
X24528282Y-106838952D01*
X24417438Y-106924748D01*
X24257079Y-106953134D01*
X24230750Y-106953500D01*
X24066304Y-106933211D01*
X23950556Y-106860918D01*
X23875838Y-106719477D01*
X23834486Y-106491747D01*
X23818833Y-106160583D01*
X23818000Y-106030501D01*
X23816272Y-105737792D01*
X23806759Y-105542479D01*
X23782962Y-105414963D01*
X23738386Y-105325646D01*
X23666533Y-105244930D01*
X23639900Y-105219130D01*
X23413893Y-105076973D01*
X23172889Y-105057805D01*
X22935155Y-105162050D01*
X22885038Y-105201646D01*
X22808504Y-105273280D01*
X22756442Y-105349393D01*
X22722686Y-105456178D01*
X22701066Y-105619828D01*
X22685416Y-105866539D01*
X22675122Y-106093101D01*
X22656875Y-106437862D01*
X22630520Y-106675512D01*
X22586192Y-106825928D01*
X22514027Y-106908986D01*
X22404161Y-106944563D01*
X22248609Y-106952527D01*
X22059181Y-106912978D01*
X21978734Y-106830674D01*
X21956031Y-106725815D01*
X21937944Y-106519007D01*
X21924406Y-106231574D01*
X21915348Y-105884840D01*
X21910703Y-105500129D01*
X21910404Y-105098766D01*
X21914382Y-104702074D01*
X21922570Y-104331378D01*
X21934899Y-104008003D01*
X21951303Y-103753272D01*
X21971713Y-103588509D01*
X21989200Y-103537199D01*
X22130762Y-103472087D01*
X22320486Y-103468641D01*
X22497924Y-103522707D01*
G36*
X19798769Y-103478445D02*
G01*
X19928731Y-103534246D01*
X19931799Y-103537199D01*
X19977093Y-103642584D01*
X20004387Y-103822040D01*
X20008000Y-103918199D01*
X20008000Y-104223000D01*
X20569658Y-104223000D01*
X20903133Y-104235028D01*
X21129131Y-104277130D01*
X21265415Y-104358328D01*
X21329753Y-104487646D01*
X21341500Y-104615033D01*
X21314660Y-104774564D01*
X21223082Y-104883429D01*
X21050182Y-104949379D01*
X20779371Y-104980167D01*
X20549931Y-104985000D01*
X19990612Y-104985000D01*
X20024856Y-105411603D01*
X20050888Y-105652592D01*
X20092201Y-105809319D01*
X20165224Y-105924517D01*
X20256801Y-106014853D01*
X20466942Y-106152473D01*
X20683026Y-106179984D01*
X20931862Y-106098630D01*
X21021870Y-106050334D01*
X21264651Y-105959473D01*
X21473196Y-105975683D01*
X21628228Y-106094503D01*
X21684271Y-106203585D01*
X21698606Y-106405833D01*
X21607276Y-106586910D01*
X21430831Y-106739728D01*
X21189824Y-106857197D01*
X20904806Y-106932228D01*
X20596328Y-106957731D01*
X20284942Y-106926618D01*
X19991199Y-106831798D01*
X19938612Y-106805749D01*
X19727614Y-106658753D01*
X19528111Y-106463904D01*
X19468250Y-106387756D01*
X19277750Y-106117512D01*
X19258055Y-104879739D01*
X19253233Y-104399187D01*
X19256299Y-104035564D01*
X19267663Y-103779022D01*
X19287737Y-103619711D01*
X19313455Y-103551483D01*
X19432234Y-103488424D01*
X19613638Y-103463624D01*
X19798769Y-103478445D01*
G37*
X19798769Y-103478445D02*
X19928731Y-103534246D01*
X19931799Y-103537199D01*
X19977093Y-103642584D01*
X20004387Y-103822040D01*
X20008000Y-103918199D01*
X20008000Y-104223000D01*
X20569658Y-104223000D01*
X20903133Y-104235028D01*
X21129131Y-104277130D01*
X21265415Y-104358328D01*
X21329753Y-104487646D01*
X21341500Y-104615033D01*
X21314660Y-104774564D01*
X21223082Y-104883429D01*
X21050182Y-104949379D01*
X20779371Y-104980167D01*
X20549931Y-104985000D01*
X19990612Y-104985000D01*
X20024856Y-105411603D01*
X20050888Y-105652592D01*
X20092201Y-105809319D01*
X20165224Y-105924517D01*
X20256801Y-106014853D01*
X20466942Y-106152473D01*
X20683026Y-106179984D01*
X20931862Y-106098630D01*
X21021870Y-106050334D01*
X21264651Y-105959473D01*
X21473196Y-105975683D01*
X21628228Y-106094503D01*
X21684271Y-106203585D01*
X21698606Y-106405833D01*
X21607276Y-106586910D01*
X21430831Y-106739728D01*
X21189824Y-106857197D01*
X20904806Y-106932228D01*
X20596328Y-106957731D01*
X20284942Y-106926618D01*
X19991199Y-106831798D01*
X19938612Y-106805749D01*
X19727614Y-106658753D01*
X19528111Y-106463904D01*
X19468250Y-106387756D01*
X19277750Y-106117512D01*
X19258055Y-104879739D01*
X19253233Y-104399187D01*
X19256299Y-104035564D01*
X19267663Y-103779022D01*
X19287737Y-103619711D01*
X19313455Y-103551483D01*
X19432234Y-103488424D01*
X19613638Y-103463624D01*
X19798769Y-103478445D01*
G36*
X16814235Y-104318472D02*
G01*
X16881824Y-104365875D01*
X16910909Y-104459525D01*
X16938524Y-104649599D01*
X16960983Y-104905539D01*
X16971836Y-105112000D01*
X16994012Y-105478868D01*
X17032919Y-105741321D01*
X17096327Y-105921624D01*
X17192002Y-106042045D01*
X17324690Y-106123481D01*
X17587508Y-106187625D01*
X17828037Y-106127335D01*
X17956461Y-106038353D01*
X18033852Y-105965690D01*
X18086223Y-105888253D01*
X18119988Y-105779373D01*
X18141557Y-105612378D01*
X18157344Y-105360596D01*
X18166377Y-105165228D01*
X18183481Y-104869993D01*
X18205564Y-104618404D01*
X18229595Y-104439537D01*
X18249622Y-104365874D01*
X18353959Y-104304970D01*
X18521618Y-104289326D01*
X18698013Y-104317020D01*
X18828555Y-104386127D01*
X18828714Y-104386285D01*
X18873604Y-104457370D01*
X18903345Y-104578694D01*
X18920538Y-104772353D01*
X18927787Y-105060447D01*
X18928500Y-105233548D01*
X18925721Y-105567257D01*
X18914409Y-105805069D01*
X18890100Y-105978022D01*
X18848330Y-106117153D01*
X18784635Y-106253500D01*
X18780749Y-106260887D01*
X18633480Y-106472307D01*
X18438661Y-106671622D01*
X18363998Y-106730218D01*
X18192773Y-106836551D01*
X18024880Y-106898130D01*
X17810243Y-106929410D01*
X17638623Y-106939631D01*
X17328515Y-106939574D01*
X17108910Y-106904615D01*
X16991750Y-106857272D01*
X16655250Y-106614835D01*
X16395343Y-106301552D01*
X16318387Y-106159750D01*
X16256954Y-105961061D01*
X16214944Y-105693075D01*
X16192432Y-105387084D01*
X16189494Y-105074379D01*
X16206205Y-104786252D01*
X16242640Y-104553996D01*
X16298875Y-104408901D01*
X16314125Y-104391591D01*
X16463910Y-104314380D01*
X16649434Y-104289155D01*
X16814235Y-104318472D01*
G37*
X16814235Y-104318472D02*
X16881824Y-104365875D01*
X16910909Y-104459525D01*
X16938524Y-104649599D01*
X16960983Y-104905539D01*
X16971836Y-105112000D01*
X16994012Y-105478868D01*
X17032919Y-105741321D01*
X17096327Y-105921624D01*
X17192002Y-106042045D01*
X17324690Y-106123481D01*
X17587508Y-106187625D01*
X17828037Y-106127335D01*
X17956461Y-106038353D01*
X18033852Y-105965690D01*
X18086223Y-105888253D01*
X18119988Y-105779373D01*
X18141557Y-105612378D01*
X18157344Y-105360596D01*
X18166377Y-105165228D01*
X18183481Y-104869993D01*
X18205564Y-104618404D01*
X18229595Y-104439537D01*
X18249622Y-104365874D01*
X18353959Y-104304970D01*
X18521618Y-104289326D01*
X18698013Y-104317020D01*
X18828555Y-104386127D01*
X18828714Y-104386285D01*
X18873604Y-104457370D01*
X18903345Y-104578694D01*
X18920538Y-104772353D01*
X18927787Y-105060447D01*
X18928500Y-105233548D01*
X18925721Y-105567257D01*
X18914409Y-105805069D01*
X18890100Y-105978022D01*
X18848330Y-106117153D01*
X18784635Y-106253500D01*
X18780749Y-106260887D01*
X18633480Y-106472307D01*
X18438661Y-106671622D01*
X18363998Y-106730218D01*
X18192773Y-106836551D01*
X18024880Y-106898130D01*
X17810243Y-106929410D01*
X17638623Y-106939631D01*
X17328515Y-106939574D01*
X17108910Y-106904615D01*
X16991750Y-106857272D01*
X16655250Y-106614835D01*
X16395343Y-106301552D01*
X16318387Y-106159750D01*
X16256954Y-105961061D01*
X16214944Y-105693075D01*
X16192432Y-105387084D01*
X16189494Y-105074379D01*
X16206205Y-104786252D01*
X16242640Y-104553996D01*
X16298875Y-104408901D01*
X16314125Y-104391591D01*
X16463910Y-104314380D01*
X16649434Y-104289155D01*
X16814235Y-104318472D01*
G36*
X14999781Y-104342425D02*
G01*
X15303332Y-104462076D01*
X15380763Y-104510671D01*
X15674753Y-104782073D01*
X15856945Y-105107505D01*
X15931588Y-105496121D01*
X15931086Y-105696638D01*
X15855273Y-106118614D01*
X15682105Y-106462652D01*
X15419763Y-106720988D01*
X15076432Y-106885853D01*
X14660292Y-106949484D01*
X14610500Y-106949969D01*
X14360567Y-106936150D01*
X14134037Y-106901788D01*
X14007250Y-106864569D01*
X13832280Y-106760728D01*
X13655584Y-106617465D01*
X13636228Y-106598500D01*
X13392367Y-106271577D01*
X13259734Y-105911326D01*
X13239913Y-105616985D01*
X14039000Y-105616985D01*
X14092029Y-105869758D01*
X14232311Y-106056845D01*
X14431640Y-106165453D01*
X14661808Y-106182790D01*
X14894606Y-106096065D01*
X14970640Y-106039489D01*
X15093225Y-105902042D01*
X15142215Y-105737273D01*
X15147363Y-105620000D01*
X15095782Y-105362357D01*
X14958555Y-105176452D01*
X14761961Y-105074002D01*
X14532274Y-105066724D01*
X14295772Y-105166334D01*
X14234372Y-105212894D01*
X14095419Y-105362101D01*
X14042867Y-105528877D01*
X14039000Y-105616985D01*
X13239913Y-105616985D01*
X13234624Y-105538452D01*
X13313333Y-105173661D01*
X13492156Y-104837656D01*
X13767389Y-104551142D01*
X14032774Y-104382238D01*
X14317186Y-104297997D01*
X14655294Y-104286229D01*
X14999781Y-104342425D01*
G37*
X14999781Y-104342425D02*
X15303332Y-104462076D01*
X15380763Y-104510671D01*
X15674753Y-104782073D01*
X15856945Y-105107505D01*
X15931588Y-105496121D01*
X15931086Y-105696638D01*
X15855273Y-106118614D01*
X15682105Y-106462652D01*
X15419763Y-106720988D01*
X15076432Y-106885853D01*
X14660292Y-106949484D01*
X14610500Y-106949969D01*
X14360567Y-106936150D01*
X14134037Y-106901788D01*
X14007250Y-106864569D01*
X13832280Y-106760728D01*
X13655584Y-106617465D01*
X13636228Y-106598500D01*
X13392367Y-106271577D01*
X13259734Y-105911326D01*
X13239913Y-105616985D01*
X14039000Y-105616985D01*
X14092029Y-105869758D01*
X14232311Y-106056845D01*
X14431640Y-106165453D01*
X14661808Y-106182790D01*
X14894606Y-106096065D01*
X14970640Y-106039489D01*
X15093225Y-105902042D01*
X15142215Y-105737273D01*
X15147363Y-105620000D01*
X15095782Y-105362357D01*
X14958555Y-105176452D01*
X14761961Y-105074002D01*
X14532274Y-105066724D01*
X14295772Y-105166334D01*
X14234372Y-105212894D01*
X14095419Y-105362101D01*
X14042867Y-105528877D01*
X14039000Y-105616985D01*
X13239913Y-105616985D01*
X13234624Y-105538452D01*
X13313333Y-105173661D01*
X13492156Y-104837656D01*
X13767389Y-104551142D01*
X14032774Y-104382238D01*
X14317186Y-104297997D01*
X14655294Y-104286229D01*
X14999781Y-104342425D01*
G36*
X11925645Y-104311474D02*
G01*
X12201255Y-104385769D01*
X12247654Y-104407320D01*
X12572684Y-104637123D01*
X12804780Y-104931142D01*
X12943890Y-105267804D01*
X12989960Y-105625537D01*
X12942936Y-105982770D01*
X12802765Y-106317930D01*
X12569393Y-106609445D01*
X12253666Y-106830241D01*
X11948468Y-106928775D01*
X11594417Y-106956417D01*
X11244231Y-106914048D01*
X10961148Y-106808625D01*
X10781726Y-106681085D01*
X10640755Y-106536521D01*
X10613202Y-106495079D01*
X10555654Y-106368606D01*
X10568732Y-106269518D01*
X10649424Y-106146785D01*
X10825160Y-105988382D01*
X11021592Y-105955173D01*
X11235389Y-106047643D01*
X11251074Y-106058950D01*
X11499474Y-106177213D01*
X11745695Y-106170407D01*
X11976181Y-106039478D01*
X12011884Y-106005884D01*
X12166227Y-105783592D01*
X12194111Y-105556397D01*
X12095536Y-105331104D01*
X12011884Y-105234115D01*
X11858664Y-105103456D01*
X11713424Y-105041409D01*
X11558647Y-105053722D01*
X11376814Y-105146141D01*
X11150406Y-105324413D01*
X10861907Y-105594285D01*
X10835625Y-105620000D01*
X10581109Y-105864632D01*
X10393938Y-106030137D01*
X10255057Y-106130466D01*
X10145407Y-106179571D01*
X10054964Y-106191500D01*
X9836278Y-106141901D01*
X9698616Y-106003294D01*
X9657500Y-105820585D01*
X9679984Y-105722869D01*
X9755722Y-105597023D01*
X9897139Y-105427161D01*
X10116661Y-105197395D01*
X10244875Y-105069596D01*
X10485095Y-104840094D01*
X10712480Y-104636315D01*
X10902318Y-104479555D01*
X11029898Y-104391114D01*
X11035471Y-104388225D01*
X11288558Y-104311848D01*
X11603348Y-104286548D01*
X11925645Y-104311474D01*
G37*
X11925645Y-104311474D02*
X12201255Y-104385769D01*
X12247654Y-104407320D01*
X12572684Y-104637123D01*
X12804780Y-104931142D01*
X12943890Y-105267804D01*
X12989960Y-105625537D01*
X12942936Y-105982770D01*
X12802765Y-106317930D01*
X12569393Y-106609445D01*
X12253666Y-106830241D01*
X11948468Y-106928775D01*
X11594417Y-106956417D01*
X11244231Y-106914048D01*
X10961148Y-106808625D01*
X10781726Y-106681085D01*
X10640755Y-106536521D01*
X10613202Y-106495079D01*
X10555654Y-106368606D01*
X10568732Y-106269518D01*
X10649424Y-106146785D01*
X10825160Y-105988382D01*
X11021592Y-105955173D01*
X11235389Y-106047643D01*
X11251074Y-106058950D01*
X11499474Y-106177213D01*
X11745695Y-106170407D01*
X11976181Y-106039478D01*
X12011884Y-106005884D01*
X12166227Y-105783592D01*
X12194111Y-105556397D01*
X12095536Y-105331104D01*
X12011884Y-105234115D01*
X11858664Y-105103456D01*
X11713424Y-105041409D01*
X11558647Y-105053722D01*
X11376814Y-105146141D01*
X11150406Y-105324413D01*
X10861907Y-105594285D01*
X10835625Y-105620000D01*
X10581109Y-105864632D01*
X10393938Y-106030137D01*
X10255057Y-106130466D01*
X10145407Y-106179571D01*
X10054964Y-106191500D01*
X9836278Y-106141901D01*
X9698616Y-106003294D01*
X9657500Y-105820585D01*
X9679984Y-105722869D01*
X9755722Y-105597023D01*
X9897139Y-105427161D01*
X10116661Y-105197395D01*
X10244875Y-105069596D01*
X10485095Y-104840094D01*
X10712480Y-104636315D01*
X10902318Y-104479555D01*
X11029898Y-104391114D01*
X11035471Y-104388225D01*
X11288558Y-104311848D01*
X11603348Y-104286548D01*
X11925645Y-104311474D01*
G36*
X38243533Y-104223000D02*
G01*
X38596497Y-104224910D01*
X38844702Y-104232425D01*
X39010354Y-104248223D01*
X39115662Y-104274979D01*
X39182831Y-104315371D01*
X39206908Y-104339125D01*
X39298185Y-104519883D01*
X39293064Y-104718456D01*
X39195874Y-104879908D01*
X39105467Y-104933449D01*
X38960991Y-104966121D01*
X38736105Y-104981886D01*
X38497374Y-104984999D01*
X38223753Y-104986205D01*
X38052921Y-104994221D01*
X37960668Y-105015647D01*
X37922783Y-105057084D01*
X37915057Y-105125129D01*
X37915000Y-105143750D01*
X37922545Y-105230090D01*
X37964594Y-105277623D01*
X38070267Y-105297896D01*
X38268684Y-105302456D01*
X38315317Y-105302500D01*
X38573875Y-105314347D01*
X38768362Y-105360810D01*
X38960391Y-105458272D01*
X39004666Y-105485798D01*
X39283105Y-105730763D01*
X39467495Y-106036410D01*
X39557835Y-106378078D01*
X39554126Y-106731105D01*
X39456368Y-107070828D01*
X39264560Y-107372585D01*
X39004666Y-107595701D01*
X38800728Y-107707684D01*
X38607868Y-107762086D01*
X38361155Y-107776309D01*
X38331192Y-107776193D01*
X37958262Y-107737237D01*
X37716311Y-107651619D01*
X37496808Y-107502379D01*
X37311163Y-107316612D01*
X37187784Y-107127458D01*
X37153000Y-106994507D01*
X37200423Y-106773071D01*
X37326368Y-106631846D01*
X37506349Y-106576756D01*
X37715881Y-106613727D01*
X37930476Y-106748685D01*
X37978500Y-106794750D01*
X38159709Y-106953841D01*
X38311125Y-107007316D01*
X38465391Y-106960152D01*
X38573186Y-106885391D01*
X38706935Y-106725362D01*
X38740500Y-106540749D01*
X38705295Y-106338516D01*
X38591492Y-106197062D01*
X38386812Y-106109555D01*
X38078974Y-106069163D01*
X37884528Y-106064499D01*
X37601019Y-106059538D01*
X37402187Y-106031913D01*
X37273027Y-105962511D01*
X37198534Y-105832221D01*
X37163704Y-105621929D01*
X37153531Y-105312524D01*
X37153000Y-105132716D01*
X37154364Y-104802917D01*
X37170238Y-104564297D01*
X37218292Y-104402114D01*
X37316197Y-104301628D01*
X37481625Y-104248099D01*
X37732245Y-104226784D01*
X38085730Y-104222943D01*
X38243533Y-104223000D01*
G37*
X38243533Y-104223000D02*
X38596497Y-104224910D01*
X38844702Y-104232425D01*
X39010354Y-104248223D01*
X39115662Y-104274979D01*
X39182831Y-104315371D01*
X39206908Y-104339125D01*
X39298185Y-104519883D01*
X39293064Y-104718456D01*
X39195874Y-104879908D01*
X39105467Y-104933449D01*
X38960991Y-104966121D01*
X38736105Y-104981886D01*
X38497374Y-104984999D01*
X38223753Y-104986205D01*
X38052921Y-104994221D01*
X37960668Y-105015647D01*
X37922783Y-105057084D01*
X37915057Y-105125129D01*
X37915000Y-105143750D01*
X37922545Y-105230090D01*
X37964594Y-105277623D01*
X38070267Y-105297896D01*
X38268684Y-105302456D01*
X38315317Y-105302500D01*
X38573875Y-105314347D01*
X38768362Y-105360810D01*
X38960391Y-105458272D01*
X39004666Y-105485798D01*
X39283105Y-105730763D01*
X39467495Y-106036410D01*
X39557835Y-106378078D01*
X39554126Y-106731105D01*
X39456368Y-107070828D01*
X39264560Y-107372585D01*
X39004666Y-107595701D01*
X38800728Y-107707684D01*
X38607868Y-107762086D01*
X38361155Y-107776309D01*
X38331192Y-107776193D01*
X37958262Y-107737237D01*
X37716311Y-107651619D01*
X37496808Y-107502379D01*
X37311163Y-107316612D01*
X37187784Y-107127458D01*
X37153000Y-106994507D01*
X37200423Y-106773071D01*
X37326368Y-106631846D01*
X37506349Y-106576756D01*
X37715881Y-106613727D01*
X37930476Y-106748685D01*
X37978500Y-106794750D01*
X38159709Y-106953841D01*
X38311125Y-107007316D01*
X38465391Y-106960152D01*
X38573186Y-106885391D01*
X38706935Y-106725362D01*
X38740500Y-106540749D01*
X38705295Y-106338516D01*
X38591492Y-106197062D01*
X38386812Y-106109555D01*
X38078974Y-106069163D01*
X37884528Y-106064499D01*
X37601019Y-106059538D01*
X37402187Y-106031913D01*
X37273027Y-105962511D01*
X37198534Y-105832221D01*
X37163704Y-105621929D01*
X37153531Y-105312524D01*
X37153000Y-105132716D01*
X37154364Y-104802917D01*
X37170238Y-104564297D01*
X37218292Y-104402114D01*
X37316197Y-104301628D01*
X37481625Y-104248099D01*
X37732245Y-104226784D01*
X38085730Y-104222943D01*
X38243533Y-104223000D01*
G36*
X26531010Y-104317758D02*
G01*
X26707643Y-104355219D01*
X26850392Y-104425407D01*
X26972464Y-104515643D01*
X27288872Y-104832187D01*
X27480844Y-105172217D01*
X27532999Y-105367478D01*
X27541421Y-105777582D01*
X27434783Y-106167229D01*
X27223922Y-106510675D01*
X26944451Y-106765593D01*
X26815900Y-106843025D01*
X26683284Y-106889912D01*
X26509564Y-106913592D01*
X26257700Y-106921403D01*
X26156277Y-106921750D01*
X25596000Y-106921750D01*
X25596000Y-107227549D01*
X25578461Y-107500572D01*
X25516819Y-107670216D01*
X25397530Y-107756370D01*
X25220541Y-107779000D01*
X25042404Y-107756784D01*
X24915359Y-107701992D01*
X24901455Y-107688516D01*
X24873221Y-107607927D01*
X24854071Y-107438910D01*
X24843593Y-107171617D01*
X24841378Y-106796197D01*
X24846055Y-106361047D01*
X24857853Y-105620000D01*
X25630636Y-105620000D01*
X25651781Y-105823726D01*
X25732801Y-105967566D01*
X25807359Y-106039489D01*
X26039264Y-106169367D01*
X26281937Y-106187177D01*
X26504951Y-106093546D01*
X26583282Y-106023477D01*
X26697135Y-105827903D01*
X26739073Y-105595727D01*
X26703704Y-105379638D01*
X26657605Y-105296997D01*
X26454715Y-105123869D01*
X26213632Y-105057347D01*
X25967033Y-105101139D01*
X25807359Y-105200510D01*
X25684774Y-105337957D01*
X25635784Y-105502726D01*
X25630636Y-105620000D01*
X24857853Y-105620000D01*
X24865750Y-105124062D01*
X25065674Y-104848292D01*
X25328045Y-104561230D01*
X25629998Y-104382511D01*
X25993037Y-104302353D01*
X26273964Y-104298563D01*
X26531010Y-104317758D01*
G37*
X26531010Y-104317758D02*
X26707643Y-104355219D01*
X26850392Y-104425407D01*
X26972464Y-104515643D01*
X27288872Y-104832187D01*
X27480844Y-105172217D01*
X27532999Y-105367478D01*
X27541421Y-105777582D01*
X27434783Y-106167229D01*
X27223922Y-106510675D01*
X26944451Y-106765593D01*
X26815900Y-106843025D01*
X26683284Y-106889912D01*
X26509564Y-106913592D01*
X26257700Y-106921403D01*
X26156277Y-106921750D01*
X25596000Y-106921750D01*
X25596000Y-107227549D01*
X25578461Y-107500572D01*
X25516819Y-107670216D01*
X25397530Y-107756370D01*
X25220541Y-107779000D01*
X25042404Y-107756784D01*
X24915359Y-107701992D01*
X24901455Y-107688516D01*
X24873221Y-107607927D01*
X24854071Y-107438910D01*
X24843593Y-107171617D01*
X24841378Y-106796197D01*
X24846055Y-106361047D01*
X24857853Y-105620000D01*
X25630636Y-105620000D01*
X25651781Y-105823726D01*
X25732801Y-105967566D01*
X25807359Y-106039489D01*
X26039264Y-106169367D01*
X26281937Y-106187177D01*
X26504951Y-106093546D01*
X26583282Y-106023477D01*
X26697135Y-105827903D01*
X26739073Y-105595727D01*
X26703704Y-105379638D01*
X26657605Y-105296997D01*
X26454715Y-105123869D01*
X26213632Y-105057347D01*
X25967033Y-105101139D01*
X25807359Y-105200510D01*
X25684774Y-105337957D01*
X25635784Y-105502726D01*
X25630636Y-105620000D01*
X24857853Y-105620000D01*
X24865750Y-105124062D01*
X25065674Y-104848292D01*
X25328045Y-104561230D01*
X25629998Y-104382511D01*
X25993037Y-104302353D01*
X26273964Y-104298563D01*
X26531010Y-104317758D01*
G36*
X36808876Y-104444162D02*
G01*
X36876610Y-104600304D01*
X36854070Y-104767843D01*
X36847208Y-104788207D01*
X36791696Y-104915003D01*
X36686850Y-105125735D01*
X36542971Y-105401823D01*
X36370360Y-105724687D01*
X36179319Y-106075745D01*
X35980147Y-106436417D01*
X35783147Y-106788122D01*
X35598619Y-107112280D01*
X35436864Y-107390309D01*
X35308182Y-107603628D01*
X35222876Y-107733658D01*
X35197946Y-107763125D01*
X35008308Y-107837171D01*
X34793803Y-107801046D01*
X34690629Y-107743649D01*
X34571677Y-107589850D01*
X34550021Y-107473774D01*
X34579656Y-107366108D01*
X34661991Y-107167585D01*
X34787679Y-106898162D01*
X34947376Y-106577793D01*
X35131735Y-106226435D01*
X35150554Y-106191500D01*
X35750566Y-105080250D01*
X35081199Y-105048500D01*
X34772020Y-105030625D01*
X34564753Y-105008543D01*
X34434314Y-104977135D01*
X34355619Y-104931278D01*
X34321916Y-104893488D01*
X34239111Y-104707998D01*
X34274863Y-104521287D01*
X34330850Y-104427629D01*
X34371009Y-104377316D01*
X34423029Y-104340644D01*
X34505786Y-104315458D01*
X34638154Y-104299605D01*
X34839010Y-104290930D01*
X35127229Y-104287281D01*
X35521686Y-104286502D01*
X35567636Y-104286500D01*
X36705572Y-104286500D01*
X36808876Y-104444162D01*
G37*
X36808876Y-104444162D02*
X36876610Y-104600304D01*
X36854070Y-104767843D01*
X36847208Y-104788207D01*
X36791696Y-104915003D01*
X36686850Y-105125735D01*
X36542971Y-105401823D01*
X36370360Y-105724687D01*
X36179319Y-106075745D01*
X35980147Y-106436417D01*
X35783147Y-106788122D01*
X35598619Y-107112280D01*
X35436864Y-107390309D01*
X35308182Y-107603628D01*
X35222876Y-107733658D01*
X35197946Y-107763125D01*
X35008308Y-107837171D01*
X34793803Y-107801046D01*
X34690629Y-107743649D01*
X34571677Y-107589850D01*
X34550021Y-107473774D01*
X34579656Y-107366108D01*
X34661991Y-107167585D01*
X34787679Y-106898162D01*
X34947376Y-106577793D01*
X35131735Y-106226435D01*
X35150554Y-106191500D01*
X35750566Y-105080250D01*
X35081199Y-105048500D01*
X34772020Y-105030625D01*
X34564753Y-105008543D01*
X34434314Y-104977135D01*
X34355619Y-104931278D01*
X34321916Y-104893488D01*
X34239111Y-104707998D01*
X34274863Y-104521287D01*
X34330850Y-104427629D01*
X34371009Y-104377316D01*
X34423029Y-104340644D01*
X34505786Y-104315458D01*
X34638154Y-104299605D01*
X34839010Y-104290930D01*
X35127229Y-104287281D01*
X35521686Y-104286502D01*
X35567636Y-104286500D01*
X36705572Y-104286500D01*
X36808876Y-104444162D01*
G04 #@! TD*
M02*
