G04 #@! TF.GenerationSoftware,KiCad,Pcbnew,5.1.6*
G04 #@! TF.CreationDate,2020-07-29T11:26:02-04:00*
G04 #@! TF.ProjectId,southpawpcb,736f7574-6870-4617-9770-63622e6b6963,rev?*
G04 #@! TF.SameCoordinates,Original*
G04 #@! TF.FileFunction,Legend,Bot*
G04 #@! TF.FilePolarity,Positive*
%FSLAX46Y46*%
G04 Gerber Fmt 4.6, Leading zero omitted, Abs format (unit mm)*
G04 Created by KiCad (PCBNEW 5.1.6) date 2020-07-29 11:26:02*
%MOMM*%
%LPD*%
G01*
G04 APERTURE LIST*
%ADD10C,0.150000*%
%ADD11C,0.200000*%
%ADD12C,0.120000*%
G04 APERTURE END LIST*
D10*
G04 #@! TO.C,U1*
X51852500Y24727600D02*
X51852500Y-5752400D01*
X51852500Y24727600D02*
X46772500Y24727600D01*
X46772500Y24727600D02*
X46772500Y27267600D01*
X46772500Y27267600D02*
X39152500Y27267600D01*
X39152500Y27267600D02*
X39152500Y24727600D01*
X39152500Y24727600D02*
X34072500Y24727600D01*
X34072500Y24727600D02*
X34072500Y-5752400D01*
X34072500Y-5752400D02*
X51852500Y-5752400D01*
D11*
G04 #@! TO.C,D7*
X135881000Y19525000D02*
X135881000Y21925000D01*
X135706000Y19525000D02*
X135706000Y21925000D01*
X135531000Y19525000D02*
X135531000Y21925000D01*
X135131000Y21925000D02*
X135131000Y19525000D01*
X135356000Y19525000D02*
X135356000Y21925000D01*
X135231000Y19525000D02*
X135231000Y21925000D01*
X135156000Y19525000D02*
X140956000Y19525000D01*
X140956000Y19525000D02*
X140956000Y21925000D01*
X140956000Y21925000D02*
X135156000Y21925000D01*
G04 #@! TO.C,D48*
X269543000Y-16175000D02*
X263743000Y-16175000D01*
X269543000Y-18575000D02*
X269543000Y-16175000D01*
X263743000Y-18575000D02*
X269543000Y-18575000D01*
X263818000Y-18575000D02*
X263818000Y-16175000D01*
X263943000Y-18575000D02*
X263943000Y-16175000D01*
X263718000Y-16175000D02*
X263718000Y-18575000D01*
X264118000Y-18575000D02*
X264118000Y-16175000D01*
X264293000Y-18575000D02*
X264293000Y-16175000D01*
X264468000Y-18575000D02*
X264468000Y-16175000D01*
G04 #@! TO.C,D72*
X135668000Y-54275000D02*
X135668000Y-56675000D01*
X135843000Y-54275000D02*
X135843000Y-56675000D01*
X136018000Y-54275000D02*
X136018000Y-56675000D01*
X136418000Y-56675000D02*
X136418000Y-54275000D01*
X136193000Y-54275000D02*
X136193000Y-56675000D01*
X136318000Y-54275000D02*
X136318000Y-56675000D01*
X136393000Y-54275000D02*
X130593000Y-54275000D01*
X130593000Y-54275000D02*
X130593000Y-56675000D01*
X130593000Y-56675000D02*
X136393000Y-56675000D01*
G04 #@! TO.C,D39*
X59681200Y-18575000D02*
X59681200Y-16175000D01*
X59506200Y-18575000D02*
X59506200Y-16175000D01*
X59331200Y-18575000D02*
X59331200Y-16175000D01*
X58931200Y-16175000D02*
X58931200Y-18575000D01*
X59156200Y-18575000D02*
X59156200Y-16175000D01*
X59031200Y-18575000D02*
X59031200Y-16175000D01*
X58956200Y-18575000D02*
X64756200Y-18575000D01*
X64756200Y-18575000D02*
X64756200Y-16175000D01*
X64756200Y-16175000D02*
X58956200Y-16175000D01*
G04 #@! TO.C,D2*
X45706200Y21925000D02*
X39906200Y21925000D01*
X45706200Y19525000D02*
X45706200Y21925000D01*
X39906200Y19525000D02*
X45706200Y19525000D01*
X39981200Y19525000D02*
X39981200Y21925000D01*
X40106200Y19525000D02*
X40106200Y21925000D01*
X39881200Y21925000D02*
X39881200Y19525000D01*
X40281200Y19525000D02*
X40281200Y21925000D01*
X40456200Y19525000D02*
X40456200Y21925000D01*
X40631200Y19525000D02*
X40631200Y21925000D01*
G04 #@! TO.C,D50*
X307643000Y-16175000D02*
X301843000Y-16175000D01*
X307643000Y-18575000D02*
X307643000Y-16175000D01*
X301843000Y-18575000D02*
X307643000Y-18575000D01*
X301918000Y-18575000D02*
X301918000Y-16175000D01*
X302043000Y-18575000D02*
X302043000Y-16175000D01*
X301818000Y-16175000D02*
X301818000Y-18575000D01*
X302218000Y-18575000D02*
X302218000Y-16175000D01*
X302393000Y-18575000D02*
X302393000Y-16175000D01*
X302568000Y-18575000D02*
X302568000Y-16175000D01*
G04 #@! TO.C,D21*
X59681200Y475000D02*
X59681200Y2875000D01*
X59506200Y475000D02*
X59506200Y2875000D01*
X59331200Y475000D02*
X59331200Y2875000D01*
X58931200Y2875000D02*
X58931200Y475000D01*
X59156200Y475000D02*
X59156200Y2875000D01*
X59031200Y475000D02*
X59031200Y2875000D01*
X58956200Y475000D02*
X64756200Y475000D01*
X64756200Y475000D02*
X64756200Y2875000D01*
X64756200Y2875000D02*
X58956200Y2875000D01*
G04 #@! TO.C,D53*
X26656200Y-35225000D02*
X20856200Y-35225000D01*
X26656200Y-37625000D02*
X26656200Y-35225000D01*
X20856200Y-37625000D02*
X26656200Y-37625000D01*
X20931200Y-37625000D02*
X20931200Y-35225000D01*
X21056200Y-37625000D02*
X21056200Y-35225000D01*
X20831200Y-35225000D02*
X20831200Y-37625000D01*
X21231200Y-37625000D02*
X21231200Y-35225000D01*
X21406200Y-37625000D02*
X21406200Y-35225000D01*
X21581200Y-37625000D02*
X21581200Y-35225000D01*
G04 #@! TO.C,D26*
X169531000Y2875000D02*
X163731000Y2875000D01*
X169531000Y475000D02*
X169531000Y2875000D01*
X163731000Y475000D02*
X169531000Y475000D01*
X163806000Y475000D02*
X163806000Y2875000D01*
X163931000Y475000D02*
X163931000Y2875000D01*
X163706000Y2875000D02*
X163706000Y475000D01*
X164106000Y475000D02*
X164106000Y2875000D01*
X164281000Y475000D02*
X164281000Y2875000D01*
X164456000Y475000D02*
X164456000Y2875000D01*
G04 #@! TO.C,D60*
X178744000Y-37625000D02*
X178744000Y-35225000D01*
X178569000Y-37625000D02*
X178569000Y-35225000D01*
X178394000Y-37625000D02*
X178394000Y-35225000D01*
X177994000Y-35225000D02*
X177994000Y-37625000D01*
X178219000Y-37625000D02*
X178219000Y-35225000D01*
X178094000Y-37625000D02*
X178094000Y-35225000D01*
X178019000Y-37625000D02*
X183819000Y-37625000D01*
X183819000Y-37625000D02*
X183819000Y-35225000D01*
X183819000Y-35225000D02*
X178019000Y-35225000D01*
G04 #@! TO.C,D42*
X155243000Y-16175000D02*
X149443000Y-16175000D01*
X155243000Y-18575000D02*
X155243000Y-16175000D01*
X149443000Y-18575000D02*
X155243000Y-18575000D01*
X149518000Y-18575000D02*
X149518000Y-16175000D01*
X149643000Y-18575000D02*
X149643000Y-16175000D01*
X149418000Y-16175000D02*
X149418000Y-18575000D01*
X149818000Y-18575000D02*
X149818000Y-16175000D01*
X149993000Y-18575000D02*
X149993000Y-16175000D01*
X150168000Y-18575000D02*
X150168000Y-16175000D01*
G04 #@! TO.C,D4*
X83806200Y21925000D02*
X78006200Y21925000D01*
X83806200Y19525000D02*
X83806200Y21925000D01*
X78006200Y19525000D02*
X83806200Y19525000D01*
X78081200Y19525000D02*
X78081200Y21925000D01*
X78206200Y19525000D02*
X78206200Y21925000D01*
X77981200Y21925000D02*
X77981200Y19525000D01*
X78381200Y19525000D02*
X78381200Y21925000D01*
X78556200Y19525000D02*
X78556200Y21925000D01*
X78731200Y19525000D02*
X78731200Y21925000D01*
G04 #@! TO.C,D3*
X59681200Y19525000D02*
X59681200Y21925000D01*
X59506200Y19525000D02*
X59506200Y21925000D01*
X59331200Y19525000D02*
X59331200Y21925000D01*
X58931200Y21925000D02*
X58931200Y19525000D01*
X59156200Y19525000D02*
X59156200Y21925000D01*
X59031200Y19525000D02*
X59031200Y21925000D01*
X58956200Y19525000D02*
X64756200Y19525000D01*
X64756200Y19525000D02*
X64756200Y21925000D01*
X64756200Y21925000D02*
X58956200Y21925000D01*
G04 #@! TO.C,D25*
X145406000Y475000D02*
X145406000Y2875000D01*
X145231000Y475000D02*
X145231000Y2875000D01*
X145056000Y475000D02*
X145056000Y2875000D01*
X144656000Y2875000D02*
X144656000Y475000D01*
X144881000Y475000D02*
X144881000Y2875000D01*
X144756000Y475000D02*
X144756000Y2875000D01*
X144681000Y475000D02*
X150481000Y475000D01*
X150481000Y475000D02*
X150481000Y2875000D01*
X150481000Y2875000D02*
X144681000Y2875000D01*
G04 #@! TO.C,D71*
X106781000Y-56675000D02*
X112581000Y-56675000D01*
X106781000Y-54275000D02*
X106781000Y-56675000D01*
X112581000Y-54275000D02*
X106781000Y-54275000D01*
X112506000Y-54275000D02*
X112506000Y-56675000D01*
X112381000Y-54275000D02*
X112381000Y-56675000D01*
X112606000Y-56675000D02*
X112606000Y-54275000D01*
X112206000Y-54275000D02*
X112206000Y-56675000D01*
X112031000Y-54275000D02*
X112031000Y-56675000D01*
X111856000Y-54275000D02*
X111856000Y-56675000D01*
G04 #@! TO.C,D78*
X372700000Y-62200000D02*
X372700000Y-68000000D01*
X375100000Y-62200000D02*
X372700000Y-62200000D01*
X375100000Y-68000000D02*
X375100000Y-62200000D01*
X375100000Y-67925000D02*
X372700000Y-67925000D01*
X375100000Y-67800000D02*
X372700000Y-67800000D01*
X372700000Y-68025000D02*
X375100000Y-68025000D01*
X375100000Y-67625000D02*
X372700000Y-67625000D01*
X375100000Y-67450000D02*
X372700000Y-67450000D01*
X375100000Y-67275000D02*
X372700000Y-67275000D01*
G04 #@! TO.C,D77*
X344906000Y-56675000D02*
X350706000Y-56675000D01*
X344906000Y-54275000D02*
X344906000Y-56675000D01*
X350706000Y-54275000D02*
X344906000Y-54275000D01*
X350631000Y-54275000D02*
X350631000Y-56675000D01*
X350506000Y-54275000D02*
X350506000Y-56675000D01*
X350731000Y-56675000D02*
X350731000Y-54275000D01*
X350331000Y-54275000D02*
X350331000Y-56675000D01*
X350156000Y-54275000D02*
X350156000Y-56675000D01*
X349981000Y-54275000D02*
X349981000Y-56675000D01*
G04 #@! TO.C,D45*
X207318000Y-18575000D02*
X207318000Y-16175000D01*
X207143000Y-18575000D02*
X207143000Y-16175000D01*
X206968000Y-18575000D02*
X206968000Y-16175000D01*
X206568000Y-16175000D02*
X206568000Y-18575000D01*
X206793000Y-18575000D02*
X206793000Y-16175000D01*
X206668000Y-18575000D02*
X206668000Y-16175000D01*
X206593000Y-18575000D02*
X212393000Y-18575000D01*
X212393000Y-18575000D02*
X212393000Y-16175000D01*
X212393000Y-16175000D02*
X206593000Y-16175000D01*
G04 #@! TO.C,D16*
X312406000Y21925000D02*
X306606000Y21925000D01*
X312406000Y19525000D02*
X312406000Y21925000D01*
X306606000Y19525000D02*
X312406000Y19525000D01*
X306681000Y19525000D02*
X306681000Y21925000D01*
X306806000Y19525000D02*
X306806000Y21925000D01*
X306581000Y21925000D02*
X306581000Y19525000D01*
X306981000Y19525000D02*
X306981000Y21925000D01*
X307156000Y19525000D02*
X307156000Y21925000D01*
X307331000Y19525000D02*
X307331000Y21925000D01*
G04 #@! TO.C,D22*
X70281200Y-14575000D02*
X70281200Y-20375000D01*
X72681200Y-14575000D02*
X70281200Y-14575000D01*
X72681200Y-20375000D02*
X72681200Y-14575000D01*
X72681200Y-20300000D02*
X70281200Y-20300000D01*
X72681200Y-20175000D02*
X70281200Y-20175000D01*
X70281200Y-20400000D02*
X72681200Y-20400000D01*
X72681200Y-20000000D02*
X70281200Y-20000000D01*
X72681200Y-19825000D02*
X70281200Y-19825000D01*
X72681200Y-19650000D02*
X70281200Y-19650000D01*
G04 #@! TO.C,D10*
X203631000Y14000000D02*
X203631000Y8200000D01*
X206031000Y14000000D02*
X203631000Y14000000D01*
X206031000Y8200000D02*
X206031000Y14000000D01*
X206031000Y8275000D02*
X203631000Y8275000D01*
X206031000Y8400000D02*
X203631000Y8400000D01*
X203631000Y8175000D02*
X206031000Y8175000D01*
X206031000Y8575000D02*
X203631000Y8575000D01*
X206031000Y8750000D02*
X203631000Y8750000D01*
X206031000Y8925000D02*
X203631000Y8925000D01*
G04 #@! TO.C,D54*
X40631200Y-37625000D02*
X40631200Y-35225000D01*
X40456200Y-37625000D02*
X40456200Y-35225000D01*
X40281200Y-37625000D02*
X40281200Y-35225000D01*
X39881200Y-35225000D02*
X39881200Y-37625000D01*
X40106200Y-37625000D02*
X40106200Y-35225000D01*
X39981200Y-37625000D02*
X39981200Y-35225000D01*
X39906200Y-37625000D02*
X45706200Y-37625000D01*
X45706200Y-37625000D02*
X45706200Y-35225000D01*
X45706200Y-35225000D02*
X39906200Y-35225000D01*
G04 #@! TO.C,D19*
X21581200Y475000D02*
X21581200Y2875000D01*
X21406200Y475000D02*
X21406200Y2875000D01*
X21231200Y475000D02*
X21231200Y2875000D01*
X20831200Y2875000D02*
X20831200Y475000D01*
X21056200Y475000D02*
X21056200Y2875000D01*
X20931200Y475000D02*
X20931200Y2875000D01*
X20856200Y475000D02*
X26656200Y475000D01*
X26656200Y475000D02*
X26656200Y2875000D01*
X26656200Y2875000D02*
X20856200Y2875000D01*
G04 #@! TO.C,D57*
X109687000Y-37625000D02*
X109687000Y-35225000D01*
X109512000Y-37625000D02*
X109512000Y-35225000D01*
X109337000Y-37625000D02*
X109337000Y-35225000D01*
X108937000Y-35225000D02*
X108937000Y-37625000D01*
X109162000Y-37625000D02*
X109162000Y-35225000D01*
X109037000Y-37625000D02*
X109037000Y-35225000D01*
X108962000Y-37625000D02*
X114762000Y-37625000D01*
X114762000Y-37625000D02*
X114762000Y-35225000D01*
X114762000Y-35225000D02*
X108962000Y-35225000D01*
G04 #@! TO.C,D47*
X245418000Y-18575000D02*
X245418000Y-16175000D01*
X245243000Y-18575000D02*
X245243000Y-16175000D01*
X245068000Y-18575000D02*
X245068000Y-16175000D01*
X244668000Y-16175000D02*
X244668000Y-18575000D01*
X244893000Y-18575000D02*
X244893000Y-16175000D01*
X244768000Y-18575000D02*
X244768000Y-16175000D01*
X244693000Y-18575000D02*
X250493000Y-18575000D01*
X250493000Y-18575000D02*
X250493000Y-16175000D01*
X250493000Y-16175000D02*
X244693000Y-16175000D01*
G04 #@! TO.C,D15*
X301281000Y8925000D02*
X298881000Y8925000D01*
X301281000Y8750000D02*
X298881000Y8750000D01*
X301281000Y8575000D02*
X298881000Y8575000D01*
X298881000Y8175000D02*
X301281000Y8175000D01*
X301281000Y8400000D02*
X298881000Y8400000D01*
X301281000Y8275000D02*
X298881000Y8275000D01*
X301281000Y8200000D02*
X301281000Y14000000D01*
X301281000Y14000000D02*
X298881000Y14000000D01*
X298881000Y14000000D02*
X298881000Y8200000D01*
G04 #@! TO.C,D67*
X317169000Y-35225000D02*
X311369000Y-35225000D01*
X317169000Y-37625000D02*
X317169000Y-35225000D01*
X311369000Y-37625000D02*
X317169000Y-37625000D01*
X311444000Y-37625000D02*
X311444000Y-35225000D01*
X311569000Y-37625000D02*
X311569000Y-35225000D01*
X311344000Y-35225000D02*
X311344000Y-37625000D01*
X311744000Y-37625000D02*
X311744000Y-35225000D01*
X311919000Y-37625000D02*
X311919000Y-35225000D01*
X312094000Y-37625000D02*
X312094000Y-35225000D01*
G04 #@! TO.C,D36*
X362412000Y2875000D02*
X356612000Y2875000D01*
X362412000Y475000D02*
X362412000Y2875000D01*
X356612000Y475000D02*
X362412000Y475000D01*
X356687000Y475000D02*
X356687000Y2875000D01*
X356812000Y475000D02*
X356812000Y2875000D01*
X356587000Y2875000D02*
X356587000Y475000D01*
X356987000Y475000D02*
X356987000Y2875000D01*
X357162000Y475000D02*
X357162000Y2875000D01*
X357337000Y475000D02*
X357337000Y2875000D01*
G04 #@! TO.C,D62*
X216844000Y-37625000D02*
X216844000Y-35225000D01*
X216669000Y-37625000D02*
X216669000Y-35225000D01*
X216494000Y-37625000D02*
X216494000Y-35225000D01*
X216094000Y-35225000D02*
X216094000Y-37625000D01*
X216319000Y-37625000D02*
X216319000Y-35225000D01*
X216194000Y-37625000D02*
X216194000Y-35225000D01*
X216119000Y-37625000D02*
X221919000Y-37625000D01*
X221919000Y-37625000D02*
X221919000Y-35225000D01*
X221919000Y-35225000D02*
X216119000Y-35225000D01*
G04 #@! TO.C,D61*
X197794000Y-37625000D02*
X197794000Y-35225000D01*
X197619000Y-37625000D02*
X197619000Y-35225000D01*
X197444000Y-37625000D02*
X197444000Y-35225000D01*
X197044000Y-35225000D02*
X197044000Y-37625000D01*
X197269000Y-37625000D02*
X197269000Y-35225000D01*
X197144000Y-37625000D02*
X197144000Y-35225000D01*
X197069000Y-37625000D02*
X202869000Y-37625000D01*
X202869000Y-37625000D02*
X202869000Y-35225000D01*
X202869000Y-35225000D02*
X197069000Y-35225000D01*
G04 #@! TO.C,D52*
X357650000Y-16175000D02*
X351850000Y-16175000D01*
X357650000Y-18575000D02*
X357650000Y-16175000D01*
X351850000Y-18575000D02*
X357650000Y-18575000D01*
X351925000Y-18575000D02*
X351925000Y-16175000D01*
X352050000Y-18575000D02*
X352050000Y-16175000D01*
X351825000Y-16175000D02*
X351825000Y-18575000D01*
X352225000Y-18575000D02*
X352225000Y-16175000D01*
X352400000Y-18575000D02*
X352400000Y-16175000D01*
X352575000Y-18575000D02*
X352575000Y-16175000D01*
G04 #@! TO.C,D37*
X21581200Y-18575000D02*
X21581200Y-16175000D01*
X21406200Y-18575000D02*
X21406200Y-16175000D01*
X21231200Y-18575000D02*
X21231200Y-16175000D01*
X20831200Y-16175000D02*
X20831200Y-18575000D01*
X21056200Y-18575000D02*
X21056200Y-16175000D01*
X20931200Y-18575000D02*
X20931200Y-16175000D01*
X20856200Y-18575000D02*
X26656200Y-18575000D01*
X26656200Y-18575000D02*
X26656200Y-16175000D01*
X26656200Y-16175000D02*
X20856200Y-16175000D01*
G04 #@! TO.C,D65*
X273994000Y-37625000D02*
X273994000Y-35225000D01*
X273819000Y-37625000D02*
X273819000Y-35225000D01*
X273644000Y-37625000D02*
X273644000Y-35225000D01*
X273244000Y-35225000D02*
X273244000Y-37625000D01*
X273469000Y-37625000D02*
X273469000Y-35225000D01*
X273344000Y-37625000D02*
X273344000Y-35225000D01*
X273269000Y-37625000D02*
X279069000Y-37625000D01*
X279069000Y-37625000D02*
X279069000Y-35225000D01*
X279069000Y-35225000D02*
X273269000Y-35225000D01*
G04 #@! TO.C,D14*
X269231000Y19525000D02*
X269231000Y21925000D01*
X269056000Y19525000D02*
X269056000Y21925000D01*
X268881000Y19525000D02*
X268881000Y21925000D01*
X268481000Y21925000D02*
X268481000Y19525000D01*
X268706000Y19525000D02*
X268706000Y21925000D01*
X268581000Y19525000D02*
X268581000Y21925000D01*
X268506000Y19525000D02*
X274306000Y19525000D01*
X274306000Y19525000D02*
X274306000Y21925000D01*
X274306000Y21925000D02*
X268506000Y21925000D01*
G04 #@! TO.C,D68*
X350194000Y-37625000D02*
X350194000Y-35225000D01*
X350019000Y-37625000D02*
X350019000Y-35225000D01*
X349844000Y-37625000D02*
X349844000Y-35225000D01*
X349444000Y-35225000D02*
X349444000Y-37625000D01*
X349669000Y-37625000D02*
X349669000Y-35225000D01*
X349544000Y-37625000D02*
X349544000Y-35225000D01*
X349469000Y-37625000D02*
X355269000Y-37625000D01*
X355269000Y-37625000D02*
X355269000Y-35225000D01*
X355269000Y-35225000D02*
X349469000Y-35225000D01*
G04 #@! TO.C,D18*
X360031000Y21925000D02*
X354231000Y21925000D01*
X360031000Y19525000D02*
X360031000Y21925000D01*
X354231000Y19525000D02*
X360031000Y19525000D01*
X354306000Y19525000D02*
X354306000Y21925000D01*
X354431000Y19525000D02*
X354431000Y21925000D01*
X354206000Y21925000D02*
X354206000Y19525000D01*
X354606000Y19525000D02*
X354606000Y21925000D01*
X354781000Y19525000D02*
X354781000Y21925000D01*
X354956000Y19525000D02*
X354956000Y21925000D01*
G04 #@! TO.C,D38*
X45706200Y-16175000D02*
X39906200Y-16175000D01*
X45706200Y-18575000D02*
X45706200Y-16175000D01*
X39906200Y-18575000D02*
X45706200Y-18575000D01*
X39981200Y-18575000D02*
X39981200Y-16175000D01*
X40106200Y-18575000D02*
X40106200Y-16175000D01*
X39881200Y-16175000D02*
X39881200Y-18575000D01*
X40281200Y-18575000D02*
X40281200Y-16175000D01*
X40456200Y-18575000D02*
X40456200Y-16175000D01*
X40631200Y-18575000D02*
X40631200Y-16175000D01*
G04 #@! TO.C,D12*
X236206000Y21925000D02*
X230406000Y21925000D01*
X236206000Y19525000D02*
X236206000Y21925000D01*
X230406000Y19525000D02*
X236206000Y19525000D01*
X230481000Y19525000D02*
X230481000Y21925000D01*
X230606000Y19525000D02*
X230606000Y21925000D01*
X230381000Y21925000D02*
X230381000Y19525000D01*
X230781000Y19525000D02*
X230781000Y21925000D01*
X230956000Y19525000D02*
X230956000Y21925000D01*
X231131000Y19525000D02*
X231131000Y21925000D01*
G04 #@! TO.C,D58*
X145719000Y-35225000D02*
X139919000Y-35225000D01*
X145719000Y-37625000D02*
X145719000Y-35225000D01*
X139919000Y-37625000D02*
X145719000Y-37625000D01*
X139994000Y-37625000D02*
X139994000Y-35225000D01*
X140119000Y-37625000D02*
X140119000Y-35225000D01*
X139894000Y-35225000D02*
X139894000Y-37625000D01*
X140294000Y-37625000D02*
X140294000Y-35225000D01*
X140469000Y-37625000D02*
X140469000Y-35225000D01*
X140644000Y-37625000D02*
X140644000Y-35225000D01*
G04 #@! TO.C,D34*
X321931000Y2875000D02*
X316131000Y2875000D01*
X321931000Y475000D02*
X321931000Y2875000D01*
X316131000Y475000D02*
X321931000Y475000D01*
X316206000Y475000D02*
X316206000Y2875000D01*
X316331000Y475000D02*
X316331000Y2875000D01*
X316106000Y2875000D02*
X316106000Y475000D01*
X316506000Y475000D02*
X316506000Y2875000D01*
X316681000Y475000D02*
X316681000Y2875000D01*
X316856000Y475000D02*
X316856000Y2875000D01*
G04 #@! TO.C,D20*
X45706200Y2875000D02*
X39906200Y2875000D01*
X45706200Y475000D02*
X45706200Y2875000D01*
X39906200Y475000D02*
X45706200Y475000D01*
X39981200Y475000D02*
X39981200Y2875000D01*
X40106200Y475000D02*
X40106200Y2875000D01*
X39881200Y2875000D02*
X39881200Y475000D01*
X40281200Y475000D02*
X40281200Y2875000D01*
X40456200Y475000D02*
X40456200Y2875000D01*
X40631200Y475000D02*
X40631200Y2875000D01*
G04 #@! TO.C,D69*
X31106200Y-56675000D02*
X31106200Y-54275000D01*
X30931200Y-56675000D02*
X30931200Y-54275000D01*
X30756200Y-56675000D02*
X30756200Y-54275000D01*
X30356200Y-54275000D02*
X30356200Y-56675000D01*
X30581200Y-56675000D02*
X30581200Y-54275000D01*
X30456200Y-56675000D02*
X30456200Y-54275000D01*
X30381200Y-56675000D02*
X36181200Y-56675000D01*
X36181200Y-56675000D02*
X36181200Y-54275000D01*
X36181200Y-54275000D02*
X30381200Y-54275000D01*
D12*
G04 #@! TO.C,SW1*
X69181200Y16643800D02*
X68731200Y17093800D01*
X69181200Y20043800D02*
X68731200Y19593800D01*
X73781200Y20043800D02*
X74231200Y19593800D01*
X73781200Y16643800D02*
X74231200Y17093800D01*
X72481200Y21093800D02*
X70481200Y21093800D01*
X68731200Y17093800D02*
X68731200Y19593800D01*
X72481200Y15593800D02*
X70481200Y15593800D01*
X74231200Y17093800D02*
X74231200Y19593800D01*
D11*
G04 #@! TO.C,D40*
X110000000Y-16175000D02*
X104200000Y-16175000D01*
X110000000Y-18575000D02*
X110000000Y-16175000D01*
X104200000Y-18575000D02*
X110000000Y-18575000D01*
X104275000Y-18575000D02*
X104275000Y-16175000D01*
X104400000Y-18575000D02*
X104400000Y-16175000D01*
X104175000Y-16175000D02*
X104175000Y-18575000D01*
X104575000Y-18575000D02*
X104575000Y-16175000D01*
X104750000Y-18575000D02*
X104750000Y-16175000D01*
X104925000Y-18575000D02*
X104925000Y-16175000D01*
G04 #@! TO.C,D56*
X70281200Y-52675000D02*
X70281200Y-58475000D01*
X72681200Y-52675000D02*
X70281200Y-52675000D01*
X72681200Y-58475000D02*
X72681200Y-52675000D01*
X72681200Y-58400000D02*
X70281200Y-58400000D01*
X72681200Y-58275000D02*
X70281200Y-58275000D01*
X70281200Y-58500000D02*
X72681200Y-58500000D01*
X72681200Y-58100000D02*
X70281200Y-58100000D01*
X72681200Y-57925000D02*
X70281200Y-57925000D01*
X72681200Y-57750000D02*
X70281200Y-57750000D01*
G04 #@! TO.C,D23*
X102544000Y475000D02*
X102544000Y2875000D01*
X102369000Y475000D02*
X102369000Y2875000D01*
X102194000Y475000D02*
X102194000Y2875000D01*
X101794000Y2875000D02*
X101794000Y475000D01*
X102019000Y475000D02*
X102019000Y2875000D01*
X101894000Y475000D02*
X101894000Y2875000D01*
X101819000Y475000D02*
X107619000Y475000D01*
X107619000Y475000D02*
X107619000Y2875000D01*
X107619000Y2875000D02*
X101819000Y2875000D01*
G04 #@! TO.C,D17*
X326381000Y19525000D02*
X326381000Y21925000D01*
X326206000Y19525000D02*
X326206000Y21925000D01*
X326031000Y19525000D02*
X326031000Y21925000D01*
X325631000Y21925000D02*
X325631000Y19525000D01*
X325856000Y19525000D02*
X325856000Y21925000D01*
X325731000Y19525000D02*
X325731000Y21925000D01*
X325656000Y19525000D02*
X331456000Y19525000D01*
X331456000Y19525000D02*
X331456000Y21925000D01*
X331456000Y21925000D02*
X325656000Y21925000D01*
G04 #@! TO.C,D32*
X283831000Y2875000D02*
X278031000Y2875000D01*
X283831000Y475000D02*
X283831000Y2875000D01*
X278031000Y475000D02*
X283831000Y475000D01*
X278106000Y475000D02*
X278106000Y2875000D01*
X278231000Y475000D02*
X278231000Y2875000D01*
X278006000Y2875000D02*
X278006000Y475000D01*
X278406000Y475000D02*
X278406000Y2875000D01*
X278581000Y475000D02*
X278581000Y2875000D01*
X278756000Y475000D02*
X278756000Y2875000D01*
G04 #@! TO.C,D31*
X259706000Y475000D02*
X259706000Y2875000D01*
X259531000Y475000D02*
X259531000Y2875000D01*
X259356000Y475000D02*
X259356000Y2875000D01*
X258956000Y2875000D02*
X258956000Y475000D01*
X259181000Y475000D02*
X259181000Y2875000D01*
X259056000Y475000D02*
X259056000Y2875000D01*
X258981000Y475000D02*
X264781000Y475000D01*
X264781000Y475000D02*
X264781000Y2875000D01*
X264781000Y2875000D02*
X258981000Y2875000D01*
G04 #@! TO.C,D9*
X173981000Y19525000D02*
X173981000Y21925000D01*
X173806000Y19525000D02*
X173806000Y21925000D01*
X173631000Y19525000D02*
X173631000Y21925000D01*
X173231000Y21925000D02*
X173231000Y19525000D01*
X173456000Y19525000D02*
X173456000Y21925000D01*
X173331000Y19525000D02*
X173331000Y21925000D01*
X173256000Y19525000D02*
X179056000Y19525000D01*
X179056000Y19525000D02*
X179056000Y21925000D01*
X179056000Y21925000D02*
X173256000Y21925000D01*
G04 #@! TO.C,D64*
X260019000Y-35225000D02*
X254219000Y-35225000D01*
X260019000Y-37625000D02*
X260019000Y-35225000D01*
X254219000Y-37625000D02*
X260019000Y-37625000D01*
X254294000Y-37625000D02*
X254294000Y-35225000D01*
X254419000Y-37625000D02*
X254419000Y-35225000D01*
X254194000Y-35225000D02*
X254194000Y-37625000D01*
X254594000Y-37625000D02*
X254594000Y-35225000D01*
X254769000Y-37625000D02*
X254769000Y-35225000D01*
X254944000Y-37625000D02*
X254944000Y-35225000D01*
G04 #@! TO.C,D74*
X224300000Y-54275000D02*
X218500000Y-54275000D01*
X224300000Y-56675000D02*
X224300000Y-54275000D01*
X218500000Y-56675000D02*
X224300000Y-56675000D01*
X218575000Y-56675000D02*
X218575000Y-54275000D01*
X218700000Y-56675000D02*
X218700000Y-54275000D01*
X218475000Y-54275000D02*
X218475000Y-56675000D01*
X218875000Y-56675000D02*
X218875000Y-54275000D01*
X219050000Y-56675000D02*
X219050000Y-54275000D01*
X219225000Y-56675000D02*
X219225000Y-54275000D01*
G04 #@! TO.C,D76*
X319550000Y-54275000D02*
X313750000Y-54275000D01*
X319550000Y-56675000D02*
X319550000Y-54275000D01*
X313750000Y-56675000D02*
X319550000Y-56675000D01*
X313825000Y-56675000D02*
X313825000Y-54275000D01*
X313950000Y-56675000D02*
X313950000Y-54275000D01*
X313725000Y-54275000D02*
X313725000Y-56675000D01*
X314125000Y-56675000D02*
X314125000Y-54275000D01*
X314300000Y-56675000D02*
X314300000Y-54275000D01*
X314475000Y-56675000D02*
X314475000Y-54275000D01*
G04 #@! TO.C,D49*
X283518000Y-18575000D02*
X283518000Y-16175000D01*
X283343000Y-18575000D02*
X283343000Y-16175000D01*
X283168000Y-18575000D02*
X283168000Y-16175000D01*
X282768000Y-16175000D02*
X282768000Y-18575000D01*
X282993000Y-18575000D02*
X282993000Y-16175000D01*
X282868000Y-18575000D02*
X282868000Y-16175000D01*
X282793000Y-18575000D02*
X288593000Y-18575000D01*
X288593000Y-18575000D02*
X288593000Y-16175000D01*
X288593000Y-16175000D02*
X282793000Y-16175000D01*
G04 #@! TO.C,D70*
X59681200Y-56675000D02*
X59681200Y-54275000D01*
X59506200Y-56675000D02*
X59506200Y-54275000D01*
X59331200Y-56675000D02*
X59331200Y-54275000D01*
X58931200Y-54275000D02*
X58931200Y-56675000D01*
X59156200Y-56675000D02*
X59156200Y-54275000D01*
X59031200Y-56675000D02*
X59031200Y-54275000D01*
X58956200Y-56675000D02*
X64756200Y-56675000D01*
X64756200Y-56675000D02*
X64756200Y-54275000D01*
X64756200Y-54275000D02*
X58956200Y-54275000D01*
G04 #@! TO.C,D75*
X295737000Y-54275000D02*
X289937000Y-54275000D01*
X295737000Y-56675000D02*
X295737000Y-54275000D01*
X289937000Y-56675000D02*
X295737000Y-56675000D01*
X290012000Y-56675000D02*
X290012000Y-54275000D01*
X290137000Y-56675000D02*
X290137000Y-54275000D01*
X289912000Y-54275000D02*
X289912000Y-56675000D01*
X290312000Y-56675000D02*
X290312000Y-54275000D01*
X290487000Y-56675000D02*
X290487000Y-54275000D01*
X290662000Y-56675000D02*
X290662000Y-54275000D01*
G04 #@! TO.C,D8*
X160006000Y21925000D02*
X154206000Y21925000D01*
X160006000Y19525000D02*
X160006000Y21925000D01*
X154206000Y19525000D02*
X160006000Y19525000D01*
X154281000Y19525000D02*
X154281000Y21925000D01*
X154406000Y19525000D02*
X154406000Y21925000D01*
X154181000Y21925000D02*
X154181000Y19525000D01*
X154581000Y19525000D02*
X154581000Y21925000D01*
X154756000Y19525000D02*
X154756000Y21925000D01*
X154931000Y19525000D02*
X154931000Y21925000D01*
G04 #@! TO.C,D28*
X202556000Y475000D02*
X202556000Y2875000D01*
X202381000Y475000D02*
X202381000Y2875000D01*
X202206000Y475000D02*
X202206000Y2875000D01*
X201806000Y2875000D02*
X201806000Y475000D01*
X202031000Y475000D02*
X202031000Y2875000D01*
X201906000Y475000D02*
X201906000Y2875000D01*
X201831000Y475000D02*
X207631000Y475000D01*
X207631000Y475000D02*
X207631000Y2875000D01*
X207631000Y2875000D02*
X201831000Y2875000D01*
G04 #@! TO.C,D13*
X250181000Y19525000D02*
X250181000Y21925000D01*
X250006000Y19525000D02*
X250006000Y21925000D01*
X249831000Y19525000D02*
X249831000Y21925000D01*
X249431000Y21925000D02*
X249431000Y19525000D01*
X249656000Y19525000D02*
X249656000Y21925000D01*
X249531000Y19525000D02*
X249531000Y21925000D01*
X249456000Y19525000D02*
X255256000Y19525000D01*
X255256000Y19525000D02*
X255256000Y21925000D01*
X255256000Y21925000D02*
X249456000Y21925000D01*
G04 #@! TO.C,D66*
X293044000Y-37625000D02*
X293044000Y-35225000D01*
X292869000Y-37625000D02*
X292869000Y-35225000D01*
X292694000Y-37625000D02*
X292694000Y-35225000D01*
X292294000Y-35225000D02*
X292294000Y-37625000D01*
X292519000Y-37625000D02*
X292519000Y-35225000D01*
X292394000Y-37625000D02*
X292394000Y-35225000D01*
X292319000Y-37625000D02*
X298119000Y-37625000D01*
X298119000Y-37625000D02*
X298119000Y-35225000D01*
X298119000Y-35225000D02*
X292319000Y-35225000D01*
G04 #@! TO.C,D6*
X121906000Y21925000D02*
X116106000Y21925000D01*
X121906000Y19525000D02*
X121906000Y21925000D01*
X116106000Y19525000D02*
X121906000Y19525000D01*
X116181000Y19525000D02*
X116181000Y21925000D01*
X116306000Y19525000D02*
X116306000Y21925000D01*
X116081000Y21925000D02*
X116081000Y19525000D01*
X116481000Y19525000D02*
X116481000Y21925000D01*
X116656000Y19525000D02*
X116656000Y21925000D01*
X116831000Y19525000D02*
X116831000Y21925000D01*
G04 #@! TO.C,D44*
X193343000Y-16175000D02*
X187543000Y-16175000D01*
X193343000Y-18575000D02*
X193343000Y-16175000D01*
X187543000Y-18575000D02*
X193343000Y-18575000D01*
X187618000Y-18575000D02*
X187618000Y-16175000D01*
X187743000Y-18575000D02*
X187743000Y-16175000D01*
X187518000Y-16175000D02*
X187518000Y-18575000D01*
X187918000Y-18575000D02*
X187918000Y-16175000D01*
X188093000Y-18575000D02*
X188093000Y-16175000D01*
X188268000Y-18575000D02*
X188268000Y-16175000D01*
G04 #@! TO.C,D46*
X231443000Y-16175000D02*
X225643000Y-16175000D01*
X231443000Y-18575000D02*
X231443000Y-16175000D01*
X225643000Y-18575000D02*
X231443000Y-18575000D01*
X225718000Y-18575000D02*
X225718000Y-16175000D01*
X225843000Y-18575000D02*
X225843000Y-16175000D01*
X225618000Y-16175000D02*
X225618000Y-18575000D01*
X226018000Y-18575000D02*
X226018000Y-16175000D01*
X226193000Y-18575000D02*
X226193000Y-16175000D01*
X226368000Y-18575000D02*
X226368000Y-16175000D01*
G04 #@! TO.C,D51*
X321618000Y-18575000D02*
X321618000Y-16175000D01*
X321443000Y-18575000D02*
X321443000Y-16175000D01*
X321268000Y-18575000D02*
X321268000Y-16175000D01*
X320868000Y-16175000D02*
X320868000Y-18575000D01*
X321093000Y-18575000D02*
X321093000Y-16175000D01*
X320968000Y-18575000D02*
X320968000Y-16175000D01*
X320893000Y-18575000D02*
X326693000Y-18575000D01*
X326693000Y-18575000D02*
X326693000Y-16175000D01*
X326693000Y-16175000D02*
X320893000Y-16175000D01*
G04 #@! TO.C,D11*
X212081000Y19525000D02*
X212081000Y21925000D01*
X211906000Y19525000D02*
X211906000Y21925000D01*
X211731000Y19525000D02*
X211731000Y21925000D01*
X211331000Y21925000D02*
X211331000Y19525000D01*
X211556000Y19525000D02*
X211556000Y21925000D01*
X211431000Y19525000D02*
X211431000Y21925000D01*
X211356000Y19525000D02*
X217156000Y19525000D01*
X217156000Y19525000D02*
X217156000Y21925000D01*
X217156000Y21925000D02*
X211356000Y21925000D01*
G04 #@! TO.C,D63*
X240969000Y-35225000D02*
X235169000Y-35225000D01*
X240969000Y-37625000D02*
X240969000Y-35225000D01*
X235169000Y-37625000D02*
X240969000Y-37625000D01*
X235244000Y-37625000D02*
X235244000Y-35225000D01*
X235369000Y-37625000D02*
X235369000Y-35225000D01*
X235144000Y-35225000D02*
X235144000Y-37625000D01*
X235544000Y-37625000D02*
X235544000Y-35225000D01*
X235719000Y-37625000D02*
X235719000Y-35225000D01*
X235894000Y-37625000D02*
X235894000Y-35225000D01*
G04 #@! TO.C,D29*
X221606000Y475000D02*
X221606000Y2875000D01*
X221431000Y475000D02*
X221431000Y2875000D01*
X221256000Y475000D02*
X221256000Y2875000D01*
X220856000Y2875000D02*
X220856000Y475000D01*
X221081000Y475000D02*
X221081000Y2875000D01*
X220956000Y475000D02*
X220956000Y2875000D01*
X220881000Y475000D02*
X226681000Y475000D01*
X226681000Y475000D02*
X226681000Y2875000D01*
X226681000Y2875000D02*
X220881000Y2875000D01*
G04 #@! TO.C,D55*
X59681200Y-37625000D02*
X59681200Y-35225000D01*
X59506200Y-37625000D02*
X59506200Y-35225000D01*
X59331200Y-37625000D02*
X59331200Y-35225000D01*
X58931200Y-35225000D02*
X58931200Y-37625000D01*
X59156200Y-37625000D02*
X59156200Y-35225000D01*
X59031200Y-37625000D02*
X59031200Y-35225000D01*
X58956200Y-37625000D02*
X64756200Y-37625000D01*
X64756200Y-37625000D02*
X64756200Y-35225000D01*
X64756200Y-35225000D02*
X58956200Y-35225000D01*
G04 #@! TO.C,D5*
X110781000Y8925000D02*
X108381000Y8925000D01*
X110781000Y8750000D02*
X108381000Y8750000D01*
X110781000Y8575000D02*
X108381000Y8575000D01*
X108381000Y8175000D02*
X110781000Y8175000D01*
X110781000Y8400000D02*
X108381000Y8400000D01*
X110781000Y8275000D02*
X108381000Y8275000D01*
X110781000Y8200000D02*
X110781000Y14000000D01*
X110781000Y14000000D02*
X108381000Y14000000D01*
X108381000Y14000000D02*
X108381000Y8200000D01*
G04 #@! TO.C,D43*
X169218000Y-18575000D02*
X169218000Y-16175000D01*
X169043000Y-18575000D02*
X169043000Y-16175000D01*
X168868000Y-18575000D02*
X168868000Y-16175000D01*
X168468000Y-16175000D02*
X168468000Y-18575000D01*
X168693000Y-18575000D02*
X168693000Y-16175000D01*
X168568000Y-18575000D02*
X168568000Y-16175000D01*
X168493000Y-18575000D02*
X174293000Y-18575000D01*
X174293000Y-18575000D02*
X174293000Y-16175000D01*
X174293000Y-16175000D02*
X168493000Y-16175000D01*
G04 #@! TO.C,D73*
X152862000Y-54275000D02*
X147062000Y-54275000D01*
X152862000Y-56675000D02*
X152862000Y-54275000D01*
X147062000Y-56675000D02*
X152862000Y-56675000D01*
X147137000Y-56675000D02*
X147137000Y-54275000D01*
X147262000Y-56675000D02*
X147262000Y-54275000D01*
X147037000Y-54275000D02*
X147037000Y-56675000D01*
X147437000Y-56675000D02*
X147437000Y-54275000D01*
X147612000Y-56675000D02*
X147612000Y-54275000D01*
X147787000Y-56675000D02*
X147787000Y-54275000D01*
G04 #@! TO.C,D33*
X297806000Y475000D02*
X297806000Y2875000D01*
X297631000Y475000D02*
X297631000Y2875000D01*
X297456000Y475000D02*
X297456000Y2875000D01*
X297056000Y2875000D02*
X297056000Y475000D01*
X297281000Y475000D02*
X297281000Y2875000D01*
X297156000Y475000D02*
X297156000Y2875000D01*
X297081000Y475000D02*
X302881000Y475000D01*
X302881000Y475000D02*
X302881000Y2875000D01*
X302881000Y2875000D02*
X297081000Y2875000D01*
G04 #@! TO.C,D30*
X245731000Y2875000D02*
X239931000Y2875000D01*
X245731000Y475000D02*
X245731000Y2875000D01*
X239931000Y475000D02*
X245731000Y475000D01*
X240006000Y475000D02*
X240006000Y2875000D01*
X240131000Y475000D02*
X240131000Y2875000D01*
X239906000Y2875000D02*
X239906000Y475000D01*
X240306000Y475000D02*
X240306000Y2875000D01*
X240481000Y475000D02*
X240481000Y2875000D01*
X240656000Y475000D02*
X240656000Y2875000D01*
G04 #@! TO.C,D35*
X333525000Y475000D02*
X333525000Y2875000D01*
X333350000Y475000D02*
X333350000Y2875000D01*
X333175000Y475000D02*
X333175000Y2875000D01*
X332775000Y2875000D02*
X332775000Y475000D01*
X333000000Y475000D02*
X333000000Y2875000D01*
X332875000Y475000D02*
X332875000Y2875000D01*
X332800000Y475000D02*
X338600000Y475000D01*
X338600000Y475000D02*
X338600000Y2875000D01*
X338600000Y2875000D02*
X332800000Y2875000D01*
G04 #@! TO.C,D24*
X131431000Y2875000D02*
X125631000Y2875000D01*
X131431000Y475000D02*
X131431000Y2875000D01*
X125631000Y475000D02*
X131431000Y475000D01*
X125706000Y475000D02*
X125706000Y2875000D01*
X125831000Y475000D02*
X125831000Y2875000D01*
X125606000Y2875000D02*
X125606000Y475000D01*
X126006000Y475000D02*
X126006000Y2875000D01*
X126181000Y475000D02*
X126181000Y2875000D01*
X126356000Y475000D02*
X126356000Y2875000D01*
G04 #@! TO.C,D59*
X164769000Y-35225000D02*
X158969000Y-35225000D01*
X164769000Y-37625000D02*
X164769000Y-35225000D01*
X158969000Y-37625000D02*
X164769000Y-37625000D01*
X159044000Y-37625000D02*
X159044000Y-35225000D01*
X159169000Y-37625000D02*
X159169000Y-35225000D01*
X158944000Y-35225000D02*
X158944000Y-37625000D01*
X159344000Y-37625000D02*
X159344000Y-35225000D01*
X159519000Y-37625000D02*
X159519000Y-35225000D01*
X159694000Y-37625000D02*
X159694000Y-35225000D01*
G04 #@! TO.C,D41*
X131118000Y-18575000D02*
X131118000Y-16175000D01*
X130943000Y-18575000D02*
X130943000Y-16175000D01*
X130768000Y-18575000D02*
X130768000Y-16175000D01*
X130368000Y-16175000D02*
X130368000Y-18575000D01*
X130593000Y-18575000D02*
X130593000Y-16175000D01*
X130468000Y-18575000D02*
X130468000Y-16175000D01*
X130393000Y-18575000D02*
X136193000Y-18575000D01*
X136193000Y-18575000D02*
X136193000Y-16175000D01*
X136193000Y-16175000D02*
X130393000Y-16175000D01*
G04 #@! TO.C,D1*
X21581200Y19525000D02*
X21581200Y21925000D01*
X21406200Y19525000D02*
X21406200Y21925000D01*
X21231200Y19525000D02*
X21231200Y21925000D01*
X20831200Y21925000D02*
X20831200Y19525000D01*
X21056200Y19525000D02*
X21056200Y21925000D01*
X20931200Y19525000D02*
X20931200Y21925000D01*
X20856200Y19525000D02*
X26656200Y19525000D01*
X26656200Y19525000D02*
X26656200Y21925000D01*
X26656200Y21925000D02*
X20856200Y21925000D01*
G04 #@! TO.C,D27*
X188581000Y2875000D02*
X182781000Y2875000D01*
X188581000Y475000D02*
X188581000Y2875000D01*
X182781000Y475000D02*
X188581000Y475000D01*
X182856000Y475000D02*
X182856000Y2875000D01*
X182981000Y475000D02*
X182981000Y2875000D01*
X182756000Y2875000D02*
X182756000Y475000D01*
X183156000Y475000D02*
X183156000Y2875000D01*
X183331000Y475000D02*
X183331000Y2875000D01*
X183506000Y475000D02*
X183506000Y2875000D01*
G04 #@! TO.C,D7*
D10*
X138746476Y22288095D02*
X138746476Y23088095D01*
X138556000Y23088095D01*
X138441714Y23050000D01*
X138365523Y22973809D01*
X138327428Y22897619D01*
X138289333Y22745238D01*
X138289333Y22630952D01*
X138327428Y22478571D01*
X138365523Y22402380D01*
X138441714Y22326190D01*
X138556000Y22288095D01*
X138746476Y22288095D01*
X138022666Y23088095D02*
X137489333Y23088095D01*
X137832190Y22288095D01*
G04 #@! TO.C,D48*
X267714428Y-15811904D02*
X267714428Y-15011904D01*
X267523952Y-15011904D01*
X267409666Y-15050000D01*
X267333476Y-15126190D01*
X267295380Y-15202380D01*
X267257285Y-15354761D01*
X267257285Y-15469047D01*
X267295380Y-15621428D01*
X267333476Y-15697619D01*
X267409666Y-15773809D01*
X267523952Y-15811904D01*
X267714428Y-15811904D01*
X266571571Y-15278571D02*
X266571571Y-15811904D01*
X266762047Y-14973809D02*
X266952523Y-15545238D01*
X266457285Y-15545238D01*
X266038238Y-15354761D02*
X266114428Y-15316666D01*
X266152523Y-15278571D01*
X266190619Y-15202380D01*
X266190619Y-15164285D01*
X266152523Y-15088095D01*
X266114428Y-15050000D01*
X266038238Y-15011904D01*
X265885857Y-15011904D01*
X265809666Y-15050000D01*
X265771571Y-15088095D01*
X265733476Y-15164285D01*
X265733476Y-15202380D01*
X265771571Y-15278571D01*
X265809666Y-15316666D01*
X265885857Y-15354761D01*
X266038238Y-15354761D01*
X266114428Y-15392857D01*
X266152523Y-15430952D01*
X266190619Y-15507142D01*
X266190619Y-15659523D01*
X266152523Y-15735714D01*
X266114428Y-15773809D01*
X266038238Y-15811904D01*
X265885857Y-15811904D01*
X265809666Y-15773809D01*
X265771571Y-15735714D01*
X265733476Y-15659523D01*
X265733476Y-15507142D01*
X265771571Y-15430952D01*
X265809666Y-15392857D01*
X265885857Y-15354761D01*
G04 #@! TO.C,D72*
X134364428Y-57761904D02*
X134364428Y-56961904D01*
X134173952Y-56961904D01*
X134059666Y-57000000D01*
X133983476Y-57076190D01*
X133945380Y-57152380D01*
X133907285Y-57304761D01*
X133907285Y-57419047D01*
X133945380Y-57571428D01*
X133983476Y-57647619D01*
X134059666Y-57723809D01*
X134173952Y-57761904D01*
X134364428Y-57761904D01*
X133640619Y-56961904D02*
X133107285Y-56961904D01*
X133450142Y-57761904D01*
X132840619Y-57038095D02*
X132802523Y-57000000D01*
X132726333Y-56961904D01*
X132535857Y-56961904D01*
X132459666Y-57000000D01*
X132421571Y-57038095D01*
X132383476Y-57114285D01*
X132383476Y-57190476D01*
X132421571Y-57304761D01*
X132878714Y-57761904D01*
X132383476Y-57761904D01*
G04 #@! TO.C,D39*
X62927628Y-15811904D02*
X62927628Y-15011904D01*
X62737152Y-15011904D01*
X62622866Y-15050000D01*
X62546676Y-15126190D01*
X62508580Y-15202380D01*
X62470485Y-15354761D01*
X62470485Y-15469047D01*
X62508580Y-15621428D01*
X62546676Y-15697619D01*
X62622866Y-15773809D01*
X62737152Y-15811904D01*
X62927628Y-15811904D01*
X62203819Y-15011904D02*
X61708580Y-15011904D01*
X61975247Y-15316666D01*
X61860961Y-15316666D01*
X61784771Y-15354761D01*
X61746676Y-15392857D01*
X61708580Y-15469047D01*
X61708580Y-15659523D01*
X61746676Y-15735714D01*
X61784771Y-15773809D01*
X61860961Y-15811904D01*
X62089533Y-15811904D01*
X62165723Y-15773809D01*
X62203819Y-15735714D01*
X61327628Y-15811904D02*
X61175247Y-15811904D01*
X61099057Y-15773809D01*
X61060961Y-15735714D01*
X60984771Y-15621428D01*
X60946676Y-15469047D01*
X60946676Y-15164285D01*
X60984771Y-15088095D01*
X61022866Y-15050000D01*
X61099057Y-15011904D01*
X61251438Y-15011904D01*
X61327628Y-15050000D01*
X61365723Y-15088095D01*
X61403819Y-15164285D01*
X61403819Y-15354761D01*
X61365723Y-15430952D01*
X61327628Y-15469047D01*
X61251438Y-15507142D01*
X61099057Y-15507142D01*
X61022866Y-15469047D01*
X60984771Y-15430952D01*
X60946676Y-15354761D01*
G04 #@! TO.C,D2*
X43496676Y22288095D02*
X43496676Y23088095D01*
X43306200Y23088095D01*
X43191914Y23050000D01*
X43115723Y22973809D01*
X43077628Y22897619D01*
X43039533Y22745238D01*
X43039533Y22630952D01*
X43077628Y22478571D01*
X43115723Y22402380D01*
X43191914Y22326190D01*
X43306200Y22288095D01*
X43496676Y22288095D01*
X42734771Y23011904D02*
X42696676Y23050000D01*
X42620485Y23088095D01*
X42430009Y23088095D01*
X42353819Y23050000D01*
X42315723Y23011904D01*
X42277628Y22935714D01*
X42277628Y22859523D01*
X42315723Y22745238D01*
X42772866Y22288095D01*
X42277628Y22288095D01*
G04 #@! TO.C,D50*
X305814428Y-15811904D02*
X305814428Y-15011904D01*
X305623952Y-15011904D01*
X305509666Y-15050000D01*
X305433476Y-15126190D01*
X305395380Y-15202380D01*
X305357285Y-15354761D01*
X305357285Y-15469047D01*
X305395380Y-15621428D01*
X305433476Y-15697619D01*
X305509666Y-15773809D01*
X305623952Y-15811904D01*
X305814428Y-15811904D01*
X304633476Y-15011904D02*
X305014428Y-15011904D01*
X305052523Y-15392857D01*
X305014428Y-15354761D01*
X304938238Y-15316666D01*
X304747761Y-15316666D01*
X304671571Y-15354761D01*
X304633476Y-15392857D01*
X304595380Y-15469047D01*
X304595380Y-15659523D01*
X304633476Y-15735714D01*
X304671571Y-15773809D01*
X304747761Y-15811904D01*
X304938238Y-15811904D01*
X305014428Y-15773809D01*
X305052523Y-15735714D01*
X304100142Y-15011904D02*
X304023952Y-15011904D01*
X303947761Y-15050000D01*
X303909666Y-15088095D01*
X303871571Y-15164285D01*
X303833476Y-15316666D01*
X303833476Y-15507142D01*
X303871571Y-15659523D01*
X303909666Y-15735714D01*
X303947761Y-15773809D01*
X304023952Y-15811904D01*
X304100142Y-15811904D01*
X304176333Y-15773809D01*
X304214428Y-15735714D01*
X304252523Y-15659523D01*
X304290619Y-15507142D01*
X304290619Y-15316666D01*
X304252523Y-15164285D01*
X304214428Y-15088095D01*
X304176333Y-15050000D01*
X304100142Y-15011904D01*
G04 #@! TO.C,D21*
X62927628Y3238095D02*
X62927628Y4038095D01*
X62737152Y4038095D01*
X62622866Y4000000D01*
X62546676Y3923809D01*
X62508580Y3847619D01*
X62470485Y3695238D01*
X62470485Y3580952D01*
X62508580Y3428571D01*
X62546676Y3352380D01*
X62622866Y3276190D01*
X62737152Y3238095D01*
X62927628Y3238095D01*
X62165723Y3961904D02*
X62127628Y4000000D01*
X62051438Y4038095D01*
X61860961Y4038095D01*
X61784771Y4000000D01*
X61746676Y3961904D01*
X61708580Y3885714D01*
X61708580Y3809523D01*
X61746676Y3695238D01*
X62203819Y3238095D01*
X61708580Y3238095D01*
X60946676Y3238095D02*
X61403819Y3238095D01*
X61175247Y3238095D02*
X61175247Y4038095D01*
X61251438Y3923809D01*
X61327628Y3847619D01*
X61403819Y3809523D01*
G04 #@! TO.C,D53*
X24827628Y-34861904D02*
X24827628Y-34061904D01*
X24637152Y-34061904D01*
X24522866Y-34100000D01*
X24446676Y-34176190D01*
X24408580Y-34252380D01*
X24370485Y-34404761D01*
X24370485Y-34519047D01*
X24408580Y-34671428D01*
X24446676Y-34747619D01*
X24522866Y-34823809D01*
X24637152Y-34861904D01*
X24827628Y-34861904D01*
X23646676Y-34061904D02*
X24027628Y-34061904D01*
X24065723Y-34442857D01*
X24027628Y-34404761D01*
X23951438Y-34366666D01*
X23760961Y-34366666D01*
X23684771Y-34404761D01*
X23646676Y-34442857D01*
X23608580Y-34519047D01*
X23608580Y-34709523D01*
X23646676Y-34785714D01*
X23684771Y-34823809D01*
X23760961Y-34861904D01*
X23951438Y-34861904D01*
X24027628Y-34823809D01*
X24065723Y-34785714D01*
X23341914Y-34061904D02*
X22846676Y-34061904D01*
X23113342Y-34366666D01*
X22999057Y-34366666D01*
X22922866Y-34404761D01*
X22884771Y-34442857D01*
X22846676Y-34519047D01*
X22846676Y-34709523D01*
X22884771Y-34785714D01*
X22922866Y-34823809D01*
X22999057Y-34861904D01*
X23227628Y-34861904D01*
X23303819Y-34823809D01*
X23341914Y-34785714D01*
G04 #@! TO.C,D26*
X167702428Y3238095D02*
X167702428Y4038095D01*
X167511952Y4038095D01*
X167397666Y4000000D01*
X167321476Y3923809D01*
X167283380Y3847619D01*
X167245285Y3695238D01*
X167245285Y3580952D01*
X167283380Y3428571D01*
X167321476Y3352380D01*
X167397666Y3276190D01*
X167511952Y3238095D01*
X167702428Y3238095D01*
X166940523Y3961904D02*
X166902428Y4000000D01*
X166826238Y4038095D01*
X166635761Y4038095D01*
X166559571Y4000000D01*
X166521476Y3961904D01*
X166483380Y3885714D01*
X166483380Y3809523D01*
X166521476Y3695238D01*
X166978619Y3238095D01*
X166483380Y3238095D01*
X165797666Y4038095D02*
X165950047Y4038095D01*
X166026238Y4000000D01*
X166064333Y3961904D01*
X166140523Y3847619D01*
X166178619Y3695238D01*
X166178619Y3390476D01*
X166140523Y3314285D01*
X166102428Y3276190D01*
X166026238Y3238095D01*
X165873857Y3238095D01*
X165797666Y3276190D01*
X165759571Y3314285D01*
X165721476Y3390476D01*
X165721476Y3580952D01*
X165759571Y3657142D01*
X165797666Y3695238D01*
X165873857Y3733333D01*
X166026238Y3733333D01*
X166102428Y3695238D01*
X166140523Y3657142D01*
X166178619Y3580952D01*
G04 #@! TO.C,D60*
X181990428Y-34861904D02*
X181990428Y-34061904D01*
X181799952Y-34061904D01*
X181685666Y-34100000D01*
X181609476Y-34176190D01*
X181571380Y-34252380D01*
X181533285Y-34404761D01*
X181533285Y-34519047D01*
X181571380Y-34671428D01*
X181609476Y-34747619D01*
X181685666Y-34823809D01*
X181799952Y-34861904D01*
X181990428Y-34861904D01*
X180847571Y-34061904D02*
X180999952Y-34061904D01*
X181076142Y-34100000D01*
X181114238Y-34138095D01*
X181190428Y-34252380D01*
X181228523Y-34404761D01*
X181228523Y-34709523D01*
X181190428Y-34785714D01*
X181152333Y-34823809D01*
X181076142Y-34861904D01*
X180923761Y-34861904D01*
X180847571Y-34823809D01*
X180809476Y-34785714D01*
X180771380Y-34709523D01*
X180771380Y-34519047D01*
X180809476Y-34442857D01*
X180847571Y-34404761D01*
X180923761Y-34366666D01*
X181076142Y-34366666D01*
X181152333Y-34404761D01*
X181190428Y-34442857D01*
X181228523Y-34519047D01*
X180276142Y-34061904D02*
X180199952Y-34061904D01*
X180123761Y-34100000D01*
X180085666Y-34138095D01*
X180047571Y-34214285D01*
X180009476Y-34366666D01*
X180009476Y-34557142D01*
X180047571Y-34709523D01*
X180085666Y-34785714D01*
X180123761Y-34823809D01*
X180199952Y-34861904D01*
X180276142Y-34861904D01*
X180352333Y-34823809D01*
X180390428Y-34785714D01*
X180428523Y-34709523D01*
X180466619Y-34557142D01*
X180466619Y-34366666D01*
X180428523Y-34214285D01*
X180390428Y-34138095D01*
X180352333Y-34100000D01*
X180276142Y-34061904D01*
G04 #@! TO.C,D42*
X153414428Y-15811904D02*
X153414428Y-15011904D01*
X153223952Y-15011904D01*
X153109666Y-15050000D01*
X153033476Y-15126190D01*
X152995380Y-15202380D01*
X152957285Y-15354761D01*
X152957285Y-15469047D01*
X152995380Y-15621428D01*
X153033476Y-15697619D01*
X153109666Y-15773809D01*
X153223952Y-15811904D01*
X153414428Y-15811904D01*
X152271571Y-15278571D02*
X152271571Y-15811904D01*
X152462047Y-14973809D02*
X152652523Y-15545238D01*
X152157285Y-15545238D01*
X151890619Y-15088095D02*
X151852523Y-15050000D01*
X151776333Y-15011904D01*
X151585857Y-15011904D01*
X151509666Y-15050000D01*
X151471571Y-15088095D01*
X151433476Y-15164285D01*
X151433476Y-15240476D01*
X151471571Y-15354761D01*
X151928714Y-15811904D01*
X151433476Y-15811904D01*
G04 #@! TO.C,D4*
X81596676Y22288095D02*
X81596676Y23088095D01*
X81406200Y23088095D01*
X81291914Y23050000D01*
X81215723Y22973809D01*
X81177628Y22897619D01*
X81139533Y22745238D01*
X81139533Y22630952D01*
X81177628Y22478571D01*
X81215723Y22402380D01*
X81291914Y22326190D01*
X81406200Y22288095D01*
X81596676Y22288095D01*
X80453819Y22821428D02*
X80453819Y22288095D01*
X80644295Y23126190D02*
X80834771Y22554761D01*
X80339533Y22554761D01*
G04 #@! TO.C,D3*
X62546676Y22288095D02*
X62546676Y23088095D01*
X62356200Y23088095D01*
X62241914Y23050000D01*
X62165723Y22973809D01*
X62127628Y22897619D01*
X62089533Y22745238D01*
X62089533Y22630952D01*
X62127628Y22478571D01*
X62165723Y22402380D01*
X62241914Y22326190D01*
X62356200Y22288095D01*
X62546676Y22288095D01*
X61822866Y23088095D02*
X61327628Y23088095D01*
X61594295Y22783333D01*
X61480009Y22783333D01*
X61403819Y22745238D01*
X61365723Y22707142D01*
X61327628Y22630952D01*
X61327628Y22440476D01*
X61365723Y22364285D01*
X61403819Y22326190D01*
X61480009Y22288095D01*
X61708580Y22288095D01*
X61784771Y22326190D01*
X61822866Y22364285D01*
G04 #@! TO.C,D25*
X148652428Y3238095D02*
X148652428Y4038095D01*
X148461952Y4038095D01*
X148347666Y4000000D01*
X148271476Y3923809D01*
X148233380Y3847619D01*
X148195285Y3695238D01*
X148195285Y3580952D01*
X148233380Y3428571D01*
X148271476Y3352380D01*
X148347666Y3276190D01*
X148461952Y3238095D01*
X148652428Y3238095D01*
X147890523Y3961904D02*
X147852428Y4000000D01*
X147776238Y4038095D01*
X147585761Y4038095D01*
X147509571Y4000000D01*
X147471476Y3961904D01*
X147433380Y3885714D01*
X147433380Y3809523D01*
X147471476Y3695238D01*
X147928619Y3238095D01*
X147433380Y3238095D01*
X146709571Y4038095D02*
X147090523Y4038095D01*
X147128619Y3657142D01*
X147090523Y3695238D01*
X147014333Y3733333D01*
X146823857Y3733333D01*
X146747666Y3695238D01*
X146709571Y3657142D01*
X146671476Y3580952D01*
X146671476Y3390476D01*
X146709571Y3314285D01*
X146747666Y3276190D01*
X146823857Y3238095D01*
X147014333Y3238095D01*
X147090523Y3276190D01*
X147128619Y3314285D01*
G04 #@! TO.C,D71*
X110552428Y-57761904D02*
X110552428Y-56961904D01*
X110361952Y-56961904D01*
X110247666Y-57000000D01*
X110171476Y-57076190D01*
X110133380Y-57152380D01*
X110095285Y-57304761D01*
X110095285Y-57419047D01*
X110133380Y-57571428D01*
X110171476Y-57647619D01*
X110247666Y-57723809D01*
X110361952Y-57761904D01*
X110552428Y-57761904D01*
X109828619Y-56961904D02*
X109295285Y-56961904D01*
X109638142Y-57761904D01*
X108571476Y-57761904D02*
X109028619Y-57761904D01*
X108800047Y-57761904D02*
X108800047Y-56961904D01*
X108876238Y-57076190D01*
X108952428Y-57152380D01*
X109028619Y-57190476D01*
G04 #@! TO.C,D78*
X372336904Y-64028571D02*
X371536904Y-64028571D01*
X371536904Y-64219047D01*
X371575000Y-64333333D01*
X371651190Y-64409523D01*
X371727380Y-64447619D01*
X371879761Y-64485714D01*
X371994047Y-64485714D01*
X372146428Y-64447619D01*
X372222619Y-64409523D01*
X372298809Y-64333333D01*
X372336904Y-64219047D01*
X372336904Y-64028571D01*
X371536904Y-64752380D02*
X371536904Y-65285714D01*
X372336904Y-64942857D01*
X371879761Y-65704761D02*
X371841666Y-65628571D01*
X371803571Y-65590476D01*
X371727380Y-65552380D01*
X371689285Y-65552380D01*
X371613095Y-65590476D01*
X371575000Y-65628571D01*
X371536904Y-65704761D01*
X371536904Y-65857142D01*
X371575000Y-65933333D01*
X371613095Y-65971428D01*
X371689285Y-66009523D01*
X371727380Y-66009523D01*
X371803571Y-65971428D01*
X371841666Y-65933333D01*
X371879761Y-65857142D01*
X371879761Y-65704761D01*
X371917857Y-65628571D01*
X371955952Y-65590476D01*
X372032142Y-65552380D01*
X372184523Y-65552380D01*
X372260714Y-65590476D01*
X372298809Y-65628571D01*
X372336904Y-65704761D01*
X372336904Y-65857142D01*
X372298809Y-65933333D01*
X372260714Y-65971428D01*
X372184523Y-66009523D01*
X372032142Y-66009523D01*
X371955952Y-65971428D01*
X371917857Y-65933333D01*
X371879761Y-65857142D01*
G04 #@! TO.C,D77*
X348677428Y-57761904D02*
X348677428Y-56961904D01*
X348486952Y-56961904D01*
X348372666Y-57000000D01*
X348296476Y-57076190D01*
X348258380Y-57152380D01*
X348220285Y-57304761D01*
X348220285Y-57419047D01*
X348258380Y-57571428D01*
X348296476Y-57647619D01*
X348372666Y-57723809D01*
X348486952Y-57761904D01*
X348677428Y-57761904D01*
X347953619Y-56961904D02*
X347420285Y-56961904D01*
X347763142Y-57761904D01*
X347191714Y-56961904D02*
X346658380Y-56961904D01*
X347001238Y-57761904D01*
G04 #@! TO.C,D45*
X210564428Y-15811904D02*
X210564428Y-15011904D01*
X210373952Y-15011904D01*
X210259666Y-15050000D01*
X210183476Y-15126190D01*
X210145380Y-15202380D01*
X210107285Y-15354761D01*
X210107285Y-15469047D01*
X210145380Y-15621428D01*
X210183476Y-15697619D01*
X210259666Y-15773809D01*
X210373952Y-15811904D01*
X210564428Y-15811904D01*
X209421571Y-15278571D02*
X209421571Y-15811904D01*
X209612047Y-14973809D02*
X209802523Y-15545238D01*
X209307285Y-15545238D01*
X208621571Y-15011904D02*
X209002523Y-15011904D01*
X209040619Y-15392857D01*
X209002523Y-15354761D01*
X208926333Y-15316666D01*
X208735857Y-15316666D01*
X208659666Y-15354761D01*
X208621571Y-15392857D01*
X208583476Y-15469047D01*
X208583476Y-15659523D01*
X208621571Y-15735714D01*
X208659666Y-15773809D01*
X208735857Y-15811904D01*
X208926333Y-15811904D01*
X209002523Y-15773809D01*
X209040619Y-15735714D01*
G04 #@! TO.C,D16*
X310577428Y22288095D02*
X310577428Y23088095D01*
X310386952Y23088095D01*
X310272666Y23050000D01*
X310196476Y22973809D01*
X310158380Y22897619D01*
X310120285Y22745238D01*
X310120285Y22630952D01*
X310158380Y22478571D01*
X310196476Y22402380D01*
X310272666Y22326190D01*
X310386952Y22288095D01*
X310577428Y22288095D01*
X309358380Y22288095D02*
X309815523Y22288095D01*
X309586952Y22288095D02*
X309586952Y23088095D01*
X309663142Y22973809D01*
X309739333Y22897619D01*
X309815523Y22859523D01*
X308672666Y23088095D02*
X308825047Y23088095D01*
X308901238Y23050000D01*
X308939333Y23011904D01*
X309015523Y22897619D01*
X309053619Y22745238D01*
X309053619Y22440476D01*
X309015523Y22364285D01*
X308977428Y22326190D01*
X308901238Y22288095D01*
X308748857Y22288095D01*
X308672666Y22326190D01*
X308634571Y22364285D01*
X308596476Y22440476D01*
X308596476Y22630952D01*
X308634571Y22707142D01*
X308672666Y22745238D01*
X308748857Y22783333D01*
X308901238Y22783333D01*
X308977428Y22745238D01*
X309015523Y22707142D01*
X309053619Y22630952D01*
G04 #@! TO.C,D22*
X69918104Y-16403571D02*
X69118104Y-16403571D01*
X69118104Y-16594047D01*
X69156200Y-16708333D01*
X69232390Y-16784523D01*
X69308580Y-16822619D01*
X69460961Y-16860714D01*
X69575247Y-16860714D01*
X69727628Y-16822619D01*
X69803819Y-16784523D01*
X69880009Y-16708333D01*
X69918104Y-16594047D01*
X69918104Y-16403571D01*
X69194295Y-17165476D02*
X69156200Y-17203571D01*
X69118104Y-17279761D01*
X69118104Y-17470238D01*
X69156200Y-17546428D01*
X69194295Y-17584523D01*
X69270485Y-17622619D01*
X69346676Y-17622619D01*
X69460961Y-17584523D01*
X69918104Y-17127380D01*
X69918104Y-17622619D01*
X69194295Y-17927380D02*
X69156200Y-17965476D01*
X69118104Y-18041666D01*
X69118104Y-18232142D01*
X69156200Y-18308333D01*
X69194295Y-18346428D01*
X69270485Y-18384523D01*
X69346676Y-18384523D01*
X69460961Y-18346428D01*
X69918104Y-17889285D01*
X69918104Y-18384523D01*
G04 #@! TO.C,D10*
X203267904Y12171428D02*
X202467904Y12171428D01*
X202467904Y11980952D01*
X202506000Y11866666D01*
X202582190Y11790476D01*
X202658380Y11752380D01*
X202810761Y11714285D01*
X202925047Y11714285D01*
X203077428Y11752380D01*
X203153619Y11790476D01*
X203229809Y11866666D01*
X203267904Y11980952D01*
X203267904Y12171428D01*
X203267904Y10952380D02*
X203267904Y11409523D01*
X203267904Y11180952D02*
X202467904Y11180952D01*
X202582190Y11257142D01*
X202658380Y11333333D01*
X202696476Y11409523D01*
X202467904Y10457142D02*
X202467904Y10380952D01*
X202506000Y10304761D01*
X202544095Y10266666D01*
X202620285Y10228571D01*
X202772666Y10190476D01*
X202963142Y10190476D01*
X203115523Y10228571D01*
X203191714Y10266666D01*
X203229809Y10304761D01*
X203267904Y10380952D01*
X203267904Y10457142D01*
X203229809Y10533333D01*
X203191714Y10571428D01*
X203115523Y10609523D01*
X202963142Y10647619D01*
X202772666Y10647619D01*
X202620285Y10609523D01*
X202544095Y10571428D01*
X202506000Y10533333D01*
X202467904Y10457142D01*
G04 #@! TO.C,D54*
X43877628Y-34861904D02*
X43877628Y-34061904D01*
X43687152Y-34061904D01*
X43572866Y-34100000D01*
X43496676Y-34176190D01*
X43458580Y-34252380D01*
X43420485Y-34404761D01*
X43420485Y-34519047D01*
X43458580Y-34671428D01*
X43496676Y-34747619D01*
X43572866Y-34823809D01*
X43687152Y-34861904D01*
X43877628Y-34861904D01*
X42696676Y-34061904D02*
X43077628Y-34061904D01*
X43115723Y-34442857D01*
X43077628Y-34404761D01*
X43001438Y-34366666D01*
X42810961Y-34366666D01*
X42734771Y-34404761D01*
X42696676Y-34442857D01*
X42658580Y-34519047D01*
X42658580Y-34709523D01*
X42696676Y-34785714D01*
X42734771Y-34823809D01*
X42810961Y-34861904D01*
X43001438Y-34861904D01*
X43077628Y-34823809D01*
X43115723Y-34785714D01*
X41972866Y-34328571D02*
X41972866Y-34861904D01*
X42163342Y-34023809D02*
X42353819Y-34595238D01*
X41858580Y-34595238D01*
G04 #@! TO.C,D19*
X24827628Y3238095D02*
X24827628Y4038095D01*
X24637152Y4038095D01*
X24522866Y4000000D01*
X24446676Y3923809D01*
X24408580Y3847619D01*
X24370485Y3695238D01*
X24370485Y3580952D01*
X24408580Y3428571D01*
X24446676Y3352380D01*
X24522866Y3276190D01*
X24637152Y3238095D01*
X24827628Y3238095D01*
X23608580Y3238095D02*
X24065723Y3238095D01*
X23837152Y3238095D02*
X23837152Y4038095D01*
X23913342Y3923809D01*
X23989533Y3847619D01*
X24065723Y3809523D01*
X23227628Y3238095D02*
X23075247Y3238095D01*
X22999057Y3276190D01*
X22960961Y3314285D01*
X22884771Y3428571D01*
X22846676Y3580952D01*
X22846676Y3885714D01*
X22884771Y3961904D01*
X22922866Y4000000D01*
X22999057Y4038095D01*
X23151438Y4038095D01*
X23227628Y4000000D01*
X23265723Y3961904D01*
X23303819Y3885714D01*
X23303819Y3695238D01*
X23265723Y3619047D01*
X23227628Y3580952D01*
X23151438Y3542857D01*
X22999057Y3542857D01*
X22922866Y3580952D01*
X22884771Y3619047D01*
X22846676Y3695238D01*
G04 #@! TO.C,D57*
X112933428Y-34861904D02*
X112933428Y-34061904D01*
X112742952Y-34061904D01*
X112628666Y-34100000D01*
X112552476Y-34176190D01*
X112514380Y-34252380D01*
X112476285Y-34404761D01*
X112476285Y-34519047D01*
X112514380Y-34671428D01*
X112552476Y-34747619D01*
X112628666Y-34823809D01*
X112742952Y-34861904D01*
X112933428Y-34861904D01*
X111752476Y-34061904D02*
X112133428Y-34061904D01*
X112171523Y-34442857D01*
X112133428Y-34404761D01*
X112057238Y-34366666D01*
X111866761Y-34366666D01*
X111790571Y-34404761D01*
X111752476Y-34442857D01*
X111714380Y-34519047D01*
X111714380Y-34709523D01*
X111752476Y-34785714D01*
X111790571Y-34823809D01*
X111866761Y-34861904D01*
X112057238Y-34861904D01*
X112133428Y-34823809D01*
X112171523Y-34785714D01*
X111447714Y-34061904D02*
X110914380Y-34061904D01*
X111257238Y-34861904D01*
G04 #@! TO.C,D47*
X248664428Y-15811904D02*
X248664428Y-15011904D01*
X248473952Y-15011904D01*
X248359666Y-15050000D01*
X248283476Y-15126190D01*
X248245380Y-15202380D01*
X248207285Y-15354761D01*
X248207285Y-15469047D01*
X248245380Y-15621428D01*
X248283476Y-15697619D01*
X248359666Y-15773809D01*
X248473952Y-15811904D01*
X248664428Y-15811904D01*
X247521571Y-15278571D02*
X247521571Y-15811904D01*
X247712047Y-14973809D02*
X247902523Y-15545238D01*
X247407285Y-15545238D01*
X247178714Y-15011904D02*
X246645380Y-15011904D01*
X246988238Y-15811904D01*
G04 #@! TO.C,D15*
X298517904Y12171428D02*
X297717904Y12171428D01*
X297717904Y11980952D01*
X297756000Y11866666D01*
X297832190Y11790476D01*
X297908380Y11752380D01*
X298060761Y11714285D01*
X298175047Y11714285D01*
X298327428Y11752380D01*
X298403619Y11790476D01*
X298479809Y11866666D01*
X298517904Y11980952D01*
X298517904Y12171428D01*
X298517904Y10952380D02*
X298517904Y11409523D01*
X298517904Y11180952D02*
X297717904Y11180952D01*
X297832190Y11257142D01*
X297908380Y11333333D01*
X297946476Y11409523D01*
X297717904Y10228571D02*
X297717904Y10609523D01*
X298098857Y10647619D01*
X298060761Y10609523D01*
X298022666Y10533333D01*
X298022666Y10342857D01*
X298060761Y10266666D01*
X298098857Y10228571D01*
X298175047Y10190476D01*
X298365523Y10190476D01*
X298441714Y10228571D01*
X298479809Y10266666D01*
X298517904Y10342857D01*
X298517904Y10533333D01*
X298479809Y10609523D01*
X298441714Y10647619D01*
G04 #@! TO.C,D67*
X315340428Y-34861904D02*
X315340428Y-34061904D01*
X315149952Y-34061904D01*
X315035666Y-34100000D01*
X314959476Y-34176190D01*
X314921380Y-34252380D01*
X314883285Y-34404761D01*
X314883285Y-34519047D01*
X314921380Y-34671428D01*
X314959476Y-34747619D01*
X315035666Y-34823809D01*
X315149952Y-34861904D01*
X315340428Y-34861904D01*
X314197571Y-34061904D02*
X314349952Y-34061904D01*
X314426142Y-34100000D01*
X314464238Y-34138095D01*
X314540428Y-34252380D01*
X314578523Y-34404761D01*
X314578523Y-34709523D01*
X314540428Y-34785714D01*
X314502333Y-34823809D01*
X314426142Y-34861904D01*
X314273761Y-34861904D01*
X314197571Y-34823809D01*
X314159476Y-34785714D01*
X314121380Y-34709523D01*
X314121380Y-34519047D01*
X314159476Y-34442857D01*
X314197571Y-34404761D01*
X314273761Y-34366666D01*
X314426142Y-34366666D01*
X314502333Y-34404761D01*
X314540428Y-34442857D01*
X314578523Y-34519047D01*
X313854714Y-34061904D02*
X313321380Y-34061904D01*
X313664238Y-34861904D01*
G04 #@! TO.C,D36*
X360583428Y3238095D02*
X360583428Y4038095D01*
X360392952Y4038095D01*
X360278666Y4000000D01*
X360202476Y3923809D01*
X360164380Y3847619D01*
X360126285Y3695238D01*
X360126285Y3580952D01*
X360164380Y3428571D01*
X360202476Y3352380D01*
X360278666Y3276190D01*
X360392952Y3238095D01*
X360583428Y3238095D01*
X359859619Y4038095D02*
X359364380Y4038095D01*
X359631047Y3733333D01*
X359516761Y3733333D01*
X359440571Y3695238D01*
X359402476Y3657142D01*
X359364380Y3580952D01*
X359364380Y3390476D01*
X359402476Y3314285D01*
X359440571Y3276190D01*
X359516761Y3238095D01*
X359745333Y3238095D01*
X359821523Y3276190D01*
X359859619Y3314285D01*
X358678666Y4038095D02*
X358831047Y4038095D01*
X358907238Y4000000D01*
X358945333Y3961904D01*
X359021523Y3847619D01*
X359059619Y3695238D01*
X359059619Y3390476D01*
X359021523Y3314285D01*
X358983428Y3276190D01*
X358907238Y3238095D01*
X358754857Y3238095D01*
X358678666Y3276190D01*
X358640571Y3314285D01*
X358602476Y3390476D01*
X358602476Y3580952D01*
X358640571Y3657142D01*
X358678666Y3695238D01*
X358754857Y3733333D01*
X358907238Y3733333D01*
X358983428Y3695238D01*
X359021523Y3657142D01*
X359059619Y3580952D01*
G04 #@! TO.C,D62*
X220090428Y-34861904D02*
X220090428Y-34061904D01*
X219899952Y-34061904D01*
X219785666Y-34100000D01*
X219709476Y-34176190D01*
X219671380Y-34252380D01*
X219633285Y-34404761D01*
X219633285Y-34519047D01*
X219671380Y-34671428D01*
X219709476Y-34747619D01*
X219785666Y-34823809D01*
X219899952Y-34861904D01*
X220090428Y-34861904D01*
X218947571Y-34061904D02*
X219099952Y-34061904D01*
X219176142Y-34100000D01*
X219214238Y-34138095D01*
X219290428Y-34252380D01*
X219328523Y-34404761D01*
X219328523Y-34709523D01*
X219290428Y-34785714D01*
X219252333Y-34823809D01*
X219176142Y-34861904D01*
X219023761Y-34861904D01*
X218947571Y-34823809D01*
X218909476Y-34785714D01*
X218871380Y-34709523D01*
X218871380Y-34519047D01*
X218909476Y-34442857D01*
X218947571Y-34404761D01*
X219023761Y-34366666D01*
X219176142Y-34366666D01*
X219252333Y-34404761D01*
X219290428Y-34442857D01*
X219328523Y-34519047D01*
X218566619Y-34138095D02*
X218528523Y-34100000D01*
X218452333Y-34061904D01*
X218261857Y-34061904D01*
X218185666Y-34100000D01*
X218147571Y-34138095D01*
X218109476Y-34214285D01*
X218109476Y-34290476D01*
X218147571Y-34404761D01*
X218604714Y-34861904D01*
X218109476Y-34861904D01*
G04 #@! TO.C,D61*
X201040428Y-34861904D02*
X201040428Y-34061904D01*
X200849952Y-34061904D01*
X200735666Y-34100000D01*
X200659476Y-34176190D01*
X200621380Y-34252380D01*
X200583285Y-34404761D01*
X200583285Y-34519047D01*
X200621380Y-34671428D01*
X200659476Y-34747619D01*
X200735666Y-34823809D01*
X200849952Y-34861904D01*
X201040428Y-34861904D01*
X199897571Y-34061904D02*
X200049952Y-34061904D01*
X200126142Y-34100000D01*
X200164238Y-34138095D01*
X200240428Y-34252380D01*
X200278523Y-34404761D01*
X200278523Y-34709523D01*
X200240428Y-34785714D01*
X200202333Y-34823809D01*
X200126142Y-34861904D01*
X199973761Y-34861904D01*
X199897571Y-34823809D01*
X199859476Y-34785714D01*
X199821380Y-34709523D01*
X199821380Y-34519047D01*
X199859476Y-34442857D01*
X199897571Y-34404761D01*
X199973761Y-34366666D01*
X200126142Y-34366666D01*
X200202333Y-34404761D01*
X200240428Y-34442857D01*
X200278523Y-34519047D01*
X199059476Y-34861904D02*
X199516619Y-34861904D01*
X199288047Y-34861904D02*
X199288047Y-34061904D01*
X199364238Y-34176190D01*
X199440428Y-34252380D01*
X199516619Y-34290476D01*
G04 #@! TO.C,D52*
X355821428Y-15811904D02*
X355821428Y-15011904D01*
X355630952Y-15011904D01*
X355516666Y-15050000D01*
X355440476Y-15126190D01*
X355402380Y-15202380D01*
X355364285Y-15354761D01*
X355364285Y-15469047D01*
X355402380Y-15621428D01*
X355440476Y-15697619D01*
X355516666Y-15773809D01*
X355630952Y-15811904D01*
X355821428Y-15811904D01*
X354640476Y-15011904D02*
X355021428Y-15011904D01*
X355059523Y-15392857D01*
X355021428Y-15354761D01*
X354945238Y-15316666D01*
X354754761Y-15316666D01*
X354678571Y-15354761D01*
X354640476Y-15392857D01*
X354602380Y-15469047D01*
X354602380Y-15659523D01*
X354640476Y-15735714D01*
X354678571Y-15773809D01*
X354754761Y-15811904D01*
X354945238Y-15811904D01*
X355021428Y-15773809D01*
X355059523Y-15735714D01*
X354297619Y-15088095D02*
X354259523Y-15050000D01*
X354183333Y-15011904D01*
X353992857Y-15011904D01*
X353916666Y-15050000D01*
X353878571Y-15088095D01*
X353840476Y-15164285D01*
X353840476Y-15240476D01*
X353878571Y-15354761D01*
X354335714Y-15811904D01*
X353840476Y-15811904D01*
G04 #@! TO.C,D37*
X24827628Y-15811904D02*
X24827628Y-15011904D01*
X24637152Y-15011904D01*
X24522866Y-15050000D01*
X24446676Y-15126190D01*
X24408580Y-15202380D01*
X24370485Y-15354761D01*
X24370485Y-15469047D01*
X24408580Y-15621428D01*
X24446676Y-15697619D01*
X24522866Y-15773809D01*
X24637152Y-15811904D01*
X24827628Y-15811904D01*
X24103819Y-15011904D02*
X23608580Y-15011904D01*
X23875247Y-15316666D01*
X23760961Y-15316666D01*
X23684771Y-15354761D01*
X23646676Y-15392857D01*
X23608580Y-15469047D01*
X23608580Y-15659523D01*
X23646676Y-15735714D01*
X23684771Y-15773809D01*
X23760961Y-15811904D01*
X23989533Y-15811904D01*
X24065723Y-15773809D01*
X24103819Y-15735714D01*
X23341914Y-15011904D02*
X22808580Y-15011904D01*
X23151438Y-15811904D01*
G04 #@! TO.C,D65*
X277240428Y-34861904D02*
X277240428Y-34061904D01*
X277049952Y-34061904D01*
X276935666Y-34100000D01*
X276859476Y-34176190D01*
X276821380Y-34252380D01*
X276783285Y-34404761D01*
X276783285Y-34519047D01*
X276821380Y-34671428D01*
X276859476Y-34747619D01*
X276935666Y-34823809D01*
X277049952Y-34861904D01*
X277240428Y-34861904D01*
X276097571Y-34061904D02*
X276249952Y-34061904D01*
X276326142Y-34100000D01*
X276364238Y-34138095D01*
X276440428Y-34252380D01*
X276478523Y-34404761D01*
X276478523Y-34709523D01*
X276440428Y-34785714D01*
X276402333Y-34823809D01*
X276326142Y-34861904D01*
X276173761Y-34861904D01*
X276097571Y-34823809D01*
X276059476Y-34785714D01*
X276021380Y-34709523D01*
X276021380Y-34519047D01*
X276059476Y-34442857D01*
X276097571Y-34404761D01*
X276173761Y-34366666D01*
X276326142Y-34366666D01*
X276402333Y-34404761D01*
X276440428Y-34442857D01*
X276478523Y-34519047D01*
X275297571Y-34061904D02*
X275678523Y-34061904D01*
X275716619Y-34442857D01*
X275678523Y-34404761D01*
X275602333Y-34366666D01*
X275411857Y-34366666D01*
X275335666Y-34404761D01*
X275297571Y-34442857D01*
X275259476Y-34519047D01*
X275259476Y-34709523D01*
X275297571Y-34785714D01*
X275335666Y-34823809D01*
X275411857Y-34861904D01*
X275602333Y-34861904D01*
X275678523Y-34823809D01*
X275716619Y-34785714D01*
G04 #@! TO.C,D14*
X272477428Y22288095D02*
X272477428Y23088095D01*
X272286952Y23088095D01*
X272172666Y23050000D01*
X272096476Y22973809D01*
X272058380Y22897619D01*
X272020285Y22745238D01*
X272020285Y22630952D01*
X272058380Y22478571D01*
X272096476Y22402380D01*
X272172666Y22326190D01*
X272286952Y22288095D01*
X272477428Y22288095D01*
X271258380Y22288095D02*
X271715523Y22288095D01*
X271486952Y22288095D02*
X271486952Y23088095D01*
X271563142Y22973809D01*
X271639333Y22897619D01*
X271715523Y22859523D01*
X270572666Y22821428D02*
X270572666Y22288095D01*
X270763142Y23126190D02*
X270953619Y22554761D01*
X270458380Y22554761D01*
G04 #@! TO.C,D68*
X353440428Y-34861904D02*
X353440428Y-34061904D01*
X353249952Y-34061904D01*
X353135666Y-34100000D01*
X353059476Y-34176190D01*
X353021380Y-34252380D01*
X352983285Y-34404761D01*
X352983285Y-34519047D01*
X353021380Y-34671428D01*
X353059476Y-34747619D01*
X353135666Y-34823809D01*
X353249952Y-34861904D01*
X353440428Y-34861904D01*
X352297571Y-34061904D02*
X352449952Y-34061904D01*
X352526142Y-34100000D01*
X352564238Y-34138095D01*
X352640428Y-34252380D01*
X352678523Y-34404761D01*
X352678523Y-34709523D01*
X352640428Y-34785714D01*
X352602333Y-34823809D01*
X352526142Y-34861904D01*
X352373761Y-34861904D01*
X352297571Y-34823809D01*
X352259476Y-34785714D01*
X352221380Y-34709523D01*
X352221380Y-34519047D01*
X352259476Y-34442857D01*
X352297571Y-34404761D01*
X352373761Y-34366666D01*
X352526142Y-34366666D01*
X352602333Y-34404761D01*
X352640428Y-34442857D01*
X352678523Y-34519047D01*
X351764238Y-34404761D02*
X351840428Y-34366666D01*
X351878523Y-34328571D01*
X351916619Y-34252380D01*
X351916619Y-34214285D01*
X351878523Y-34138095D01*
X351840428Y-34100000D01*
X351764238Y-34061904D01*
X351611857Y-34061904D01*
X351535666Y-34100000D01*
X351497571Y-34138095D01*
X351459476Y-34214285D01*
X351459476Y-34252380D01*
X351497571Y-34328571D01*
X351535666Y-34366666D01*
X351611857Y-34404761D01*
X351764238Y-34404761D01*
X351840428Y-34442857D01*
X351878523Y-34480952D01*
X351916619Y-34557142D01*
X351916619Y-34709523D01*
X351878523Y-34785714D01*
X351840428Y-34823809D01*
X351764238Y-34861904D01*
X351611857Y-34861904D01*
X351535666Y-34823809D01*
X351497571Y-34785714D01*
X351459476Y-34709523D01*
X351459476Y-34557142D01*
X351497571Y-34480952D01*
X351535666Y-34442857D01*
X351611857Y-34404761D01*
G04 #@! TO.C,D18*
X358202428Y22288095D02*
X358202428Y23088095D01*
X358011952Y23088095D01*
X357897666Y23050000D01*
X357821476Y22973809D01*
X357783380Y22897619D01*
X357745285Y22745238D01*
X357745285Y22630952D01*
X357783380Y22478571D01*
X357821476Y22402380D01*
X357897666Y22326190D01*
X358011952Y22288095D01*
X358202428Y22288095D01*
X356983380Y22288095D02*
X357440523Y22288095D01*
X357211952Y22288095D02*
X357211952Y23088095D01*
X357288142Y22973809D01*
X357364333Y22897619D01*
X357440523Y22859523D01*
X356526238Y22745238D02*
X356602428Y22783333D01*
X356640523Y22821428D01*
X356678619Y22897619D01*
X356678619Y22935714D01*
X356640523Y23011904D01*
X356602428Y23050000D01*
X356526238Y23088095D01*
X356373857Y23088095D01*
X356297666Y23050000D01*
X356259571Y23011904D01*
X356221476Y22935714D01*
X356221476Y22897619D01*
X356259571Y22821428D01*
X356297666Y22783333D01*
X356373857Y22745238D01*
X356526238Y22745238D01*
X356602428Y22707142D01*
X356640523Y22669047D01*
X356678619Y22592857D01*
X356678619Y22440476D01*
X356640523Y22364285D01*
X356602428Y22326190D01*
X356526238Y22288095D01*
X356373857Y22288095D01*
X356297666Y22326190D01*
X356259571Y22364285D01*
X356221476Y22440476D01*
X356221476Y22592857D01*
X356259571Y22669047D01*
X356297666Y22707142D01*
X356373857Y22745238D01*
G04 #@! TO.C,D38*
X43877628Y-15811904D02*
X43877628Y-15011904D01*
X43687152Y-15011904D01*
X43572866Y-15050000D01*
X43496676Y-15126190D01*
X43458580Y-15202380D01*
X43420485Y-15354761D01*
X43420485Y-15469047D01*
X43458580Y-15621428D01*
X43496676Y-15697619D01*
X43572866Y-15773809D01*
X43687152Y-15811904D01*
X43877628Y-15811904D01*
X43153819Y-15011904D02*
X42658580Y-15011904D01*
X42925247Y-15316666D01*
X42810961Y-15316666D01*
X42734771Y-15354761D01*
X42696676Y-15392857D01*
X42658580Y-15469047D01*
X42658580Y-15659523D01*
X42696676Y-15735714D01*
X42734771Y-15773809D01*
X42810961Y-15811904D01*
X43039533Y-15811904D01*
X43115723Y-15773809D01*
X43153819Y-15735714D01*
X42201438Y-15354761D02*
X42277628Y-15316666D01*
X42315723Y-15278571D01*
X42353819Y-15202380D01*
X42353819Y-15164285D01*
X42315723Y-15088095D01*
X42277628Y-15050000D01*
X42201438Y-15011904D01*
X42049057Y-15011904D01*
X41972866Y-15050000D01*
X41934771Y-15088095D01*
X41896676Y-15164285D01*
X41896676Y-15202380D01*
X41934771Y-15278571D01*
X41972866Y-15316666D01*
X42049057Y-15354761D01*
X42201438Y-15354761D01*
X42277628Y-15392857D01*
X42315723Y-15430952D01*
X42353819Y-15507142D01*
X42353819Y-15659523D01*
X42315723Y-15735714D01*
X42277628Y-15773809D01*
X42201438Y-15811904D01*
X42049057Y-15811904D01*
X41972866Y-15773809D01*
X41934771Y-15735714D01*
X41896676Y-15659523D01*
X41896676Y-15507142D01*
X41934771Y-15430952D01*
X41972866Y-15392857D01*
X42049057Y-15354761D01*
G04 #@! TO.C,D12*
X234377428Y22288095D02*
X234377428Y23088095D01*
X234186952Y23088095D01*
X234072666Y23050000D01*
X233996476Y22973809D01*
X233958380Y22897619D01*
X233920285Y22745238D01*
X233920285Y22630952D01*
X233958380Y22478571D01*
X233996476Y22402380D01*
X234072666Y22326190D01*
X234186952Y22288095D01*
X234377428Y22288095D01*
X233158380Y22288095D02*
X233615523Y22288095D01*
X233386952Y22288095D02*
X233386952Y23088095D01*
X233463142Y22973809D01*
X233539333Y22897619D01*
X233615523Y22859523D01*
X232853619Y23011904D02*
X232815523Y23050000D01*
X232739333Y23088095D01*
X232548857Y23088095D01*
X232472666Y23050000D01*
X232434571Y23011904D01*
X232396476Y22935714D01*
X232396476Y22859523D01*
X232434571Y22745238D01*
X232891714Y22288095D01*
X232396476Y22288095D01*
G04 #@! TO.C,D58*
X143890428Y-34861904D02*
X143890428Y-34061904D01*
X143699952Y-34061904D01*
X143585666Y-34100000D01*
X143509476Y-34176190D01*
X143471380Y-34252380D01*
X143433285Y-34404761D01*
X143433285Y-34519047D01*
X143471380Y-34671428D01*
X143509476Y-34747619D01*
X143585666Y-34823809D01*
X143699952Y-34861904D01*
X143890428Y-34861904D01*
X142709476Y-34061904D02*
X143090428Y-34061904D01*
X143128523Y-34442857D01*
X143090428Y-34404761D01*
X143014238Y-34366666D01*
X142823761Y-34366666D01*
X142747571Y-34404761D01*
X142709476Y-34442857D01*
X142671380Y-34519047D01*
X142671380Y-34709523D01*
X142709476Y-34785714D01*
X142747571Y-34823809D01*
X142823761Y-34861904D01*
X143014238Y-34861904D01*
X143090428Y-34823809D01*
X143128523Y-34785714D01*
X142214238Y-34404761D02*
X142290428Y-34366666D01*
X142328523Y-34328571D01*
X142366619Y-34252380D01*
X142366619Y-34214285D01*
X142328523Y-34138095D01*
X142290428Y-34100000D01*
X142214238Y-34061904D01*
X142061857Y-34061904D01*
X141985666Y-34100000D01*
X141947571Y-34138095D01*
X141909476Y-34214285D01*
X141909476Y-34252380D01*
X141947571Y-34328571D01*
X141985666Y-34366666D01*
X142061857Y-34404761D01*
X142214238Y-34404761D01*
X142290428Y-34442857D01*
X142328523Y-34480952D01*
X142366619Y-34557142D01*
X142366619Y-34709523D01*
X142328523Y-34785714D01*
X142290428Y-34823809D01*
X142214238Y-34861904D01*
X142061857Y-34861904D01*
X141985666Y-34823809D01*
X141947571Y-34785714D01*
X141909476Y-34709523D01*
X141909476Y-34557142D01*
X141947571Y-34480952D01*
X141985666Y-34442857D01*
X142061857Y-34404761D01*
G04 #@! TO.C,D34*
X320102428Y3238095D02*
X320102428Y4038095D01*
X319911952Y4038095D01*
X319797666Y4000000D01*
X319721476Y3923809D01*
X319683380Y3847619D01*
X319645285Y3695238D01*
X319645285Y3580952D01*
X319683380Y3428571D01*
X319721476Y3352380D01*
X319797666Y3276190D01*
X319911952Y3238095D01*
X320102428Y3238095D01*
X319378619Y4038095D02*
X318883380Y4038095D01*
X319150047Y3733333D01*
X319035761Y3733333D01*
X318959571Y3695238D01*
X318921476Y3657142D01*
X318883380Y3580952D01*
X318883380Y3390476D01*
X318921476Y3314285D01*
X318959571Y3276190D01*
X319035761Y3238095D01*
X319264333Y3238095D01*
X319340523Y3276190D01*
X319378619Y3314285D01*
X318197666Y3771428D02*
X318197666Y3238095D01*
X318388142Y4076190D02*
X318578619Y3504761D01*
X318083380Y3504761D01*
G04 #@! TO.C,D20*
X43877628Y3238095D02*
X43877628Y4038095D01*
X43687152Y4038095D01*
X43572866Y4000000D01*
X43496676Y3923809D01*
X43458580Y3847619D01*
X43420485Y3695238D01*
X43420485Y3580952D01*
X43458580Y3428571D01*
X43496676Y3352380D01*
X43572866Y3276190D01*
X43687152Y3238095D01*
X43877628Y3238095D01*
X43115723Y3961904D02*
X43077628Y4000000D01*
X43001438Y4038095D01*
X42810961Y4038095D01*
X42734771Y4000000D01*
X42696676Y3961904D01*
X42658580Y3885714D01*
X42658580Y3809523D01*
X42696676Y3695238D01*
X43153819Y3238095D01*
X42658580Y3238095D01*
X42163342Y4038095D02*
X42087152Y4038095D01*
X42010961Y4000000D01*
X41972866Y3961904D01*
X41934771Y3885714D01*
X41896676Y3733333D01*
X41896676Y3542857D01*
X41934771Y3390476D01*
X41972866Y3314285D01*
X42010961Y3276190D01*
X42087152Y3238095D01*
X42163342Y3238095D01*
X42239533Y3276190D01*
X42277628Y3314285D01*
X42315723Y3390476D01*
X42353819Y3542857D01*
X42353819Y3733333D01*
X42315723Y3885714D01*
X42277628Y3961904D01*
X42239533Y4000000D01*
X42163342Y4038095D01*
G04 #@! TO.C,D69*
X34352628Y-53911904D02*
X34352628Y-53111904D01*
X34162152Y-53111904D01*
X34047866Y-53150000D01*
X33971676Y-53226190D01*
X33933580Y-53302380D01*
X33895485Y-53454761D01*
X33895485Y-53569047D01*
X33933580Y-53721428D01*
X33971676Y-53797619D01*
X34047866Y-53873809D01*
X34162152Y-53911904D01*
X34352628Y-53911904D01*
X33209771Y-53111904D02*
X33362152Y-53111904D01*
X33438342Y-53150000D01*
X33476438Y-53188095D01*
X33552628Y-53302380D01*
X33590723Y-53454761D01*
X33590723Y-53759523D01*
X33552628Y-53835714D01*
X33514533Y-53873809D01*
X33438342Y-53911904D01*
X33285961Y-53911904D01*
X33209771Y-53873809D01*
X33171676Y-53835714D01*
X33133580Y-53759523D01*
X33133580Y-53569047D01*
X33171676Y-53492857D01*
X33209771Y-53454761D01*
X33285961Y-53416666D01*
X33438342Y-53416666D01*
X33514533Y-53454761D01*
X33552628Y-53492857D01*
X33590723Y-53569047D01*
X32752628Y-53911904D02*
X32600247Y-53911904D01*
X32524057Y-53873809D01*
X32485961Y-53835714D01*
X32409771Y-53721428D01*
X32371676Y-53569047D01*
X32371676Y-53264285D01*
X32409771Y-53188095D01*
X32447866Y-53150000D01*
X32524057Y-53111904D01*
X32676438Y-53111904D01*
X32752628Y-53150000D01*
X32790723Y-53188095D01*
X32828819Y-53264285D01*
X32828819Y-53454761D01*
X32790723Y-53530952D01*
X32752628Y-53569047D01*
X32676438Y-53607142D01*
X32524057Y-53607142D01*
X32447866Y-53569047D01*
X32409771Y-53530952D01*
X32371676Y-53454761D01*
G04 #@! TO.C,SW1*
X75635961Y19677133D02*
X75683580Y19534276D01*
X75683580Y19296180D01*
X75635961Y19200942D01*
X75588342Y19153323D01*
X75493104Y19105704D01*
X75397866Y19105704D01*
X75302628Y19153323D01*
X75255009Y19200942D01*
X75207390Y19296180D01*
X75159771Y19486657D01*
X75112152Y19581895D01*
X75064533Y19629514D01*
X74969295Y19677133D01*
X74874057Y19677133D01*
X74778819Y19629514D01*
X74731200Y19581895D01*
X74683580Y19486657D01*
X74683580Y19248561D01*
X74731200Y19105704D01*
X74683580Y18772371D02*
X75683580Y18534276D01*
X74969295Y18343800D01*
X75683580Y18153323D01*
X74683580Y17915228D01*
X75683580Y17010466D02*
X75683580Y17581895D01*
X75683580Y17296180D02*
X74683580Y17296180D01*
X74826438Y17391419D01*
X74921676Y17486657D01*
X74969295Y17581895D01*
G04 #@! TO.C,D40*
X108171428Y-15811904D02*
X108171428Y-15011904D01*
X107980952Y-15011904D01*
X107866666Y-15050000D01*
X107790476Y-15126190D01*
X107752380Y-15202380D01*
X107714285Y-15354761D01*
X107714285Y-15469047D01*
X107752380Y-15621428D01*
X107790476Y-15697619D01*
X107866666Y-15773809D01*
X107980952Y-15811904D01*
X108171428Y-15811904D01*
X107028571Y-15278571D02*
X107028571Y-15811904D01*
X107219047Y-14973809D02*
X107409523Y-15545238D01*
X106914285Y-15545238D01*
X106457142Y-15011904D02*
X106380952Y-15011904D01*
X106304761Y-15050000D01*
X106266666Y-15088095D01*
X106228571Y-15164285D01*
X106190476Y-15316666D01*
X106190476Y-15507142D01*
X106228571Y-15659523D01*
X106266666Y-15735714D01*
X106304761Y-15773809D01*
X106380952Y-15811904D01*
X106457142Y-15811904D01*
X106533333Y-15773809D01*
X106571428Y-15735714D01*
X106609523Y-15659523D01*
X106647619Y-15507142D01*
X106647619Y-15316666D01*
X106609523Y-15164285D01*
X106571428Y-15088095D01*
X106533333Y-15050000D01*
X106457142Y-15011904D01*
G04 #@! TO.C,D56*
X69918104Y-54503571D02*
X69118104Y-54503571D01*
X69118104Y-54694047D01*
X69156200Y-54808333D01*
X69232390Y-54884523D01*
X69308580Y-54922619D01*
X69460961Y-54960714D01*
X69575247Y-54960714D01*
X69727628Y-54922619D01*
X69803819Y-54884523D01*
X69880009Y-54808333D01*
X69918104Y-54694047D01*
X69918104Y-54503571D01*
X69118104Y-55684523D02*
X69118104Y-55303571D01*
X69499057Y-55265476D01*
X69460961Y-55303571D01*
X69422866Y-55379761D01*
X69422866Y-55570238D01*
X69460961Y-55646428D01*
X69499057Y-55684523D01*
X69575247Y-55722619D01*
X69765723Y-55722619D01*
X69841914Y-55684523D01*
X69880009Y-55646428D01*
X69918104Y-55570238D01*
X69918104Y-55379761D01*
X69880009Y-55303571D01*
X69841914Y-55265476D01*
X69118104Y-56408333D02*
X69118104Y-56255952D01*
X69156200Y-56179761D01*
X69194295Y-56141666D01*
X69308580Y-56065476D01*
X69460961Y-56027380D01*
X69765723Y-56027380D01*
X69841914Y-56065476D01*
X69880009Y-56103571D01*
X69918104Y-56179761D01*
X69918104Y-56332142D01*
X69880009Y-56408333D01*
X69841914Y-56446428D01*
X69765723Y-56484523D01*
X69575247Y-56484523D01*
X69499057Y-56446428D01*
X69460961Y-56408333D01*
X69422866Y-56332142D01*
X69422866Y-56179761D01*
X69460961Y-56103571D01*
X69499057Y-56065476D01*
X69575247Y-56027380D01*
G04 #@! TO.C,D23*
X105790428Y3238095D02*
X105790428Y4038095D01*
X105599952Y4038095D01*
X105485666Y4000000D01*
X105409476Y3923809D01*
X105371380Y3847619D01*
X105333285Y3695238D01*
X105333285Y3580952D01*
X105371380Y3428571D01*
X105409476Y3352380D01*
X105485666Y3276190D01*
X105599952Y3238095D01*
X105790428Y3238095D01*
X105028523Y3961904D02*
X104990428Y4000000D01*
X104914238Y4038095D01*
X104723761Y4038095D01*
X104647571Y4000000D01*
X104609476Y3961904D01*
X104571380Y3885714D01*
X104571380Y3809523D01*
X104609476Y3695238D01*
X105066619Y3238095D01*
X104571380Y3238095D01*
X104304714Y4038095D02*
X103809476Y4038095D01*
X104076142Y3733333D01*
X103961857Y3733333D01*
X103885666Y3695238D01*
X103847571Y3657142D01*
X103809476Y3580952D01*
X103809476Y3390476D01*
X103847571Y3314285D01*
X103885666Y3276190D01*
X103961857Y3238095D01*
X104190428Y3238095D01*
X104266619Y3276190D01*
X104304714Y3314285D01*
G04 #@! TO.C,D17*
X329627428Y22288095D02*
X329627428Y23088095D01*
X329436952Y23088095D01*
X329322666Y23050000D01*
X329246476Y22973809D01*
X329208380Y22897619D01*
X329170285Y22745238D01*
X329170285Y22630952D01*
X329208380Y22478571D01*
X329246476Y22402380D01*
X329322666Y22326190D01*
X329436952Y22288095D01*
X329627428Y22288095D01*
X328408380Y22288095D02*
X328865523Y22288095D01*
X328636952Y22288095D02*
X328636952Y23088095D01*
X328713142Y22973809D01*
X328789333Y22897619D01*
X328865523Y22859523D01*
X328141714Y23088095D02*
X327608380Y23088095D01*
X327951238Y22288095D01*
G04 #@! TO.C,D32*
X282002428Y3238095D02*
X282002428Y4038095D01*
X281811952Y4038095D01*
X281697666Y4000000D01*
X281621476Y3923809D01*
X281583380Y3847619D01*
X281545285Y3695238D01*
X281545285Y3580952D01*
X281583380Y3428571D01*
X281621476Y3352380D01*
X281697666Y3276190D01*
X281811952Y3238095D01*
X282002428Y3238095D01*
X281278619Y4038095D02*
X280783380Y4038095D01*
X281050047Y3733333D01*
X280935761Y3733333D01*
X280859571Y3695238D01*
X280821476Y3657142D01*
X280783380Y3580952D01*
X280783380Y3390476D01*
X280821476Y3314285D01*
X280859571Y3276190D01*
X280935761Y3238095D01*
X281164333Y3238095D01*
X281240523Y3276190D01*
X281278619Y3314285D01*
X280478619Y3961904D02*
X280440523Y4000000D01*
X280364333Y4038095D01*
X280173857Y4038095D01*
X280097666Y4000000D01*
X280059571Y3961904D01*
X280021476Y3885714D01*
X280021476Y3809523D01*
X280059571Y3695238D01*
X280516714Y3238095D01*
X280021476Y3238095D01*
G04 #@! TO.C,D31*
X262952428Y3238095D02*
X262952428Y4038095D01*
X262761952Y4038095D01*
X262647666Y4000000D01*
X262571476Y3923809D01*
X262533380Y3847619D01*
X262495285Y3695238D01*
X262495285Y3580952D01*
X262533380Y3428571D01*
X262571476Y3352380D01*
X262647666Y3276190D01*
X262761952Y3238095D01*
X262952428Y3238095D01*
X262228619Y4038095D02*
X261733380Y4038095D01*
X262000047Y3733333D01*
X261885761Y3733333D01*
X261809571Y3695238D01*
X261771476Y3657142D01*
X261733380Y3580952D01*
X261733380Y3390476D01*
X261771476Y3314285D01*
X261809571Y3276190D01*
X261885761Y3238095D01*
X262114333Y3238095D01*
X262190523Y3276190D01*
X262228619Y3314285D01*
X260971476Y3238095D02*
X261428619Y3238095D01*
X261200047Y3238095D02*
X261200047Y4038095D01*
X261276238Y3923809D01*
X261352428Y3847619D01*
X261428619Y3809523D01*
G04 #@! TO.C,D9*
X176846476Y22288095D02*
X176846476Y23088095D01*
X176656000Y23088095D01*
X176541714Y23050000D01*
X176465523Y22973809D01*
X176427428Y22897619D01*
X176389333Y22745238D01*
X176389333Y22630952D01*
X176427428Y22478571D01*
X176465523Y22402380D01*
X176541714Y22326190D01*
X176656000Y22288095D01*
X176846476Y22288095D01*
X176008380Y22288095D02*
X175856000Y22288095D01*
X175779809Y22326190D01*
X175741714Y22364285D01*
X175665523Y22478571D01*
X175627428Y22630952D01*
X175627428Y22935714D01*
X175665523Y23011904D01*
X175703619Y23050000D01*
X175779809Y23088095D01*
X175932190Y23088095D01*
X176008380Y23050000D01*
X176046476Y23011904D01*
X176084571Y22935714D01*
X176084571Y22745238D01*
X176046476Y22669047D01*
X176008380Y22630952D01*
X175932190Y22592857D01*
X175779809Y22592857D01*
X175703619Y22630952D01*
X175665523Y22669047D01*
X175627428Y22745238D01*
G04 #@! TO.C,D64*
X258190428Y-34861904D02*
X258190428Y-34061904D01*
X257999952Y-34061904D01*
X257885666Y-34100000D01*
X257809476Y-34176190D01*
X257771380Y-34252380D01*
X257733285Y-34404761D01*
X257733285Y-34519047D01*
X257771380Y-34671428D01*
X257809476Y-34747619D01*
X257885666Y-34823809D01*
X257999952Y-34861904D01*
X258190428Y-34861904D01*
X257047571Y-34061904D02*
X257199952Y-34061904D01*
X257276142Y-34100000D01*
X257314238Y-34138095D01*
X257390428Y-34252380D01*
X257428523Y-34404761D01*
X257428523Y-34709523D01*
X257390428Y-34785714D01*
X257352333Y-34823809D01*
X257276142Y-34861904D01*
X257123761Y-34861904D01*
X257047571Y-34823809D01*
X257009476Y-34785714D01*
X256971380Y-34709523D01*
X256971380Y-34519047D01*
X257009476Y-34442857D01*
X257047571Y-34404761D01*
X257123761Y-34366666D01*
X257276142Y-34366666D01*
X257352333Y-34404761D01*
X257390428Y-34442857D01*
X257428523Y-34519047D01*
X256285666Y-34328571D02*
X256285666Y-34861904D01*
X256476142Y-34023809D02*
X256666619Y-34595238D01*
X256171380Y-34595238D01*
G04 #@! TO.C,D74*
X222471428Y-53911904D02*
X222471428Y-53111904D01*
X222280952Y-53111904D01*
X222166666Y-53150000D01*
X222090476Y-53226190D01*
X222052380Y-53302380D01*
X222014285Y-53454761D01*
X222014285Y-53569047D01*
X222052380Y-53721428D01*
X222090476Y-53797619D01*
X222166666Y-53873809D01*
X222280952Y-53911904D01*
X222471428Y-53911904D01*
X221747619Y-53111904D02*
X221214285Y-53111904D01*
X221557142Y-53911904D01*
X220566666Y-53378571D02*
X220566666Y-53911904D01*
X220757142Y-53073809D02*
X220947619Y-53645238D01*
X220452380Y-53645238D01*
G04 #@! TO.C,D76*
X317721428Y-53911904D02*
X317721428Y-53111904D01*
X317530952Y-53111904D01*
X317416666Y-53150000D01*
X317340476Y-53226190D01*
X317302380Y-53302380D01*
X317264285Y-53454761D01*
X317264285Y-53569047D01*
X317302380Y-53721428D01*
X317340476Y-53797619D01*
X317416666Y-53873809D01*
X317530952Y-53911904D01*
X317721428Y-53911904D01*
X316997619Y-53111904D02*
X316464285Y-53111904D01*
X316807142Y-53911904D01*
X315816666Y-53111904D02*
X315969047Y-53111904D01*
X316045238Y-53150000D01*
X316083333Y-53188095D01*
X316159523Y-53302380D01*
X316197619Y-53454761D01*
X316197619Y-53759523D01*
X316159523Y-53835714D01*
X316121428Y-53873809D01*
X316045238Y-53911904D01*
X315892857Y-53911904D01*
X315816666Y-53873809D01*
X315778571Y-53835714D01*
X315740476Y-53759523D01*
X315740476Y-53569047D01*
X315778571Y-53492857D01*
X315816666Y-53454761D01*
X315892857Y-53416666D01*
X316045238Y-53416666D01*
X316121428Y-53454761D01*
X316159523Y-53492857D01*
X316197619Y-53569047D01*
G04 #@! TO.C,D49*
X286764428Y-15811904D02*
X286764428Y-15011904D01*
X286573952Y-15011904D01*
X286459666Y-15050000D01*
X286383476Y-15126190D01*
X286345380Y-15202380D01*
X286307285Y-15354761D01*
X286307285Y-15469047D01*
X286345380Y-15621428D01*
X286383476Y-15697619D01*
X286459666Y-15773809D01*
X286573952Y-15811904D01*
X286764428Y-15811904D01*
X285621571Y-15278571D02*
X285621571Y-15811904D01*
X285812047Y-14973809D02*
X286002523Y-15545238D01*
X285507285Y-15545238D01*
X285164428Y-15811904D02*
X285012047Y-15811904D01*
X284935857Y-15773809D01*
X284897761Y-15735714D01*
X284821571Y-15621428D01*
X284783476Y-15469047D01*
X284783476Y-15164285D01*
X284821571Y-15088095D01*
X284859666Y-15050000D01*
X284935857Y-15011904D01*
X285088238Y-15011904D01*
X285164428Y-15050000D01*
X285202523Y-15088095D01*
X285240619Y-15164285D01*
X285240619Y-15354761D01*
X285202523Y-15430952D01*
X285164428Y-15469047D01*
X285088238Y-15507142D01*
X284935857Y-15507142D01*
X284859666Y-15469047D01*
X284821571Y-15430952D01*
X284783476Y-15354761D01*
G04 #@! TO.C,D70*
X62927628Y-53911904D02*
X62927628Y-53111904D01*
X62737152Y-53111904D01*
X62622866Y-53150000D01*
X62546676Y-53226190D01*
X62508580Y-53302380D01*
X62470485Y-53454761D01*
X62470485Y-53569047D01*
X62508580Y-53721428D01*
X62546676Y-53797619D01*
X62622866Y-53873809D01*
X62737152Y-53911904D01*
X62927628Y-53911904D01*
X62203819Y-53111904D02*
X61670485Y-53111904D01*
X62013342Y-53911904D01*
X61213342Y-53111904D02*
X61137152Y-53111904D01*
X61060961Y-53150000D01*
X61022866Y-53188095D01*
X60984771Y-53264285D01*
X60946676Y-53416666D01*
X60946676Y-53607142D01*
X60984771Y-53759523D01*
X61022866Y-53835714D01*
X61060961Y-53873809D01*
X61137152Y-53911904D01*
X61213342Y-53911904D01*
X61289533Y-53873809D01*
X61327628Y-53835714D01*
X61365723Y-53759523D01*
X61403819Y-53607142D01*
X61403819Y-53416666D01*
X61365723Y-53264285D01*
X61327628Y-53188095D01*
X61289533Y-53150000D01*
X61213342Y-53111904D01*
G04 #@! TO.C,D75*
X293908428Y-53911904D02*
X293908428Y-53111904D01*
X293717952Y-53111904D01*
X293603666Y-53150000D01*
X293527476Y-53226190D01*
X293489380Y-53302380D01*
X293451285Y-53454761D01*
X293451285Y-53569047D01*
X293489380Y-53721428D01*
X293527476Y-53797619D01*
X293603666Y-53873809D01*
X293717952Y-53911904D01*
X293908428Y-53911904D01*
X293184619Y-53111904D02*
X292651285Y-53111904D01*
X292994142Y-53911904D01*
X291965571Y-53111904D02*
X292346523Y-53111904D01*
X292384619Y-53492857D01*
X292346523Y-53454761D01*
X292270333Y-53416666D01*
X292079857Y-53416666D01*
X292003666Y-53454761D01*
X291965571Y-53492857D01*
X291927476Y-53569047D01*
X291927476Y-53759523D01*
X291965571Y-53835714D01*
X292003666Y-53873809D01*
X292079857Y-53911904D01*
X292270333Y-53911904D01*
X292346523Y-53873809D01*
X292384619Y-53835714D01*
G04 #@! TO.C,D8*
X157796476Y22288095D02*
X157796476Y23088095D01*
X157606000Y23088095D01*
X157491714Y23050000D01*
X157415523Y22973809D01*
X157377428Y22897619D01*
X157339333Y22745238D01*
X157339333Y22630952D01*
X157377428Y22478571D01*
X157415523Y22402380D01*
X157491714Y22326190D01*
X157606000Y22288095D01*
X157796476Y22288095D01*
X156882190Y22745238D02*
X156958380Y22783333D01*
X156996476Y22821428D01*
X157034571Y22897619D01*
X157034571Y22935714D01*
X156996476Y23011904D01*
X156958380Y23050000D01*
X156882190Y23088095D01*
X156729809Y23088095D01*
X156653619Y23050000D01*
X156615523Y23011904D01*
X156577428Y22935714D01*
X156577428Y22897619D01*
X156615523Y22821428D01*
X156653619Y22783333D01*
X156729809Y22745238D01*
X156882190Y22745238D01*
X156958380Y22707142D01*
X156996476Y22669047D01*
X157034571Y22592857D01*
X157034571Y22440476D01*
X156996476Y22364285D01*
X156958380Y22326190D01*
X156882190Y22288095D01*
X156729809Y22288095D01*
X156653619Y22326190D01*
X156615523Y22364285D01*
X156577428Y22440476D01*
X156577428Y22592857D01*
X156615523Y22669047D01*
X156653619Y22707142D01*
X156729809Y22745238D01*
G04 #@! TO.C,D28*
X205802428Y3238095D02*
X205802428Y4038095D01*
X205611952Y4038095D01*
X205497666Y4000000D01*
X205421476Y3923809D01*
X205383380Y3847619D01*
X205345285Y3695238D01*
X205345285Y3580952D01*
X205383380Y3428571D01*
X205421476Y3352380D01*
X205497666Y3276190D01*
X205611952Y3238095D01*
X205802428Y3238095D01*
X205040523Y3961904D02*
X205002428Y4000000D01*
X204926238Y4038095D01*
X204735761Y4038095D01*
X204659571Y4000000D01*
X204621476Y3961904D01*
X204583380Y3885714D01*
X204583380Y3809523D01*
X204621476Y3695238D01*
X205078619Y3238095D01*
X204583380Y3238095D01*
X204126238Y3695238D02*
X204202428Y3733333D01*
X204240523Y3771428D01*
X204278619Y3847619D01*
X204278619Y3885714D01*
X204240523Y3961904D01*
X204202428Y4000000D01*
X204126238Y4038095D01*
X203973857Y4038095D01*
X203897666Y4000000D01*
X203859571Y3961904D01*
X203821476Y3885714D01*
X203821476Y3847619D01*
X203859571Y3771428D01*
X203897666Y3733333D01*
X203973857Y3695238D01*
X204126238Y3695238D01*
X204202428Y3657142D01*
X204240523Y3619047D01*
X204278619Y3542857D01*
X204278619Y3390476D01*
X204240523Y3314285D01*
X204202428Y3276190D01*
X204126238Y3238095D01*
X203973857Y3238095D01*
X203897666Y3276190D01*
X203859571Y3314285D01*
X203821476Y3390476D01*
X203821476Y3542857D01*
X203859571Y3619047D01*
X203897666Y3657142D01*
X203973857Y3695238D01*
G04 #@! TO.C,D13*
X253427428Y22288095D02*
X253427428Y23088095D01*
X253236952Y23088095D01*
X253122666Y23050000D01*
X253046476Y22973809D01*
X253008380Y22897619D01*
X252970285Y22745238D01*
X252970285Y22630952D01*
X253008380Y22478571D01*
X253046476Y22402380D01*
X253122666Y22326190D01*
X253236952Y22288095D01*
X253427428Y22288095D01*
X252208380Y22288095D02*
X252665523Y22288095D01*
X252436952Y22288095D02*
X252436952Y23088095D01*
X252513142Y22973809D01*
X252589333Y22897619D01*
X252665523Y22859523D01*
X251941714Y23088095D02*
X251446476Y23088095D01*
X251713142Y22783333D01*
X251598857Y22783333D01*
X251522666Y22745238D01*
X251484571Y22707142D01*
X251446476Y22630952D01*
X251446476Y22440476D01*
X251484571Y22364285D01*
X251522666Y22326190D01*
X251598857Y22288095D01*
X251827428Y22288095D01*
X251903619Y22326190D01*
X251941714Y22364285D01*
G04 #@! TO.C,D66*
X296290428Y-34861904D02*
X296290428Y-34061904D01*
X296099952Y-34061904D01*
X295985666Y-34100000D01*
X295909476Y-34176190D01*
X295871380Y-34252380D01*
X295833285Y-34404761D01*
X295833285Y-34519047D01*
X295871380Y-34671428D01*
X295909476Y-34747619D01*
X295985666Y-34823809D01*
X296099952Y-34861904D01*
X296290428Y-34861904D01*
X295147571Y-34061904D02*
X295299952Y-34061904D01*
X295376142Y-34100000D01*
X295414238Y-34138095D01*
X295490428Y-34252380D01*
X295528523Y-34404761D01*
X295528523Y-34709523D01*
X295490428Y-34785714D01*
X295452333Y-34823809D01*
X295376142Y-34861904D01*
X295223761Y-34861904D01*
X295147571Y-34823809D01*
X295109476Y-34785714D01*
X295071380Y-34709523D01*
X295071380Y-34519047D01*
X295109476Y-34442857D01*
X295147571Y-34404761D01*
X295223761Y-34366666D01*
X295376142Y-34366666D01*
X295452333Y-34404761D01*
X295490428Y-34442857D01*
X295528523Y-34519047D01*
X294385666Y-34061904D02*
X294538047Y-34061904D01*
X294614238Y-34100000D01*
X294652333Y-34138095D01*
X294728523Y-34252380D01*
X294766619Y-34404761D01*
X294766619Y-34709523D01*
X294728523Y-34785714D01*
X294690428Y-34823809D01*
X294614238Y-34861904D01*
X294461857Y-34861904D01*
X294385666Y-34823809D01*
X294347571Y-34785714D01*
X294309476Y-34709523D01*
X294309476Y-34519047D01*
X294347571Y-34442857D01*
X294385666Y-34404761D01*
X294461857Y-34366666D01*
X294614238Y-34366666D01*
X294690428Y-34404761D01*
X294728523Y-34442857D01*
X294766619Y-34519047D01*
G04 #@! TO.C,D6*
X119696476Y22288095D02*
X119696476Y23088095D01*
X119506000Y23088095D01*
X119391714Y23050000D01*
X119315523Y22973809D01*
X119277428Y22897619D01*
X119239333Y22745238D01*
X119239333Y22630952D01*
X119277428Y22478571D01*
X119315523Y22402380D01*
X119391714Y22326190D01*
X119506000Y22288095D01*
X119696476Y22288095D01*
X118553619Y23088095D02*
X118706000Y23088095D01*
X118782190Y23050000D01*
X118820285Y23011904D01*
X118896476Y22897619D01*
X118934571Y22745238D01*
X118934571Y22440476D01*
X118896476Y22364285D01*
X118858380Y22326190D01*
X118782190Y22288095D01*
X118629809Y22288095D01*
X118553619Y22326190D01*
X118515523Y22364285D01*
X118477428Y22440476D01*
X118477428Y22630952D01*
X118515523Y22707142D01*
X118553619Y22745238D01*
X118629809Y22783333D01*
X118782190Y22783333D01*
X118858380Y22745238D01*
X118896476Y22707142D01*
X118934571Y22630952D01*
G04 #@! TO.C,D44*
X191514428Y-15811904D02*
X191514428Y-15011904D01*
X191323952Y-15011904D01*
X191209666Y-15050000D01*
X191133476Y-15126190D01*
X191095380Y-15202380D01*
X191057285Y-15354761D01*
X191057285Y-15469047D01*
X191095380Y-15621428D01*
X191133476Y-15697619D01*
X191209666Y-15773809D01*
X191323952Y-15811904D01*
X191514428Y-15811904D01*
X190371571Y-15278571D02*
X190371571Y-15811904D01*
X190562047Y-14973809D02*
X190752523Y-15545238D01*
X190257285Y-15545238D01*
X189609666Y-15278571D02*
X189609666Y-15811904D01*
X189800142Y-14973809D02*
X189990619Y-15545238D01*
X189495380Y-15545238D01*
G04 #@! TO.C,D46*
X229614428Y-15811904D02*
X229614428Y-15011904D01*
X229423952Y-15011904D01*
X229309666Y-15050000D01*
X229233476Y-15126190D01*
X229195380Y-15202380D01*
X229157285Y-15354761D01*
X229157285Y-15469047D01*
X229195380Y-15621428D01*
X229233476Y-15697619D01*
X229309666Y-15773809D01*
X229423952Y-15811904D01*
X229614428Y-15811904D01*
X228471571Y-15278571D02*
X228471571Y-15811904D01*
X228662047Y-14973809D02*
X228852523Y-15545238D01*
X228357285Y-15545238D01*
X227709666Y-15011904D02*
X227862047Y-15011904D01*
X227938238Y-15050000D01*
X227976333Y-15088095D01*
X228052523Y-15202380D01*
X228090619Y-15354761D01*
X228090619Y-15659523D01*
X228052523Y-15735714D01*
X228014428Y-15773809D01*
X227938238Y-15811904D01*
X227785857Y-15811904D01*
X227709666Y-15773809D01*
X227671571Y-15735714D01*
X227633476Y-15659523D01*
X227633476Y-15469047D01*
X227671571Y-15392857D01*
X227709666Y-15354761D01*
X227785857Y-15316666D01*
X227938238Y-15316666D01*
X228014428Y-15354761D01*
X228052523Y-15392857D01*
X228090619Y-15469047D01*
G04 #@! TO.C,D51*
X324864428Y-15811904D02*
X324864428Y-15011904D01*
X324673952Y-15011904D01*
X324559666Y-15050000D01*
X324483476Y-15126190D01*
X324445380Y-15202380D01*
X324407285Y-15354761D01*
X324407285Y-15469047D01*
X324445380Y-15621428D01*
X324483476Y-15697619D01*
X324559666Y-15773809D01*
X324673952Y-15811904D01*
X324864428Y-15811904D01*
X323683476Y-15011904D02*
X324064428Y-15011904D01*
X324102523Y-15392857D01*
X324064428Y-15354761D01*
X323988238Y-15316666D01*
X323797761Y-15316666D01*
X323721571Y-15354761D01*
X323683476Y-15392857D01*
X323645380Y-15469047D01*
X323645380Y-15659523D01*
X323683476Y-15735714D01*
X323721571Y-15773809D01*
X323797761Y-15811904D01*
X323988238Y-15811904D01*
X324064428Y-15773809D01*
X324102523Y-15735714D01*
X322883476Y-15811904D02*
X323340619Y-15811904D01*
X323112047Y-15811904D02*
X323112047Y-15011904D01*
X323188238Y-15126190D01*
X323264428Y-15202380D01*
X323340619Y-15240476D01*
G04 #@! TO.C,D11*
X215327428Y22288095D02*
X215327428Y23088095D01*
X215136952Y23088095D01*
X215022666Y23050000D01*
X214946476Y22973809D01*
X214908380Y22897619D01*
X214870285Y22745238D01*
X214870285Y22630952D01*
X214908380Y22478571D01*
X214946476Y22402380D01*
X215022666Y22326190D01*
X215136952Y22288095D01*
X215327428Y22288095D01*
X214108380Y22288095D02*
X214565523Y22288095D01*
X214336952Y22288095D02*
X214336952Y23088095D01*
X214413142Y22973809D01*
X214489333Y22897619D01*
X214565523Y22859523D01*
X213346476Y22288095D02*
X213803619Y22288095D01*
X213575047Y22288095D02*
X213575047Y23088095D01*
X213651238Y22973809D01*
X213727428Y22897619D01*
X213803619Y22859523D01*
G04 #@! TO.C,D63*
X239140428Y-34861904D02*
X239140428Y-34061904D01*
X238949952Y-34061904D01*
X238835666Y-34100000D01*
X238759476Y-34176190D01*
X238721380Y-34252380D01*
X238683285Y-34404761D01*
X238683285Y-34519047D01*
X238721380Y-34671428D01*
X238759476Y-34747619D01*
X238835666Y-34823809D01*
X238949952Y-34861904D01*
X239140428Y-34861904D01*
X237997571Y-34061904D02*
X238149952Y-34061904D01*
X238226142Y-34100000D01*
X238264238Y-34138095D01*
X238340428Y-34252380D01*
X238378523Y-34404761D01*
X238378523Y-34709523D01*
X238340428Y-34785714D01*
X238302333Y-34823809D01*
X238226142Y-34861904D01*
X238073761Y-34861904D01*
X237997571Y-34823809D01*
X237959476Y-34785714D01*
X237921380Y-34709523D01*
X237921380Y-34519047D01*
X237959476Y-34442857D01*
X237997571Y-34404761D01*
X238073761Y-34366666D01*
X238226142Y-34366666D01*
X238302333Y-34404761D01*
X238340428Y-34442857D01*
X238378523Y-34519047D01*
X237654714Y-34061904D02*
X237159476Y-34061904D01*
X237426142Y-34366666D01*
X237311857Y-34366666D01*
X237235666Y-34404761D01*
X237197571Y-34442857D01*
X237159476Y-34519047D01*
X237159476Y-34709523D01*
X237197571Y-34785714D01*
X237235666Y-34823809D01*
X237311857Y-34861904D01*
X237540428Y-34861904D01*
X237616619Y-34823809D01*
X237654714Y-34785714D01*
G04 #@! TO.C,D29*
X224852428Y3238095D02*
X224852428Y4038095D01*
X224661952Y4038095D01*
X224547666Y4000000D01*
X224471476Y3923809D01*
X224433380Y3847619D01*
X224395285Y3695238D01*
X224395285Y3580952D01*
X224433380Y3428571D01*
X224471476Y3352380D01*
X224547666Y3276190D01*
X224661952Y3238095D01*
X224852428Y3238095D01*
X224090523Y3961904D02*
X224052428Y4000000D01*
X223976238Y4038095D01*
X223785761Y4038095D01*
X223709571Y4000000D01*
X223671476Y3961904D01*
X223633380Y3885714D01*
X223633380Y3809523D01*
X223671476Y3695238D01*
X224128619Y3238095D01*
X223633380Y3238095D01*
X223252428Y3238095D02*
X223100047Y3238095D01*
X223023857Y3276190D01*
X222985761Y3314285D01*
X222909571Y3428571D01*
X222871476Y3580952D01*
X222871476Y3885714D01*
X222909571Y3961904D01*
X222947666Y4000000D01*
X223023857Y4038095D01*
X223176238Y4038095D01*
X223252428Y4000000D01*
X223290523Y3961904D01*
X223328619Y3885714D01*
X223328619Y3695238D01*
X223290523Y3619047D01*
X223252428Y3580952D01*
X223176238Y3542857D01*
X223023857Y3542857D01*
X222947666Y3580952D01*
X222909571Y3619047D01*
X222871476Y3695238D01*
G04 #@! TO.C,D55*
X62927628Y-34861904D02*
X62927628Y-34061904D01*
X62737152Y-34061904D01*
X62622866Y-34100000D01*
X62546676Y-34176190D01*
X62508580Y-34252380D01*
X62470485Y-34404761D01*
X62470485Y-34519047D01*
X62508580Y-34671428D01*
X62546676Y-34747619D01*
X62622866Y-34823809D01*
X62737152Y-34861904D01*
X62927628Y-34861904D01*
X61746676Y-34061904D02*
X62127628Y-34061904D01*
X62165723Y-34442857D01*
X62127628Y-34404761D01*
X62051438Y-34366666D01*
X61860961Y-34366666D01*
X61784771Y-34404761D01*
X61746676Y-34442857D01*
X61708580Y-34519047D01*
X61708580Y-34709523D01*
X61746676Y-34785714D01*
X61784771Y-34823809D01*
X61860961Y-34861904D01*
X62051438Y-34861904D01*
X62127628Y-34823809D01*
X62165723Y-34785714D01*
X60984771Y-34061904D02*
X61365723Y-34061904D01*
X61403819Y-34442857D01*
X61365723Y-34404761D01*
X61289533Y-34366666D01*
X61099057Y-34366666D01*
X61022866Y-34404761D01*
X60984771Y-34442857D01*
X60946676Y-34519047D01*
X60946676Y-34709523D01*
X60984771Y-34785714D01*
X61022866Y-34823809D01*
X61099057Y-34861904D01*
X61289533Y-34861904D01*
X61365723Y-34823809D01*
X61403819Y-34785714D01*
G04 #@! TO.C,D5*
X108017904Y11790476D02*
X107217904Y11790476D01*
X107217904Y11600000D01*
X107256000Y11485714D01*
X107332190Y11409523D01*
X107408380Y11371428D01*
X107560761Y11333333D01*
X107675047Y11333333D01*
X107827428Y11371428D01*
X107903619Y11409523D01*
X107979809Y11485714D01*
X108017904Y11600000D01*
X108017904Y11790476D01*
X107217904Y10609523D02*
X107217904Y10990476D01*
X107598857Y11028571D01*
X107560761Y10990476D01*
X107522666Y10914285D01*
X107522666Y10723809D01*
X107560761Y10647619D01*
X107598857Y10609523D01*
X107675047Y10571428D01*
X107865523Y10571428D01*
X107941714Y10609523D01*
X107979809Y10647619D01*
X108017904Y10723809D01*
X108017904Y10914285D01*
X107979809Y10990476D01*
X107941714Y11028571D01*
G04 #@! TO.C,D43*
X172464428Y-15811904D02*
X172464428Y-15011904D01*
X172273952Y-15011904D01*
X172159666Y-15050000D01*
X172083476Y-15126190D01*
X172045380Y-15202380D01*
X172007285Y-15354761D01*
X172007285Y-15469047D01*
X172045380Y-15621428D01*
X172083476Y-15697619D01*
X172159666Y-15773809D01*
X172273952Y-15811904D01*
X172464428Y-15811904D01*
X171321571Y-15278571D02*
X171321571Y-15811904D01*
X171512047Y-14973809D02*
X171702523Y-15545238D01*
X171207285Y-15545238D01*
X170978714Y-15011904D02*
X170483476Y-15011904D01*
X170750142Y-15316666D01*
X170635857Y-15316666D01*
X170559666Y-15354761D01*
X170521571Y-15392857D01*
X170483476Y-15469047D01*
X170483476Y-15659523D01*
X170521571Y-15735714D01*
X170559666Y-15773809D01*
X170635857Y-15811904D01*
X170864428Y-15811904D01*
X170940619Y-15773809D01*
X170978714Y-15735714D01*
G04 #@! TO.C,D73*
X151033428Y-53911904D02*
X151033428Y-53111904D01*
X150842952Y-53111904D01*
X150728666Y-53150000D01*
X150652476Y-53226190D01*
X150614380Y-53302380D01*
X150576285Y-53454761D01*
X150576285Y-53569047D01*
X150614380Y-53721428D01*
X150652476Y-53797619D01*
X150728666Y-53873809D01*
X150842952Y-53911904D01*
X151033428Y-53911904D01*
X150309619Y-53111904D02*
X149776285Y-53111904D01*
X150119142Y-53911904D01*
X149547714Y-53111904D02*
X149052476Y-53111904D01*
X149319142Y-53416666D01*
X149204857Y-53416666D01*
X149128666Y-53454761D01*
X149090571Y-53492857D01*
X149052476Y-53569047D01*
X149052476Y-53759523D01*
X149090571Y-53835714D01*
X149128666Y-53873809D01*
X149204857Y-53911904D01*
X149433428Y-53911904D01*
X149509619Y-53873809D01*
X149547714Y-53835714D01*
G04 #@! TO.C,D33*
X301052428Y3238095D02*
X301052428Y4038095D01*
X300861952Y4038095D01*
X300747666Y4000000D01*
X300671476Y3923809D01*
X300633380Y3847619D01*
X300595285Y3695238D01*
X300595285Y3580952D01*
X300633380Y3428571D01*
X300671476Y3352380D01*
X300747666Y3276190D01*
X300861952Y3238095D01*
X301052428Y3238095D01*
X300328619Y4038095D02*
X299833380Y4038095D01*
X300100047Y3733333D01*
X299985761Y3733333D01*
X299909571Y3695238D01*
X299871476Y3657142D01*
X299833380Y3580952D01*
X299833380Y3390476D01*
X299871476Y3314285D01*
X299909571Y3276190D01*
X299985761Y3238095D01*
X300214333Y3238095D01*
X300290523Y3276190D01*
X300328619Y3314285D01*
X299566714Y4038095D02*
X299071476Y4038095D01*
X299338142Y3733333D01*
X299223857Y3733333D01*
X299147666Y3695238D01*
X299109571Y3657142D01*
X299071476Y3580952D01*
X299071476Y3390476D01*
X299109571Y3314285D01*
X299147666Y3276190D01*
X299223857Y3238095D01*
X299452428Y3238095D01*
X299528619Y3276190D01*
X299566714Y3314285D01*
G04 #@! TO.C,D30*
X243902428Y3238095D02*
X243902428Y4038095D01*
X243711952Y4038095D01*
X243597666Y4000000D01*
X243521476Y3923809D01*
X243483380Y3847619D01*
X243445285Y3695238D01*
X243445285Y3580952D01*
X243483380Y3428571D01*
X243521476Y3352380D01*
X243597666Y3276190D01*
X243711952Y3238095D01*
X243902428Y3238095D01*
X243178619Y4038095D02*
X242683380Y4038095D01*
X242950047Y3733333D01*
X242835761Y3733333D01*
X242759571Y3695238D01*
X242721476Y3657142D01*
X242683380Y3580952D01*
X242683380Y3390476D01*
X242721476Y3314285D01*
X242759571Y3276190D01*
X242835761Y3238095D01*
X243064333Y3238095D01*
X243140523Y3276190D01*
X243178619Y3314285D01*
X242188142Y4038095D02*
X242111952Y4038095D01*
X242035761Y4000000D01*
X241997666Y3961904D01*
X241959571Y3885714D01*
X241921476Y3733333D01*
X241921476Y3542857D01*
X241959571Y3390476D01*
X241997666Y3314285D01*
X242035761Y3276190D01*
X242111952Y3238095D01*
X242188142Y3238095D01*
X242264333Y3276190D01*
X242302428Y3314285D01*
X242340523Y3390476D01*
X242378619Y3542857D01*
X242378619Y3733333D01*
X242340523Y3885714D01*
X242302428Y3961904D01*
X242264333Y4000000D01*
X242188142Y4038095D01*
G04 #@! TO.C,D35*
X336771428Y3238095D02*
X336771428Y4038095D01*
X336580952Y4038095D01*
X336466666Y4000000D01*
X336390476Y3923809D01*
X336352380Y3847619D01*
X336314285Y3695238D01*
X336314285Y3580952D01*
X336352380Y3428571D01*
X336390476Y3352380D01*
X336466666Y3276190D01*
X336580952Y3238095D01*
X336771428Y3238095D01*
X336047619Y4038095D02*
X335552380Y4038095D01*
X335819047Y3733333D01*
X335704761Y3733333D01*
X335628571Y3695238D01*
X335590476Y3657142D01*
X335552380Y3580952D01*
X335552380Y3390476D01*
X335590476Y3314285D01*
X335628571Y3276190D01*
X335704761Y3238095D01*
X335933333Y3238095D01*
X336009523Y3276190D01*
X336047619Y3314285D01*
X334828571Y4038095D02*
X335209523Y4038095D01*
X335247619Y3657142D01*
X335209523Y3695238D01*
X335133333Y3733333D01*
X334942857Y3733333D01*
X334866666Y3695238D01*
X334828571Y3657142D01*
X334790476Y3580952D01*
X334790476Y3390476D01*
X334828571Y3314285D01*
X334866666Y3276190D01*
X334942857Y3238095D01*
X335133333Y3238095D01*
X335209523Y3276190D01*
X335247619Y3314285D01*
G04 #@! TO.C,D24*
X129602428Y3238095D02*
X129602428Y4038095D01*
X129411952Y4038095D01*
X129297666Y4000000D01*
X129221476Y3923809D01*
X129183380Y3847619D01*
X129145285Y3695238D01*
X129145285Y3580952D01*
X129183380Y3428571D01*
X129221476Y3352380D01*
X129297666Y3276190D01*
X129411952Y3238095D01*
X129602428Y3238095D01*
X128840523Y3961904D02*
X128802428Y4000000D01*
X128726238Y4038095D01*
X128535761Y4038095D01*
X128459571Y4000000D01*
X128421476Y3961904D01*
X128383380Y3885714D01*
X128383380Y3809523D01*
X128421476Y3695238D01*
X128878619Y3238095D01*
X128383380Y3238095D01*
X127697666Y3771428D02*
X127697666Y3238095D01*
X127888142Y4076190D02*
X128078619Y3504761D01*
X127583380Y3504761D01*
G04 #@! TO.C,D59*
X162940428Y-34861904D02*
X162940428Y-34061904D01*
X162749952Y-34061904D01*
X162635666Y-34100000D01*
X162559476Y-34176190D01*
X162521380Y-34252380D01*
X162483285Y-34404761D01*
X162483285Y-34519047D01*
X162521380Y-34671428D01*
X162559476Y-34747619D01*
X162635666Y-34823809D01*
X162749952Y-34861904D01*
X162940428Y-34861904D01*
X161759476Y-34061904D02*
X162140428Y-34061904D01*
X162178523Y-34442857D01*
X162140428Y-34404761D01*
X162064238Y-34366666D01*
X161873761Y-34366666D01*
X161797571Y-34404761D01*
X161759476Y-34442857D01*
X161721380Y-34519047D01*
X161721380Y-34709523D01*
X161759476Y-34785714D01*
X161797571Y-34823809D01*
X161873761Y-34861904D01*
X162064238Y-34861904D01*
X162140428Y-34823809D01*
X162178523Y-34785714D01*
X161340428Y-34861904D02*
X161188047Y-34861904D01*
X161111857Y-34823809D01*
X161073761Y-34785714D01*
X160997571Y-34671428D01*
X160959476Y-34519047D01*
X160959476Y-34214285D01*
X160997571Y-34138095D01*
X161035666Y-34100000D01*
X161111857Y-34061904D01*
X161264238Y-34061904D01*
X161340428Y-34100000D01*
X161378523Y-34138095D01*
X161416619Y-34214285D01*
X161416619Y-34404761D01*
X161378523Y-34480952D01*
X161340428Y-34519047D01*
X161264238Y-34557142D01*
X161111857Y-34557142D01*
X161035666Y-34519047D01*
X160997571Y-34480952D01*
X160959476Y-34404761D01*
G04 #@! TO.C,D41*
X134364428Y-15811904D02*
X134364428Y-15011904D01*
X134173952Y-15011904D01*
X134059666Y-15050000D01*
X133983476Y-15126190D01*
X133945380Y-15202380D01*
X133907285Y-15354761D01*
X133907285Y-15469047D01*
X133945380Y-15621428D01*
X133983476Y-15697619D01*
X134059666Y-15773809D01*
X134173952Y-15811904D01*
X134364428Y-15811904D01*
X133221571Y-15278571D02*
X133221571Y-15811904D01*
X133412047Y-14973809D02*
X133602523Y-15545238D01*
X133107285Y-15545238D01*
X132383476Y-15811904D02*
X132840619Y-15811904D01*
X132612047Y-15811904D02*
X132612047Y-15011904D01*
X132688238Y-15126190D01*
X132764428Y-15202380D01*
X132840619Y-15240476D01*
G04 #@! TO.C,D1*
X24446676Y22288095D02*
X24446676Y23088095D01*
X24256200Y23088095D01*
X24141914Y23050000D01*
X24065723Y22973809D01*
X24027628Y22897619D01*
X23989533Y22745238D01*
X23989533Y22630952D01*
X24027628Y22478571D01*
X24065723Y22402380D01*
X24141914Y22326190D01*
X24256200Y22288095D01*
X24446676Y22288095D01*
X23227628Y22288095D02*
X23684771Y22288095D01*
X23456200Y22288095D02*
X23456200Y23088095D01*
X23532390Y22973809D01*
X23608580Y22897619D01*
X23684771Y22859523D01*
G04 #@! TO.C,D27*
X186752428Y3238095D02*
X186752428Y4038095D01*
X186561952Y4038095D01*
X186447666Y4000000D01*
X186371476Y3923809D01*
X186333380Y3847619D01*
X186295285Y3695238D01*
X186295285Y3580952D01*
X186333380Y3428571D01*
X186371476Y3352380D01*
X186447666Y3276190D01*
X186561952Y3238095D01*
X186752428Y3238095D01*
X185990523Y3961904D02*
X185952428Y4000000D01*
X185876238Y4038095D01*
X185685761Y4038095D01*
X185609571Y4000000D01*
X185571476Y3961904D01*
X185533380Y3885714D01*
X185533380Y3809523D01*
X185571476Y3695238D01*
X186028619Y3238095D01*
X185533380Y3238095D01*
X185266714Y4038095D02*
X184733380Y4038095D01*
X185076238Y3238095D01*
G04 #@! TD*
M02*
