G04 #@! TF.GenerationSoftware,KiCad,Pcbnew,5.1.6*
G04 #@! TF.CreationDate,2020-08-19T08:48:49-04:00*
G04 #@! TF.ProjectId,southpawpcb,736f7574-6870-4617-9770-63622e6b6963,rev?*
G04 #@! TF.SameCoordinates,Original*
G04 #@! TF.FileFunction,Paste,Bot*
G04 #@! TF.FilePolarity,Positive*
%FSLAX46Y46*%
G04 Gerber Fmt 4.6, Leading zero omitted, Abs format (unit mm)*
G04 Created by KiCad (PCBNEW 5.1.6) date 2020-08-19 08:48:49*
%MOMM*%
%LPD*%
G01*
G04 APERTURE LIST*
%ADD10R,1.200000X1.200000*%
%ADD11R,1.000000X1.700000*%
G04 APERTURE END LIST*
D10*
G04 #@! TO.C,D7*
X139731000Y20725000D03*
X136581000Y20725000D03*
G04 #@! TD*
G04 #@! TO.C,D48*
X265168000Y-17375000D03*
X268318000Y-17375000D03*
G04 #@! TD*
G04 #@! TO.C,D72*
X131818000Y-55475000D03*
X134968000Y-55475000D03*
G04 #@! TD*
G04 #@! TO.C,D39*
X63531200Y-17375000D03*
X60381200Y-17375000D03*
G04 #@! TD*
G04 #@! TO.C,D2*
X41331200Y20725000D03*
X44481200Y20725000D03*
G04 #@! TD*
G04 #@! TO.C,D50*
X303268000Y-17375000D03*
X306418000Y-17375000D03*
G04 #@! TD*
G04 #@! TO.C,D21*
X63531200Y1675000D03*
X60381200Y1675000D03*
G04 #@! TD*
G04 #@! TO.C,D53*
X22281200Y-36425000D03*
X25431200Y-36425000D03*
G04 #@! TD*
G04 #@! TO.C,D26*
X165156000Y1675000D03*
X168306000Y1675000D03*
G04 #@! TD*
G04 #@! TO.C,D60*
X182594000Y-36425000D03*
X179444000Y-36425000D03*
G04 #@! TD*
G04 #@! TO.C,D42*
X150868000Y-17375000D03*
X154018000Y-17375000D03*
G04 #@! TD*
G04 #@! TO.C,D4*
X79431200Y20725000D03*
X82581200Y20725000D03*
G04 #@! TD*
G04 #@! TO.C,D3*
X63531200Y20725000D03*
X60381200Y20725000D03*
G04 #@! TD*
G04 #@! TO.C,D25*
X149256000Y1675000D03*
X146106000Y1675000D03*
G04 #@! TD*
G04 #@! TO.C,D71*
X111156000Y-55475000D03*
X108006000Y-55475000D03*
G04 #@! TD*
G04 #@! TO.C,D78*
X373900000Y-66575000D03*
X373900000Y-63425000D03*
G04 #@! TD*
G04 #@! TO.C,D77*
X349281000Y-55475000D03*
X346131000Y-55475000D03*
G04 #@! TD*
G04 #@! TO.C,D45*
X211168000Y-17375000D03*
X208018000Y-17375000D03*
G04 #@! TD*
G04 #@! TO.C,D16*
X308031000Y20725000D03*
X311181000Y20725000D03*
G04 #@! TD*
G04 #@! TO.C,D22*
X71481200Y-18950000D03*
X71481200Y-15800000D03*
G04 #@! TD*
G04 #@! TO.C,D10*
X204831000Y9625000D03*
X204831000Y12775000D03*
G04 #@! TD*
G04 #@! TO.C,D54*
X44481200Y-36425000D03*
X41331200Y-36425000D03*
G04 #@! TD*
G04 #@! TO.C,D19*
X25431200Y1675000D03*
X22281200Y1675000D03*
G04 #@! TD*
G04 #@! TO.C,D57*
X113537000Y-36425000D03*
X110387000Y-36425000D03*
G04 #@! TD*
G04 #@! TO.C,D47*
X249268000Y-17375000D03*
X246118000Y-17375000D03*
G04 #@! TD*
G04 #@! TO.C,D15*
X300081000Y12775000D03*
X300081000Y9625000D03*
G04 #@! TD*
G04 #@! TO.C,D67*
X312794000Y-36425000D03*
X315944000Y-36425000D03*
G04 #@! TD*
G04 #@! TO.C,D36*
X358037000Y1675000D03*
X361187000Y1675000D03*
G04 #@! TD*
G04 #@! TO.C,D62*
X220694000Y-36425000D03*
X217544000Y-36425000D03*
G04 #@! TD*
G04 #@! TO.C,D61*
X201644000Y-36425000D03*
X198494000Y-36425000D03*
G04 #@! TD*
G04 #@! TO.C,D52*
X353275000Y-17375000D03*
X356425000Y-17375000D03*
G04 #@! TD*
G04 #@! TO.C,D37*
X25431200Y-17375000D03*
X22281200Y-17375000D03*
G04 #@! TD*
G04 #@! TO.C,D65*
X277844000Y-36425000D03*
X274694000Y-36425000D03*
G04 #@! TD*
G04 #@! TO.C,D14*
X273081000Y20725000D03*
X269931000Y20725000D03*
G04 #@! TD*
G04 #@! TO.C,D68*
X354044000Y-36425000D03*
X350894000Y-36425000D03*
G04 #@! TD*
G04 #@! TO.C,D18*
X355656000Y20725000D03*
X358806000Y20725000D03*
G04 #@! TD*
G04 #@! TO.C,D38*
X41331200Y-17375000D03*
X44481200Y-17375000D03*
G04 #@! TD*
G04 #@! TO.C,D12*
X231831000Y20725000D03*
X234981000Y20725000D03*
G04 #@! TD*
G04 #@! TO.C,D58*
X141344000Y-36425000D03*
X144494000Y-36425000D03*
G04 #@! TD*
G04 #@! TO.C,D34*
X317556000Y1675000D03*
X320706000Y1675000D03*
G04 #@! TD*
G04 #@! TO.C,D20*
X41331200Y1675000D03*
X44481200Y1675000D03*
G04 #@! TD*
G04 #@! TO.C,D69*
X34956200Y-55475000D03*
X31806200Y-55475000D03*
G04 #@! TD*
D11*
G04 #@! TO.C,SW1*
X73381200Y15193800D03*
X73381200Y21493800D03*
X69581200Y15193800D03*
X69581200Y21493800D03*
G04 #@! TD*
D10*
G04 #@! TO.C,D40*
X105625000Y-17375000D03*
X108775000Y-17375000D03*
G04 #@! TD*
G04 #@! TO.C,D56*
X71481200Y-57050000D03*
X71481200Y-53900000D03*
G04 #@! TD*
G04 #@! TO.C,D23*
X106394000Y1675000D03*
X103244000Y1675000D03*
G04 #@! TD*
G04 #@! TO.C,D17*
X330231000Y20725000D03*
X327081000Y20725000D03*
G04 #@! TD*
G04 #@! TO.C,D32*
X279456000Y1675000D03*
X282606000Y1675000D03*
G04 #@! TD*
G04 #@! TO.C,D31*
X263556000Y1675000D03*
X260406000Y1675000D03*
G04 #@! TD*
G04 #@! TO.C,D9*
X177831000Y20725000D03*
X174681000Y20725000D03*
G04 #@! TD*
G04 #@! TO.C,D64*
X255644000Y-36425000D03*
X258794000Y-36425000D03*
G04 #@! TD*
G04 #@! TO.C,D74*
X219925000Y-55475000D03*
X223075000Y-55475000D03*
G04 #@! TD*
G04 #@! TO.C,D76*
X315175000Y-55475000D03*
X318325000Y-55475000D03*
G04 #@! TD*
G04 #@! TO.C,D49*
X287368000Y-17375000D03*
X284218000Y-17375000D03*
G04 #@! TD*
G04 #@! TO.C,D70*
X63531200Y-55475000D03*
X60381200Y-55475000D03*
G04 #@! TD*
G04 #@! TO.C,D75*
X291362000Y-55475000D03*
X294512000Y-55475000D03*
G04 #@! TD*
G04 #@! TO.C,D8*
X155631000Y20725000D03*
X158781000Y20725000D03*
G04 #@! TD*
G04 #@! TO.C,D28*
X206406000Y1675000D03*
X203256000Y1675000D03*
G04 #@! TD*
G04 #@! TO.C,D13*
X254031000Y20725000D03*
X250881000Y20725000D03*
G04 #@! TD*
G04 #@! TO.C,D66*
X296894000Y-36425000D03*
X293744000Y-36425000D03*
G04 #@! TD*
G04 #@! TO.C,D6*
X117531000Y20725000D03*
X120681000Y20725000D03*
G04 #@! TD*
G04 #@! TO.C,D44*
X188968000Y-17375000D03*
X192118000Y-17375000D03*
G04 #@! TD*
G04 #@! TO.C,D46*
X227068000Y-17375000D03*
X230218000Y-17375000D03*
G04 #@! TD*
G04 #@! TO.C,D51*
X325468000Y-17375000D03*
X322318000Y-17375000D03*
G04 #@! TD*
G04 #@! TO.C,D11*
X215931000Y20725000D03*
X212781000Y20725000D03*
G04 #@! TD*
G04 #@! TO.C,D63*
X236594000Y-36425000D03*
X239744000Y-36425000D03*
G04 #@! TD*
G04 #@! TO.C,D29*
X225456000Y1675000D03*
X222306000Y1675000D03*
G04 #@! TD*
G04 #@! TO.C,D55*
X63531200Y-36425000D03*
X60381200Y-36425000D03*
G04 #@! TD*
G04 #@! TO.C,D5*
X109581000Y12775000D03*
X109581000Y9625000D03*
G04 #@! TD*
G04 #@! TO.C,D43*
X173068000Y-17375000D03*
X169918000Y-17375000D03*
G04 #@! TD*
G04 #@! TO.C,D73*
X148487000Y-55475000D03*
X151637000Y-55475000D03*
G04 #@! TD*
G04 #@! TO.C,D33*
X301656000Y1675000D03*
X298506000Y1675000D03*
G04 #@! TD*
G04 #@! TO.C,D30*
X241356000Y1675000D03*
X244506000Y1675000D03*
G04 #@! TD*
G04 #@! TO.C,D35*
X337375000Y1675000D03*
X334225000Y1675000D03*
G04 #@! TD*
G04 #@! TO.C,D24*
X127056000Y1675000D03*
X130206000Y1675000D03*
G04 #@! TD*
G04 #@! TO.C,D59*
X160394000Y-36425000D03*
X163544000Y-36425000D03*
G04 #@! TD*
G04 #@! TO.C,D41*
X134968000Y-17375000D03*
X131818000Y-17375000D03*
G04 #@! TD*
G04 #@! TO.C,D1*
X25431200Y20725000D03*
X22281200Y20725000D03*
G04 #@! TD*
G04 #@! TO.C,D27*
X184206000Y1675000D03*
X187356000Y1675000D03*
G04 #@! TD*
M02*
