G04 #@! TF.GenerationSoftware,KiCad,Pcbnew,5.1.6*
G04 #@! TF.CreationDate,2020-08-19T08:48:49-04:00*
G04 #@! TF.ProjectId,southpawpcb,736f7574-6870-4617-9770-63622e6b6963,rev?*
G04 #@! TF.SameCoordinates,Original*
G04 #@! TF.FileFunction,Legend,Top*
G04 #@! TF.FilePolarity,Positive*
%FSLAX46Y46*%
G04 Gerber Fmt 4.6, Leading zero omitted, Abs format (unit mm)*
G04 Created by KiCad (PCBNEW 5.1.6) date 2020-08-19 08:48:49*
%MOMM*%
%LPD*%
G01*
G04 APERTURE LIST*
%ADD10C,0.150000*%
%ADD11C,0.200000*%
G04 APERTURE END LIST*
D10*
G04 #@! TO.C,U1*
X34072500Y24727600D02*
X34072500Y-5752400D01*
X39152500Y24727600D02*
X34072500Y24727600D01*
X39152500Y27267600D02*
X39152500Y24727600D01*
X46772500Y27267600D02*
X39152500Y27267600D01*
X46772500Y24727600D02*
X46772500Y27267600D01*
X51852500Y24727600D02*
X46772500Y24727600D01*
X51852500Y-5752400D02*
X51852500Y24727600D01*
X34072500Y-5752400D02*
X51852500Y-5752400D01*
D11*
G04 #@! TO.C,D7*
X135881000Y19525000D02*
X135881000Y21925000D01*
X135706000Y19525000D02*
X135706000Y21925000D01*
X135531000Y19525000D02*
X135531000Y21925000D01*
X135131000Y21925000D02*
X135131000Y19525000D01*
X135356000Y19525000D02*
X135356000Y21925000D01*
X135231000Y19525000D02*
X135231000Y21925000D01*
X135156000Y19525000D02*
X140956000Y19525000D01*
X140956000Y19525000D02*
X140956000Y21925000D01*
X140956000Y21925000D02*
X135156000Y21925000D01*
G04 #@! TO.C,D48*
X269543000Y-16175000D02*
X263743000Y-16175000D01*
X269543000Y-18575000D02*
X269543000Y-16175000D01*
X263743000Y-18575000D02*
X269543000Y-18575000D01*
X263818000Y-18575000D02*
X263818000Y-16175000D01*
X263943000Y-18575000D02*
X263943000Y-16175000D01*
X263718000Y-16175000D02*
X263718000Y-18575000D01*
X264118000Y-18575000D02*
X264118000Y-16175000D01*
X264293000Y-18575000D02*
X264293000Y-16175000D01*
X264468000Y-18575000D02*
X264468000Y-16175000D01*
G04 #@! TO.C,D72*
X135668000Y-54275000D02*
X135668000Y-56675000D01*
X135843000Y-54275000D02*
X135843000Y-56675000D01*
X136018000Y-54275000D02*
X136018000Y-56675000D01*
X136418000Y-56675000D02*
X136418000Y-54275000D01*
X136193000Y-54275000D02*
X136193000Y-56675000D01*
X136318000Y-54275000D02*
X136318000Y-56675000D01*
X136393000Y-54275000D02*
X130593000Y-54275000D01*
X130593000Y-54275000D02*
X130593000Y-56675000D01*
X130593000Y-56675000D02*
X136393000Y-56675000D01*
G04 #@! TO.C,D39*
X59681200Y-18575000D02*
X59681200Y-16175000D01*
X59506200Y-18575000D02*
X59506200Y-16175000D01*
X59331200Y-18575000D02*
X59331200Y-16175000D01*
X58931200Y-16175000D02*
X58931200Y-18575000D01*
X59156200Y-18575000D02*
X59156200Y-16175000D01*
X59031200Y-18575000D02*
X59031200Y-16175000D01*
X58956200Y-18575000D02*
X64756200Y-18575000D01*
X64756200Y-18575000D02*
X64756200Y-16175000D01*
X64756200Y-16175000D02*
X58956200Y-16175000D01*
G04 #@! TO.C,D2*
X45706200Y21925000D02*
X39906200Y21925000D01*
X45706200Y19525000D02*
X45706200Y21925000D01*
X39906200Y19525000D02*
X45706200Y19525000D01*
X39981200Y19525000D02*
X39981200Y21925000D01*
X40106200Y19525000D02*
X40106200Y21925000D01*
X39881200Y21925000D02*
X39881200Y19525000D01*
X40281200Y19525000D02*
X40281200Y21925000D01*
X40456200Y19525000D02*
X40456200Y21925000D01*
X40631200Y19525000D02*
X40631200Y21925000D01*
G04 #@! TO.C,D50*
X307643000Y-16175000D02*
X301843000Y-16175000D01*
X307643000Y-18575000D02*
X307643000Y-16175000D01*
X301843000Y-18575000D02*
X307643000Y-18575000D01*
X301918000Y-18575000D02*
X301918000Y-16175000D01*
X302043000Y-18575000D02*
X302043000Y-16175000D01*
X301818000Y-16175000D02*
X301818000Y-18575000D01*
X302218000Y-18575000D02*
X302218000Y-16175000D01*
X302393000Y-18575000D02*
X302393000Y-16175000D01*
X302568000Y-18575000D02*
X302568000Y-16175000D01*
G04 #@! TO.C,D21*
X59681200Y475000D02*
X59681200Y2875000D01*
X59506200Y475000D02*
X59506200Y2875000D01*
X59331200Y475000D02*
X59331200Y2875000D01*
X58931200Y2875000D02*
X58931200Y475000D01*
X59156200Y475000D02*
X59156200Y2875000D01*
X59031200Y475000D02*
X59031200Y2875000D01*
X58956200Y475000D02*
X64756200Y475000D01*
X64756200Y475000D02*
X64756200Y2875000D01*
X64756200Y2875000D02*
X58956200Y2875000D01*
G04 #@! TO.C,D53*
X26656200Y-35225000D02*
X20856200Y-35225000D01*
X26656200Y-37625000D02*
X26656200Y-35225000D01*
X20856200Y-37625000D02*
X26656200Y-37625000D01*
X20931200Y-37625000D02*
X20931200Y-35225000D01*
X21056200Y-37625000D02*
X21056200Y-35225000D01*
X20831200Y-35225000D02*
X20831200Y-37625000D01*
X21231200Y-37625000D02*
X21231200Y-35225000D01*
X21406200Y-37625000D02*
X21406200Y-35225000D01*
X21581200Y-37625000D02*
X21581200Y-35225000D01*
G04 #@! TO.C,D26*
X169531000Y2875000D02*
X163731000Y2875000D01*
X169531000Y475000D02*
X169531000Y2875000D01*
X163731000Y475000D02*
X169531000Y475000D01*
X163806000Y475000D02*
X163806000Y2875000D01*
X163931000Y475000D02*
X163931000Y2875000D01*
X163706000Y2875000D02*
X163706000Y475000D01*
X164106000Y475000D02*
X164106000Y2875000D01*
X164281000Y475000D02*
X164281000Y2875000D01*
X164456000Y475000D02*
X164456000Y2875000D01*
G04 #@! TO.C,D60*
X178744000Y-37625000D02*
X178744000Y-35225000D01*
X178569000Y-37625000D02*
X178569000Y-35225000D01*
X178394000Y-37625000D02*
X178394000Y-35225000D01*
X177994000Y-35225000D02*
X177994000Y-37625000D01*
X178219000Y-37625000D02*
X178219000Y-35225000D01*
X178094000Y-37625000D02*
X178094000Y-35225000D01*
X178019000Y-37625000D02*
X183819000Y-37625000D01*
X183819000Y-37625000D02*
X183819000Y-35225000D01*
X183819000Y-35225000D02*
X178019000Y-35225000D01*
G04 #@! TO.C,D42*
X155243000Y-16175000D02*
X149443000Y-16175000D01*
X155243000Y-18575000D02*
X155243000Y-16175000D01*
X149443000Y-18575000D02*
X155243000Y-18575000D01*
X149518000Y-18575000D02*
X149518000Y-16175000D01*
X149643000Y-18575000D02*
X149643000Y-16175000D01*
X149418000Y-16175000D02*
X149418000Y-18575000D01*
X149818000Y-18575000D02*
X149818000Y-16175000D01*
X149993000Y-18575000D02*
X149993000Y-16175000D01*
X150168000Y-18575000D02*
X150168000Y-16175000D01*
G04 #@! TO.C,D4*
X83806200Y21925000D02*
X78006200Y21925000D01*
X83806200Y19525000D02*
X83806200Y21925000D01*
X78006200Y19525000D02*
X83806200Y19525000D01*
X78081200Y19525000D02*
X78081200Y21925000D01*
X78206200Y19525000D02*
X78206200Y21925000D01*
X77981200Y21925000D02*
X77981200Y19525000D01*
X78381200Y19525000D02*
X78381200Y21925000D01*
X78556200Y19525000D02*
X78556200Y21925000D01*
X78731200Y19525000D02*
X78731200Y21925000D01*
G04 #@! TO.C,D3*
X59681200Y19525000D02*
X59681200Y21925000D01*
X59506200Y19525000D02*
X59506200Y21925000D01*
X59331200Y19525000D02*
X59331200Y21925000D01*
X58931200Y21925000D02*
X58931200Y19525000D01*
X59156200Y19525000D02*
X59156200Y21925000D01*
X59031200Y19525000D02*
X59031200Y21925000D01*
X58956200Y19525000D02*
X64756200Y19525000D01*
X64756200Y19525000D02*
X64756200Y21925000D01*
X64756200Y21925000D02*
X58956200Y21925000D01*
G04 #@! TO.C,D25*
X145406000Y475000D02*
X145406000Y2875000D01*
X145231000Y475000D02*
X145231000Y2875000D01*
X145056000Y475000D02*
X145056000Y2875000D01*
X144656000Y2875000D02*
X144656000Y475000D01*
X144881000Y475000D02*
X144881000Y2875000D01*
X144756000Y475000D02*
X144756000Y2875000D01*
X144681000Y475000D02*
X150481000Y475000D01*
X150481000Y475000D02*
X150481000Y2875000D01*
X150481000Y2875000D02*
X144681000Y2875000D01*
G04 #@! TO.C,D71*
X106781000Y-56675000D02*
X112581000Y-56675000D01*
X106781000Y-54275000D02*
X106781000Y-56675000D01*
X112581000Y-54275000D02*
X106781000Y-54275000D01*
X112506000Y-54275000D02*
X112506000Y-56675000D01*
X112381000Y-54275000D02*
X112381000Y-56675000D01*
X112606000Y-56675000D02*
X112606000Y-54275000D01*
X112206000Y-54275000D02*
X112206000Y-56675000D01*
X112031000Y-54275000D02*
X112031000Y-56675000D01*
X111856000Y-54275000D02*
X111856000Y-56675000D01*
G04 #@! TO.C,D78*
X372700000Y-62200000D02*
X372700000Y-68000000D01*
X375100000Y-62200000D02*
X372700000Y-62200000D01*
X375100000Y-68000000D02*
X375100000Y-62200000D01*
X375100000Y-67925000D02*
X372700000Y-67925000D01*
X375100000Y-67800000D02*
X372700000Y-67800000D01*
X372700000Y-68025000D02*
X375100000Y-68025000D01*
X375100000Y-67625000D02*
X372700000Y-67625000D01*
X375100000Y-67450000D02*
X372700000Y-67450000D01*
X375100000Y-67275000D02*
X372700000Y-67275000D01*
G04 #@! TO.C,D77*
X344906000Y-56675000D02*
X350706000Y-56675000D01*
X344906000Y-54275000D02*
X344906000Y-56675000D01*
X350706000Y-54275000D02*
X344906000Y-54275000D01*
X350631000Y-54275000D02*
X350631000Y-56675000D01*
X350506000Y-54275000D02*
X350506000Y-56675000D01*
X350731000Y-56675000D02*
X350731000Y-54275000D01*
X350331000Y-54275000D02*
X350331000Y-56675000D01*
X350156000Y-54275000D02*
X350156000Y-56675000D01*
X349981000Y-54275000D02*
X349981000Y-56675000D01*
G04 #@! TO.C,D45*
X207318000Y-18575000D02*
X207318000Y-16175000D01*
X207143000Y-18575000D02*
X207143000Y-16175000D01*
X206968000Y-18575000D02*
X206968000Y-16175000D01*
X206568000Y-16175000D02*
X206568000Y-18575000D01*
X206793000Y-18575000D02*
X206793000Y-16175000D01*
X206668000Y-18575000D02*
X206668000Y-16175000D01*
X206593000Y-18575000D02*
X212393000Y-18575000D01*
X212393000Y-18575000D02*
X212393000Y-16175000D01*
X212393000Y-16175000D02*
X206593000Y-16175000D01*
G04 #@! TO.C,D16*
X312406000Y21925000D02*
X306606000Y21925000D01*
X312406000Y19525000D02*
X312406000Y21925000D01*
X306606000Y19525000D02*
X312406000Y19525000D01*
X306681000Y19525000D02*
X306681000Y21925000D01*
X306806000Y19525000D02*
X306806000Y21925000D01*
X306581000Y21925000D02*
X306581000Y19525000D01*
X306981000Y19525000D02*
X306981000Y21925000D01*
X307156000Y19525000D02*
X307156000Y21925000D01*
X307331000Y19525000D02*
X307331000Y21925000D01*
G04 #@! TO.C,D22*
X70281200Y-14575000D02*
X70281200Y-20375000D01*
X72681200Y-14575000D02*
X70281200Y-14575000D01*
X72681200Y-20375000D02*
X72681200Y-14575000D01*
X72681200Y-20300000D02*
X70281200Y-20300000D01*
X72681200Y-20175000D02*
X70281200Y-20175000D01*
X70281200Y-20400000D02*
X72681200Y-20400000D01*
X72681200Y-20000000D02*
X70281200Y-20000000D01*
X72681200Y-19825000D02*
X70281200Y-19825000D01*
X72681200Y-19650000D02*
X70281200Y-19650000D01*
G04 #@! TO.C,D10*
X203631000Y14000000D02*
X203631000Y8200000D01*
X206031000Y14000000D02*
X203631000Y14000000D01*
X206031000Y8200000D02*
X206031000Y14000000D01*
X206031000Y8275000D02*
X203631000Y8275000D01*
X206031000Y8400000D02*
X203631000Y8400000D01*
X203631000Y8175000D02*
X206031000Y8175000D01*
X206031000Y8575000D02*
X203631000Y8575000D01*
X206031000Y8750000D02*
X203631000Y8750000D01*
X206031000Y8925000D02*
X203631000Y8925000D01*
G04 #@! TO.C,D54*
X40631200Y-37625000D02*
X40631200Y-35225000D01*
X40456200Y-37625000D02*
X40456200Y-35225000D01*
X40281200Y-37625000D02*
X40281200Y-35225000D01*
X39881200Y-35225000D02*
X39881200Y-37625000D01*
X40106200Y-37625000D02*
X40106200Y-35225000D01*
X39981200Y-37625000D02*
X39981200Y-35225000D01*
X39906200Y-37625000D02*
X45706200Y-37625000D01*
X45706200Y-37625000D02*
X45706200Y-35225000D01*
X45706200Y-35225000D02*
X39906200Y-35225000D01*
G04 #@! TO.C,D19*
X21581200Y475000D02*
X21581200Y2875000D01*
X21406200Y475000D02*
X21406200Y2875000D01*
X21231200Y475000D02*
X21231200Y2875000D01*
X20831200Y2875000D02*
X20831200Y475000D01*
X21056200Y475000D02*
X21056200Y2875000D01*
X20931200Y475000D02*
X20931200Y2875000D01*
X20856200Y475000D02*
X26656200Y475000D01*
X26656200Y475000D02*
X26656200Y2875000D01*
X26656200Y2875000D02*
X20856200Y2875000D01*
G04 #@! TO.C,D57*
X109687000Y-37625000D02*
X109687000Y-35225000D01*
X109512000Y-37625000D02*
X109512000Y-35225000D01*
X109337000Y-37625000D02*
X109337000Y-35225000D01*
X108937000Y-35225000D02*
X108937000Y-37625000D01*
X109162000Y-37625000D02*
X109162000Y-35225000D01*
X109037000Y-37625000D02*
X109037000Y-35225000D01*
X108962000Y-37625000D02*
X114762000Y-37625000D01*
X114762000Y-37625000D02*
X114762000Y-35225000D01*
X114762000Y-35225000D02*
X108962000Y-35225000D01*
G04 #@! TO.C,D47*
X245418000Y-18575000D02*
X245418000Y-16175000D01*
X245243000Y-18575000D02*
X245243000Y-16175000D01*
X245068000Y-18575000D02*
X245068000Y-16175000D01*
X244668000Y-16175000D02*
X244668000Y-18575000D01*
X244893000Y-18575000D02*
X244893000Y-16175000D01*
X244768000Y-18575000D02*
X244768000Y-16175000D01*
X244693000Y-18575000D02*
X250493000Y-18575000D01*
X250493000Y-18575000D02*
X250493000Y-16175000D01*
X250493000Y-16175000D02*
X244693000Y-16175000D01*
G04 #@! TO.C,D15*
X301281000Y8925000D02*
X298881000Y8925000D01*
X301281000Y8750000D02*
X298881000Y8750000D01*
X301281000Y8575000D02*
X298881000Y8575000D01*
X298881000Y8175000D02*
X301281000Y8175000D01*
X301281000Y8400000D02*
X298881000Y8400000D01*
X301281000Y8275000D02*
X298881000Y8275000D01*
X301281000Y8200000D02*
X301281000Y14000000D01*
X301281000Y14000000D02*
X298881000Y14000000D01*
X298881000Y14000000D02*
X298881000Y8200000D01*
G04 #@! TO.C,D67*
X317169000Y-35225000D02*
X311369000Y-35225000D01*
X317169000Y-37625000D02*
X317169000Y-35225000D01*
X311369000Y-37625000D02*
X317169000Y-37625000D01*
X311444000Y-37625000D02*
X311444000Y-35225000D01*
X311569000Y-37625000D02*
X311569000Y-35225000D01*
X311344000Y-35225000D02*
X311344000Y-37625000D01*
X311744000Y-37625000D02*
X311744000Y-35225000D01*
X311919000Y-37625000D02*
X311919000Y-35225000D01*
X312094000Y-37625000D02*
X312094000Y-35225000D01*
G04 #@! TO.C,D36*
X362412000Y2875000D02*
X356612000Y2875000D01*
X362412000Y475000D02*
X362412000Y2875000D01*
X356612000Y475000D02*
X362412000Y475000D01*
X356687000Y475000D02*
X356687000Y2875000D01*
X356812000Y475000D02*
X356812000Y2875000D01*
X356587000Y2875000D02*
X356587000Y475000D01*
X356987000Y475000D02*
X356987000Y2875000D01*
X357162000Y475000D02*
X357162000Y2875000D01*
X357337000Y475000D02*
X357337000Y2875000D01*
G04 #@! TO.C,D62*
X216844000Y-37625000D02*
X216844000Y-35225000D01*
X216669000Y-37625000D02*
X216669000Y-35225000D01*
X216494000Y-37625000D02*
X216494000Y-35225000D01*
X216094000Y-35225000D02*
X216094000Y-37625000D01*
X216319000Y-37625000D02*
X216319000Y-35225000D01*
X216194000Y-37625000D02*
X216194000Y-35225000D01*
X216119000Y-37625000D02*
X221919000Y-37625000D01*
X221919000Y-37625000D02*
X221919000Y-35225000D01*
X221919000Y-35225000D02*
X216119000Y-35225000D01*
G04 #@! TO.C,D61*
X197794000Y-37625000D02*
X197794000Y-35225000D01*
X197619000Y-37625000D02*
X197619000Y-35225000D01*
X197444000Y-37625000D02*
X197444000Y-35225000D01*
X197044000Y-35225000D02*
X197044000Y-37625000D01*
X197269000Y-37625000D02*
X197269000Y-35225000D01*
X197144000Y-37625000D02*
X197144000Y-35225000D01*
X197069000Y-37625000D02*
X202869000Y-37625000D01*
X202869000Y-37625000D02*
X202869000Y-35225000D01*
X202869000Y-35225000D02*
X197069000Y-35225000D01*
G04 #@! TO.C,D52*
X357650000Y-16175000D02*
X351850000Y-16175000D01*
X357650000Y-18575000D02*
X357650000Y-16175000D01*
X351850000Y-18575000D02*
X357650000Y-18575000D01*
X351925000Y-18575000D02*
X351925000Y-16175000D01*
X352050000Y-18575000D02*
X352050000Y-16175000D01*
X351825000Y-16175000D02*
X351825000Y-18575000D01*
X352225000Y-18575000D02*
X352225000Y-16175000D01*
X352400000Y-18575000D02*
X352400000Y-16175000D01*
X352575000Y-18575000D02*
X352575000Y-16175000D01*
G04 #@! TO.C,D37*
X21581200Y-18575000D02*
X21581200Y-16175000D01*
X21406200Y-18575000D02*
X21406200Y-16175000D01*
X21231200Y-18575000D02*
X21231200Y-16175000D01*
X20831200Y-16175000D02*
X20831200Y-18575000D01*
X21056200Y-18575000D02*
X21056200Y-16175000D01*
X20931200Y-18575000D02*
X20931200Y-16175000D01*
X20856200Y-18575000D02*
X26656200Y-18575000D01*
X26656200Y-18575000D02*
X26656200Y-16175000D01*
X26656200Y-16175000D02*
X20856200Y-16175000D01*
G04 #@! TO.C,D65*
X273994000Y-37625000D02*
X273994000Y-35225000D01*
X273819000Y-37625000D02*
X273819000Y-35225000D01*
X273644000Y-37625000D02*
X273644000Y-35225000D01*
X273244000Y-35225000D02*
X273244000Y-37625000D01*
X273469000Y-37625000D02*
X273469000Y-35225000D01*
X273344000Y-37625000D02*
X273344000Y-35225000D01*
X273269000Y-37625000D02*
X279069000Y-37625000D01*
X279069000Y-37625000D02*
X279069000Y-35225000D01*
X279069000Y-35225000D02*
X273269000Y-35225000D01*
G04 #@! TO.C,D14*
X269231000Y19525000D02*
X269231000Y21925000D01*
X269056000Y19525000D02*
X269056000Y21925000D01*
X268881000Y19525000D02*
X268881000Y21925000D01*
X268481000Y21925000D02*
X268481000Y19525000D01*
X268706000Y19525000D02*
X268706000Y21925000D01*
X268581000Y19525000D02*
X268581000Y21925000D01*
X268506000Y19525000D02*
X274306000Y19525000D01*
X274306000Y19525000D02*
X274306000Y21925000D01*
X274306000Y21925000D02*
X268506000Y21925000D01*
G04 #@! TO.C,D68*
X350194000Y-37625000D02*
X350194000Y-35225000D01*
X350019000Y-37625000D02*
X350019000Y-35225000D01*
X349844000Y-37625000D02*
X349844000Y-35225000D01*
X349444000Y-35225000D02*
X349444000Y-37625000D01*
X349669000Y-37625000D02*
X349669000Y-35225000D01*
X349544000Y-37625000D02*
X349544000Y-35225000D01*
X349469000Y-37625000D02*
X355269000Y-37625000D01*
X355269000Y-37625000D02*
X355269000Y-35225000D01*
X355269000Y-35225000D02*
X349469000Y-35225000D01*
G04 #@! TO.C,D18*
X360031000Y21925000D02*
X354231000Y21925000D01*
X360031000Y19525000D02*
X360031000Y21925000D01*
X354231000Y19525000D02*
X360031000Y19525000D01*
X354306000Y19525000D02*
X354306000Y21925000D01*
X354431000Y19525000D02*
X354431000Y21925000D01*
X354206000Y21925000D02*
X354206000Y19525000D01*
X354606000Y19525000D02*
X354606000Y21925000D01*
X354781000Y19525000D02*
X354781000Y21925000D01*
X354956000Y19525000D02*
X354956000Y21925000D01*
G04 #@! TO.C,D38*
X45706200Y-16175000D02*
X39906200Y-16175000D01*
X45706200Y-18575000D02*
X45706200Y-16175000D01*
X39906200Y-18575000D02*
X45706200Y-18575000D01*
X39981200Y-18575000D02*
X39981200Y-16175000D01*
X40106200Y-18575000D02*
X40106200Y-16175000D01*
X39881200Y-16175000D02*
X39881200Y-18575000D01*
X40281200Y-18575000D02*
X40281200Y-16175000D01*
X40456200Y-18575000D02*
X40456200Y-16175000D01*
X40631200Y-18575000D02*
X40631200Y-16175000D01*
G04 #@! TO.C,D12*
X236206000Y21925000D02*
X230406000Y21925000D01*
X236206000Y19525000D02*
X236206000Y21925000D01*
X230406000Y19525000D02*
X236206000Y19525000D01*
X230481000Y19525000D02*
X230481000Y21925000D01*
X230606000Y19525000D02*
X230606000Y21925000D01*
X230381000Y21925000D02*
X230381000Y19525000D01*
X230781000Y19525000D02*
X230781000Y21925000D01*
X230956000Y19525000D02*
X230956000Y21925000D01*
X231131000Y19525000D02*
X231131000Y21925000D01*
G04 #@! TO.C,D58*
X145719000Y-35225000D02*
X139919000Y-35225000D01*
X145719000Y-37625000D02*
X145719000Y-35225000D01*
X139919000Y-37625000D02*
X145719000Y-37625000D01*
X139994000Y-37625000D02*
X139994000Y-35225000D01*
X140119000Y-37625000D02*
X140119000Y-35225000D01*
X139894000Y-35225000D02*
X139894000Y-37625000D01*
X140294000Y-37625000D02*
X140294000Y-35225000D01*
X140469000Y-37625000D02*
X140469000Y-35225000D01*
X140644000Y-37625000D02*
X140644000Y-35225000D01*
G04 #@! TO.C,D34*
X321931000Y2875000D02*
X316131000Y2875000D01*
X321931000Y475000D02*
X321931000Y2875000D01*
X316131000Y475000D02*
X321931000Y475000D01*
X316206000Y475000D02*
X316206000Y2875000D01*
X316331000Y475000D02*
X316331000Y2875000D01*
X316106000Y2875000D02*
X316106000Y475000D01*
X316506000Y475000D02*
X316506000Y2875000D01*
X316681000Y475000D02*
X316681000Y2875000D01*
X316856000Y475000D02*
X316856000Y2875000D01*
G04 #@! TO.C,D20*
X45706200Y2875000D02*
X39906200Y2875000D01*
X45706200Y475000D02*
X45706200Y2875000D01*
X39906200Y475000D02*
X45706200Y475000D01*
X39981200Y475000D02*
X39981200Y2875000D01*
X40106200Y475000D02*
X40106200Y2875000D01*
X39881200Y2875000D02*
X39881200Y475000D01*
X40281200Y475000D02*
X40281200Y2875000D01*
X40456200Y475000D02*
X40456200Y2875000D01*
X40631200Y475000D02*
X40631200Y2875000D01*
G04 #@! TO.C,D69*
X31106200Y-56675000D02*
X31106200Y-54275000D01*
X30931200Y-56675000D02*
X30931200Y-54275000D01*
X30756200Y-56675000D02*
X30756200Y-54275000D01*
X30356200Y-54275000D02*
X30356200Y-56675000D01*
X30581200Y-56675000D02*
X30581200Y-54275000D01*
X30456200Y-56675000D02*
X30456200Y-54275000D01*
X30381200Y-56675000D02*
X36181200Y-56675000D01*
X36181200Y-56675000D02*
X36181200Y-54275000D01*
X36181200Y-54275000D02*
X30381200Y-54275000D01*
G04 #@! TO.C,D40*
X110000000Y-16175000D02*
X104200000Y-16175000D01*
X110000000Y-18575000D02*
X110000000Y-16175000D01*
X104200000Y-18575000D02*
X110000000Y-18575000D01*
X104275000Y-18575000D02*
X104275000Y-16175000D01*
X104400000Y-18575000D02*
X104400000Y-16175000D01*
X104175000Y-16175000D02*
X104175000Y-18575000D01*
X104575000Y-18575000D02*
X104575000Y-16175000D01*
X104750000Y-18575000D02*
X104750000Y-16175000D01*
X104925000Y-18575000D02*
X104925000Y-16175000D01*
G04 #@! TO.C,D56*
X70281200Y-52675000D02*
X70281200Y-58475000D01*
X72681200Y-52675000D02*
X70281200Y-52675000D01*
X72681200Y-58475000D02*
X72681200Y-52675000D01*
X72681200Y-58400000D02*
X70281200Y-58400000D01*
X72681200Y-58275000D02*
X70281200Y-58275000D01*
X70281200Y-58500000D02*
X72681200Y-58500000D01*
X72681200Y-58100000D02*
X70281200Y-58100000D01*
X72681200Y-57925000D02*
X70281200Y-57925000D01*
X72681200Y-57750000D02*
X70281200Y-57750000D01*
G04 #@! TO.C,D23*
X102544000Y475000D02*
X102544000Y2875000D01*
X102369000Y475000D02*
X102369000Y2875000D01*
X102194000Y475000D02*
X102194000Y2875000D01*
X101794000Y2875000D02*
X101794000Y475000D01*
X102019000Y475000D02*
X102019000Y2875000D01*
X101894000Y475000D02*
X101894000Y2875000D01*
X101819000Y475000D02*
X107619000Y475000D01*
X107619000Y475000D02*
X107619000Y2875000D01*
X107619000Y2875000D02*
X101819000Y2875000D01*
G04 #@! TO.C,D17*
X326381000Y19525000D02*
X326381000Y21925000D01*
X326206000Y19525000D02*
X326206000Y21925000D01*
X326031000Y19525000D02*
X326031000Y21925000D01*
X325631000Y21925000D02*
X325631000Y19525000D01*
X325856000Y19525000D02*
X325856000Y21925000D01*
X325731000Y19525000D02*
X325731000Y21925000D01*
X325656000Y19525000D02*
X331456000Y19525000D01*
X331456000Y19525000D02*
X331456000Y21925000D01*
X331456000Y21925000D02*
X325656000Y21925000D01*
G04 #@! TO.C,D32*
X283831000Y2875000D02*
X278031000Y2875000D01*
X283831000Y475000D02*
X283831000Y2875000D01*
X278031000Y475000D02*
X283831000Y475000D01*
X278106000Y475000D02*
X278106000Y2875000D01*
X278231000Y475000D02*
X278231000Y2875000D01*
X278006000Y2875000D02*
X278006000Y475000D01*
X278406000Y475000D02*
X278406000Y2875000D01*
X278581000Y475000D02*
X278581000Y2875000D01*
X278756000Y475000D02*
X278756000Y2875000D01*
G04 #@! TO.C,D31*
X259706000Y475000D02*
X259706000Y2875000D01*
X259531000Y475000D02*
X259531000Y2875000D01*
X259356000Y475000D02*
X259356000Y2875000D01*
X258956000Y2875000D02*
X258956000Y475000D01*
X259181000Y475000D02*
X259181000Y2875000D01*
X259056000Y475000D02*
X259056000Y2875000D01*
X258981000Y475000D02*
X264781000Y475000D01*
X264781000Y475000D02*
X264781000Y2875000D01*
X264781000Y2875000D02*
X258981000Y2875000D01*
G04 #@! TO.C,D9*
X173981000Y19525000D02*
X173981000Y21925000D01*
X173806000Y19525000D02*
X173806000Y21925000D01*
X173631000Y19525000D02*
X173631000Y21925000D01*
X173231000Y21925000D02*
X173231000Y19525000D01*
X173456000Y19525000D02*
X173456000Y21925000D01*
X173331000Y19525000D02*
X173331000Y21925000D01*
X173256000Y19525000D02*
X179056000Y19525000D01*
X179056000Y19525000D02*
X179056000Y21925000D01*
X179056000Y21925000D02*
X173256000Y21925000D01*
G04 #@! TO.C,D64*
X260019000Y-35225000D02*
X254219000Y-35225000D01*
X260019000Y-37625000D02*
X260019000Y-35225000D01*
X254219000Y-37625000D02*
X260019000Y-37625000D01*
X254294000Y-37625000D02*
X254294000Y-35225000D01*
X254419000Y-37625000D02*
X254419000Y-35225000D01*
X254194000Y-35225000D02*
X254194000Y-37625000D01*
X254594000Y-37625000D02*
X254594000Y-35225000D01*
X254769000Y-37625000D02*
X254769000Y-35225000D01*
X254944000Y-37625000D02*
X254944000Y-35225000D01*
G04 #@! TO.C,D74*
X224300000Y-54275000D02*
X218500000Y-54275000D01*
X224300000Y-56675000D02*
X224300000Y-54275000D01*
X218500000Y-56675000D02*
X224300000Y-56675000D01*
X218575000Y-56675000D02*
X218575000Y-54275000D01*
X218700000Y-56675000D02*
X218700000Y-54275000D01*
X218475000Y-54275000D02*
X218475000Y-56675000D01*
X218875000Y-56675000D02*
X218875000Y-54275000D01*
X219050000Y-56675000D02*
X219050000Y-54275000D01*
X219225000Y-56675000D02*
X219225000Y-54275000D01*
G04 #@! TO.C,D76*
X319550000Y-54275000D02*
X313750000Y-54275000D01*
X319550000Y-56675000D02*
X319550000Y-54275000D01*
X313750000Y-56675000D02*
X319550000Y-56675000D01*
X313825000Y-56675000D02*
X313825000Y-54275000D01*
X313950000Y-56675000D02*
X313950000Y-54275000D01*
X313725000Y-54275000D02*
X313725000Y-56675000D01*
X314125000Y-56675000D02*
X314125000Y-54275000D01*
X314300000Y-56675000D02*
X314300000Y-54275000D01*
X314475000Y-56675000D02*
X314475000Y-54275000D01*
G04 #@! TO.C,D49*
X283518000Y-18575000D02*
X283518000Y-16175000D01*
X283343000Y-18575000D02*
X283343000Y-16175000D01*
X283168000Y-18575000D02*
X283168000Y-16175000D01*
X282768000Y-16175000D02*
X282768000Y-18575000D01*
X282993000Y-18575000D02*
X282993000Y-16175000D01*
X282868000Y-18575000D02*
X282868000Y-16175000D01*
X282793000Y-18575000D02*
X288593000Y-18575000D01*
X288593000Y-18575000D02*
X288593000Y-16175000D01*
X288593000Y-16175000D02*
X282793000Y-16175000D01*
G04 #@! TO.C,D70*
X59681200Y-56675000D02*
X59681200Y-54275000D01*
X59506200Y-56675000D02*
X59506200Y-54275000D01*
X59331200Y-56675000D02*
X59331200Y-54275000D01*
X58931200Y-54275000D02*
X58931200Y-56675000D01*
X59156200Y-56675000D02*
X59156200Y-54275000D01*
X59031200Y-56675000D02*
X59031200Y-54275000D01*
X58956200Y-56675000D02*
X64756200Y-56675000D01*
X64756200Y-56675000D02*
X64756200Y-54275000D01*
X64756200Y-54275000D02*
X58956200Y-54275000D01*
G04 #@! TO.C,D75*
X295737000Y-54275000D02*
X289937000Y-54275000D01*
X295737000Y-56675000D02*
X295737000Y-54275000D01*
X289937000Y-56675000D02*
X295737000Y-56675000D01*
X290012000Y-56675000D02*
X290012000Y-54275000D01*
X290137000Y-56675000D02*
X290137000Y-54275000D01*
X289912000Y-54275000D02*
X289912000Y-56675000D01*
X290312000Y-56675000D02*
X290312000Y-54275000D01*
X290487000Y-56675000D02*
X290487000Y-54275000D01*
X290662000Y-56675000D02*
X290662000Y-54275000D01*
G04 #@! TO.C,D8*
X160006000Y21925000D02*
X154206000Y21925000D01*
X160006000Y19525000D02*
X160006000Y21925000D01*
X154206000Y19525000D02*
X160006000Y19525000D01*
X154281000Y19525000D02*
X154281000Y21925000D01*
X154406000Y19525000D02*
X154406000Y21925000D01*
X154181000Y21925000D02*
X154181000Y19525000D01*
X154581000Y19525000D02*
X154581000Y21925000D01*
X154756000Y19525000D02*
X154756000Y21925000D01*
X154931000Y19525000D02*
X154931000Y21925000D01*
G04 #@! TO.C,D28*
X202556000Y475000D02*
X202556000Y2875000D01*
X202381000Y475000D02*
X202381000Y2875000D01*
X202206000Y475000D02*
X202206000Y2875000D01*
X201806000Y2875000D02*
X201806000Y475000D01*
X202031000Y475000D02*
X202031000Y2875000D01*
X201906000Y475000D02*
X201906000Y2875000D01*
X201831000Y475000D02*
X207631000Y475000D01*
X207631000Y475000D02*
X207631000Y2875000D01*
X207631000Y2875000D02*
X201831000Y2875000D01*
G04 #@! TO.C,D13*
X250181000Y19525000D02*
X250181000Y21925000D01*
X250006000Y19525000D02*
X250006000Y21925000D01*
X249831000Y19525000D02*
X249831000Y21925000D01*
X249431000Y21925000D02*
X249431000Y19525000D01*
X249656000Y19525000D02*
X249656000Y21925000D01*
X249531000Y19525000D02*
X249531000Y21925000D01*
X249456000Y19525000D02*
X255256000Y19525000D01*
X255256000Y19525000D02*
X255256000Y21925000D01*
X255256000Y21925000D02*
X249456000Y21925000D01*
G04 #@! TO.C,D66*
X293044000Y-37625000D02*
X293044000Y-35225000D01*
X292869000Y-37625000D02*
X292869000Y-35225000D01*
X292694000Y-37625000D02*
X292694000Y-35225000D01*
X292294000Y-35225000D02*
X292294000Y-37625000D01*
X292519000Y-37625000D02*
X292519000Y-35225000D01*
X292394000Y-37625000D02*
X292394000Y-35225000D01*
X292319000Y-37625000D02*
X298119000Y-37625000D01*
X298119000Y-37625000D02*
X298119000Y-35225000D01*
X298119000Y-35225000D02*
X292319000Y-35225000D01*
G04 #@! TO.C,D6*
X121906000Y21925000D02*
X116106000Y21925000D01*
X121906000Y19525000D02*
X121906000Y21925000D01*
X116106000Y19525000D02*
X121906000Y19525000D01*
X116181000Y19525000D02*
X116181000Y21925000D01*
X116306000Y19525000D02*
X116306000Y21925000D01*
X116081000Y21925000D02*
X116081000Y19525000D01*
X116481000Y19525000D02*
X116481000Y21925000D01*
X116656000Y19525000D02*
X116656000Y21925000D01*
X116831000Y19525000D02*
X116831000Y21925000D01*
G04 #@! TO.C,D44*
X193343000Y-16175000D02*
X187543000Y-16175000D01*
X193343000Y-18575000D02*
X193343000Y-16175000D01*
X187543000Y-18575000D02*
X193343000Y-18575000D01*
X187618000Y-18575000D02*
X187618000Y-16175000D01*
X187743000Y-18575000D02*
X187743000Y-16175000D01*
X187518000Y-16175000D02*
X187518000Y-18575000D01*
X187918000Y-18575000D02*
X187918000Y-16175000D01*
X188093000Y-18575000D02*
X188093000Y-16175000D01*
X188268000Y-18575000D02*
X188268000Y-16175000D01*
G04 #@! TO.C,D46*
X231443000Y-16175000D02*
X225643000Y-16175000D01*
X231443000Y-18575000D02*
X231443000Y-16175000D01*
X225643000Y-18575000D02*
X231443000Y-18575000D01*
X225718000Y-18575000D02*
X225718000Y-16175000D01*
X225843000Y-18575000D02*
X225843000Y-16175000D01*
X225618000Y-16175000D02*
X225618000Y-18575000D01*
X226018000Y-18575000D02*
X226018000Y-16175000D01*
X226193000Y-18575000D02*
X226193000Y-16175000D01*
X226368000Y-18575000D02*
X226368000Y-16175000D01*
G04 #@! TO.C,D51*
X321618000Y-18575000D02*
X321618000Y-16175000D01*
X321443000Y-18575000D02*
X321443000Y-16175000D01*
X321268000Y-18575000D02*
X321268000Y-16175000D01*
X320868000Y-16175000D02*
X320868000Y-18575000D01*
X321093000Y-18575000D02*
X321093000Y-16175000D01*
X320968000Y-18575000D02*
X320968000Y-16175000D01*
X320893000Y-18575000D02*
X326693000Y-18575000D01*
X326693000Y-18575000D02*
X326693000Y-16175000D01*
X326693000Y-16175000D02*
X320893000Y-16175000D01*
G04 #@! TO.C,D11*
X212081000Y19525000D02*
X212081000Y21925000D01*
X211906000Y19525000D02*
X211906000Y21925000D01*
X211731000Y19525000D02*
X211731000Y21925000D01*
X211331000Y21925000D02*
X211331000Y19525000D01*
X211556000Y19525000D02*
X211556000Y21925000D01*
X211431000Y19525000D02*
X211431000Y21925000D01*
X211356000Y19525000D02*
X217156000Y19525000D01*
X217156000Y19525000D02*
X217156000Y21925000D01*
X217156000Y21925000D02*
X211356000Y21925000D01*
G04 #@! TO.C,D63*
X240969000Y-35225000D02*
X235169000Y-35225000D01*
X240969000Y-37625000D02*
X240969000Y-35225000D01*
X235169000Y-37625000D02*
X240969000Y-37625000D01*
X235244000Y-37625000D02*
X235244000Y-35225000D01*
X235369000Y-37625000D02*
X235369000Y-35225000D01*
X235144000Y-35225000D02*
X235144000Y-37625000D01*
X235544000Y-37625000D02*
X235544000Y-35225000D01*
X235719000Y-37625000D02*
X235719000Y-35225000D01*
X235894000Y-37625000D02*
X235894000Y-35225000D01*
G04 #@! TO.C,D29*
X221606000Y475000D02*
X221606000Y2875000D01*
X221431000Y475000D02*
X221431000Y2875000D01*
X221256000Y475000D02*
X221256000Y2875000D01*
X220856000Y2875000D02*
X220856000Y475000D01*
X221081000Y475000D02*
X221081000Y2875000D01*
X220956000Y475000D02*
X220956000Y2875000D01*
X220881000Y475000D02*
X226681000Y475000D01*
X226681000Y475000D02*
X226681000Y2875000D01*
X226681000Y2875000D02*
X220881000Y2875000D01*
G04 #@! TO.C,D55*
X59681200Y-37625000D02*
X59681200Y-35225000D01*
X59506200Y-37625000D02*
X59506200Y-35225000D01*
X59331200Y-37625000D02*
X59331200Y-35225000D01*
X58931200Y-35225000D02*
X58931200Y-37625000D01*
X59156200Y-37625000D02*
X59156200Y-35225000D01*
X59031200Y-37625000D02*
X59031200Y-35225000D01*
X58956200Y-37625000D02*
X64756200Y-37625000D01*
X64756200Y-37625000D02*
X64756200Y-35225000D01*
X64756200Y-35225000D02*
X58956200Y-35225000D01*
G04 #@! TO.C,D5*
X110781000Y8925000D02*
X108381000Y8925000D01*
X110781000Y8750000D02*
X108381000Y8750000D01*
X110781000Y8575000D02*
X108381000Y8575000D01*
X108381000Y8175000D02*
X110781000Y8175000D01*
X110781000Y8400000D02*
X108381000Y8400000D01*
X110781000Y8275000D02*
X108381000Y8275000D01*
X110781000Y8200000D02*
X110781000Y14000000D01*
X110781000Y14000000D02*
X108381000Y14000000D01*
X108381000Y14000000D02*
X108381000Y8200000D01*
G04 #@! TO.C,D43*
X169218000Y-18575000D02*
X169218000Y-16175000D01*
X169043000Y-18575000D02*
X169043000Y-16175000D01*
X168868000Y-18575000D02*
X168868000Y-16175000D01*
X168468000Y-16175000D02*
X168468000Y-18575000D01*
X168693000Y-18575000D02*
X168693000Y-16175000D01*
X168568000Y-18575000D02*
X168568000Y-16175000D01*
X168493000Y-18575000D02*
X174293000Y-18575000D01*
X174293000Y-18575000D02*
X174293000Y-16175000D01*
X174293000Y-16175000D02*
X168493000Y-16175000D01*
G04 #@! TO.C,D73*
X152862000Y-54275000D02*
X147062000Y-54275000D01*
X152862000Y-56675000D02*
X152862000Y-54275000D01*
X147062000Y-56675000D02*
X152862000Y-56675000D01*
X147137000Y-56675000D02*
X147137000Y-54275000D01*
X147262000Y-56675000D02*
X147262000Y-54275000D01*
X147037000Y-54275000D02*
X147037000Y-56675000D01*
X147437000Y-56675000D02*
X147437000Y-54275000D01*
X147612000Y-56675000D02*
X147612000Y-54275000D01*
X147787000Y-56675000D02*
X147787000Y-54275000D01*
G04 #@! TO.C,D33*
X297806000Y475000D02*
X297806000Y2875000D01*
X297631000Y475000D02*
X297631000Y2875000D01*
X297456000Y475000D02*
X297456000Y2875000D01*
X297056000Y2875000D02*
X297056000Y475000D01*
X297281000Y475000D02*
X297281000Y2875000D01*
X297156000Y475000D02*
X297156000Y2875000D01*
X297081000Y475000D02*
X302881000Y475000D01*
X302881000Y475000D02*
X302881000Y2875000D01*
X302881000Y2875000D02*
X297081000Y2875000D01*
G04 #@! TO.C,D30*
X245731000Y2875000D02*
X239931000Y2875000D01*
X245731000Y475000D02*
X245731000Y2875000D01*
X239931000Y475000D02*
X245731000Y475000D01*
X240006000Y475000D02*
X240006000Y2875000D01*
X240131000Y475000D02*
X240131000Y2875000D01*
X239906000Y2875000D02*
X239906000Y475000D01*
X240306000Y475000D02*
X240306000Y2875000D01*
X240481000Y475000D02*
X240481000Y2875000D01*
X240656000Y475000D02*
X240656000Y2875000D01*
G04 #@! TO.C,D35*
X333525000Y475000D02*
X333525000Y2875000D01*
X333350000Y475000D02*
X333350000Y2875000D01*
X333175000Y475000D02*
X333175000Y2875000D01*
X332775000Y2875000D02*
X332775000Y475000D01*
X333000000Y475000D02*
X333000000Y2875000D01*
X332875000Y475000D02*
X332875000Y2875000D01*
X332800000Y475000D02*
X338600000Y475000D01*
X338600000Y475000D02*
X338600000Y2875000D01*
X338600000Y2875000D02*
X332800000Y2875000D01*
G04 #@! TO.C,D24*
X131431000Y2875000D02*
X125631000Y2875000D01*
X131431000Y475000D02*
X131431000Y2875000D01*
X125631000Y475000D02*
X131431000Y475000D01*
X125706000Y475000D02*
X125706000Y2875000D01*
X125831000Y475000D02*
X125831000Y2875000D01*
X125606000Y2875000D02*
X125606000Y475000D01*
X126006000Y475000D02*
X126006000Y2875000D01*
X126181000Y475000D02*
X126181000Y2875000D01*
X126356000Y475000D02*
X126356000Y2875000D01*
G04 #@! TO.C,D59*
X164769000Y-35225000D02*
X158969000Y-35225000D01*
X164769000Y-37625000D02*
X164769000Y-35225000D01*
X158969000Y-37625000D02*
X164769000Y-37625000D01*
X159044000Y-37625000D02*
X159044000Y-35225000D01*
X159169000Y-37625000D02*
X159169000Y-35225000D01*
X158944000Y-35225000D02*
X158944000Y-37625000D01*
X159344000Y-37625000D02*
X159344000Y-35225000D01*
X159519000Y-37625000D02*
X159519000Y-35225000D01*
X159694000Y-37625000D02*
X159694000Y-35225000D01*
G04 #@! TO.C,D41*
X131118000Y-18575000D02*
X131118000Y-16175000D01*
X130943000Y-18575000D02*
X130943000Y-16175000D01*
X130768000Y-18575000D02*
X130768000Y-16175000D01*
X130368000Y-16175000D02*
X130368000Y-18575000D01*
X130593000Y-18575000D02*
X130593000Y-16175000D01*
X130468000Y-18575000D02*
X130468000Y-16175000D01*
X130393000Y-18575000D02*
X136193000Y-18575000D01*
X136193000Y-18575000D02*
X136193000Y-16175000D01*
X136193000Y-16175000D02*
X130393000Y-16175000D01*
G04 #@! TO.C,D1*
X21581200Y19525000D02*
X21581200Y21925000D01*
X21406200Y19525000D02*
X21406200Y21925000D01*
X21231200Y19525000D02*
X21231200Y21925000D01*
X20831200Y21925000D02*
X20831200Y19525000D01*
X21056200Y19525000D02*
X21056200Y21925000D01*
X20931200Y19525000D02*
X20931200Y21925000D01*
X20856200Y19525000D02*
X26656200Y19525000D01*
X26656200Y19525000D02*
X26656200Y21925000D01*
X26656200Y21925000D02*
X20856200Y21925000D01*
G04 #@! TO.C,D27*
X188581000Y2875000D02*
X182781000Y2875000D01*
X188581000Y475000D02*
X188581000Y2875000D01*
X182781000Y475000D02*
X188581000Y475000D01*
X182856000Y475000D02*
X182856000Y2875000D01*
X182981000Y475000D02*
X182981000Y2875000D01*
X182756000Y2875000D02*
X182756000Y475000D01*
X183156000Y475000D02*
X183156000Y2875000D01*
X183331000Y475000D02*
X183331000Y2875000D01*
X183506000Y475000D02*
X183506000Y2875000D01*
G04 #@! TD*
M02*
