M48
; DRILL file {KiCad 5.1.6} date Wed Aug 19 08:48:52 2020
; FORMAT={-:-/ absolute / inch / decimal}
; #@! TF.CreationDate,2020-08-19T08:48:52-04:00
; #@! TF.GenerationSoftware,Kicad,Pcbnew,5.1.6
FMAT,2
INCH
T1C0.0276
T2C0.0433
T3C0.0579
T4C0.0689
T5C0.1200
T6C0.1570
%
G90
G05
T1
X5.8481Y-0.6841
X6.1552Y-0.6841
X4.0669Y-0.6841
X4.374Y-0.6841
X6.5981Y-0.6841
X6.9052Y-0.6841
X0.7857Y-1.4341
X1.0928Y-1.4341
X7.9107Y0.0659
X8.2178Y0.0659
X5.0981Y-0.6841
X5.4052Y-0.6841
X9.2232Y-1.4341
X9.5303Y-1.4341
X0.7857Y-0.6841
X1.0928Y-0.6841
X9.9732Y-1.4341
X10.2803Y-1.4341
X14.0044Y0.0659
X14.3115Y0.0659
X11.8142Y0.5945
X11.8142Y0.2874
X0.7857Y0.0659
X1.0928Y0.0659
X9.4107Y0.0659
X9.7178Y0.0659
X5.2857Y0.8159
X5.5928Y0.8159
X1.5357Y0.0659
X1.8428Y0.0659
X6.9732Y-1.4341
X7.2803Y-1.4341
X9.0357Y0.8159
X9.3428Y0.8159
X8.4732Y-1.4341
X8.7803Y-1.4341
X8.0642Y0.5945
X8.0642Y0.2874
X5.4732Y-1.4341
X5.7803Y-1.4341
X2.2857Y0.8159
X2.5928Y0.8159
X10.7232Y-1.4341
X11.0303Y-1.4341
X11.0981Y-0.6841
X11.4052Y-0.6841
X2.2857Y-2.1841
X2.5928Y-2.1841
X8.0981Y-0.6841
X8.4052Y-0.6841
X1.5357Y-0.6841
X1.8428Y-0.6841
X6.4107Y0.0659
X6.7178Y0.0659
X2.2857Y-0.6841
X2.5928Y-0.6841
X4.3142Y0.5945
X4.3142Y0.2874
X12.7857Y0.8159
X13.0928Y0.8159
X11.3794Y-2.1841
X11.6865Y-2.1841
X6.0357Y0.8159
X6.3428Y0.8159
X14.7205Y-2.4055
X14.7205Y-2.7126
X10.1607Y0.0659
X10.4678Y0.0659
X1.1607Y-2.1841
X1.4678Y-2.1841
X1.5357Y-1.4341
X1.8428Y-1.4341
X11.6607Y0.0659
X11.9678Y0.0659
X6.2232Y-1.4341
X6.5303Y-1.4341
X8.2857Y0.8159
X8.5928Y0.8159
X2.2857Y-1.4341
X2.5928Y-1.4341
X12.3169Y-2.1841
X12.624Y-2.1841
X1.5357Y0.8159
X1.8428Y0.8159
X2.8142Y-2.0305
X2.8142Y-2.3376
X11.4732Y-1.4341
X11.7803Y-1.4341
X2.2857Y0.0659
X2.5928Y0.0659
X12.2232Y-1.4341
X12.5303Y-1.4341
X10.3481Y-0.6841
X10.6552Y-0.6841
X13.9107Y0.8159
X14.2178Y0.8159
X4.2544Y-1.4341
X4.5615Y-1.4341
X5.0981Y-2.1841
X5.4052Y-2.1841
X10.9107Y0.0659
X11.2178Y0.0659
X7.1607Y0.0659
X7.4678Y0.0659
X10.5357Y0.8159
X10.8428Y0.8159
X13.7232Y-1.4341
X14.0303Y-1.4341
X8.6607Y0.0659
X8.9678Y0.0659
X3.9732Y0.0659
X4.2803Y0.0659
X2.8142Y-0.5305
X2.8142Y-0.8376
X8.8481Y-0.6841
X9.1552Y-0.6841
X3.0357Y0.8159
X3.3428Y0.8159
X5.7544Y-2.1841
X6.0615Y-2.1841
X4.1607Y-2.1841
X4.4678Y-2.1841
X9.7857Y0.8159
X10.0928Y0.8159
X4.9107Y0.0659
X5.2178Y0.0659
X12.5981Y-0.6841
X12.9052Y-0.6841
X12.4107Y0.0659
X12.7178Y0.0659
X11.8481Y-0.6841
X12.1552Y-0.6841
X4.5357Y0.8159
X4.8428Y0.8159
X13.5357Y-2.1841
X13.8428Y-2.1841
X7.3481Y-0.6841
X7.6552Y-0.6841
X9.5981Y-0.6841
X9.9052Y-0.6841
X6.7857Y0.8159
X7.0928Y0.8159
X7.7232Y-1.4341
X8.0303Y-1.4341
X0.7857Y0.8159
X1.0928Y0.8159
X12.0357Y0.8159
X12.3428Y0.8159
X8.5669Y-2.1841
X8.874Y-2.1841
X13.8169Y-0.6841
X14.124Y-0.6841
X5.6607Y0.0659
X5.9678Y0.0659
X13.0669Y0.0659
X13.374Y0.0659
T2
X1.3914Y0.9235
X1.3914Y0.8235
X1.3914Y0.7235
X1.3914Y0.6235
X1.3914Y0.5235
X1.3914Y0.4235
X1.3914Y0.3235
X1.3914Y0.2235
X1.3914Y0.1235
X1.3914Y0.0235
X1.3914Y-0.0765
X1.3914Y-0.1765
X1.9914Y0.9235
X1.9914Y0.8235
X1.9914Y0.7235
X1.9914Y0.6235
X1.9914Y0.5235
X1.9914Y0.4235
X1.9914Y0.3235
X1.9914Y0.2235
X1.9914Y0.1235
X1.9914Y0.0235
X1.9914Y-0.0765
X1.9914Y-0.1765
T3
X2.2892Y-1.7091
X2.3408Y-1.6516
X2.5376Y-1.6319
X2.5392Y-1.6091
X2.9892Y-0.5841
X3.0121Y-0.5856
X3.0317Y-0.7825
X3.0892Y-0.8341
X8.6642Y-0.2091
X8.7158Y-0.1516
X8.9126Y-0.1319
X8.9142Y-0.1091
X0.7892Y0.5409
X0.8408Y0.5984
X1.0376Y0.6181
X1.0392Y0.6409
X5.1017Y-0.9591
X5.1533Y-0.9016
X5.3501Y-0.8819
X5.3517Y-0.8591
X4.258Y-1.7091
X4.3095Y-1.6516
X4.5064Y-1.6319
X4.508Y-1.6091
X8.2892Y0.5409
X8.3408Y0.5984
X8.5376Y0.6181
X8.5392Y0.6409
X3.9767Y-0.2091
X4.0283Y-0.1516
X4.2252Y-0.1319
X4.2267Y-0.1091
X5.758Y-2.4591
X5.8095Y-2.4016
X6.0064Y-2.3819
X6.008Y-2.3591
X12.7892Y0.5409
X12.8408Y0.5984
X13.0376Y0.6181
X13.0392Y0.6409
X10.5392Y0.5409
X10.5908Y0.5984
X10.7876Y0.6181
X10.7892Y0.6409
X7.7267Y-1.7091
X7.7783Y-1.6516
X7.9752Y-1.6319
X7.9767Y-1.6091
X3.883Y-2.4591
X3.9345Y-2.4016
X4.1314Y-2.3819
X4.133Y-2.3591
X14.1955Y-2.4591
X14.247Y-2.4016
X14.4439Y-2.3819
X14.4455Y-2.3591
X9.7892Y0.5409
X9.8408Y0.5984
X10.0376Y0.6181
X10.0392Y0.6409
X11.8517Y-0.9591
X11.9033Y-0.9016
X12.1001Y-0.8819
X12.1017Y-0.8591
X0.7892Y-0.9591
X0.8408Y-0.9016
X1.0376Y-0.8819
X1.0392Y-0.8591
X9.4142Y-0.2091
X9.4658Y-0.1516
X9.6626Y-0.1319
X9.6642Y-0.1091
X14.1017Y-0.2091
X14.1533Y-0.1516
X14.3501Y-0.1319
X14.3517Y-0.1091
X12.6017Y-0.9591
X12.6533Y-0.9016
X12.8501Y-0.8819
X12.8517Y-0.8591
X13.9142Y0.5409
X13.9658Y0.5984
X14.1626Y0.6181
X14.1642Y0.6409
X10.9142Y-0.2091
X10.9658Y-0.1516
X11.1626Y-0.1319
X11.1642Y-0.1091
X6.4142Y-0.2091
X6.4658Y-0.1516
X6.6626Y-0.1319
X6.6642Y-0.1091
X11.1017Y-0.9591
X11.1533Y-0.9016
X11.3501Y-0.8819
X11.3517Y-0.8591
X5.2892Y0.5409
X5.3408Y0.5984
X5.5376Y0.6181
X5.5392Y0.6409
X11.6642Y-0.2091
X11.7158Y-0.1516
X11.9126Y-0.1319
X11.9142Y-0.1091
X8.5705Y-2.4591
X8.622Y-2.4016
X8.8189Y-2.3819
X8.8205Y-2.3591
X9.6017Y-0.9591
X9.6533Y-0.9016
X9.8501Y-0.8819
X9.8517Y-0.8591
X2.2892Y-0.9591
X2.3408Y-0.9016
X2.5376Y-0.8819
X2.5392Y-0.8591
X7.3517Y-0.9591
X7.4033Y-0.9016
X7.6001Y-0.8819
X7.6017Y-0.8591
X7.5392Y0.5409
X7.5908Y0.5984
X7.7876Y0.6181
X7.7892Y0.6409
X2.2892Y-2.4591
X2.3408Y-2.4016
X2.5376Y-2.3819
X2.5392Y-2.3591
X9.0392Y0.5409
X9.0908Y0.5984
X9.2876Y0.6181
X9.2892Y0.6409
X8.1017Y-0.9591
X8.1533Y-0.9016
X8.3501Y-0.8819
X8.3517Y-0.8591
X6.6017Y-0.9591
X6.6533Y-0.9016
X6.8501Y-0.8819
X6.8517Y-0.8591
X4.9142Y-0.2091
X4.9658Y-0.1516
X5.1626Y-0.1319
X5.1642Y-0.1091
X2.2892Y0.5409
X2.3408Y0.5984
X2.5376Y0.6181
X2.5392Y0.6409
X13.258Y-2.4591
X13.3095Y-2.4016
X13.5064Y-2.3819
X13.508Y-2.3591
X8.8517Y-0.9591
X8.9033Y-0.9016
X9.1001Y-0.8819
X9.1017Y-0.8591
X12.2267Y-1.7091
X12.2783Y-1.6516
X12.4752Y-1.6319
X12.4767Y-1.6091
X9.9767Y-1.7091
X10.0283Y-1.6516
X10.2252Y-1.6319
X10.2267Y-1.6091
X2.9892Y-2.0841
X3.0121Y-2.0856
X3.0317Y-2.2825
X3.0892Y-2.3341
X5.4767Y-1.7091
X5.5283Y-1.6516
X5.7252Y-1.6319
X5.7267Y-1.6091
X0.7892Y-0.2091
X0.8408Y-0.1516
X1.0376Y-0.1319
X1.0392Y-0.1091
X10.1642Y-0.2091
X10.2158Y-0.1516
X10.4126Y-0.1319
X10.4142Y-0.1091
X10.7267Y-1.7091
X10.7783Y-1.6516
X10.9752Y-1.6319
X10.9767Y-1.6091
X4.5392Y0.5409
X4.5908Y0.5984
X4.7876Y0.6181
X4.7892Y0.6409
X7.1642Y-0.2091
X7.2158Y-0.1516
X7.4126Y-0.1319
X7.4142Y-0.1091
X3.7892Y0.5409
X3.8408Y0.5984
X4.0376Y0.6181
X4.0392Y0.6409
X1.5392Y-0.9591
X1.5908Y-0.9016
X1.7876Y-0.8819
X1.7892Y-0.8591
X9.2267Y-1.7091
X9.2783Y-1.6516
X9.4752Y-1.6319
X9.4767Y-1.6091
X1.5392Y-1.7091
X1.5908Y-1.6516
X1.7876Y-1.6319
X1.7892Y-1.6091
X4.8205Y-2.4591
X4.872Y-2.4016
X5.0689Y-2.3819
X5.0705Y-2.3591
X5.8517Y-0.9591
X5.9033Y-0.9016
X6.1001Y-0.8819
X6.1017Y-0.8591
X11.383Y-2.4591
X11.4345Y-2.4016
X11.6314Y-2.3819
X11.633Y-2.3591
X1.1642Y-2.4591
X1.2158Y-2.4016
X1.4126Y-2.3819
X1.4142Y-2.3591
X6.9767Y-1.7091
X7.0283Y-1.6516
X7.2252Y-1.6319
X7.2267Y-1.6091
X10.3517Y-0.9591
X10.4033Y-0.9016
X10.6001Y-0.8819
X10.6017Y-0.8591
X5.6642Y-0.2091
X5.7158Y-0.1516
X5.9126Y-0.1319
X5.9142Y-0.1091
X11.2892Y0.5409
X11.3408Y0.5984
X11.5376Y0.6181
X11.5392Y0.6409
X1.5392Y-0.2091
X1.5908Y-0.1516
X1.7876Y-0.1319
X1.7892Y-0.1091
X2.2892Y-0.2091
X2.3408Y-0.1516
X2.5376Y-0.1319
X2.5392Y-0.1091
X6.2267Y-1.7091
X6.2783Y-1.6516
X6.4752Y-1.6319
X6.4767Y-1.6091
X0.7892Y-1.7091
X0.8408Y-1.6516
X1.0376Y-1.6319
X1.0392Y-1.6091
X3.0392Y0.5409
X3.0908Y0.5984
X3.2876Y0.6181
X3.2892Y0.6409
X12.0392Y0.5409
X12.0908Y0.5984
X12.2876Y0.6181
X12.2892Y0.6409
X13.1642Y-0.2091
X13.2158Y-0.1516
X13.4126Y-0.1319
X13.4142Y-0.1091
X13.633Y-1.7091
X13.6845Y-1.6516
X13.8814Y-1.6319
X13.883Y-1.6091
X13.8205Y-0.9591
X13.872Y-0.9016
X14.0689Y-0.8819
X14.0705Y-0.8591
X6.7892Y0.5409
X6.8408Y0.5984
X7.0376Y0.6181
X7.0392Y0.6409
X8.4767Y-1.7091
X8.5283Y-1.6516
X8.7252Y-1.6319
X8.7267Y-1.6091
X1.5392Y0.5409
X1.5908Y0.5984
X1.7876Y0.6181
X1.7892Y0.6409
X6.0392Y0.5409
X6.0908Y0.5984
X6.2876Y0.6181
X6.2892Y0.6409
X4.0705Y-0.9591
X4.122Y-0.9016
X4.3189Y-0.8819
X4.3205Y-0.8591
X12.4142Y-0.2091
X12.4658Y-0.1516
X12.6626Y-0.1319
X12.6642Y-0.1091
X7.9142Y-0.2091
X7.9658Y-0.1516
X8.1626Y-0.1319
X8.1642Y-0.1091
X12.3205Y-2.4591
X12.372Y-2.4016
X12.5689Y-2.3819
X12.5705Y-2.3591
X11.4767Y-1.7091
X11.5283Y-1.6516
X11.7252Y-1.6319
X11.7267Y-1.6091
T4
X5.4267Y-1.8091
X5.8267Y-1.8091
X0.7392Y-0.3091
X1.1392Y-0.3091
X10.1142Y-0.3091
X10.5142Y-0.3091
X10.6767Y-1.8091
X11.0767Y-1.8091
X4.4892Y0.4409
X4.8892Y0.4409
X7.1142Y-0.3091
X7.5142Y-0.3091
X3.7392Y0.4409
X4.1392Y0.4409
X1.4892Y-1.0591
X1.8892Y-1.0591
X9.1767Y-1.8091
X9.5767Y-1.8091
X1.4892Y-1.8091
X1.8892Y-1.8091
X4.7705Y-2.5591
X5.1705Y-2.5591
X5.8017Y-1.0591
X6.2017Y-1.0591
X11.333Y-2.5591
X11.733Y-2.5591
X1.1142Y-2.5591
X1.5142Y-2.5591
X6.9267Y-1.8091
X7.3267Y-1.8091
X10.3017Y-1.0591
X10.7017Y-1.0591
X5.6142Y-0.3091
X6.0142Y-0.3091
X11.2392Y0.4409
X11.6392Y0.4409
X1.4892Y-0.3091
X1.8892Y-0.3091
X2.2392Y-0.3091
X2.6392Y-0.3091
X6.1767Y-1.8091
X6.5767Y-1.8091
X0.7392Y-1.8091
X1.1392Y-1.8091
X2.9892Y0.4409
X3.3892Y0.4409
X11.9892Y0.4409
X12.3892Y0.4409
X13.1142Y-0.3091
X13.5142Y-0.3091
X13.583Y-1.8091
X13.983Y-1.8091
X13.7705Y-1.0591
X14.1705Y-1.0591
X6.7392Y0.4409
X7.1392Y0.4409
X8.4267Y-1.8091
X8.8267Y-1.8091
X1.4892Y0.4409
X1.8892Y0.4409
X5.9892Y0.4409
X6.3892Y0.4409
X4.0205Y-1.0591
X4.4205Y-1.0591
X12.3642Y-0.3091
X12.7642Y-0.3091
X7.8642Y-0.3091
X8.2642Y-0.3091
X12.2705Y-2.5591
X12.6705Y-2.5591
X11.4267Y-1.8091
X11.8267Y-1.8091
X2.2392Y-1.8091
X2.6392Y-1.8091
X3.1892Y-0.4841
X3.1892Y-0.8841
X8.6142Y-0.3091
X9.0142Y-0.3091
X0.7392Y0.4409
X1.1392Y0.4409
X5.0517Y-1.0591
X5.4517Y-1.0591
X4.208Y-1.8091
X4.608Y-1.8091
X8.2392Y0.4409
X8.6392Y0.4409
X3.9267Y-0.3091
X4.3267Y-0.3091
X5.708Y-2.5591
X6.108Y-2.5591
X12.7392Y0.4409
X13.1392Y0.4409
X10.4892Y0.4409
X10.8892Y0.4409
X7.6767Y-1.8091
X8.0767Y-1.8091
X3.833Y-2.5591
X4.233Y-2.5591
X14.1455Y-2.5591
X14.5455Y-2.5591
X9.7392Y0.4409
X10.1392Y0.4409
X11.8017Y-1.0591
X12.2017Y-1.0591
X0.7392Y-1.0591
X1.1392Y-1.0591
X9.3642Y-0.3091
X9.7642Y-0.3091
X14.0517Y-0.3091
X14.4517Y-0.3091
X12.5517Y-1.0591
X12.9517Y-1.0591
X13.8642Y0.4409
X14.2642Y0.4409
X10.8642Y-0.3091
X11.2642Y-0.3091
X6.3642Y-0.3091
X6.7642Y-0.3091
X11.0517Y-1.0591
X11.4517Y-1.0591
X5.2392Y0.4409
X5.6392Y0.4409
X11.6142Y-0.3091
X12.0142Y-0.3091
X8.5205Y-2.5591
X8.9205Y-2.5591
X9.5517Y-1.0591
X9.9517Y-1.0591
X2.2392Y-1.0591
X2.6392Y-1.0591
X7.3017Y-1.0591
X7.7017Y-1.0591
X7.4892Y0.4409
X7.8892Y0.4409
X2.2392Y-2.5591
X2.6392Y-2.5591
X8.9892Y0.4409
X9.3892Y0.4409
X8.0517Y-1.0591
X8.4517Y-1.0591
X6.5517Y-1.0591
X6.9517Y-1.0591
X4.8642Y-0.3091
X5.2642Y-0.3091
X2.2392Y0.4409
X2.6392Y0.4409
X13.208Y-2.5591
X13.608Y-2.5591
X8.8017Y-1.0591
X9.2017Y-1.0591
X12.1767Y-1.8091
X12.5767Y-1.8091
X9.9267Y-1.8091
X10.3267Y-1.8091
X3.1892Y-1.9841
X3.1892Y-2.3841
T5
X13.313Y-1.5341
X14.253Y-1.5341
X13.5005Y-0.7841
X14.4405Y-0.7841
X2.9142Y-0.2141
X2.9142Y-1.1541
X3.938Y-1.5341
X4.878Y-1.5341
X13.5942Y0.7159
X14.5342Y0.7159
X6.752Y-2.2841
X10.689Y-2.2841
X2.9142Y-1.7141
X2.9142Y-2.6541
X0.8442Y-2.2841
X1.7842Y-2.2841
T6
X4.9705Y-2.5591
X6.0017Y-1.0591
X11.533Y-2.5591
X0.8442Y-2.8841
X1.3142Y-2.5591
X1.7842Y-2.8841
X7.1267Y-1.8091
X10.5017Y-1.0591
X5.8142Y-0.3091
X11.4392Y0.4409
X1.6892Y-0.3091
X2.4392Y-0.3091
X6.3767Y-1.8091
X0.9392Y-1.8091
X3.1892Y0.4409
X12.1892Y0.4409
X13.3142Y-0.3091
X13.313Y-2.1341
X13.783Y-1.8091
X14.253Y-2.1341
X13.5005Y-1.3841
X13.9705Y-1.0591
X14.4405Y-1.3841
X6.9392Y0.4409
X8.6267Y-1.8091
X1.6892Y0.4409
X6.1892Y0.4409
X4.2205Y-1.0591
X12.5642Y-0.3091
X8.0642Y-0.3091
X12.4705Y-2.5591
X11.6267Y-1.8091
X2.4392Y-1.8091
X3.1892Y-0.6841
X3.5142Y-0.2141
X3.5142Y-1.1541
X8.8142Y-0.3091
X0.9392Y0.4409
X5.2517Y-1.0591
X3.938Y-2.1341
X4.408Y-1.8091
X4.878Y-2.1341
X8.4392Y0.4409
X4.1267Y-0.3091
X5.908Y-2.5591
X12.9392Y0.4409
X10.6892Y0.4409
X7.8767Y-1.8091
X4.033Y-2.5591
X14.3455Y-2.5591
X9.9392Y0.4409
X12.0017Y-1.0591
X0.9392Y-1.0591
X9.5642Y-0.3091
X14.2517Y-0.3091
X12.7517Y-1.0591
X13.5942Y0.1159
X14.0642Y0.4409
X14.5342Y0.1159
X11.0642Y-0.3091
X6.5642Y-0.3091
X11.2517Y-1.0591
X5.4392Y0.4409
X11.8142Y-0.3091
X6.752Y-2.8841
X8.7205Y-2.5591
X10.689Y-2.8841
X9.7517Y-1.0591
X2.4392Y-1.0591
X7.5017Y-1.0591
X7.6892Y0.4409
X2.4392Y-2.5591
X9.1892Y0.4409
X8.2517Y-1.0591
X6.7517Y-1.0591
X5.0642Y-0.3091
X2.4392Y0.4409
X13.408Y-2.5591
X9.0017Y-1.0591
X12.3767Y-1.8091
X10.1267Y-1.8091
X3.1892Y-2.1841
X3.5142Y-1.7141
X3.5142Y-2.6541
X5.6267Y-1.8091
X0.9392Y-0.3091
X10.3142Y-0.3091
X10.8767Y-1.8091
X4.6892Y0.4409
X7.3142Y-0.3091
X3.9392Y0.4409
X1.6892Y-1.0591
X9.3767Y-1.8091
X1.6892Y-1.8091
T0
M30
